<?xml version="1.0" encoding="UTF-8"?>
<svg width="70px" height="58px" viewBox="0 0 70 58" version="1.1" xmlns="http://www.w3.org/2000/svg" xmlns:xlink="http://www.w3.org/1999/xlink">
    <!-- Generator: Sketch 40 (33762) - http://www.bohemiancoding.com/sketch -->
    <title>ic_delivering</title>
    <desc>Created with Sketch.</desc>
    <defs></defs>
    <g id="Page-1" stroke="none" stroke-width="1" fill="none" fill-rule="evenodd">
        <g id="Desktop-HD" transform="translate(-1190.000000, -1903.000000)" fill="#5CA0DF">
            <g id="work-process" transform="translate(0.000000, 1664.000000)">
                <g id="delivering" transform="translate(1136.000000, 208.000000)">
                    <g id="ic_delivering" transform="translate(54.000000, 31.000000)">
                        <path d="M66.8818,42.3936 L2.2288,42.3936 L2.2288,5.6076 C2.2288,3.7646 3.7288,2.2636 5.5718,2.2636 L63.5378,2.2636 C65.3818,2.2636 66.8818,3.7646 66.8818,5.6076 L66.8818,42.3936 Z M66.8818,45.7366 C66.8818,47.5806 65.3818,49.0796 63.5378,49.0796 L5.5718,49.0796 C3.7288,49.0796 2.2288,47.5806 2.2288,45.7366 L2.2288,44.6226 L66.8818,44.6226 L66.8818,45.7366 Z M22.2948,55.7706 L46.8178,55.7706 L46.8178,51.3096 L22.2948,51.3096 L22.2948,55.7706 Z M63.5378,0.0346 L5.5718,0.0346 C2.4998,0.0346 -0.0002,2.5346 -0.0002,5.6076 L-0.0002,45.7366 C-0.0002,48.8116 2.4998,51.3096 5.5718,51.3096 L20.0648,51.3096 L20.0648,55.7706 L15.6078,55.7706 L15.6078,57.9996 L53.5058,57.9996 L53.5058,55.7706 L49.0478,55.7706 L49.0478,51.3096 L63.5378,51.3096 C66.6108,51.3096 69.1108,48.8116 69.1108,45.7366 L69.1108,5.6076 C69.1108,2.5346 66.6108,0.0346 63.5378,0.0346 L63.5378,0.0346 Z" id="Fill-1"></path>
                        <path d="M6.689,37.935 L62.422,37.935 L62.422,15.64 L6.689,15.64 L6.689,37.935 Z M6.689,13.411 L62.422,13.411 L62.422,6.722 L6.689,6.722 L6.689,13.411 Z M4.459,40.163 L64.653,40.163 L64.653,4.492 L4.459,4.492 L4.459,40.163 Z" id="Fill-4"></path>
                        <polygon id="Fill-6" points="8.917 11.18 11.147 11.18 11.147 8.951 8.917 8.951"></polygon>
                        <polygon id="Fill-7" points="13.376 11.18 15.607 11.18 15.607 8.951 13.376 8.951"></polygon>
                        <polygon id="Fill-8" points="17.834 11.18 20.064 11.18 20.064 8.951 17.834 8.951"></polygon>
                        <polygon id="Fill-9" points="13.376 22.3271 13.376 23.4421 14.661 31.2461 17.41 31.2461 18.948 28.1651 20.491 31.2461 23.237 31.2461 24.508 23.6261 24.524 22.3271 22.294 22.3271 22.294 23.3501 21.48 28.2381 18.948 23.1811 16.419 28.2381 15.607 23.3501 15.607 22.3271"></polygon>
                        <polygon id="Fill-10" points="44.5879 22.3271 44.5879 23.4421 45.8739 31.2461 48.6199 31.2461 50.1619 28.1651 51.7019 31.2461 54.4479 31.2461 55.7199 23.6261 55.7359 22.3271 53.5059 22.3271 53.5059 23.3501 52.6919 28.2381 50.1619 23.1811 47.6319 28.2381 46.8169 23.3501 46.8169 22.3271"></polygon>
                        <polygon id="Fill-11" points="28.9824 22.3271 28.9824 23.4421 30.2674 31.2461 33.0164 31.2461 34.5564 28.1651 36.0954 31.2461 38.8434 31.2461 40.1144 23.6261 40.1274 22.3271 37.9004 22.3271 37.9004 23.3501 37.0864 28.2381 34.5564 23.1811 32.0234 28.2381 31.2114 23.3501 31.2114 22.3271"></polygon>
                        <polygon id="Fill-12" points="8.917 20.099 60.193 20.099 60.193 17.87 8.917 17.87"></polygon>
                        <polygon id="Fill-13" points="8.917 35.705 60.193 35.705 60.193 33.476 8.917 33.476"></polygon>
                        <polygon id="Fill-14" points="25.638 31.246 27.868 31.246 27.868 29.016 25.638 29.016"></polygon>
                        <polygon id="Fill-15" points="41.243 31.246 43.474 31.246 43.474 29.016 41.243 29.016"></polygon>
                    </g>
                </g>
            </g>
        </g>
    </g>
</svg>