<?xml version="1.0" encoding="UTF-8"?>
<svg width="64px" height="71px" viewBox="0 0 64 71" version="1.1" xmlns="http://www.w3.org/2000/svg" xmlns:xlink="http://www.w3.org/1999/xlink">
    <!-- Generator: Sketch 40 (33762) - http://www.bohemiancoding.com/sketch -->
    <title>ic_feedback</title>
    <desc>Created with Sketch.</desc>
    <defs></defs>
    <g id="Page-1" stroke="none" stroke-width="1" fill="none" fill-rule="evenodd">
        <g id="Desktop-HD" transform="translate(-981.000000, -1898.000000)" fill="#5CA0DF">
            <g id="work-process" transform="translate(0.000000, 1664.000000)">
                <g id="feedback" transform="translate(926.000000, 208.000000)">
                    <g id="ic_feedback" transform="translate(55.000000, 26.000000)">
                        <path d="M23.1299,23.1444 C18.6019,23.1444 14.9159,19.4594 14.9159,14.9314 C14.9159,10.4004 18.6019,6.7154 23.1299,6.7154 C27.6609,6.7154 31.3439,10.4004 31.3439,14.9314 C31.3439,19.4594 27.6609,23.1444 23.1299,23.1444 M23.1299,4.2814 C17.2609,4.2814 12.4839,9.0594 12.4839,14.9314 C12.4839,20.8004 17.2609,25.5794 23.1299,25.5794 C29.0019,25.5794 33.7789,20.8004 33.7789,14.9314 C33.7789,9.0594 29.0019,4.2814 23.1299,4.2814" id="Fill-1"></path>
                        <path d="M19.8145,13.538 C20.0435,13.31 20.1715,12.998 20.1715,12.678 C20.1715,12.356 20.0435,12.043 19.8145,11.815 C19.5885,11.591 19.2755,11.46 18.9565,11.46 C18.6345,11.46 18.3195,11.591 18.0935,11.815 C17.8665,12.043 17.7365,12.356 17.7365,12.678 C17.7365,12.998 17.8665,13.31 18.0935,13.538 C18.3195,13.765 18.6345,13.895 18.9565,13.895 C19.2755,13.895 19.5885,13.765 19.8145,13.538" id="Fill-3"></path>
                        <path d="M27.3057,11.4598 C26.9867,11.4598 26.6737,11.5908 26.4477,11.8148 C26.2187,12.0428 26.0877,12.3558 26.0877,12.6778 C26.0877,12.9978 26.2187,13.3108 26.4477,13.5378 C26.6737,13.7648 26.9867,13.8958 27.3057,13.8958 C27.6267,13.8958 27.9407,13.7638 28.1677,13.5378 C28.3927,13.3108 28.5247,12.9978 28.5247,12.6778 C28.5247,12.3558 28.3927,12.0428 28.1677,11.8148 C27.9407,11.5908 27.6267,11.4598 27.3057,11.4598" id="Fill-5"></path>
                        <path d="M25.2412,16.3348 C24.0782,17.4988 22.1842,17.4988 21.0212,16.3348 C20.5462,15.8588 19.7742,15.8588 19.2982,16.3348 C18.8242,16.8098 18.8242,17.5798 19.2982,18.0558 C20.3542,19.1118 21.7432,19.6408 23.1302,19.6408 C24.5192,19.6408 25.9072,19.1118 26.9642,18.0558 C27.4402,17.5798 27.4402,16.8098 26.9642,16.3348 C26.4882,15.8588 25.7172,15.8588 25.2412,16.3348" id="Fill-7"></path>
                        <path d="M15.8272,27.4159 L15.8272,27.4159 C15.6242,27.4159 15.4272,27.4649 15.2492,27.5589 L6.3322,32.3599 L8.1192,29.2349 C8.3332,28.8589 8.3312,28.3959 8.1142,28.0199 C7.8952,27.6449 7.4952,27.4159 7.0602,27.4159 L6.0552,27.4159 C4.0592,27.4159 2.4332,25.7909 2.4332,23.7939 L2.4332,6.0579 C2.4342,4.0609 4.0592,2.4369 6.0552,2.4369 L40.2062,2.4369 C42.2032,2.4369 43.8282,4.0609 43.8282,6.0579 L43.8282,23.7939 C43.8282,25.7909 42.2032,27.4159 40.2062,27.4159 L15.8272,27.4159 Z M46.2632,23.7939 L46.2632,6.0579 C46.2632,2.7179 43.5452,-0.0001 40.2062,-0.0001 L6.0552,-0.0001 C2.7162,-0.0001 0.0002,2.7179 0.0002,6.0579 L0.0002,23.7939 C0.0002,26.7769 2.1702,29.2649 5.0142,29.7599 L2.1072,34.8449 C1.8382,35.3169 1.9142,35.9099 2.2952,36.2989 C2.5282,36.5399 2.8452,36.6679 3.1652,36.6679 C3.3612,36.6679 3.5612,36.6189 3.7412,36.5209 L16.1332,29.8489 L40.2062,29.8489 C43.5452,29.8489 46.2632,27.1319 46.2632,23.7939 L46.2632,23.7939 Z" id="Fill-9"></path>
                        <path d="M60.71,57.1962 C60.71,59.1912 59.084,60.8162 57.087,60.8162 L56.083,60.8162 C55.649,60.8162 55.249,61.0462 55.03,61.4212 C54.813,61.7982 54.812,62.2612 55.027,62.6372 L56.813,65.7622 L47.896,60.9622 C47.718,60.8672 47.52,60.8162 47.315,60.8162 L22.938,60.8162 C20.94,60.8162 19.316,59.1912 19.316,57.1962 L19.316,39.4582 C19.316,37.4622 20.94,35.8382 22.938,35.8382 L57.087,35.8382 C59.084,35.8382 60.71,37.4622 60.71,39.4582 L60.71,57.1962 Z M57.087,33.4022 L22.938,33.4022 C19.598,33.4022 16.88,36.1192 16.88,39.4582 L16.88,57.1962 C16.88,60.5342 19.598,63.2512 22.938,63.2512 L47.011,63.2512 L59.402,69.9232 C59.583,70.0212 59.782,70.0692 59.978,70.0672 C60.299,70.0672 60.616,69.9442 60.851,69.7012 C61.23,69.3122 61.306,68.7192 61.036,68.2492 L58.131,63.1622 C60.975,62.6682 63.144,60.1802 63.144,57.1962 L63.144,39.4582 C63.144,36.1192 60.428,33.4022 57.087,33.4022 L57.087,33.4022 Z" id="Fill-12"></path>
                        <path d="M40.0127,56.8973 C35.4837,56.8973 31.7987,53.2113 31.7987,48.6833 C31.7987,44.1543 35.4837,40.4683 40.0127,40.4683 C44.5407,40.4683 48.2277,44.1543 48.2277,48.6833 C48.2277,53.2133 44.5407,56.8973 40.0127,56.8973 M40.0127,38.0343 C34.1407,38.0343 29.3637,42.8113 29.3637,48.6833 C29.3637,54.5553 34.1407,59.3333 40.0127,59.3333 C45.8847,59.3333 50.6617,54.5553 50.6617,48.6833 C50.6617,42.8113 45.8847,38.0343 40.0127,38.0343" id="Fill-14"></path>
                        <path d="M35.8369,47.6473 C36.1579,47.6473 36.4719,47.5173 36.6969,47.2913 C36.9229,47.0643 37.0539,46.7513 37.0539,46.4303 C37.0539,46.1093 36.9229,45.7973 36.6969,45.5693 C36.4719,45.3423 36.1579,45.2133 35.8369,45.2133 C35.5149,45.2133 35.2029,45.3423 34.9759,45.5693 C34.7489,45.7973 34.6179,46.1093 34.6179,46.4303 C34.6179,46.7513 34.7489,47.0643 34.9759,47.2913 C35.2029,47.5173 35.5149,47.6473 35.8369,47.6473" id="Fill-16"></path>
                        <path d="M44.1885,45.2128 C43.8685,45.2128 43.5555,45.3428 43.3275,45.5688 C43.0995,45.7948 42.9715,46.1088 42.9715,46.4308 C42.9715,46.7508 43.0995,47.0648 43.3275,47.2908 C43.5555,47.5178 43.8685,47.6468 44.1885,47.6468 C44.5105,47.6468 44.8235,47.5178 45.0505,47.2908 C45.2765,47.0648 45.4045,46.7508 45.4045,46.4308 C45.4045,46.1088 45.2765,45.7948 45.0505,45.5688 C44.8235,45.3428 44.5105,45.2128 44.1885,45.2128" id="Fill-18"></path>
                        <path d="M40.0127,52.8329 C38.9047,52.8329 37.9457,52.1869 37.4927,51.2509 L42.5337,51.2509 C42.0797,52.1869 41.1207,52.8329 40.0127,52.8329 M44.0307,48.8159 L35.9947,48.8159 C35.3237,48.8159 34.7787,49.3609 34.7787,50.0339 C34.7787,52.9209 37.1257,55.2689 40.0127,55.2689 C42.8987,55.2689 45.2467,52.9209 45.2467,50.0339 C45.2467,49.3609 44.7017,48.8159 44.0307,48.8159" id="Fill-20"></path>
                    </g>
                </g>
            </g>
        </g>
    </g>
</svg>