<?xml version="1.0" encoding="UTF-8"?>
<svg width="59px" height="60px" viewBox="0 0 59 60" version="1.1" xmlns="http://www.w3.org/2000/svg" xmlns:xlink="http://www.w3.org/1999/xlink">
    <!-- Generator: Sketch 40 (33762) - http://www.bohemiancoding.com/sketch -->
    <title>ic_implementation</title>
    <desc>Created with Sketch.</desc>
    <defs></defs>
    <g id="Page-1" stroke="none" stroke-width="1" fill="none" fill-rule="evenodd">
        <g id="Desktop-HD" transform="translate(-774.000000, -1902.000000)" fill="#5CA0DF">
            <g id="work-process" transform="translate(0.000000, 1664.000000)">
                <g id="implementation" transform="translate(722.000000, 208.000000)">
                    <g id="ic_implementation" transform="translate(52.000000, 30.000000)">
                        <path d="M2.36769231,32.3328923 L55.6412308,32.3328923 L55.6412308,9.90766154 L2.36769231,9.90766154 L2.36769231,32.3328923 Z M56.8236923,7.4652 L30.1892308,7.4652 L30.1892308,0.000276923077 L27.8196923,0.000276923077 L27.8196923,7.4652 L1.18430769,7.4652 C0.530769231,7.4652 0,8.01166154 0,8.68735385 L0,33.5550462 C0,34.2298154 0.530769231,34.7772 1.18430769,34.7772 L56.8236923,34.7772 C57.4781538,34.7772 58.0098462,34.2298154 58.0098462,33.5550462 L58.0098462,8.68735385 C58.0098462,8.01166154 57.4781538,7.4652 56.8236923,7.4652 L56.8236923,7.4652 Z" id="Fill-1"></path>
                        <path d="M6.77612308,15.6057231 L9.14473846,15.6057231 C9.7992,15.6057231 10.3308923,15.0583385 10.3308923,14.3835692 C10.3308923,13.7097231 9.7992,13.1623385 9.14473846,13.1623385 L6.77612308,13.1623385 C6.12258462,13.1623385 5.59273846,13.7097231 5.59273846,14.3835692 C5.59273846,15.0583385 6.12258462,15.6057231 6.77612308,15.6057231" id="Fill-3"></path>
                        <path d="M13.7902154,15.6057231 L16.1588308,15.6057231 C16.8123692,15.6057231 17.3440615,15.0583385 17.3440615,14.3835692 C17.3440615,13.7097231 16.8123692,13.1623385 16.1588308,13.1623385 L13.7902154,13.1623385 C13.1376,13.1623385 12.6068308,13.7097231 12.6068308,14.3835692 C12.6068308,15.0583385 13.1376,15.6057231 13.7902154,15.6057231" id="Fill-4"></path>
                        <path d="M20.8052308,15.6057231 L23.1738462,15.6057231 C23.8283077,15.6057231 24.3590769,15.0583385 24.3590769,14.3835692 C24.3590769,13.7097231 23.8283077,13.1623385 23.1738462,13.1623385 L20.8052308,13.1623385 C20.1507692,13.1623385 19.6227692,13.7097231 19.6227692,14.3835692 C19.6227692,15.0583385 20.1507692,15.6057231 20.8052308,15.6057231" id="Fill-5"></path>
                        <path d="M27.8194154,15.6057231 L30.1889538,15.6057231 C30.8424923,15.6057231 31.3723385,15.0583385 31.3723385,14.3835692 C31.3723385,13.7097231 30.8424923,13.1623385 30.1889538,13.1623385 L27.8194154,13.1623385 C27.1658769,13.1623385 26.6369538,13.7097231 26.6369538,14.3835692 C26.6369538,15.0583385 27.1658769,15.6057231 27.8194154,15.6057231" id="Fill-6"></path>
                        <path d="M34.8344308,15.6057231 L37.2030462,15.6057231 C37.8565846,15.6057231 38.3882769,15.0583385 38.3882769,14.3835692 C38.3882769,13.7097231 37.8565846,13.1623385 37.2030462,13.1623385 L34.8344308,13.1623385 C34.1790462,13.1623385 33.6519692,13.7097231 33.6519692,14.3835692 C33.6519692,15.0583385 34.1790462,15.6057231 34.8344308,15.6057231" id="Fill-7"></path>
                        <path d="M41.8494462,15.6057231 L44.2180615,15.6057231 C44.8706769,15.6057231 45.4032923,15.0583385 45.4032923,14.3835692 C45.4032923,13.7097231 44.8706769,13.1623385 44.2180615,13.1623385 L41.8494462,13.1623385 C41.1959077,13.1623385 40.6660615,13.7097231 40.6660615,14.3835692 C40.6660615,15.0583385 41.1959077,15.6057231 41.8494462,15.6057231" id="Fill-8"></path>
                        <path d="M48.8644615,15.6057231 L51.2312308,15.6057231 C51.8856923,15.6057231 52.4173846,15.0583385 52.4173846,14.3835692 C52.4173846,13.7097231 51.8856923,13.1623385 51.2312308,13.1623385 L48.8644615,13.1623385 C48.2090769,13.1623385 47.6801538,13.7097231 47.6801538,14.3835692 C47.6801538,15.0583385 48.2090769,15.6057231 48.8644615,15.6057231" id="Fill-9"></path>
                        <path d="M6.77612308,22.3413231 L9.14473846,22.3413231 C9.7992,22.3413231 10.3308923,21.7957846 10.3308923,21.1200923 C10.3308923,20.4444 9.7992,19.8979385 9.14473846,19.8979385 L6.77612308,19.8979385 C6.12258462,19.8979385 5.59273846,20.4444 5.59273846,21.1200923 C5.59273846,21.7957846 6.12258462,22.3413231 6.77612308,22.3413231" id="Fill-10"></path>
                        <path d="M13.7902154,22.3413231 L16.1588308,22.3413231 C16.8123692,22.3413231 17.3440615,21.7957846 17.3440615,21.1200923 C17.3440615,20.4444 16.8123692,19.8979385 16.1588308,19.8979385 L13.7902154,19.8979385 C13.1376,19.8979385 12.6068308,20.4444 12.6068308,21.1200923 C12.6068308,21.7957846 13.1376,22.3413231 13.7902154,22.3413231" id="Fill-11"></path>
                        <path d="M20.8052308,22.3413231 L23.1738462,22.3413231 C23.8283077,22.3413231 24.3590769,21.7957846 24.3590769,21.1200923 C24.3590769,20.4444 23.8283077,19.8979385 23.1738462,19.8979385 L20.8052308,19.8979385 C20.1507692,19.8979385 19.6227692,20.4444 19.6227692,21.1200923 C19.6227692,21.7957846 20.1507692,22.3413231 20.8052308,22.3413231" id="Fill-12"></path>
                        <path d="M27.8194154,22.3413231 L30.1889538,22.3413231 C30.8424923,22.3413231 31.3723385,21.7957846 31.3723385,21.1200923 C31.3723385,20.4444 30.8424923,19.8979385 30.1889538,19.8979385 L27.8194154,19.8979385 C27.1658769,19.8979385 26.6369538,20.4444 26.6369538,21.1200923 C26.6369538,21.7957846 27.1658769,22.3413231 27.8194154,22.3413231" id="Fill-13"></path>
                        <path d="M34.8344308,22.3413231 L37.2030462,22.3413231 C37.8565846,22.3413231 38.3882769,21.7957846 38.3882769,21.1200923 C38.3882769,20.4444 37.8565846,19.8979385 37.2030462,19.8979385 L34.8344308,19.8979385 C34.1790462,19.8979385 33.6519692,20.4444 33.6519692,21.1200923 C33.6519692,21.7957846 34.1790462,22.3413231 34.8344308,22.3413231" id="Fill-14"></path>
                        <path d="M41.8494462,22.3413231 L44.2180615,22.3413231 C44.8706769,22.3413231 45.4032923,21.7957846 45.4032923,21.1200923 C45.4032923,20.4444 44.8706769,19.8979385 44.2180615,19.8979385 L41.8494462,19.8979385 C41.1959077,19.8979385 40.6660615,20.4444 40.6660615,21.1200923 C40.6660615,21.7957846 41.1959077,22.3413231 41.8494462,22.3413231" id="Fill-15"></path>
                        <path d="M48.8644615,22.3413231 L51.2312308,22.3413231 C51.8856923,22.3413231 52.4173846,21.7957846 52.4173846,21.1200923 C52.4173846,20.4444 51.8856923,19.8979385 51.2312308,19.8979385 L48.8644615,19.8979385 C48.2090769,19.8979385 47.6801538,20.4444 47.6801538,21.1200923 C47.6801538,21.7957846 48.2090769,22.3413231 48.8644615,22.3413231" id="Fill-16"></path>
                        <path d="M6.77612308,29.0786769 L16.1592,29.0786769 C16.8127385,29.0786769 17.3435077,28.5322154 17.3435077,27.8574462 C17.3435077,27.1826769 16.8127385,26.6343692 16.1592,26.6343692 L6.77612308,26.6343692 C6.12258462,26.6343692 5.59273846,27.1826769 5.59273846,27.8574462 C5.59273846,28.5322154 6.12258462,29.0786769 6.77612308,29.0786769" id="Fill-17"></path>
                        <path d="M20.8052308,29.0786769 L37.2036923,29.0786769 C37.8572308,29.0786769 38.388,28.5322154 38.388,27.8574462 C38.388,27.1826769 37.8572308,26.6343692 37.2036923,26.6343692 L20.8052308,26.6343692 C20.1507692,26.6343692 19.6227692,27.1826769 19.6227692,27.8574462 C19.6227692,28.5322154 20.1507692,29.0786769 20.8052308,29.0786769" id="Fill-18"></path>
                        <path d="M41.8494462,29.0786769 L51.2316,29.0786769 C51.8860615,29.0786769 52.4168308,28.5322154 52.4168308,27.8574462 C52.4168308,27.1826769 51.8860615,26.6343692 51.2316,26.6343692 L41.8494462,26.6343692 C41.1959077,26.6343692 40.6660615,27.1826769 40.6660615,27.8574462 C40.6660615,28.5322154 41.1959077,29.0786769 41.8494462,29.0786769" id="Fill-19"></path>
                        <path d="M55.6415077,57.2992615 C55.6415077,57.4340308 55.5325846,57.5448 55.3987385,57.5448 L40.4292,57.5448 C40.2676615,57.5448 40.1845846,57.4469538 40.1845846,57.4044923 L40.1845846,48.2171077 C40.1845846,48.1746462 40.2676615,48.0795692 40.4292,48.0795692 L42.0953538,48.0795692 C42.2439692,48.0795692 42.3372,48.1709538 42.3372,48.2171077 L42.3372,51.1211077 C42.3372,51.7977231 42.8679692,52.3460308 43.5215077,52.3460308 C44.1741231,52.3460308 44.7048923,51.7977231 44.7048923,51.1211077 L44.7048923,40.5444923 C44.7048923,40.4078769 44.8147385,40.2989538 44.9476615,40.2989538 L46.6904308,40.2989538 L46.6904308,44.5128 C46.6904308,45.1875692 47.2202769,45.7358769 47.8738154,45.7358769 C48.5273538,45.7358769 49.0572,45.1875692 49.0572,44.5128 L49.0572,40.2989538 L51.2882769,40.2989538 L51.2882769,44.5128 C51.2882769,45.1875692 51.8172,45.7358769 52.4707385,45.7358769 C53.1261231,45.7358769 53.6559692,45.1875692 53.6559692,44.5128 L53.6559692,40.2989538 L55.3987385,40.2989538 C55.5335077,40.2989538 55.6415077,40.4078769 55.6415077,40.5444923 L55.6415077,57.2992615 Z M55.3987385,37.8555692 L44.9476615,37.8555692 C43.5076615,37.8555692 42.3372,39.0601846 42.3372,40.5444923 L42.3372,45.6454154 C42.2578154,45.6380308 42.1756615,45.6352615 42.0953538,45.6352615 L40.4292,45.6352615 C38.9873538,45.6352615 37.8168923,46.7918769 37.8168923,48.2171077 L37.8168923,57.4044923 C37.8168923,58.8297231 38.9873538,59.9881846 40.4292,59.9881846 L55.3987385,59.9881846 C56.8387385,59.9881846 58.0092,58.7826462 58.0092,57.2992615 L58.0092,40.5444923 C58.0092,39.0601846 56.8387385,37.8555692 55.3987385,37.8555692 L55.3987385,37.8555692 Z" id="Fill-20"></path>
                        <path d="M13.3043077,51.1225846 C13.3043077,51.7973538 13.8341538,52.3456615 14.4876923,52.3456615 C15.1403077,52.3456615 15.6710769,51.7973538 15.6710769,51.1225846 L15.6710769,48.2185846 C15.6710769,48.1715077 15.7652308,48.0792 15.9129231,48.0792 L17.5827692,48.0792 C17.7304615,48.0792 17.8236923,48.1715077 17.8236923,48.2185846 L17.8236923,57.4050462 C17.8236923,57.4539692 17.7304615,57.5444308 17.5827692,57.5444308 L2.61138462,57.5444308 C2.47753846,57.5444308 2.36769231,57.4345846 2.36769231,57.2988923 L2.36769231,40.5441231 C2.36769231,40.4084308 2.47753846,40.2985846 2.61138462,40.2985846 L4.35230769,40.2985846 L4.35230769,44.5124308 C4.35230769,45.1872 4.884,45.7355077 5.53661538,45.7355077 C6.19107692,45.7355077 6.72092308,45.1872 6.72092308,44.5124308 L6.72092308,40.2985846 L8.95015385,40.2985846 L8.95015385,44.5124308 C8.95015385,45.1872 9.48092308,45.7355077 10.1353846,45.7355077 C10.7889231,45.7355077 11.3187692,45.1872 11.3187692,44.5124308 L11.3187692,40.2985846 L13.0606154,40.2985846 C13.1953846,40.2985846 13.3043077,40.4084308 13.3043077,40.5441231 L13.3043077,51.1225846 Z M17.5827692,45.6358154 L15.9129231,45.6358154 C15.8326154,45.6358154 15.7513846,45.6385846 15.6710769,45.6450462 L15.6710769,40.5441231 C15.6710769,39.0607385 14.5006154,37.8552 13.0606154,37.8552 L2.61138462,37.8552 C1.17046154,37.8552 0,39.0607385 0,40.5441231 L0,57.2988923 C0,58.7822769 1.17046154,59.9887385 2.61138462,59.9887385 L17.5827692,59.9887385 C19.0209231,59.9887385 20.1913846,58.8302769 20.1913846,57.4050462 L20.1913846,48.2185846 C20.1913846,46.7924308 19.0209231,45.6358154 17.5827692,45.6358154 L17.5827692,45.6358154 Z" id="Fill-21"></path>
                    </g>
                </g>
            </g>
        </g>
    </g>
</svg>