<?xml version="1.0" encoding="UTF-8"?>
<svg width="69px" height="66px" viewBox="0 0 69 66" version="1.1" xmlns="http://www.w3.org/2000/svg" xmlns:xlink="http://www.w3.org/1999/xlink">
    <!-- Generator: Sketch 40 (33762) - http://www.bohemiancoding.com/sketch -->
    <title>ic_Specification </title>
    <desc>Created with Sketch.</desc>
    <defs></defs>
    <g id="Page-1" stroke="none" stroke-width="1" fill="none" fill-rule="evenodd">
        <g id="Desktop-HD" transform="translate(-348.000000, -1899.000000)" fill="#5CA0DF">
            <g id="work-process" transform="translate(0.000000, 1664.000000)">
                <g id="specification" transform="translate(306.000000, 208.000000)">
                    <g id="ic_Specification-" transform="translate(42.000000, 27.000000)">
                        <path d="M59.291,18.959 L57.432,26.395 L54.749,26.395 L52.89,18.958 L54.99,16.333 L54.99,20.895 L57.189,20.895 L57.189,16.333 L59.291,18.959 Z M50.492,18.435 L52.482,26.395 L50.591,26.395 L50.591,27.495 L50.591,28.594 L50.591,43.99 L17.598,43.99 L17.598,41.792 L19.798,41.792 L19.798,33.582 L19.934,33.503 L19.798,33.268 L19.798,32.993 L19.639,32.993 L17.598,29.459 L17.598,4.398 L50.591,4.398 L50.591,10.998 L43.992,10.998 L43.992,13.195 L49.521,13.195 C46.839,15.204 45.092,18.397 45.092,21.995 L47.293,21.995 C47.293,17.663 50.441,14.063 54.568,13.339 L50.492,18.435 Z M44.851,62.996 L35.193,62.996 L35.193,46.192 L40.891,46.192 L44.851,62.996 Z M32.994,62.996 L23.338,62.996 L27.297,46.192 L32.994,46.192 L32.994,62.996 Z M9.387,39.593 L17.006,35.193 L17.598,35.193 L17.598,39.593 L9.387,39.593 Z M8.799,25.375 L9.094,24.863 L12.902,27.063 L8.799,34.172 L8.799,25.375 Z M14.727,28.891 L16.928,32.699 L9.819,36.803 L14.217,29.185 L14.727,28.891 Z M6.6,37.393 C6.6,38.606 5.612,39.593 4.4,39.593 C3.186,39.593 2.2,38.606 2.2,37.393 L2.2,24.197 L6.6,24.197 L6.6,37.393 Z M52.791,10.998 L52.791,2.199 L35.193,2.199 L35.193,0 L32.994,0 L32.994,2.199 L15.398,2.199 L15.398,25.963 L8.799,22.152 L8.799,21.995 L8.527,21.995 L8.289,21.857 L8.209,21.995 L0,21.995 L0,37.393 C0,39.818 1.974,41.792 4.4,41.792 L15.398,41.792 L15.398,46.192 L25.053,46.192 L21.095,62.996 L0,62.996 L0,65.195 L32.994,65.195 L35.193,65.195 L63.788,65.195 L63.788,62.996 L47.094,62.996 L43.135,46.192 L52.791,46.192 L52.791,28.594 L61.589,28.594 L61.589,26.395 L59.697,26.395 L61.687,18.435 L57.611,13.339 C61.738,14.063 64.889,17.663 64.889,21.995 L67.088,21.995 C67.088,18.397 65.342,15.204 62.66,13.195 L68.187,13.195 L68.187,10.998 L52.791,10.998 Z" id="Fill-2"></path>
                        <polygon id="Fill-5" points="21.996 10.9983 24.195 10.9983 24.195 8.7993 21.996 8.7993"></polygon>
                        <polygon id="Fill-7" points="43.992 39.5923 46.192 39.5923 46.192 37.3923 43.992 37.3923"></polygon>
                        <path d="M30.5039,17.3887 C31.5779,16.8227 32.7969,16.4967 34.0939,16.4967 C38.3379,16.4967 41.7929,19.9517 41.7929,24.1977 C41.7929,26.3527 40.8969,28.3057 39.4609,29.7027 L30.5039,17.3887 Z M34.0939,31.8947 C29.8499,31.8947 26.3959,28.4397 26.3959,24.1977 C26.3959,22.0357 27.2909,20.0847 28.7289,18.6867 L37.6839,31.0007 C36.6099,31.5677 35.3909,31.8947 34.0939,31.8947 L34.0939,31.8947 Z M43.9919,24.1977 C43.9919,18.7377 39.5529,14.2967 34.0939,14.2967 C32.3149,14.2967 30.6479,14.7767 29.2029,15.6007 L26.1859,11.4497 L24.4079,12.7447 L27.4299,16.8997 C25.4469,18.7107 24.1949,21.3067 24.1949,24.1977 C24.1949,29.6547 28.6359,34.0937 34.0939,34.0937 C35.8729,34.0937 37.5409,33.6147 38.9839,32.7907 L42.0029,36.9397 L43.7809,35.6467 L40.7579,31.4907 C42.7399,29.6807 43.9919,27.0837 43.9919,24.1977 L43.9919,24.1977 Z" id="Fill-8"></path>
                    </g>
                </g>
            </g>
        </g>
    </g>
</svg>