<svg width="59" height="60" viewBox="0 0 59 60" xmlns="http://www.w3.org/2000/svg"><title>ic_implementation</title><g fill="#5CA0DF" fill-rule="evenodd"><path d="M2.368 32.333H55.64V9.908H2.368v22.425zM56.824 7.465H30.189V0h-2.37v7.465H1.185C.531 7.465 0 8.012 0 8.687v24.868c0 .675.53 1.222 1.184 1.222h55.64c.654 0 1.186-.547 1.186-1.222V8.687c0-.675-.532-1.222-1.186-1.222z"/><path d="M6.776 15.606h2.369c.654 0 1.186-.548 1.186-1.222 0-.674-.532-1.222-1.186-1.222H6.776c-.653 0-1.183.548-1.183 1.222 0 .674.53 1.222 1.183 1.222m7.014 0h2.369c.653 0 1.185-.548 1.185-1.222 0-.674-.532-1.222-1.185-1.222H13.79c-.652 0-1.183.548-1.183 1.222 0 .674.53 1.222 1.183 1.222m7.015 0h2.369c.654 0 1.185-.548 1.185-1.222 0-.674-.53-1.222-1.185-1.222h-2.369c-.654 0-1.182.548-1.182 1.222 0 .674.528 1.222 1.182 1.222m7.015 0h2.369c.653 0 1.183-.548 1.183-1.222 0-.674-.53-1.222-1.183-1.222h-2.37c-.653 0-1.182.548-1.182 1.222 0 .674.529 1.222 1.182 1.222m7.015 0h2.369c.654 0 1.185-.548 1.185-1.222 0-.674-.531-1.222-1.185-1.222h-2.369c-.655 0-1.182.548-1.182 1.222 0 .674.527 1.222 1.182 1.222m7.016 0h2.368c.653 0 1.185-.548 1.185-1.222 0-.674-.532-1.222-1.185-1.222H41.85c-.653 0-1.183.548-1.183 1.222 0 .674.53 1.222 1.183 1.222m7.014 0h2.367c.655 0 1.186-.548 1.186-1.222 0-.674-.531-1.222-1.186-1.222h-2.367c-.655 0-1.184.548-1.184 1.222 0 .674.53 1.222 1.184 1.222M6.776 22.341h2.369c.654 0 1.186-.545 1.186-1.22 0-.677-.532-1.223-1.186-1.223H6.776c-.653 0-1.183.546-1.183 1.222 0 .676.53 1.221 1.183 1.221m7.014 0h2.369c.653 0 1.185-.545 1.185-1.22 0-.677-.532-1.223-1.185-1.223H13.79c-.652 0-1.183.546-1.183 1.222 0 .676.53 1.221 1.183 1.221m7.015 0h2.369c.654 0 1.185-.545 1.185-1.22 0-.677-.53-1.223-1.185-1.223h-2.369c-.654 0-1.182.546-1.182 1.222 0 .676.528 1.221 1.182 1.221m7.015 0h2.369c.653 0 1.183-.545 1.183-1.22 0-.677-.53-1.223-1.183-1.223h-2.37c-.653 0-1.182.546-1.182 1.222 0 .676.529 1.221 1.182 1.221m7.015 0h2.369c.654 0 1.185-.545 1.185-1.22 0-.677-.531-1.223-1.185-1.223h-2.369c-.655 0-1.182.546-1.182 1.222 0 .676.527 1.221 1.182 1.221m7.016 0h2.368c.653 0 1.185-.545 1.185-1.22 0-.677-.532-1.223-1.185-1.223H41.85c-.653 0-1.183.546-1.183 1.222 0 .676.53 1.221 1.183 1.221m7.014 0h2.367c.655 0 1.186-.545 1.186-1.22 0-.677-.531-1.223-1.186-1.223h-2.367c-.655 0-1.184.546-1.184 1.222 0 .676.53 1.221 1.184 1.221M6.776 29.079h9.383c.654 0 1.185-.547 1.185-1.222 0-.674-.531-1.223-1.185-1.223H6.776c-.653 0-1.183.549-1.183 1.223 0 .675.53 1.222 1.183 1.222m14.029 0h16.399c.653 0 1.184-.547 1.184-1.222 0-.674-.53-1.223-1.184-1.223H20.805c-.654 0-1.182.549-1.182 1.223 0 .675.528 1.222 1.182 1.222m21.045 0h9.382c.654 0 1.185-.547 1.185-1.222 0-.674-.53-1.223-1.185-1.223h-9.383c-.653 0-1.183.549-1.183 1.223 0 .675.53 1.222 1.183 1.222M55.642 57.3a.245.245 0 0 1-.243.245h-14.97c-.161 0-.244-.098-.244-.14v-9.188c0-.042.083-.137.244-.137h1.666c.149 0 .242.091.242.137v2.904c0 .677.531 1.225 1.185 1.225.652 0 1.183-.548 1.183-1.225V40.544c0-.136.11-.245.243-.245h1.742v4.214c0 .675.53 1.223 1.184 1.223.653 0 1.183-.548 1.183-1.223v-4.214h2.231v4.214c0 .675.53 1.223 1.183 1.223.655 0 1.185-.548 1.185-1.223v-4.214h1.743c.135 0 .243.109.243.245V57.3zm-.243-19.444H44.948c-1.44 0-2.61 1.204-2.61 2.688v5.101a2.635 2.635 0 0 0-.243-.01H40.43c-1.442 0-2.612 1.157-2.612 2.582v9.187c0 1.426 1.17 2.584 2.612 2.584H55.4c1.44 0 2.61-1.205 2.61-2.689V40.544c0-1.484-1.17-2.688-2.61-2.688zM13.304 51.123c0 .674.53 1.223 1.184 1.223.652 0 1.183-.549 1.183-1.223v-2.904c0-.047.094-.14.242-.14h1.67c.147 0 .24.093.24.14v9.186c0 .049-.093.14-.24.14H2.61a.245.245 0 0 1-.243-.246V40.544c0-.136.11-.245.243-.245h1.741v4.213c0 .675.532 1.224 1.185 1.224.654 0 1.184-.549 1.184-1.224V40.3h2.23v4.213c0 .675.53 1.224 1.184 1.224.654 0 1.184-.549 1.184-1.224V40.3h1.742c.134 0 .243.11.243.245v10.579zm4.279-5.487h-1.67c-.08 0-.162.003-.242.009v-5.1c0-1.484-1.17-2.69-2.61-2.69H2.61c-1.44 0-2.611 1.206-2.611 2.69v16.754c0 1.483 1.17 2.69 2.611 2.69h14.972c1.438 0 2.608-1.159 2.608-2.584v-9.186c0-1.427-1.17-2.583-2.608-2.583z"/></g></svg>