<svg width="69" height="66" viewBox="0 0 69 66" xmlns="http://www.w3.org/2000/svg"><title>ic_Specification</title><g fill="#5CA0DF" fill-rule="evenodd"><path d="M59.291 18.959l-1.859 7.436h-2.683l-1.859-7.437 2.1-2.625v4.562h2.199v-4.562l2.102 2.626zm-8.799-.524l1.99 7.96h-1.891V43.99H17.598v-2.198h2.2v-8.21l.136-.079-.136-.235v-.275h-.159l-2.041-3.534V4.398h32.993v6.6h-6.599v2.197h5.529c-2.682 2.009-4.429 5.202-4.429 8.8h2.201c0-4.332 3.148-7.932 7.275-8.656l-4.076 5.096zm-5.641 44.561h-9.658V46.192h5.698l3.96 16.804zm-11.857 0h-9.656l3.959-16.804h5.697v16.804zM9.387 39.593l7.619-4.4h.592v4.4H9.387zm-.588-14.218l.295-.512 3.808 2.2-4.103 7.109v-8.797zm5.928 3.516l2.201 3.808-7.109 4.104 4.398-7.618.51-.294zM6.6 37.393c0 1.213-.988 2.2-2.2 2.2-1.214 0-2.2-.987-2.2-2.2V24.197h4.4v13.196zm46.191-26.395V2.199H35.193V0h-2.199v2.199H15.398v23.764l-6.599-3.811v-.157h-.272l-.238-.138-.08.138H0v15.398a4.405 4.405 0 0 0 4.4 4.399h10.998v4.4h9.655l-3.958 16.804H0v2.199h63.788v-2.199H47.094l-3.959-16.804h9.656V28.594h8.798v-2.199h-1.892l1.99-7.96-4.076-5.096c4.127.724 7.278 4.324 7.278 8.656h2.199c0-3.598-1.746-6.791-4.428-8.8h5.527v-2.197H52.791z"/><path d="M21.996 10.998h2.199V8.8h-2.199zm21.996 28.594h2.2v-2.2h-2.2zM30.504 17.389a7.675 7.675 0 0 1 3.59-.892c4.244 0 7.699 3.455 7.699 7.7a7.665 7.665 0 0 1-2.332 5.506l-8.957-12.314zm3.59 14.506c-4.244 0-7.698-3.455-7.698-7.697 0-2.162.895-4.113 2.333-5.511L37.684 31a7.664 7.664 0 0 1-3.59.894zm9.898-7.697c0-5.46-4.44-9.901-9.898-9.901-1.78 0-3.446.48-4.891 1.304l-3.017-4.151-1.778 1.295L27.43 16.9a9.856 9.856 0 0 0-3.235 7.298c0 5.457 4.44 9.896 9.899 9.896a9.834 9.834 0 0 0 4.89-1.303l3.019 4.149 1.778-1.293-3.023-4.156c1.982-1.81 3.234-4.407 3.234-7.293z"/></g></svg>