<svg width="76" height="52" viewBox="0 0 76 52" xmlns="http://www.w3.org/2000/svg"><title>message</title><g fill="none" fill-rule="evenodd"><path d="M1.996 0A2.004 2.004 0 0 0 0 2.007v47.986A2 2 0 0 0 1.996 52h62.688a1.998 1.998 0 0 0 1.995-1.998V34.873l3.586-3.338L76 26.193l-5.735-5.34-3.586-3.34V2.01A2.001 2.001 0 0 0 64.684 0H1.996z" fill="#FF8B00"/><path d="M39.96 25.996L52.085 15.27v21.453L39.96 25.996zm-12.213 1.39l5.32 4.706 5.32-4.705L50.38 37.995H15.755l11.992-10.608zm-1.573-1.39L14.05 36.722V15.27l12.124 10.727zm6.893 3.315L15.765 14.005H50.37L33.067 29.311zM11.975 40.085H54.16V11.917H11.975v28.168z" fill="#FFF"/></g></svg>