<svg width="32" height="27" viewBox="0 0 32 27" xmlns="http://www.w3.org/2000/svg"><title>reorder</title><path d="M31.648 22.53v2.63c0 .355-.13.663-.391.924-.261.26-.57.39-.927.39H1.319a1.27 1.27 0 0 1-.928-.39A1.262 1.262 0 0 1 0 25.159v-2.63c0-.356.13-.664.391-.924s.57-.39.928-.39h29.01c.358 0 .667.13.928.39.26.26.391.568.391.924zm0-10.52v2.63c0 .356-.13.664-.391.924s-.57.39-.927.39H1.319a1.27 1.27 0 0 1-.928-.39A1.262 1.262 0 0 1 0 14.64v-2.63c0-.356.13-.665.391-.925s.57-.39.928-.39h29.01c.358 0 .667.13.928.39.26.26.391.569.391.925zm0-10.52v2.63c0 .356-.13.664-.391.925-.261.26-.57.39-.927.39H1.319a1.27 1.27 0 0 1-.928-.39A1.262 1.262 0 0 1 0 4.12V1.49C0 1.134.13.826.391.566s.57-.39.928-.39h29.01c.358 0 .667.13.928.39.26.26.391.568.391.924z" fill="#FFF" fill-rule="evenodd"/></svg>