<svg width="102" height="102" viewBox="0 0 102 102" xmlns="http://www.w3.org/2000/svg"><title>healthcare</title><g fill="none" fill-rule="evenodd"><path d="M1 51C1 23.386 23.386 1 50.999 1 78.614 1 101 23.387 101 51c0 27.615-22.386 50-50.001 50C23.386 101 1 78.616 1 51z" stroke="#5CA0DF" stroke-width="2"/><path d="M65.537 61.806c-4.472 5.282-10.398 9.973-15.923 12.611-5.524-2.638-11.45-7.329-15.923-12.611-2.629-3.105-4.63-6.229-5.928-9.209h9.645a.817.817 0 0 0 .793-.619l.927-3.706 2.716 11.542c.087.37.416.631.796.631h.004a.819.819 0 0 0 .793-.641l1.602-7.207h9.807a.817.817 0 0 0 .793-.619l.925-3.706 2.716 11.542c.087.37.417.631.796.631h.005a.819.819 0 0 0 .793-.641l1.601-7.207h8.991c-1.299 2.98-3.3 6.104-5.929 9.209M39.513 31.673a13.41 13.41 0 0 1 9.524 3.937.817.817 0 0 0 1.154 0 13.41 13.41 0 0 1 9.525-3.937c7.44 0 13.493 6.053 13.493 13.493 0 1.81-.375 3.761-1.097 5.796H61.82a.818.818 0 0 0-.798.641l-.968 4.359-2.669-11.343a.818.818 0 0 0-.79-.631h-.006a.818.818 0 0 0-.793.619l-1.589 6.355h-9.824a.818.818 0 0 0-.798.641l-.969 4.358-2.669-11.342a.817.817 0 0 0-.79-.631h-.006a.818.818 0 0 0-.792.619l-1.59 6.355h-9.653c-.722-2.035-1.097-3.986-1.097-5.796 0-7.44 6.053-13.493 13.494-13.493m20.203-1.635a15.02 15.02 0 0 0-10.102 3.868 15.02 15.02 0 0 0-10.1-3.868c-8.343 0-15.129 6.786-15.129 15.128 0 5.273 2.862 11.558 8.06 17.697 4.78 5.646 10.912 10.458 16.825 13.199a.816.816 0 0 0 .688 0c5.913-2.741 12.046-7.552 16.826-13.199 5.197-6.139 8.06-12.424 8.06-17.697 0-8.342-6.786-15.128-15.128-15.128" fill="#5CA0DF"/></g></svg>