<svg width="103" height="103" viewBox="0 0 103 103" xmlns="http://www.w3.org/2000/svg"><title>ic_Finance &amp; Banking</title><g fill="none" fill-rule="evenodd"><path d="M1 51.152C1 23.454 23.454 1 51.152 1c27.7 0 50.154 22.454 50.154 50.152 0 27.699-22.454 50.153-50.154 50.153C23.454 101.305 1 78.851 1 51.152z" stroke="#5CA0DF" stroke-width="2"/><path d="M74.983 58.672c0 .541-.44.981-.98.981h-1.674a.869.869 0 0 0-.823.595c-1.252 3.8-4.14 7.134-8.14 9.393a.862.862 0 0 0-.428.895l.613 3.68a.964.964 0 0 1-.218.794.97.97 0 0 1-.75.348h-1.797a.98.98 0 0 1-.968-.82l-.356-2.147a.876.876 0 0 0-.39-.588.863.863 0 0 0-.697-.104 24.42 24.42 0 0 1-6.544.887c-2.228 0-4.429-.297-6.543-.885a.867.867 0 0 0-1.087.692l-.357 2.144a.979.979 0 0 1-.968.821H41.08a.965.965 0 0 1-.748-.348.962.962 0 0 1-.219-.795l.61-3.667a.866.866 0 0 0-.428-.897c-5.538-3.122-8.843-8.262-8.843-13.749 0-9.202 9.142-16.687 20.38-16.687a24.1 24.1 0 0 1 7.876 1.307.865.865 0 0 0 1.058-.435 6.487 6.487 0 0 1 4.981-3.587v6.815c0 .262.12.511.324.674 2.618 2.101 4.498 4.716 5.436 7.564a.868.868 0 0 0 .823.595h1.673c.541 0 .981.44.981.981v5.543zM46.231 37.407v-2.735c1.166.208 1.963.814 1.963 1.368 0 .553-.797 1.158-1.963 1.367zm-1.73-4.618c-1.168-.209-1.965-.815-1.965-1.368 0-.553.797-1.159 1.964-1.367v2.735zm-7.507.942c0-4.617 3.755-8.373 8.371-8.373 4.616 0 8.371 3.756 8.371 8.373a8.28 8.28 0 0 1-.896 3.771 27.42 27.42 0 0 0-3.484.096c.364-.458.57-.988.57-1.558 0-1.573-1.565-2.845-3.695-3.12v-2.866c1.166.208 1.963.814 1.963 1.367a.866.866 0 0 0 1.732 0c0-1.573-1.565-2.846-3.695-3.12v-.112a.866.866 0 0 0-1.731 0v.112c-2.13.274-3.696 1.547-3.696 3.12 0 1.574 1.565 2.847 3.696 3.12v2.866c-1.167-.209-1.964-.814-1.964-1.367a.866.866 0 0 0-1.732 0c0 1.267 1.014 2.337 2.52 2.85a23.912 23.912 0 0 0-3.194 1.373 8.412 8.412 0 0 1-3.136-6.532zM24.984 48.05a1.445 1.445 0 0 1 2.888 0c0 1.074-.602 2.367-1.745 3.76-.638-.97-1.143-2.222-1.143-3.76zm49.018 2.367h-1.06c-1.054-2.816-2.93-5.394-5.465-7.512v-7.326a.866.866 0 0 0-.865-.867 8.198 8.198 0 0 0-7.034 3.945 25.81 25.81 0 0 0-4.894-1.018 10.17 10.17 0 0 0 .784-3.907c0-5.57-4.532-10.105-10.103-10.105-5.57 0-10.104 4.534-10.104 10.105 0 2.836 1.208 5.544 3.277 7.446a21.878 21.878 0 0 0-2.282 1.645c-3.91 3.231-6.19 7.46-6.5 12.008-.682-.265-1.597-.796-2.455-1.618l-.05-.05c1.196-1.404 2.352-3.244 2.352-5.113a3.178 3.178 0 0 0-3.176-3.175 3.177 3.177 0 0 0-3.174 3.175c0 1.995.69 3.703 1.671 5.063a16.372 16.372 0 0 1-1.33 1.176.865.865 0 0 0-.164 1.214.865.865 0 0 0 1.213.164c.07-.053.662-.51 1.417-1.24 1.212 1.176 2.595 1.936 3.68 2.218.271 5.66 3.645 10.894 9.176 14.21l-.514 3.076a2.713 2.713 0 0 0 2.677 3.16h1.797a2.706 2.706 0 0 0 2.677-2.268l.201-1.21a26.39 26.39 0 0 0 6.077.706 26.24 26.24 0 0 0 6.076-.709l.203 1.213a2.706 2.706 0 0 0 2.676 2.268h1.797a2.713 2.713 0 0 0 2.677-3.16l-.514-3.089c3.898-2.34 6.778-5.664 8.196-9.455h1.06a2.716 2.716 0 0 0 2.713-2.714V53.13a2.716 2.716 0 0 0-2.713-2.713z" fill="#5CA0DF"/><path d="M65.689 49.492a.867.867 0 0 0-.867.867v1.847a.866.866 0 0 0 1.731 0v-1.848a.865.865 0 0 0-.864-.865" fill="#5CA0DF"/></g></svg>