<svg width="102" height="102" viewBox="0 0 102 102" xmlns="http://www.w3.org/2000/svg"><title>ic_Marketplaces</title><g fill="none" fill-rule="evenodd"><path d="M51 1c27.614 0 50 22.386 50 50s-22.386 50-50 50S1 78.614 1 51 23.386 1 51 1z" stroke="#5CA0DF" stroke-width="2"/><path d="M69.669 59.647v-6.121h6.143v3.503a2.62 2.62 0 0 1-2.618 2.617l-3.525.001zm-15.765-6.121h6.131v6.123l-6.131.002v-6.125zm-15.34 0h5.705v6.128l-4.531.002-1.174-6.13zm5.705-15.769v6.135H36.72l-1.174-6.132 8.723-.003zm25.4 14.017H75.8v-6.131h-6.131v6.131zm-15.765 0h6.131v-6.131h-6.131v6.131zM46.02 43.89h6.132v-6.131H46.02v6.131zm14.015 0h-6.131v-6.136l6.131-.003v6.139zm1.752 0h6.131v-6.131h-6.131v6.131zm-24.732 1.753h7.214v6.131H38.23l-1.175-6.131zm8.965 6.131h6.132v-6.131H46.02v6.131zm0 7.88v-6.128h6.132v6.126l-6.132.002zm15.767-7.88h6.131v-6.131h-6.131v6.131zm0 7.875v-6.123h6.131v6.122l-6.131.001zM75.812 43.89h-6.143v-6.141l6.143-.001v6.142zM48.649 68.416a3.509 3.509 0 0 1-3.504 3.505 3.508 3.508 0 0 1-3.504-3.505 3.507 3.507 0 0 1 3.504-3.504 3.507 3.507 0 0 1 3.504 3.504zm20.145 0a3.508 3.508 0 0 1-3.504 3.505 3.508 3.508 0 0 1-3.503-3.505 3.507 3.507 0 0 1 3.503-3.504 3.507 3.507 0 0 1 3.504 3.504zM26.752 32.503c0-.965.785-1.752 1.751-1.752.965 0 1.751.787 1.751 1.752 0 .966-.786 1.752-1.751 1.752a1.753 1.753 0 0 1-1.751-1.752zm8.477 3.503l-.728-4.378h-2.619C31.49 30.122 30.13 29 28.503 29A3.506 3.506 0 0 0 25 32.503a3.506 3.506 0 0 0 3.503 3.503c1.627 0 2.987-1.12 3.379-2.627h1.133l.439 2.627.169 1.018 2.241 11.717.915 4.785 1.177 6.144c-2.162.163-3.964 1.825-4.177 3.918a4.39 4.39 0 0 0 4.357 4.828h1.753a5.26 5.26 0 0 0 5.255 5.255 5.26 5.26 0 0 0 5.255-5.255h9.636a5.26 5.26 0 0 0 5.255 5.255 5.26 5.26 0 0 0 5.256-5.255h3.503a.874.874 0 0 0 .875-.876.873.873 0 0 0-.875-.875h-3.81a5.259 5.259 0 0 0-4.949-3.504 5.26 5.26 0 0 0-4.95 3.504H50.092a5.256 5.256 0 0 0-4.948-3.504 5.259 5.259 0 0 0-4.949 3.504h-2.058a2.642 2.642 0 0 1-1.947-.87 2.6 2.6 0 0 1-.667-2.029c.133-1.322 1.355-2.356 2.779-2.356h.685l5.419-.002 9.498-.003 6.259-.003 9.506-.002 3.525-.002c2.409 0 4.37-1.96 4.37-4.368V35.998l-42.335.008z" fill="#5CA0DF"/></g></svg>