<svg width="102" height="102" viewBox="0 0 102 102" xmlns="http://www.w3.org/2000/svg"><title>online social</title><g fill="none" fill-rule="evenodd"><path d="M1 51C1 23.386 23.386 1 51 1c27.615 0 50 22.386 50 50 0 27.615-22.385 50-50 50-27.614 0-50-22.385-50-50z" stroke="#5CA0DF" stroke-width="2"/><path d="M33.45 50.704l-2.835-.009a.13.13 0 0 1-.13-.13V36.452a.884.884 0 0 0-.488-.79l-3.213-1.607 3.213-1.606a.882.882 0 0 0 .488-.79v-3.54c0-.07.059-.13.13-.13h39.13c.072 0 .13.06.13.13v19.93a.886.886 0 1 0 1.77 0V28.12a1.9 1.9 0 0 0-1.9-1.899h-39.13a1.9 1.9 0 0 0-1.898 1.9v2.991l-4.307 2.153a.885.885 0 0 0 0 1.583L28.717 37v13.564a1.9 1.9 0 0 0 1.896 1.901l2.83.008a.884.884 0 0 0 .007-1.769" fill="#5CA0DF"/><path d="M37.87 79.846h5.247V52.473H37.87v27.373zm40.515-24.614a4.533 4.533 0 0 0-4.527-4.528H62.784c1.953-3.591 3.015-8.053 3.015-12.745a4.53 4.53 0 0 0-4.525-4.527 4.53 4.53 0 0 0-4.527 4.527c0 7.028-5.718 12.745-12.746 12.745h-7.016a.885.885 0 0 0-.885.885v29.142c0 .488.396.885.885.885h7.016a.884.884 0 0 0 .884-.885V52.446c7.592-.459 13.629-6.78 13.629-14.487a2.762 2.762 0 0 1 2.76-2.758 2.762 2.762 0 0 1 2.758 2.758c0 4.969-1.26 9.638-3.545 13.148a.881.881 0 0 0 .74 1.366h12.631a2.762 2.762 0 0 1 2.758 2.759 2.762 2.762 0 0 1-2.758 2.759h-4.477a.882.882 0 0 0-.882.883c0 .489.394.885.882.885h2.985a2.761 2.761 0 0 1 2.758 2.759 2.761 2.761 0 0 1-2.758 2.758h-2.985a.883.883 0 0 0-.882.884c0 .489.394.885.882.885h1.493a2.76 2.76 0 0 1 2.757 2.758 2.76 2.76 0 0 1-2.757 2.758h-1.493a.883.883 0 0 0-.882.885c0 .488.394.884.882.884a2.762 2.762 0 0 1 2.76 2.758 2.762 2.762 0 0 1-2.76 2.758H47.54a.885.885 0 1 0 0 1.77h21.841a4.534 4.534 0 0 0 4.528-4.528c0-1.21-.477-2.31-1.252-3.124a4.533 4.533 0 0 0 2.746-4.161 4.52 4.52 0 0 0-1.254-3.125 4.53 4.53 0 0 0 2.744-4.16 4.51 4.51 0 0 0-1.252-3.124 4.538 4.538 0 0 0 2.744-4.162z" fill="#5CA0DF"/><path d="M66.729 77.192V55.128a.884.884 0 1 0-1.77 0v22.064a.885.885 0 0 0 1.77 0" fill="#5CA0DF"/></g></svg>