<svg width="61" height="61" viewBox="0 0 61 61" xmlns="http://www.w3.org/2000/svg"><title>ic_ui/ux</title><g fill="#5CA0DF" fill-rule="evenodd"><path d="M56.499 52.603h1.949V9.743h-1.949v42.86zM54.552 5.844h-3.897v1.947h3.897v3.899h-3.897v1.949h3.897v3.895h-3.897v1.949h3.897v3.896h-3.897v1.95h3.897v3.895h-3.897v1.948h3.897v3.896h-3.897v1.95h3.897v3.896h-3.897v1.95h3.897v3.894h-3.897v1.95h3.897v3.895h-3.897v1.947h3.897v3.898h-7.794v-56.5h7.794v3.896zm-11.69 9.741h1.948V9.741h-1.948v5.845zm0 3.898h1.948v-1.95h-1.948v1.95zm0 13.638h1.948V21.432h-1.948v11.69zm0 3.896h1.948v-1.949h-1.948v1.95zm0 15.586h1.948V38.965h-1.948v13.64zm-4.871-5.846h2.923V9.742h-2.923v37.015zm-4.871 3.9h7.794v-1.948H33.12v1.947zm7.794 3.893a3.9 3.9 0 0 1-3.897 3.898 3.9 3.9 0 0 1-3.897-3.898v-1.947h7.794v1.947zm-7.794-7.791h2.922V9.741H33.12v37.016zm3.897-43.133l2.978 4.165h-5.956l2.978-4.166zM1.948 15.586h29.225V9.74H1.948v5.845zm29.225 3.897H3.898v19.482h27.275v13.638H1.948v-35.07h29.225v1.95zm0 5.845l-1.461-1.948h-6.801l-7.793 9.741H7.792v1.947h23.381v1.95H5.845V21.43h25.328v3.897zm0 7.793H17.612l6.235-7.793h4.89l2.436 3.245v4.548zm25.326-25.33V.001H44.81v7.79h-2.421L37.017.272l-5.372 7.52H0V54.55h31.173a5.85 5.85 0 0 0 5.844 5.847 5.851 5.851 0 0 0 5.844-5.847h1.949v5.847h11.689V54.55h3.897V7.791h-3.897z"/><path d="M3.898 13.639h1.947v-1.95H3.898zm3.894 0h1.949v-1.95H7.792zm3.897 0h1.948v-1.95h-1.948zM5.845 48.708h9.742v-5.846H5.845v5.846zm-1.948 1.949h13.636v-9.742H3.897v9.742zm15.585-7.793h9.741v-1.95h-9.741zm0 3.894h9.741v-1.95h-9.741zm0 3.898h9.741v-1.948h-9.741z"/></g></svg>