<?xml version="1.0" encoding="UTF-8"?>
<svg width="76px" height="52px" viewBox="0 0 76 52" version="1.1" xmlns="http://www.w3.org/2000/svg" xmlns:xlink="http://www.w3.org/1999/xlink">
    <!-- Generator: Sketch 40 (33762) - http://www.bohemiancoding.com/sketch -->
    <title>message</title>
    <desc>Created with Sketch.</desc>
    <defs></defs>
    <g id="Page-1" stroke="none" stroke-width="1" fill="none" fill-rule="evenodd">
        <g id="Desktop-HD" transform="translate(-1224.000000, -5719.000000)">
            <g id="message" transform="translate(1224.000000, 5719.000000)">
                <path d="M1.99557737,0 C0.893450419,0 0,0.902557373 0,2.00659927 L0,49.9934007 C0,51.1016149 0.892176648,52 1.99557737,52 L64.6836679,52 C65.7857949,52 66.6792453,51.103304 66.6792453,50.0018219 L66.6792453,34.8732222 L70.2648679,31.5351111 L76,26.1928333 L70.2648679,20.8527222 L66.6792453,17.5138889 L66.6792453,2.00906575 C66.6792453,0.899489374 65.7870686,0 64.6836679,0 L1.99557737,0 Z" id="Fill-1" fill="#FF8B00"></path>
                <path d="M39.9597962,25.9964611 L52.0846642,15.2685722 L52.0846642,36.7221833 L39.9597962,25.9964611 Z M27.7467396,27.3867389 L33.0674566,32.0920167 L38.3874566,27.3867389 L50.379683,37.9954611 L15.7545132,37.9954611 L27.7467396,27.3867389 Z M26.1744,25.9957389 L14.0495321,36.7221833 L14.0495321,15.2685722 L26.1744,25.9957389 Z M33.0674566,29.3107389 L15.7652679,14.0054056 L50.3696453,14.0054056 L33.0674566,29.3107389 Z M11.9753057,40.08485 L54.1596075,40.08485 L54.1596075,11.9167389 L11.9753057,11.9167389 L11.9753057,40.08485 Z" id="Fill-2" fill="#FFFFFF"></path>
            </g>
        </g>
    </g>
</svg>