<?xml version="1.0" encoding="UTF-8"?>
<svg width="47px" height="60px" viewBox="0 0 47 60" version="1.1" xmlns="http://www.w3.org/2000/svg" xmlns:xlink="http://www.w3.org/1999/xlink">
    <!-- Generator: Sketch 40 (33762) - http://www.bohemiancoding.com/sketch -->
    <title>apple</title>
    <desc>Created with Sketch.</desc>
    <defs></defs>
    <g id="Page-1" stroke="none" stroke-width="1" fill="none" fill-rule="evenodd">
        <g id="Desktop-HD" transform="translate(-920.000000, -2541.000000)" fill="#FFFFFF">
            <g id="tech" transform="translate(0.000000, 2131.000000)">
                <g id="apple" transform="translate(920.000000, 410.000000)">
                    <g id="Layer_1">
                        <path d="M31.8671221,9.05859843 C34.1030997,6.65758327 35.6154929,3.32408937 35.2015211,0 C31.9802458,0.115307608 28.0761515,1.8966466 25.7639428,4.29745732 C23.6912303,6.42287913 21.8765622,9.81975132 22.3608542,13.0786224 C25.9553359,13.3225266 29.6274756,11.4557291 31.8671221,9.05859843 L31.8671221,9.05859843 Z M38.7273133,32.0148304 C38.6586237,24.5625651 44.6095446,20.9833269 44.8730924,20.8103655 C41.5274829,15.7497109 36.317064,15.0572519 34.4614268,14.9791535 C30.0247336,14.5119941 25.8106191,17.6741621 23.5581315,17.6741621 C21.3148162,17.6741621 17.8448725,15.0404873 14.1651912,15.1112256 C9.32777497,15.1911641 4.87049531,18.0166094 2.38605311,22.4945926 C-2.6390874,31.5031018 1.09807295,44.847913 5.99480272,52.1550215 C8.38854209,55.7322152 11.2386492,59.7450835 14.9813128,59.5999268 C18.594139,59.4547701 19.9561082,57.1897115 24.3149396,57.1897115 C28.6756055,57.1897115 29.8965267,59.5999268 33.7115488,59.5273484 C37.593426,59.4547701 40.0501478,55.8812564 42.4235045,52.2928182 C45.16966,48.1441977 46.3017129,44.1276493 46.3665297,43.9248388 C46.2831646,43.876385 38.8070095,40.9264321 38.7273133,32.0148304 L38.7273133,32.0148304 Z" id="Shape"></path>
                    </g>
                </g>
            </g>
        </g>
    </g>
</svg>