<?xml version="1.0" encoding="UTF-8"?>
<svg width="60px" height="56px" viewBox="0 0 60 56" version="1.1" xmlns="http://www.w3.org/2000/svg" xmlns:xlink="http://www.w3.org/1999/xlink">
    <!-- Generator: Sketch 40 (33762) - http://www.bohemiancoding.com/sketch -->
    <title>Page 1</title>
    <desc>Created with Sketch.</desc>
    <defs>
        <polygon id="path-1" points="59.2757895 55.7444741 59.2757895 -0.000103703704 0.000315789473 -0.000103703704 0.000315789473 55.7444741"></polygon>
    </defs>
    <g id="Page-1" stroke="none" stroke-width="1" fill="none" fill-rule="evenodd">
        <g id="Desktop-HD" transform="translate(-674.000000, -2543.000000)">
            <g id="tech" transform="translate(0.000000, 2131.000000)">
                <g id="Page-1" transform="translate(674.000000, 412.000000)">
                    <mask id="mask-2" fill="white">
                        <use xlink:href="#path-1"></use>
                    </mask>
                    <g id="Clip-2"></g>
                    <path d="M21.3866316,35.8364741 C20.6434737,35.8364741 20.0403158,33.6255111 20.0403158,30.8970667 C20.0403158,28.1717333 20.6434737,25.9618074 21.3866316,25.9618074 C22.1308421,25.9618074 22.7329474,28.1717333 22.7329474,30.8970667 C22.7329474,33.6255111 22.1308421,35.8364741 21.3866316,35.8364741 L21.3866316,35.8364741 Z M38.3950526,35.4258074 C37.6508421,35.4258074 37.0487368,33.2148444 37.0487368,30.487437 C37.0487368,27.7600296 37.6508421,25.5501037 38.3950526,25.5501037 C39.1403158,25.5501037 39.7424211,27.7600296 39.7424211,30.487437 C39.7424211,33.2148444 39.1403158,35.4258074 38.3950526,35.4258074 L38.3950526,35.4258074 Z M43.1108421,10.6188444 L34.4497895,10.6188444 L35.0276842,14.6000296 L24.2497895,14.6000296 L24.8276842,10.6188444 L16.1666316,10.6188444 L10.7771579,21.2360296 L13.4718947,42.471437 L45.8055789,42.471437 L48.5003158,21.2360296 L43.1108421,10.6188444 Z M53.8887368,55.7444741 L44.2887368,55.7444741 L44.9624211,47.7810667 L40.2476842,47.7810667 L39.574,55.7444741 L19.7024211,55.7444741 L19.0297895,47.7810667 L14.314,47.7810667 L14.9876842,55.7444741 L5.38978947,55.7444741 L0.000315789473,21.2360296 L13.4718947,-0.000414814815 L45.8055789,-0.000414814815 L59.2761053,21.2360296 L53.8887368,55.7444741 Z" id="Fill-1" fill="#FFFFFF" mask="url(#mask-2)"></path>
                </g>
            </g>
        </g>
    </g>
</svg>