<?xml version="1.0" encoding="UTF-8"?>
<svg width="216px" height="40px" viewBox="0 0 216 40" version="1.1" xmlns="http://www.w3.org/2000/svg" xmlns:xlink="http://www.w3.org/1999/xlink">
    <!-- Generator: Sketch 40 (33762) - http://www.bohemiancoding.com/sketch -->
    <title>sql</title>
    <desc>Created with Sketch.</desc>
    <defs>
        <polygon id="path-1" points="17.7563694 20.4344476 17.7563694 0.153310345 0.321695541 0.153310345 0.321695541 20.4344476 17.7563694 20.4344476"></polygon>
    </defs>
    <g id="Page-1" stroke="none" stroke-width="1" fill="none" fill-rule="evenodd">
        <g id="Desktop-HD" transform="translate(-592.000000, -2441.000000)">
            <g id="tech" transform="translate(0.000000, 2131.000000)">
                <g id="sql" transform="translate(592.000000, 310.000000)">
                    <path d="M153.819378,8.21765517 C155.944983,7.03834483 158.46269,6.95903448 160.835939,6.91765517 C163.401799,6.94868966 166.215302,7.15903448 168.313391,8.8142069 C169.627276,9.83144828 170.184474,11.5142069 170.187913,13.1314483 C169.372754,13.1348966 168.561034,13.1314483 167.749315,13.1314483 C167.453518,11.5452414 166.758741,9.83834483 165.111225,9.25213793 C162.356194,8.20386207 159.191862,8.26937931 156.385238,9.09006897 C154.135811,9.7142069 153.313773,12.9762759 155.047276,14.5521379 C156.288932,15.5452414 157.943327,15.6797241 159.439506,16.0142069 C162.507531,16.6693793 165.761289,16.7762759 168.619506,18.1797241 C171.666894,19.7107586 171.549952,24.5969655 168.86371,26.4314483 C166.63492,27.965931 163.80078,28.1348966 161.179888,28.1555862 C158.325111,28.1107586 155.212372,27.8417931 152.890716,25.9935172 C151.404856,24.8142069 150.943964,22.8521379 150.857977,21.0417931 C151.690334,21.0004138 152.52269,20.9866207 153.358487,20.9831724 C153.54078,22.9073103 154.441926,24.9073103 156.354283,25.6383448 C159.346639,26.8038621 162.806767,26.790069 165.861034,25.8624828 C167.996958,25.2590345 168.825875,22.5314483 167.855939,20.6624828 C167.395047,19.8176552 166.490461,19.3590345 165.603073,19.1142069 C161.871225,18.1038621 157.919251,18.0486897 154.273391,16.7004138 C150.833901,15.4348966 150.720397,9.93834483 153.819378,8.21765517" id="Fill-1" fill="#FFFFFF"></path>
                    <path d="M180.915615,8.90055172 C178.133068,9.54882759 175.539692,11.4936552 174.638545,14.2867586 C173.685806,17.2936552 174.015997,20.9177931 176.189755,23.3315862 C178.102112,25.504 181.046316,26.4833103 183.877017,26.5281379 C187.006953,26.6315862 190.432685,25.7315862 192.49294,23.2246897 C195.306443,19.5971034 194.983131,13.5522759 191.216889,10.6902069 C188.372431,8.36951724 184.368864,8.15917241 180.915615,8.90055172 M177.025552,8.43503448 C179.87345,6.97986207 183.171921,6.75227586 186.308736,7.01089655 C189.287335,7.25917241 192.320966,8.36262069 194.336507,10.6522759 C196.837017,13.3522759 197.28415,17.4350345 196.345169,20.8798621 C195.836125,22.8108966 194.484405,24.3350345 193.03294,25.6315862 C194.17829,26.466069 195.368354,27.2350345 196.513704,28.0764138 C196.00122,28.5729655 195.474978,29.0522759 194.934978,29.5177931 C193.724278,28.7384828 192.613322,27.8074483 191.361348,27.1005517 C190.394851,27.1005517 189.510902,27.6867586 188.547845,27.8212414 C185.865042,28.2971034 183.075615,28.3315862 180.396252,27.804 C177.476125,27.2177931 174.669501,25.5764138 173.094214,22.9902069 C171.536125,20.4626207 171.333195,17.2729655 172.048609,14.441931 C172.708991,11.8212414 174.638545,9.63503448 177.025552,8.43503448" id="Fill-3" fill="#FFFFFF"></path>
                    <g id="Group-7" transform="translate(198.114650, 7.219655)">
                        <mask id="mask-2" fill="white">
                            <use xlink:href="#path-1"></use>
                        </mask>
                        <g id="Clip-6"></g>
                        <path d="M0.328574522,0.21537931 C1.11965732,0.198137931 1.91074013,0.177448276 2.70526242,0.153310345 C2.77061274,6.33951724 2.71902038,12.5257241 2.72933885,18.711931 C7.73723694,18.7981379 12.7485745,18.674 17.7564726,18.774 C17.7530331,19.3222759 17.7495936,19.874 17.7461541,20.4257241 C11.9402943,20.4291724 6.1309949,20.4498621 0.321695541,20.411931 C0.332014013,13.6808966 0.318256051,6.94641379 0.328574522,0.21537931" id="Fill-5" fill="#FFFFFF" mask="url(#mask-2)"></path>
                    </g>
                    <path d="M24.7823197,2.80410345 C27.0042306,2.32582759 29.3860777,2.38755172 31.5268166,3.19548276 C33.0095809,3.75927586 34.3262178,4.73927586 35.3147274,5.981 C35.7862815,6.57375862 35.8461287,7.36927586 35.8770841,8.09789655 C35.897721,9.83306897 35.5493006,11.5485862 35.1042306,13.2182414 C34.2536446,16.3082414 32.9621159,19.2696207 31.3386764,22.0268621 C31.1783962,22.2982414 31.004014,22.561 30.8114025,22.8099655 C30.7962688,22.7344483 30.7670331,22.5806552 30.7515554,22.5037586 C30.9537975,21.9723793 31.2478739,21.4720345 31.3624089,20.9085862 C31.7696446,19.3172069 31.4250076,17.6799655 31.2788293,16.078931 C31.125428,14.5675517 31.6399758,13.0978966 31.6272497,11.5906552 C31.686065,10.8523793 31.3943962,10.1544483 31.1113261,9.49203448 C30.0877338,7.1972069 28.4587911,5.15444828 26.3693006,3.75203448 C25.8602561,3.401 25.2899885,3.15651724 24.7823197,2.80410345" id="Fill-8" fill="#FFFFFF"></path>
                    <path d="M18.609535,3.01382759 C21.3428981,2.66555172 24.2148726,3.41934483 26.3862229,5.13348276 C28.181293,6.55555172 29.5993949,8.48244828 30.3636497,10.6483103 C29.0931019,10.6034828 27.6526433,10.5517586 26.6259554,11.436931 C25.6945414,12.2238276 25.5745032,13.5676207 25.7836242,14.6976207 C26.2703121,17.3821034 27.8493822,19.6641724 29.0150255,22.0772759 C29.3249236,22.6434828 29.7417898,23.1372759 30.1366433,23.6448621 C29.6650892,23.8838276 29.1391911,24.1117586 28.8715987,24.5983103 C28.4027962,25.3562414 28.5675478,26.2803793 28.4516369,27.1221034 C28.1826688,29.481069 27.9174841,31.8424483 27.5339809,34.1862414 C27.3527197,35.3086552 26.8770382,36.5027931 25.818707,37.0621034 C24.7349236,37.6145172 23.4753822,37.9614138 22.2564268,37.7738276 C21.0990382,37.5696897 20.3695223,36.489 20.0417389,35.4345172 C19.8020064,34.551069 19.7768981,33.6279655 19.7084522,32.7193448 C19.5928854,30.5241724 19.5897898,28.3245172 19.6472293,26.1265862 C19.6946943,25.2679655 19.2551274,24.3745172 18.4922484,23.9579655 C18.1228471,23.7496897 17.6905032,23.7217586 17.2760446,23.6879655 C17.6010764,22.0731379 18.5816752,20.679 18.9177134,19.066931 C19.3541847,17.0717586 19.1130764,14.9952069 18.6666306,13.0252069 C18.4492548,12.0421034 17.7028854,11.1724483 16.7099045,10.9334828 C15.1813949,10.5476207 13.6401592,11.1472759 12.2722739,11.7876207 C12.4449363,9.56037931 13.0392803,7.28141379 14.4002866,5.47313793 C15.4004904,4.12831034 16.9527325,3.23037931 18.609535,3.01382759" id="Fill-10" fill="#FFFFFF"></path>
                    <path d="M6.95980892,3.19837931 C9.39359236,2.72872414 11.8899745,3.22631034 14.2260764,3.9407931 C13.1952611,5.07631034 12.3935159,6.41286207 11.9247134,7.877 C11.2873758,9.83148276 10.996051,11.9121724 11.1480764,13.9663103 C11.2357834,15.4132069 11.198293,16.8676897 10.9974268,18.3035517 C10.7449682,20.1783793 11.495121,22.1066552 12.8843312,23.3721724 C11.9388153,24.4807931 10.9362038,25.5380345 10.0195796,26.6718276 C9.61509554,27.1501034 9.06856051,27.719069 8.37963057,27.5766552 C7.57341401,27.3432069 7.06024204,26.604931 6.61104459,25.9421724 C5.39793631,23.9956207 4.66566879,21.7976897 3.996,19.614931 C3.24584713,17.0325172 2.61263694,14.4080345 2.24873885,11.7401034 C2.06713376,9.70975862 2.18029299,7.53286207 3.21661146,5.72493103 C3.99187261,4.35631034 5.43955414,3.48355172 6.95980892,3.19837931" id="Fill-12" fill="#FFFFFF"></path>
                    <path d="M27.7432051,12.5624138 C27.4446573,12.8086207 27.7669376,13.1748276 28.0235236,13.2910345 C28.6440076,13.6572414 29.4949376,13.1455172 29.5159185,12.4337931 C28.9552815,12.1724138 28.2508739,12.1989655 27.7432051,12.5624138 M27.4126701,12.2268966 C28.3079694,11.5893103 29.4794599,11.7317241 30.5144025,11.7962069 C30.4696892,13.2306897 30.0290904,14.6372414 30.1728611,16.0817241 C30.3025299,17.8686207 30.8198293,19.79 29.9788739,21.4844828 C28.8520968,19.2362069 27.3944408,17.09 26.886772,14.5855172 C26.7433452,13.7886207 26.7068866,12.7806897 27.4126701,12.2268966" id="Fill-14" fill="#FFFFFF"></path>
                    <path d="M15.3878331,12.6043103 C15.2162025,12.6643103 15.0363172,12.7818966 15.0710561,12.9915517 C15.1938459,13.7060345 16.1493363,14.1408621 16.7505592,13.6963793 C17.0154,13.5467241 17.2943427,13.1343103 16.9889159,12.8853448 C16.5524446,12.5301724 15.9178586,12.4615517 15.3878331,12.6043103 M12.2331325,13.1512069 C13.3557822,12.4239655 14.6682917,11.8532759 16.0279223,11.9318966 C16.7323299,11.9625862 17.3820497,12.4615517 17.5509287,13.1567241 C18.1686611,15.622931 18.3598968,18.3663793 17.1770561,20.7015517 C16.7643172,21.6018966 16.4296548,22.5360345 16.1410815,23.4825862 C14.1730051,23.5022414 12.499349,21.8353448 12.1509287,19.9577586 C11.912228,18.8963793 12.223158,17.8281034 12.2596166,16.7639655 C12.3418204,15.5601724 12.256865,14.355 12.2331325,13.1512069" id="Fill-16" fill="#FFFFFF"></path>
                    <path d="M29.9662854,25.0024483 C30.2579541,24.7872759 30.6720688,24.5886552 31.0094828,24.8234828 C32.4416866,25.5800345 34.1070879,25.2107241 35.6300943,25.0262414 C34.6997121,25.9338276 33.4099032,26.3586552 32.142107,26.4958966 C31.3025274,26.5965862 30.4306166,26.6258966 29.6202726,26.3476207 C29.6247439,25.8876207 29.5996357,25.3434828 29.9662854,25.0024483" id="Fill-18" fill="#FFFFFF"></path>
                    <path d="M15.5412688,26.7614483 C16.3639949,26.3183448 16.6904025,25.3407586 17.4587847,24.8390345 C18.2956127,24.720069 18.907842,25.9673103 18.2746318,26.5573103 C17.0391669,28.2352414 14.5665172,28.5552414 12.7797019,27.6424828 C13.6612433,27.2328276 14.6917146,27.2648966 15.5412688,26.7614483" id="Fill-20" fill="#FFFFFF"></path>
                    <path d="M45.9328127,9.05227586 C45.9293732,11.8591724 45.9190548,14.666069 45.9396917,17.4729655 C48.9286089,17.466069 51.9175261,17.5177931 54.9064433,17.4488276 C56.5745962,17.3971034 58.5282268,16.8212414 59.2264433,15.1384828 C59.7767618,13.6315862 59.6907745,11.7591724 58.6726854,10.466069 C57.6821121,9.27641379 56.0242777,9.05572414 54.5693732,9.04882759 C51.6905197,9.04537931 48.8116662,9.04537931 45.9328127,9.05227586 M43.9035134,7.43503448 C47.6869529,7.44882759 51.4703924,7.404 55.2572713,7.37986207 C57.0114115,7.35917241 58.8996917,7.68331034 60.254851,8.88675862 C62.0915389,10.4798621 62.4114115,13.2867586 61.6237682,15.4867586 C60.6916662,17.866069 58.0191822,18.9798621 55.6184178,19.0384828 C52.3818573,19.0798621 49.1418573,19.0212414 45.9052968,19.0626207 C45.8709019,21.9281379 45.9534497,24.7902069 45.9224943,27.6557241 C45.2483541,27.6522759 44.574214,27.6522759 43.9035134,27.6557241 C43.8828764,20.9143448 43.8794369,14.1764138 43.9035134,7.43503448" id="Fill-22" fill="#FFFFFF"></path>
                    <path d="M97.821,10.0315172 L99.8984522,10.0315172 C99.8984522,11.4763448 99.8950127,12.9177241 99.9087707,14.3625517 C101.088516,14.3763448 102.268261,14.3763448 103.448006,14.3625517 C103.465204,14.8315172 103.482401,15.2970345 103.503038,15.766 C102.309535,15.7901379 101.116032,15.7901379 99.9225287,15.7625517 C99.8743758,18.6004828 99.9122102,21.4349655 99.8950127,24.2694483 C99.9156497,24.9142759 99.8537389,25.7694483 100.510682,26.1384138 C101.429025,26.6004828 102.491828,26.4315172 103.475522,26.3763448 C103.475522,26.8246207 103.478962,27.2763448 103.482401,27.728069 C101.965586,27.9004828 100.331828,28.0142759 98.9250764,27.3142759 C98.0755223,26.8694483 97.7934841,25.8522069 97.8106815,24.9556552 C97.7934841,21.8866897 97.8175605,18.8211724 97.8038025,15.7522069 C96.9129745,15.7556552 96.025586,15.7522069 95.134758,15.7418621 C95.1416369,15.2832414 95.1450764,14.8246207 95.1519554,14.3694483 C96.032465,14.3797931 96.909535,14.3728966 97.7900446,14.3349655 C97.8003631,12.9004828 97.8038025,11.466 97.821,10.0315172" id="Fill-24" fill="#FFFFFF"></path>
                    <path d="M68.447786,15.4797241 C66.5044739,15.7073103 64.5921172,16.9348966 63.9558115,18.8555862 C63.2438369,20.990069 63.5465121,23.6521379 65.2765758,25.228 C66.645493,26.4866207 68.6025631,26.7797241 70.3910981,26.6935172 C72.0145376,26.628 73.7377223,26.1969655 74.8968306,24.9797241 C76.1660025,23.7314483 76.3758115,21.8107586 76.2107159,20.1211034 C76.0834548,18.6590345 75.3817987,17.1762759 74.0954293,16.3969655 C72.4203975,15.3728276 70.3532637,15.2590345 68.447786,15.4797241 M67.4331363,14.1348966 C70.0643465,13.7452414 72.9397605,13.8348966 75.3061299,15.1762759 C78.8625631,17.1831724 79.3612892,22.5693793 76.8848561,25.6038621 C74.759251,27.9693793 71.2784866,28.290069 68.2964484,28.0383448 C65.8750471,27.890069 63.3951745,26.6866207 62.2498242,24.4590345 C61.2110981,22.4004138 61.1973401,19.8383448 62.1672764,17.7521379 C63.1440917,15.7211034 65.2731363,14.4969655 67.4331363,14.1348966" id="Fill-26" fill="#FFFFFF"></path>
                    <path d="M81.2117006,15.1074483 C82.5806178,14.2315862 84.2659682,14.0936552 85.8481338,13.9833103 C88.0803631,13.9315862 90.5224013,13.9177931 92.4553949,15.204 C93.5319554,15.8798621 93.9206178,17.1591724 94.0719554,18.3522759 C93.3462229,18.3798621 92.617051,18.3867586 91.8913185,18.3867586 C91.7399809,17.3971034 91.3375605,16.3488276 90.3469873,15.9350345 C88.5653312,15.1143448 86.5050764,15.204 84.6064777,15.4764138 C83.4267325,15.6453793 81.985586,16.3177931 81.9511911,17.6936552 C81.8480064,18.6695172 82.7388344,19.3557241 83.5883885,19.566069 C86.0923376,20.1971034 88.7097898,20.1350345 91.2309363,20.6764138 C92.3556497,20.941931 93.5697898,21.3936552 94.209535,22.4246897 C95.0831656,23.9212414 94.5397261,26.0695172 93.0263503,26.9350345 C91.1896624,28.0246897 88.9677516,28.0798621 86.8902994,28.0902069 C84.867879,28.0108966 82.6666051,27.9764138 80.9399809,26.7695172 C79.8806178,26.0350345 79.5160318,24.7212414 79.3165414,23.5143448 C80.0697898,23.504 80.8230382,23.5143448 81.5762866,23.5281379 C81.614121,25.1729655 82.9933567,26.3384828 84.5411274,26.5350345 C86.7905541,26.8591724 89.2773057,27.0453793 91.3719554,25.9971034 C92.8234204,25.266069 92.6824013,22.9108966 91.1483885,22.366069 C88.0356497,21.4557241 84.6443121,21.7557241 81.5762866,20.6384828 C79.3646943,19.7557241 79.3302994,16.3522759 81.2117006,15.1074483" id="Fill-28" fill="#FFFFFF"></path>
                    <path d="M111.455209,15.5384828 C109.959031,15.7729655 108.459413,16.504 107.627056,17.8177931 C106.660559,19.3798621 106.646801,21.4212414 107.296865,23.1074483 C107.988203,24.8557241 109.869604,25.7488276 111.640941,25.9315862 C113.890368,26.2557241 116.514699,25.9626207 118.120941,24.1833103 C119.919795,21.9902069 119.723744,18.1833103 117.316101,16.4936552 C115.616992,15.3384828 113.426037,15.2695172 111.455209,15.5384828 M109.714827,14.3074483 C111.857629,13.8281379 114.151769,13.7936552 116.267056,14.4350345 C117.474317,14.7626207 118.316992,15.7281379 119.228457,16.5143448 C119.269731,15.8074483 119.286929,15.1005517 119.324763,14.3971034 C119.988585,14.4005517 120.652406,14.3936552 121.319668,14.3798621 C121.498521,18.466069 121.343744,22.566069 121.398776,26.6591724 C121.450368,28.3522759 121.120177,30.2143448 119.802852,31.3971034 C118.072789,32.9695172 115.606674,33.2246897 113.374445,33.2695172 C111.389859,33.2281379 109.298648,33.1833103 107.503234,32.2384828 C106.24782,31.5867586 105.64591,30.2074483 105.398266,28.8833103 C106.075846,28.8695172 106.753425,28.8626207 107.434445,28.841931 C107.864381,29.7212414 108.194572,30.7867586 109.140432,31.2488276 C110.557502,31.9315862 112.180941,31.9522759 113.721833,31.941931 C115.438139,31.8833103 117.405527,31.5522759 118.485527,30.0591724 C119.527693,28.6315862 119.290368,26.766069 119.290368,25.1074483 C117.140687,27.2902069 113.890368,27.6971034 110.983999,27.3453793 C109.161069,27.1350345 107.255591,26.4833103 106.065527,25.0108966 C104.620941,23.2212414 104.442088,20.6936552 104.978648,18.5281379 C105.539285,16.3177931 107.568585,14.7936552 109.714827,14.3074483" id="Fill-30" fill="#FFFFFF"></path>
                    <path d="M127.720559,14.5107586 C129.227056,13.8486897 130.912406,13.9728276 132.518648,13.9762759 C132.518648,14.5383448 132.522088,15.1004138 132.528967,15.6624828 C130.878011,15.6383448 129.037884,15.4176552 127.617375,16.4521379 C126.23126,17.4038621 125.753171,19.1762759 125.729094,20.7797241 C125.705018,23.0693793 125.742852,25.3624828 125.718776,27.6555862 C125.037757,27.6521379 124.356738,27.6486897 123.679158,27.6486897 C123.613808,23.2314483 123.603489,18.8142069 123.661961,14.3969655 C124.34298,14.4004138 125.027438,14.4004138 125.708457,14.390069 C125.722215,15.1521379 125.725655,15.9176552 125.746292,16.6797241 C126.251897,15.8417931 126.785018,14.9245517 127.720559,14.5107586" id="Fill-32" fill="#FFFFFF"></path>
                    <path d="M136.958996,16.172931 C135.462818,16.9487931 134.761162,18.597069 134.403455,20.1625862 C138.589315,20.1936207 142.778614,20.1901724 146.967913,20.1625862 C146.826894,19.2074138 146.548296,18.2384483 145.887913,17.5074138 C143.772627,14.9384483 139.76906,14.6694828 136.958996,16.172931 M133.234028,17.2591379 C134.620143,15.0177586 137.330461,14.0625862 139.851608,13.9832759 C142.431225,13.8556897 145.341034,14.2074138 147.225875,16.1660345 C148.622308,17.5246552 149.079761,19.5177586 149.155429,21.4039655 C144.230079,21.4487931 139.304729,21.3694828 134.382818,21.4453448 C134.496321,22.7798276 134.898741,24.1625862 135.934028,25.0798276 C137.846385,26.8418966 140.732117,27.0005172 143.156958,26.4556897 C144.766639,26.1074138 146.004856,24.8522414 146.596448,23.3487931 C147.346257,23.3453448 148.096066,23.3487931 148.849315,23.3556897 C148.20613,25.597069 146.235302,27.2212069 144.006512,27.7246552 C140.986639,28.4281034 137.505875,28.3074138 134.902181,26.4487931 C132.057722,24.4453448 131.521162,20.1591379 133.234028,17.2591379" id="Fill-34" fill="#FFFFFF"></path>
                    <g id="Group-38" transform="translate(0.000000, 0.323103)" fill="#FFFFFF">
                        <path d="M22.8646318,1.80982759 C22.6500076,1.85327586 22.4391669,1.75672414 22.2286701,1.73017241 C19.8729631,1.25051724 17.274772,1.43913793 15.2317146,2.80672414 C12.7797019,1.92189655 10.1426446,1.38741379 7.53172739,1.66155172 C5.59013503,1.86431034 3.64063185,2.76775862 2.52623694,4.42603448 C1.11742166,6.49396552 0.926529936,9.13534483 1.15112866,11.5598276 C1.60410955,14.7784483 2.38659363,17.9467241 3.38232611,21.037069 C4.03926879,22.9636207 4.76052994,24.9043103 5.92789299,26.5867241 C6.5205172,27.412931 7.30850446,28.2463793 8.36855541,28.3763793 C9.31131975,28.4908621 10.1632815,27.905 10.740772,27.2115517 C11.7392561,26.0118966 12.7673197,24.8360345 13.8328739,23.6977586 C14.5286828,24.0405172 15.2846828,24.2374138 16.0571924,24.295 C15.6389503,24.7925862 15.2943134,25.4415517 14.6291159,25.637069 C13.7324408,25.9839655 12.6806446,25.9377586 11.8899057,26.5363793 C11.4338293,26.8632759 11.4114726,27.5763793 11.8218038,27.9525862 C12.5623261,28.6743103 13.6543643,28.8294828 14.6401223,28.9118966 C16.0375873,29.0181034 17.4491541,28.547069 18.5105809,27.6294828 C18.503358,29.857069 18.5147083,32.0901724 18.7644153,34.305 C18.8885809,35.6022414 19.447842,36.8943103 20.4308484,37.7667241 C21.358479,38.5777586 22.6806191,38.747069 23.8576127,38.5415517 C25.0122497,38.3218966 26.2005936,37.9736207 27.1031159,37.1822414 C28.0627338,36.335 28.4713452,35.0543103 28.6622369,33.8253448 C29.0068739,31.6243103 29.2689631,29.4108621 29.5186701,27.1991379 C31.9885682,27.617069 34.7821223,27.142931 36.6274089,25.335 C37.0219185,24.9632759 37.3957911,24.3184483 37.0064408,23.8125862 C36.606428,23.3481034 35.9243771,23.4753448 35.3957274,23.5805172 C34.1265554,23.807069 32.7473197,24.0712069 31.517358,23.5425862 C33.7124408,20.0708621 35.439065,16.2787931 36.404186,12.277069 C36.7557019,10.7556897 37.0260459,9.20086207 36.9758293,7.635 C36.9369631,6.75810345 36.815549,5.82568966 36.2813962,5.09982759 C34.9592561,3.35224138 33.0431159,2.07844828 30.929893,1.50913793 C28.2914599,0.791896552 25.4600713,1.00568966 22.8646318,1.80982759 M22.8728866,0.685689655 C25.2550777,0.059137931 27.7751924,-0.207758621 30.2131032,0.25637931 C32.4264153,0.65637931 34.5324153,1.69810345 36.1348739,3.29051724 C36.8434089,4.00224138 37.5629503,4.77982759 37.8295108,5.77810345 C38.3065682,7.49362069 38.1167083,9.30982759 37.8295108,11.0408621 C37.0735108,15.1936207 35.4376892,19.1436207 33.3426955,22.7918966 C34.2854599,22.7918966 35.1921096,22.4912069 36.1266191,22.4294828 C37.0428994,22.3694828 38.0221223,22.9343103 38.2422497,23.8656897 C38.5184408,24.857069 37.8965809,25.8174138 37.1684408,26.4325862 C35.3148994,28.0867241 32.7431924,28.6336207 30.3204153,28.4936207 C30.1756127,31.0008621 30.1253962,33.607069 29.0694726,35.9336207 C28.5982624,36.9712069 27.8546446,37.897069 26.879893,38.4967241 C25.9467592,39.0798276 24.8633197,39.3553448 23.795014,39.5594828 C22.6262752,39.7705172 21.3443771,39.6556897 20.3362624,38.9818966 C19.4045045,38.3877586 18.820135,37.3877586 18.4854726,36.3560345 C17.6582752,34.1984483 17.740479,31.8467241 17.6431414,29.5746552 C16.0028484,30.2360345 14.1369248,30.2346552 12.4728994,29.6612069 C11.8885299,29.457069 11.3726064,29.1018966 10.9289121,28.6743103 C10.0728229,29.387069 8.89273376,29.7536207 7.79794395,29.4432759 C6.40460637,29.062931 5.41884841,27.8912069 4.67798217,26.7122414 C3.39367643,24.5953448 2.58745987,22.2312069 1.87617325,19.8694828 C1.09093758,17.1415517 0.424364331,14.3701724 0.0645936306,11.5512069 C-0.137648408,9.04568966 0.0869503185,6.36534483 1.43557452,4.17982759 C2.51901401,2.39017241 4.42002038,1.19465517 6.45207134,0.796034483 C9.33230064,0.208793103 12.3012688,0.776724138 15.0642115,1.64224138 C15.958135,1.23948276 16.8506828,0.798793103 17.8299057,0.639482759 C19.4935873,0.301206897 21.2064535,0.45637931 22.8728866,0.685689655" id="Fill-36"></path>
                    </g>
                </g>
            </g>
        </g>
    </g>
</svg>