<?xml version="1.0" encoding="UTF-8"?>
<svg width="26px" height="26px" viewBox="0 0 26 26" version="1.1" xmlns="http://www.w3.org/2000/svg" xmlns:xlink="http://www.w3.org/1999/xlink">
    <!-- Generator: Sketch 40 (33762) - http://www.bohemiancoding.com/sketch -->
    <title>Fill 1</title>
    <desc>Created with Sketch.</desc>
    <defs></defs>
    <g id="Page-1" stroke="none" stroke-width="1" fill="none" fill-rule="evenodd">
        <g id="Artboard" transform="translate(-333.000000, -20.000000)" fill="#090C16">
            <path d="M350.363704,33.0016609 L358.548705,24.8166603 C359.150432,24.2130355 359.150432,23.2373652 358.548705,22.6337403 L356.365785,20.4527186 C355.764058,19.8490938 354.788388,19.8490938 354.182865,20.4527186 L345.999763,28.6358211 L337.814762,20.4546168 C337.214934,19.850992 336.237365,19.850992 335.635639,20.4546168 L333.452719,22.6375367 C332.849094,23.2392634 332.849094,24.2130355 333.452719,24.8185585 L341.633923,33.0016609 L333.454617,41.1847634 C332.850992,41.78649 332.850992,42.7621603 333.454617,43.3638869 L335.637537,45.5449086 C336.239263,46.1504317 337.214934,46.1504317 337.818558,45.5449086 L345.999763,37.3656026 L354.180967,45.5468068 C354.78649,46.1504317 355.76216,46.1504317 356.363887,45.5468068 L358.546807,43.3657851 C359.148533,42.7640585 359.148533,41.78649 358.546807,41.1847634 L350.363704,33.0016609 Z" id="Fill-1"></path>
        </g>
    </g>
</svg>