<?xml version="1.0" encoding="UTF-8"?>
<svg width="32px" height="27px" viewBox="0 0 32 27" version="1.1" xmlns="http://www.w3.org/2000/svg" xmlns:xlink="http://www.w3.org/1999/xlink">
    <!-- Generator: Sketch 40 (33762) - http://www.bohemiancoding.com/sketch -->
    <title>reorder</title>
    <desc>Created with Sketch.</desc>
    <defs></defs>
    <g id="Page-1" stroke="none" stroke-width="1" fill="none" fill-rule="evenodd">
        <g id="Client-page_payments_step1-active-step1---paid" transform="translate(-1366.000000, -30.000000)" fill="#FFFFFF">
            <g id="reorder" transform="translate(1366.000000, 30.000000)">
                <path d="M31.648352,22.529221 L31.648352,25.1590909 C31.648352,25.5152197 31.5178572,25.8234075 31.2568677,26.0836544 C30.9958794,26.3439025 30.6868135,26.4740265 30.3296702,26.4740265 L1.31868185,26.4740265 C0.961538462,26.4740265 0.652472615,26.3439025 0.391483077,26.0836544 C0.130494769,25.8234075 0,25.5152197 0,25.1590909 L0,22.529221 C0,22.1730922 0.130494769,21.8649044 0.391483077,21.6046575 C0.652472615,21.3444094 0.961538462,21.2142854 1.31868185,21.2142854 L30.3296702,21.2142854 C30.6868135,21.2142854 30.9958794,21.3444094 31.2568677,21.6046575 C31.5178572,21.8649044 31.648352,22.1730922 31.648352,22.529221 L31.648352,22.529221 Z M31.648352,12.0097399 L31.648352,14.6396099 C31.648352,14.9957386 31.5178572,15.3039265 31.2568677,15.5641745 C30.9958794,15.8244214 30.6868135,15.9545455 30.3296702,15.9545455 L1.31868185,15.9545455 C0.961538462,15.9545455 0.652472615,15.8244214 0.391483077,15.5641745 C0.130494769,15.3039265 0,14.9957386 0,14.6396099 L0,12.0097399 C0,11.6536124 0.130494769,11.3454245 0.391483077,11.0851765 C0.652472615,10.8249284 0.961538462,10.6948055 1.31868185,10.6948055 L30.3296702,10.6948055 C30.6868135,10.6948055 30.9958794,10.8249284 31.2568677,11.0851765 C31.5178572,11.3454245 31.648352,11.6536124 31.648352,12.0097399 L31.648352,12.0097399 Z M31.648352,1.49026009 L31.648352,4.12013005 C31.648352,4.47625759 31.5178572,4.78444664 31.2568677,5.0446935 C30.9958794,5.30494159 30.6868135,5.43506441 30.3296702,5.43506441 L1.31868185,5.43506441 C0.961538462,5.43506441 0.652472615,5.30494159 0.391483077,5.0446935 C0.130494769,4.78444664 0,4.47625759 0,4.12013005 L0,1.49026009 C0,1.13413132 0.130494769,0.8259435 0.391483077,0.565696636 C0.652472615,0.305448545 0.961538462,0.1753245 1.31868185,0.1753245 L30.3296702,0.1753245 C30.6868135,0.1753245 30.9958794,0.305448545 31.2568677,0.565696636 C31.5178572,0.8259435 31.648352,1.13413132 31.648352,1.49026009 L31.648352,1.49026009 Z" id="Shape"></path>
            </g>
        </g>
    </g>
</svg>