<svg width="102" height="102" viewBox="0 0 102 102" xmlns="http://www.w3.org/2000/svg"><title>education</title><g fill="none" fill-rule="evenodd"><path d="M51 1c27.614 0 50 22.386 50 49.999 0 27.615-22.386 50-50 50s-50-22.385-50-50C1 23.386 23.386 1 51 1z" stroke="#5CA0DF" stroke-width="2"/><path d="M60.24 73.299a.946.946 0 0 0-1.147.687l-.945 3.787a.944.944 0 0 0 .918 1.175.947.947 0 0 0 .917-.717l.946-3.785a.945.945 0 0 0-.688-1.147M48.656 54.346a.948.948 0 0 0 .361-.072l10.41-4.307a.947.947 0 0 0-.726-1.749l-10.045 4.158L22.16 41.412v-.314a.947.947 0 0 0-1.892 0v.946c0 .383.231.73.584.874l27.442 11.356a.943.943 0 0 0 .36.072m11.258 9.694a.944.944 0 0 0-1.266-.43c-1.797.89-4.799 1.923-9.044 2.063v-8.489a.947.947 0 0 0-1.893 0v8.482c-11.75-.376-15.54-7.495-16.086-8.678v-6.427a.945.945 0 1 0-1.892 0v6.623c0 .121.023.239.068.354.164.409 4.19 10.055 18.858 10.055 5.126 0 8.718-1.243 10.827-2.286a.942.942 0 0 0 .428-1.266m2.938 10.175a.947.947 0 0 0-.947.947v2.84a.946.946 0 0 0 1.894 0v-2.84a.947.947 0 0 0-.947-.947" fill="#5CA0DF"/><path d="M62.85 71.38a.95.95 0 0 1-.947-.948.948.948 0 0 1 1.894 0 .95.95 0 0 1-.947.948M48.656 39.206c-1.155 0-1.893-.56-1.893-.946 0-.387.738-.947 1.893-.947 1.156 0 1.893.56 1.893.947 0 .386-.737.946-1.893.946m27.442.946a.947.947 0 0 0-.947.946v.313l-11.354 4.672v-1.708l12.662-5.241a.946.946 0 0 0 .001-1.75L49.018 26.03a.943.943 0 0 0-.723 0L20.853 37.384a.946.946 0 0 0 0 1.75l27.442 11.354a.932.932 0 0 0 .724 0l9.921-4.106a.945.945 0 1 0-.722-1.747l-9.562 3.955L23.69 38.26l24.966-10.332L73.623 38.26 62.76 42.756 52.352 38.87c.057-.196.09-.4.09-.61 0-1.592-1.663-2.839-3.785-2.839-2.124 0-3.786 1.247-3.786 2.839 0 1.59 1.662 2.838 3.786 2.838.947 0 1.791-.26 2.448-.675l10.798 4.033v23.311a2.837 2.837 0 0 0-1.891 2.665 2.842 2.842 0 0 0 2.838 2.839 2.842 2.842 0 0 0 2.839-2.839 2.837 2.837 0 0 0-1.892-2.664v-5.37c2.716-2.051 3.69-4.783 3.733-4.903a.98.98 0 0 0 .051-.31V50.56a.945.945 0 1 0-1.892 0v6.448c-.163.402-.733 1.639-1.892 2.86V48.13l12.661-5.21a.945.945 0 0 0 .585-.877v-.946a.946.946 0 0 0-.945-.946m-9.491 33.835a.947.947 0 0 0-1.837.46l.947 3.786a.947.947 0 0 0 1.837-.46l-.947-3.786z" fill="#5CA0DF"/></g></svg>