<svg width="102" height="102" viewBox="0 0 102 102" xmlns="http://www.w3.org/2000/svg"><title>fantasy sport</title><g fill="none" fill-rule="evenodd"><path d="M1 51C1 23.386 23.386 1 51 1s50 22.386 50 50-22.386 50-50 50S1 78.614 1 51z" stroke="#5CA0DF" stroke-width="2"/><path d="M41.852 33.373a1.03 1.03 0 0 0-1.18 1.69A6.739 6.739 0 0 1 42.58 37.1a1.03 1.03 0 1 0 1.765-1.064 8.835 8.835 0 0 0-2.492-2.663m28.58 0a1.031 1.031 0 0 0-1.179 1.69 6.748 6.748 0 0 1 1.905 2.037 1.03 1.03 0 1 0 1.766-1.064 8.848 8.848 0 0 0-2.492-2.663" fill="#5CA0DF"/><path d="M75.053 70.086a8.012 8.012 0 0 1-1.602.165c-3.675 0-6.887-2.599-7.639-6.178l-2.298-10.87a5.918 5.918 0 0 0 .989-4.045c.401.053.806.084 1.218.084 4.839 0 8.776-3.91 8.776-8.72 0-.567-.464-1.029-1.036-1.029-.573 0-1.036.462-1.036 1.03 0 3.67-3.008 6.659-6.704 6.659a6.748 6.748 0 0 1-1.977-.294 6.025 6.025 0 0 0-3.692-2.807 6.597 6.597 0 0 1-1.036-3.558c0-3.674 3.008-6.66 6.705-6.66.572 0 1.036-.46 1.036-1.03 0-.568-.464-1.03-1.036-1.03-4.84 0-8.778 3.911-8.778 8.72 0 1.19.241 2.353.706 3.43-2.9.424-5.13 2.912-5.13 5.907 0 .596.09 1.17.254 1.716h-2.857c.164-.545.254-1.12.254-1.716 0-2.997-2.231-5.483-5.13-5.908a8.635 8.635 0 0 0 .707-3.43c0-.569-.465-1.03-1.038-1.03-.572 0-1.036.461-1.036 1.03a6.582 6.582 0 0 1-1.038 3.559 6.037 6.037 0 0 0-3.692 2.805 6.69 6.69 0 0 1-1.974.296c-3.696 0-6.704-2.988-6.704-6.66 0-3.673 3.008-6.66 6.704-6.66.572 0 1.036-.46 1.036-1.028 0-.571-.464-1.03-1.036-1.03-4.84 0-8.778 3.91-8.778 8.719 0 4.807 3.938 8.72 8.778 8.72.409 0 .816-.032 1.218-.087a5.915 5.915 0 0 0 .987 4.043l-2.3 10.874c-.751 3.58-3.962 6.178-7.637 6.178-.531 0-1.07-.056-1.602-.165-4.216-.873-6.93-4.99-6.053-9.178l5.53-26.362c.877-4.186 5.023-6.882 9.238-6.012a7.829 7.829 0 0 1 4.503 2.746c.197.244.495.386.81.386h19.361c.315 0 .614-.142.809-.386a7.835 7.835 0 0 1 4.504-2.746c4.215-.87 8.36 1.826 9.237 6.012l5.531 26.362c.878 4.188-1.837 8.306-6.052 9.178m-16.52-16.313c-2.173 0-3.94-1.756-3.94-3.913 0-2.159 1.767-3.914 3.94-3.914 2.171 0 3.939 1.755 3.939 3.914 0 2.157-1.768 3.913-3.939 3.913m-14.376 0c-2.173 0-3.94-1.756-3.94-3.913 0-2.159 1.767-3.914 3.94-3.914 2.172 0 3.94 1.755 3.94 3.914 0 2.157-1.768 3.913-3.94 3.913m38.978 6.717l-5.53-26.362c-1.11-5.298-6.355-8.713-11.691-7.61a9.92 9.92 0 0 0-5.37 3.089h-18.4a9.92 9.92 0 0 0-5.372-3.09c-5.335-1.102-10.58 2.313-11.69 7.61l-5.53 26.363c-1.111 5.299 2.325 10.508 7.66 11.613.67.138 1.352.208 2.025.208 4.651 0 8.716-3.286 9.666-7.814l2.03-9.6a6.005 6.005 0 0 0 3.224.935 6.014 6.014 0 0 0 4.666-2.212.93.93 0 0 0 .168.015h4.704a.972.972 0 0 0 .17-.015 6.015 6.015 0 0 0 4.668 2.212 6.004 6.004 0 0 0 3.22-.933l2.03 9.595c.951 4.531 5.016 7.817 9.668 7.817.672 0 1.353-.07 2.024-.208 5.334-1.105 8.77-6.314 7.66-11.613" fill="#5CA0DF"/><path d="M36.864 35.106a1.03 1.03 0 0 0-1.03 1.03v2.199a1.03 1.03 0 1 0 2.06 0v-2.198a1.03 1.03 0 0 0-1.03-1.031m0 6.596a1.03 1.03 0 0 0-1.03 1.03v2.199a1.03 1.03 0 1 0 2.06 0v-2.2a1.03 1.03 0 0 0-1.03-1.03m-2.198-2.198h-2.199a1.03 1.03 0 0 0 0 2.061h2.2a1.03 1.03 0 1 0 0-2.06m6.595-.001h-2.2a1.031 1.031 0 0 0 0 2.061h2.2a1.03 1.03 0 1 0 0-2.06m24.184-4.398a1.03 1.03 0 0 0-1.031 1.03v2.199a1.03 1.03 0 0 0 2.062 0v-2.198a1.03 1.03 0 0 0-1.031-1.031m0 6.596a1.03 1.03 0 0 0-1.031 1.03v2.199a1.03 1.03 0 0 0 2.062 0v-2.2c0-.568-.462-1.03-1.031-1.03m-2.199-2.198h-2.198a1.031 1.031 0 0 0 0 2.061h2.198a1.03 1.03 0 1 0 0-2.06m6.595-.001h-2.198a1.03 1.03 0 1 0 0 2.061h2.198a1.03 1.03 0 1 0 0-2.06M44.01 48.297c-.871 0-1.58.71-1.58 1.58a1.581 1.581 0 0 0 3.16 0c0-.87-.71-1.58-1.58-1.58m9.344-8.794h-4.397a1.03 1.03 0 1 0 0 2.061h4.397a1.03 1.03 0 0 0 0-2.06m4.946 8.793c-.871 0-1.58.71-1.58 1.58a1.581 1.581 0 0 0 3.16 0c0-.87-.71-1.58-1.58-1.58" fill="#5CA0DF"/></g></svg>