<svg width="103" height="103" viewBox="0 0 103 103" xmlns="http://www.w3.org/2000/svg"><title>ic_real estate</title><g fill="none" fill-rule="evenodd"><path d="M1 51.153C1 23.455 23.454 1 51.152 1c27.7 0 50.154 22.454 50.154 50.152 0 27.699-22.454 50.153-50.154 50.153C23.454 101.306 1 78.852 1 51.153z" stroke="#5CA0DF" stroke-width="2"/><path d="M47.43 62.364v-.07c.453.797.876 1.533 1.259 2.189h-8.9l-4.51 8.833h31.748l-4.511-8.833H54.15c.372-.637.78-1.35 1.218-2.12h8.798l7.147 12.956H30.99l7.147-12.955h9.292zm5.686 3.886h8.327l2.706 5.3H38.158l2.705-5.3h8.86c.525.887.867 1.448.947 1.58l.75 1.226.748-1.226c.08-.132.422-.693.948-1.58zm-7.72-11.37c-4.38-8.394-6.696-14.386-6.696-17.33 0-4.09 1.91-7.848 5.097-10.237v9.025h-.82v1.764h17.227v-1.764h-.936v-7.301h-6.33v-4.178c6.312.758 11.2 6.159 11.2 12.69 0 2.944-2.312 8.932-6.692 17.323a236.42 236.42 0 0 1-6.026 10.785c-1.188-2-3.615-6.17-6.023-10.777zm.159-28.676c.027-.013.056-.03.084-.044l-.084-.163V20.91h5.626v15.427h-5.626V26.204zm7.384 10.133h4.57v-5.534h-4.57v5.534zM28.007 77.085h46.29l-9.094-16.488H56.36c4.04-7.27 9.536-18.066 9.536-23.047 0-7.504-5.7-13.7-12.958-14.47v-3.937h-9.142v6.035c-4.257 2.645-6.855 7.28-6.855 12.372 0 4.978 5.493 15.778 9.537 23.047h-9.377l-9.095 16.488z" fill="#5CA0DF"/></g></svg>