<?xml version="1.0" encoding="UTF-8"?>
<svg width="102px" height="102px" viewBox="0 0 102 102" version="1.1" xmlns="http://www.w3.org/2000/svg" xmlns:xlink="http://www.w3.org/1999/xlink">
    <!-- Generator: Sketch 40 (33762) - http://www.bohemiancoding.com/sketch -->
    <title>e-commerce</title>
    <desc>Created with Sketch.</desc>
    <defs></defs>
    <g id="Page-1" stroke="none" stroke-width="1" fill="none" fill-rule="evenodd">
        <g id="Desktop-HD" transform="translate(-1172.000000, -2888.000000)">
            <g id="AREAS-OF-expertise" transform="translate(58.000000, 2761.000000)">
                <g id="e-commerce" transform="translate(1066.000000, 128.000000)">
                    <g transform="translate(49.000000, 0.000000)">
                        <path d="M0,49.9995015 C0,22.3857235 22.3855004,0 49.9990031,0 C77.6144996,0 100,22.3857235 100,49.9995015 C100,77.6142765 77.6144996,100 49.9990031,100 C22.3855004,100 0,77.6142765 0,49.9995015 L0,49.9995015 Z" id="Stroke-1" stroke="#5CA0DF" stroke-width="2"></path>
                        <path d="M72.1446,46.8597 L58.6666,46.8597 L58.6666,31.7037 L60.1756,31.7037 C60.1626,31.9107 60.1546,32.1187 60.1546,32.3297 L60.1546,35.0837 L61.7286,35.0837 L61.7286,32.3297 C61.7286,32.1177 61.7376,31.9087 61.7526,31.7037 L69.3316,31.7037 C69.3396,31.9087 69.3436,32.1177 69.3436,32.3297 L69.3436,35.0837 L70.9176,35.0837 L70.9176,32.3297 C70.9176,32.1187 70.9136,31.9107 70.9046,31.7037 L72.1446,31.7037 L72.1446,46.8597 Z M65.8846,27.2147 C67.8506,27.2147 68.7556,28.3307 69.1246,29.9617 L62.1016,29.9617 C62.6756,28.3307 63.9186,27.2147 65.8846,27.2147 L65.8846,27.2147 Z M73.8866,29.9617 L70.6986,29.9617 C70.1896,27.4387 68.7386,25.6417 65.8846,25.6417 C63.0306,25.6417 61.1646,27.4387 60.4646,29.9617 L56.9246,29.9617 L56.9246,48.6017 L73.8866,48.6017 L73.8866,29.9617 Z" id="Fill-3" fill="#5CA0DF"></path>
                        <polygon id="Fill-5" fill="#5CA0DF" points="43.022 30.537 44.596 30.537 44.596 28.963 43.022 28.963"></polygon>
                        <polygon id="Fill-7" fill="#5CA0DF" points="37.515 30.537 42.236 30.537 42.236 28.963 37.515 28.963"></polygon>
                        <path d="M41.0547,71.4515 C40.4047,71.4515 39.8747,70.9225 39.8747,70.2715 C39.8747,69.6215 40.4047,69.0915 41.0547,69.0915 C41.7047,69.0915 42.2347,69.6215 42.2347,70.2715 C42.2347,70.9225 41.7047,71.4515 41.0547,71.4515 M43.8097,70.2715 C43.8097,68.7525 42.5747,67.5165 41.0547,67.5165 C39.5357,67.5165 38.3007,68.7525 38.3007,70.2715 C38.3007,71.7905 39.5357,73.0255 41.0547,73.0255 C42.5747,73.0255 43.8097,71.7905 43.8097,70.2715" id="Fill-8" fill="#5CA0DF"></path>
                        <path d="M73.3272,57.0247 L69.5362,58.8947 L61.8462,60.4337 L51.7712,60.4337 L48.5292,59.7877 L48.5292,55.7127 L54.2932,55.7127 L56.7682,54.0617 L63.1302,51.8297 C63.3522,51.7527 63.5922,51.7677 63.8032,51.8747 C64.0132,51.9817 64.1672,52.1647 64.2342,52.3907 C64.3532,52.7817 64.1772,53.2047 63.8152,53.3957 L59.4192,55.7337 L62.5232,57.2867 L69.9922,57.2867 L72.6942,55.8087 C72.8632,55.7167 73.0572,55.6977 73.2392,55.7607 C73.4222,55.8207 73.5672,55.9527 73.6462,56.1277 C73.8002,56.4657 73.6602,56.8607 73.3272,57.0247 L73.3272,57.0247 Z M39.0882,61.2207 L46.9562,61.2207 L46.9562,54.1387 L39.0882,54.1387 L39.0882,61.2207 Z M53.2502,65.9447 L53.2502,65.9447 L28.8582,65.9447 L28.8582,33.6837 L53.2552,33.6837 L53.2672,54.1387 L48.5292,54.1387 L48.5292,52.5647 L37.5142,52.5647 L37.5142,62.7947 L48.5292,62.7947 L48.5292,61.3927 L51.5312,61.9927 L53.2502,61.9947 L53.2502,65.9447 Z M53.2502,72.2387 C53.2502,72.6727 52.8982,73.0257 52.4642,73.0257 L41.0552,73.0257 L29.6462,73.0257 C29.2122,73.0257 28.8582,72.6727 28.8582,72.2387 L28.8582,67.5167 L41.0552,67.5167 L53.2502,67.5167 L53.2502,72.2387 Z M28.8582,28.1757 C28.8582,27.7427 29.2122,27.3887 29.6452,27.3887 L52.4642,27.3887 C52.8982,27.3887 53.2502,27.7427 53.2502,28.1757 L53.2532,32.1107 L28.8582,32.1107 L28.8582,28.1757 Z M67.8082,53.7387 C67.9762,53.3167 68.6122,53.2407 68.8772,53.6077 C68.9932,53.7697 69.0252,53.9727 68.9602,54.1617 L68.4392,55.7127 L67.0182,55.7127 L67.8082,53.7387 Z M75.0812,55.4777 C74.8212,54.9077 74.3332,54.4667 73.7372,54.2677 C73.1442,54.0687 72.4892,54.1287 71.9402,54.4277 L70.2142,55.3717 L70.4512,54.6647 C70.6762,53.9997 70.5652,53.2607 70.1562,52.6897 C69.7462,52.1197 69.0812,51.7787 68.3792,51.7787 C67.4782,51.7787 66.6822,52.3187 66.3482,53.1537 L65.3242,55.7127 L62.8942,55.7127 L62.8522,55.6917 L64.5552,54.7867 C65.5782,54.2447 66.0772,53.0437 65.7402,51.9347 C65.5472,51.2947 65.1112,50.7737 64.5142,50.4717 C63.9192,50.1697 63.2402,50.1247 62.6092,50.3457 L56.1542,52.6107 L54.8402,53.4697 L54.8252,28.1757 C54.8242,26.8747 53.7662,25.8157 52.4642,25.8157 L29.6462,25.8157 C28.3452,25.8157 27.2852,26.8747 27.2852,28.1757 L27.2852,72.2387 C27.2852,73.5407 28.3452,74.5997 29.6452,74.5997 L52.4642,74.5997 C53.7662,74.5997 54.8242,73.5407 54.8242,72.2387 L54.8242,61.9987 L62.0002,62.0057 L69.9452,60.4187 L74.0222,58.4347 C75.1212,57.8937 75.5862,56.5947 75.0812,55.4777 L75.0812,55.4777 Z" id="Fill-9" fill="#5CA0DF"></path>
                    </g>
                </g>
            </g>
        </g>
    </g>
</svg>