<?xml version="1.0" encoding="UTF-8"?>
<svg width="102px" height="102px" viewBox="0 0 102 102" version="1.1" xmlns="http://www.w3.org/2000/svg" xmlns:xlink="http://www.w3.org/1999/xlink">
    <!-- Generator: Sketch 40 (33762) - http://www.bohemiancoding.com/sketch -->
    <title>education</title>
    <desc>Created with Sketch.</desc>
    <defs></defs>
    <g id="Page-1" stroke="none" stroke-width="1" fill="none" fill-rule="evenodd">
        <g id="Desktop-HD" transform="translate(-382.000000, -2888.000000)">
            <g id="AREAS-OF-expertise" transform="translate(58.000000, 2761.000000)">
                <g id="education" transform="translate(266.000000, 128.000000)">
                    <g transform="translate(59.000000, 0.000000)">
                        <path d="M50,0 C77.6144996,0 100,22.3855004 100,49.9990031 C100,77.6135027 77.6144996,99.9990031 50,99.9990031 C22.3855004,99.9990031 1.42108547e-14,77.6135027 1.42108547e-14,49.9990031 C1.42108547e-14,22.3855004 22.3855004,0 50,0 Z" id="Stroke-1" stroke="#5CA0DF" stroke-width="2"></path>
                        <path d="M59.2406931,72.2988119 C58.7327723,72.170099 58.219901,72.4819802 58.0931683,72.9859406 L57.1476238,76.7730693 C57.019901,77.28 57.3288119,77.7928713 57.8357426,77.919604 C57.9129703,77.9394059 57.990198,77.9483168 58.0664356,77.9483168 C58.490198,77.9483168 58.8753465,77.6611881 58.9832673,77.2314851 L59.9288119,73.4463366 C60.0565347,72.9394059 59.7476238,72.4255446 59.2406931,72.2988119" id="Fill-3" fill="#5CA0DF"></path>
                        <path d="M47.6558416,53.3457426 C47.7786139,53.3457426 47.9023762,53.3219802 48.0172277,53.2744554 L58.4271287,48.9665347 C58.9093069,48.7675248 59.1380198,48.2130693 58.9390099,47.729901 C58.7390099,47.2477228 58.1835644,47.0190099 57.7013861,47.2180198 L47.6558416,51.3764356 L21.1607921,40.4120792 L21.1607921,40.0982178 C21.1607921,39.5764356 20.7360396,39.1516832 20.2152475,39.1516832 C19.6924752,39.1516832 19.2687129,39.5764356 19.2687129,40.0982178 L19.2687129,41.0437624 C19.2687129,41.4269307 19.500396,41.7734653 19.8528713,41.9180198 L47.2954455,53.2744554 C47.410297,53.3219802 47.5330693,53.3457426 47.6558416,53.3457426" id="Fill-5" fill="#5CA0DF"></path>
                        <path d="M58.9123762,63.0407921 C58.6826733,62.5714851 58.1163366,62.3784158 57.6460396,62.610099 C55.8490099,63.4992079 52.8470297,64.5328713 48.6024752,64.6734653 L48.6024752,56.1843564 C48.6024752,55.6625743 48.1787129,55.2378218 47.6569307,55.2378218 C47.1341584,55.2378218 46.7094059,55.6625743 46.7094059,56.1843564 L46.7094059,64.6655446 C34.959901,64.290297 31.1688119,57.1714851 30.6232673,55.9883168 L30.6232673,49.5605941 C30.6232673,49.0378218 30.200495,48.6150495 29.6777228,48.6150495 C29.1549505,48.6150495 28.7311881,49.0378218 28.7311881,49.5605941 L28.7311881,56.1843564 C28.7311881,56.3051485 28.7539604,56.4229703 28.7985149,56.5378218 C28.9628713,56.9467327 32.989604,66.5932673 47.6569307,66.5932673 C52.7826733,66.5932673 56.3747525,65.349703 58.4836634,64.3071287 C58.9539604,64.0754455 59.1450495,63.5091089 58.9123762,63.0407921" id="Fill-7" fill="#5CA0DF"></path>
                        <path d="M61.850297,73.2164356 C61.3265347,73.2164356 60.9027723,73.6411881 60.9027723,74.1629703 L60.9027723,77.0025743 C60.9027723,77.5253465 61.3265347,77.9481188 61.850297,77.9481188 C62.3730693,77.9481188 62.7968317,77.5253465 62.7968317,77.0025743 L62.7968317,74.1629703 C62.7968317,73.6411881 62.3730693,73.2164356 61.850297,73.2164356" id="Fill-9" fill="#5CA0DF"></path>
                        <path d="M61.850297,70.379505 C61.3275248,70.379505 60.9027723,69.9527723 60.9027723,69.4319802 C60.9027723,68.9111881 61.3275248,68.4864356 61.850297,68.4864356 C62.3720792,68.4864356 62.7968317,68.9111881 62.7968317,69.4319802 C62.7968317,69.9527723 62.3720792,70.379505 61.850297,70.379505 M47.6562376,38.2062376 C46.5007921,38.2062376 45.7631683,37.6458416 45.7631683,37.259703 C45.7631683,36.8725743 46.5007921,36.3131683 47.6562376,36.3131683 C48.8116832,36.3131683 49.5493069,36.8725743 49.5493069,37.259703 C49.5493069,37.6458416 48.8116832,38.2062376 47.6562376,38.2062376 M75.0978218,39.1517822 C74.5740594,39.1517822 74.1512871,39.5765347 74.1512871,40.0983168 L74.1512871,40.4111881 L62.7968317,45.0834653 L62.7968317,43.3745545 L75.4592079,38.1339604 C75.8126733,37.9874257 76.0433663,37.6428713 76.0433663,37.259703 C76.0433663,36.8755446 75.8126733,36.5309901 75.460198,36.3844554 L48.0176238,25.03 C47.7849505,24.9339604 47.5265347,24.9339604 47.2948515,25.03 L19.8532673,36.3844554 C19.499802,36.5309901 19.2691089,36.8755446 19.2691089,37.259703 C19.2691089,37.6428713 19.499802,37.9874257 19.8532673,38.1339604 L47.2948515,49.4884158 C47.409703,49.5369307 47.5334653,49.5606931 47.6572277,49.5606931 C47.7790099,49.5606931 47.9027723,49.5369307 48.0186139,49.4884158 L57.940396,45.3824752 C58.4245545,45.1844554 58.6522772,44.63 58.4532673,44.1468317 C58.2542574,43.6646535 57.7007921,43.4359406 57.2176238,43.6349505 L47.6562376,47.590396 L22.689901,37.259703 L47.6562376,26.9280198 L72.6225743,37.259703 L61.760198,41.7557426 L51.3522772,37.869604 C51.4087129,37.6735644 51.4413861,37.4705941 51.4413861,37.259703 C51.4413861,35.6676238 49.7790099,34.4210891 47.6572277,34.4210891 C45.5334653,34.4210891 43.8710891,35.6676238 43.8710891,37.259703 C43.8710891,38.8507921 45.5334653,40.0983168 47.6572277,40.0983168 C48.6037624,40.0983168 49.4483168,39.8389109 50.1047525,39.4230693 L60.9027723,43.4557426 L60.9027723,46.4874257 L60.9027723,66.7676238 C59.8057426,67.1606931 59.0116832,68.200297 59.0116832,69.4319802 C59.0116832,70.9963366 60.2849505,72.2705941 61.850297,72.2705941 C63.4156436,72.2705941 64.6889109,70.9963366 64.6889109,69.4319802 C64.6889109,68.200297 63.8948515,67.1606931 62.7968317,66.7676238 L62.7968317,61.3973267 C65.5126733,59.3468317 66.4869307,56.6151485 66.529505,56.4953465 C66.5631683,56.3943564 66.5809901,56.290396 66.5809901,56.1844554 L66.5809901,49.5606931 C66.5809901,49.0379208 66.1582178,48.6151485 65.6354455,48.6151485 C65.1116832,48.6151485 64.6889109,49.0379208 64.6889109,49.5606931 L64.6889109,56.0092079 C64.5255446,56.4111881 63.9562376,57.6478218 62.7968317,58.8686139 L62.7968317,47.1309901 L75.4582178,41.920099 C75.8126733,41.7745545 76.0433663,41.4290099 76.0433663,41.0438614 L76.0433663,40.0983168 C76.0433663,39.5765347 75.6205941,39.1517822 75.0978218,39.1517822" id="Fill-11" fill="#5CA0DF"></path>
                        <path d="M65.6071287,72.9862376 C65.480396,72.4812871 64.9645545,72.1713861 64.459604,72.2991089 C63.9526733,72.4258416 63.6447525,72.939703 63.770495,73.4466337 L64.7170297,77.2317822 C64.8249505,77.6614851 65.210099,77.9486139 65.6338614,77.9486139 C65.710099,77.9486139 65.7873267,77.939703 65.8645545,77.9189109 C66.370495,77.7931683 66.6794059,77.280297 66.5536634,76.7723762 L65.6071287,72.9862376 Z" id="Fill-13" fill="#5CA0DF"></path>
                    </g>
                </g>
            </g>
        </g>
    </g>
</svg>