<?xml version="1.0" encoding="UTF-8"?>
<svg width="102px" height="102px" viewBox="0 0 102 102" version="1.1" xmlns="http://www.w3.org/2000/svg" xmlns:xlink="http://www.w3.org/1999/xlink">
    <!-- Generator: Sketch 40 (33762) - http://www.bohemiancoding.com/sketch -->
    <title>healthcare</title>
    <desc>Created with Sketch.</desc>
    <defs></defs>
    <g id="Page-1" stroke="none" stroke-width="1" fill="none" fill-rule="evenodd">
        <g id="Desktop-HD" transform="translate(-915.000000, -2888.000000)">
            <g id="AREAS-OF-expertise" transform="translate(58.000000, 2761.000000)">
                <g id="healthcare" transform="translate(800.000000, 128.000000)">
                    <g transform="translate(58.000000, 0.000000)">
                        <path d="M0,50.0002015 C0,22.3864235 22.3855004,0.0007 49.9990031,0.0007 C77.6144996,0.0007 100,22.3864235 100,50.0002015 C100,77.6149765 77.6144996,100.0007 49.9990031,100.0007 C22.3855004,100.0007 0,77.6149765 0,50.0002015 L0,50.0002015 Z" id="Stroke-1" stroke="#5CA0DF" stroke-width="2"></path>
                        <path d="M64.5371,60.806 C60.0651,66.088 54.1391,70.779 48.6141,73.417 C43.0901,70.779 37.1631,66.088 32.6911,60.806 C30.0621,57.701 28.0611,54.577 26.7631,51.597 L36.4081,51.597 C36.7831,51.597 37.1101,51.342 37.2011,50.978 L38.1281,47.272 L40.8441,58.814 C40.9311,59.184 41.2601,59.445 41.6401,59.445 L41.6441,59.445 C42.0251,59.442 42.3541,59.177 42.4371,58.804 L44.0391,51.597 L53.8461,51.597 C54.2211,51.597 54.5481,51.342 54.6391,50.978 L55.5641,47.272 L58.2801,58.814 C58.3671,59.184 58.6971,59.445 59.0761,59.445 L59.0811,59.445 C59.4621,59.442 59.7911,59.177 59.8741,58.804 L61.4751,51.597 L70.4661,51.597 C69.1671,54.577 67.1661,57.701 64.5371,60.806 M38.5131,30.673 C42.1071,30.673 45.4901,32.072 48.0371,34.61 C48.3561,34.928 48.8721,34.928 49.1911,34.61 C51.7381,32.072 55.1211,30.673 58.7161,30.673 C66.1561,30.673 72.2091,36.726 72.2091,44.166 C72.2091,45.976 71.8341,47.927 71.1121,49.962 L60.8201,49.962 C60.4371,49.962 60.1051,50.229 60.0221,50.603 L59.0541,54.962 L56.3851,43.619 C56.2981,43.251 55.9721,42.991 55.5951,42.988 L55.5891,42.988 C55.2141,42.988 54.8871,43.244 54.7961,43.607 L53.2071,49.962 L43.3831,49.962 C43.0001,49.962 42.6681,50.229 42.5851,50.603 L41.6161,54.961 L38.9471,43.619 C38.8611,43.251 38.5351,42.991 38.1571,42.988 L38.1511,42.988 C37.7771,42.988 37.4501,43.244 37.3591,43.607 L35.7691,49.962 L26.1161,49.962 C25.3941,47.927 25.0191,45.976 25.0191,44.166 C25.0191,36.726 31.0721,30.673 38.5131,30.673 M58.7161,29.038 C54.9511,29.038 51.3941,30.406 48.6141,32.906 C45.8341,30.406 42.2771,29.038 38.5131,29.038 C30.1711,29.038 23.3851,35.824 23.3851,44.166 C23.3851,49.439 26.2471,55.724 31.4441,61.863 C36.2241,67.509 42.3571,72.321 48.2701,75.062 C48.3801,75.113 48.4971,75.138 48.6141,75.138 C48.7311,75.138 48.8491,75.113 48.9581,75.062 C54.8711,72.321 61.0041,67.51 65.7841,61.863 C70.9811,55.724 73.8441,49.439 73.8441,44.166 C73.8441,35.824 67.0581,29.038 58.7161,29.038" id="Fill-3" fill="#5CA0DF"></path>
                    </g>
                </g>
            </g>
        </g>
    </g>
</svg>