<?xml version="1.0" encoding="UTF-8"?>
<svg width="103px" height="103px" viewBox="0 0 103 103" version="1.1" xmlns="http://www.w3.org/2000/svg" xmlns:xlink="http://www.w3.org/1999/xlink">
    <!-- Generator: Sketch 40 (33762) - http://www.bohemiancoding.com/sketch -->
    <title>ic_Finance &amp; Banking</title>
    <desc>Created with Sketch.</desc>
    <defs></defs>
    <g id="Page-1" stroke="none" stroke-width="1" fill="none" fill-rule="evenodd">
        <g id="Desktop-HD" transform="translate(-1173.000000, -3092.000000)">
            <g id="AREAS-OF-expertise" transform="translate(58.000000, 2761.000000)">
                <g id="Finance-&amp;-Banking" transform="translate(1116.000000, 332.000000)">
                    <g id="ic_Finance-&amp;-Banking">
                        <path d="M0,50.152 C0,22.454 22.454,0 50.152,0 C77.852,0 100.306,22.454 100.306,50.152 C100.306,77.851 77.852,100.305 50.152,100.305 C22.454,100.305 0,77.851 0,50.152 L0,50.152 Z" id="Stroke-1" stroke="#5CA0DF" stroke-width="2"></path>
                        <path d="M73.9834,57.6722 C73.9834,58.2132 73.5434,58.6532 73.0024,58.6532 L71.3294,58.6532 C70.9554,58.6532 70.6244,58.8942 70.5064,59.2482 C69.2544,63.0472 66.3654,66.3822 62.3664,68.6412 C62.0494,68.8182 61.8784,69.1772 61.9384,69.5362 L62.5514,73.2152 C62.6004,73.5042 62.5224,73.7862 62.3334,74.0102 C62.1424,74.2342 61.8774,74.3582 61.5834,74.3582 L59.7864,74.3582 C59.3054,74.3582 58.8984,74.0132 58.8184,73.5372 L58.4624,71.3912 C58.4204,71.1502 58.2794,70.9352 58.0724,70.8032 C57.9314,70.7132 57.7704,70.6672 57.6074,70.6672 C57.5294,70.6672 57.4514,70.6792 57.3754,70.6992 C55.2574,71.2882 53.0564,71.5862 50.8314,71.5862 C48.6034,71.5862 46.4024,71.2892 44.2884,70.7012 C44.0504,70.6352 43.7974,70.6732 43.5904,70.8062 C43.3834,70.9372 43.2424,71.1522 43.2014,71.3932 L42.8444,73.5372 C42.7644,74.0132 42.3584,74.3582 41.8764,74.3582 L40.0794,74.3582 C39.7864,74.3582 39.5204,74.2342 39.3314,74.0102 C39.1414,73.7862 39.0634,73.5042 39.1124,73.2152 L39.7224,69.5482 C39.7824,69.1882 39.6114,68.8302 39.2944,68.6512 C33.7564,65.5292 30.4514,60.3892 30.4514,54.9022 C30.4514,45.7002 39.5934,38.2152 50.8314,38.2152 C53.5404,38.2152 56.1904,38.6542 58.7074,39.5222 C59.1204,39.6642 59.5734,39.4772 59.7654,39.0872 C60.7464,37.1032 62.6064,35.7822 64.7464,35.5002 L64.7464,42.3152 C64.7464,42.5772 64.8654,42.8262 65.0704,42.9892 C67.6884,45.0902 69.5684,47.7052 70.5064,50.5532 C70.6244,50.9082 70.9554,51.1482 71.3294,51.1482 L73.0024,51.1482 C73.5434,51.1482 73.9834,51.5882 73.9834,52.1292 L73.9834,57.6722 Z M45.2314,36.4072 L45.2314,33.6722 C46.3974,33.8802 47.1944,34.4862 47.1944,35.0402 C47.1944,35.5932 46.3974,36.1982 45.2314,36.4072 L45.2314,36.4072 Z M43.5004,31.7892 C42.3334,31.5802 41.5364,30.9742 41.5364,30.4212 C41.5364,29.8682 42.3334,29.2622 43.5004,29.0542 L43.5004,31.7892 Z M35.9944,32.7312 C35.9944,28.1142 39.7494,24.3582 44.3654,24.3582 C48.9814,24.3582 52.7364,28.1142 52.7364,32.7312 C52.7364,34.0592 52.4344,35.3272 51.8404,36.5022 C51.5054,36.4902 51.1694,36.4832 50.8314,36.4832 C49.9994,36.4832 49.1724,36.5242 48.3564,36.5982 C48.7204,36.1402 48.9264,35.6102 48.9264,35.0402 C48.9264,33.4672 47.3614,32.1952 45.2314,31.9202 L45.2314,29.0542 C46.3974,29.2622 47.1944,29.8682 47.1944,30.4212 C47.1944,30.8992 47.5824,31.2872 48.0604,31.2872 C48.5394,31.2872 48.9264,30.8992 48.9264,30.4212 C48.9264,28.8482 47.3614,27.5752 45.2314,27.3012 L45.2314,27.1892 C45.2314,26.7102 44.8434,26.3212 44.3654,26.3212 C43.8864,26.3212 43.5004,26.7102 43.5004,27.1892 L43.5004,27.3012 C41.3694,27.5752 39.8044,28.8482 39.8044,30.4212 C39.8044,31.9952 41.3694,33.2682 43.5004,33.5412 L43.5004,36.4072 C42.3334,36.1982 41.5364,35.5932 41.5364,35.0402 C41.5364,34.5622 41.1484,34.1742 40.6704,34.1742 C40.1924,34.1742 39.8044,34.5622 39.8044,35.0402 C39.8044,36.3072 40.8184,37.3772 42.3234,37.8902 C41.2184,38.2742 40.1504,38.7322 39.1304,39.2632 C37.1614,37.6802 35.9944,35.2662 35.9944,32.7312 L35.9944,32.7312 Z M23.9844,47.0492 C23.9844,46.2532 24.6324,45.6062 25.4274,45.6062 C26.2244,45.6062 26.8724,46.2532 26.8724,47.0492 C26.8724,48.1232 26.2704,49.4162 25.1274,50.8092 C24.4894,49.8392 23.9844,48.5872 23.9844,47.0492 L23.9844,47.0492 Z M73.0024,49.4162 L71.9424,49.4162 C70.8884,46.6002 69.0124,44.0222 66.4774,41.9042 L66.4774,34.5782 C66.4774,34.1002 66.0904,33.7112 65.6124,33.7112 C62.7064,33.7112 60.0744,35.2052 58.5784,37.6562 C56.9874,37.1592 55.3494,36.8202 53.6844,36.6382 C54.1984,35.4072 54.4684,34.0722 54.4684,32.7312 C54.4684,27.1602 49.9364,22.6262 44.3654,22.6262 C38.7944,22.6262 34.2614,27.1602 34.2614,32.7312 C34.2614,35.5672 35.4694,38.2752 37.5384,40.1772 C36.7414,40.6782 35.9774,41.2272 35.2564,41.8222 C31.3464,45.0532 29.0664,49.2822 28.7564,53.8302 C28.0744,53.5652 27.1594,53.0342 26.3014,52.2122 C26.2844,52.1952 26.2674,52.1792 26.2504,52.1622 C27.4474,50.7582 28.6034,48.9182 28.6034,47.0492 C28.6034,45.2982 27.1794,43.8742 25.4274,43.8742 C23.6764,43.8742 22.2534,45.2982 22.2534,47.0492 C22.2534,49.0442 22.9424,50.7522 23.9244,52.1122 C23.1874,52.8312 22.6014,53.2832 22.5934,53.2882 C22.2124,53.5792 22.1394,54.1222 22.4304,54.5022 C22.7194,54.8832 23.2634,54.9562 23.6434,54.6662 C23.7124,54.6132 24.3054,54.1562 25.0604,53.4252 C26.2724,54.6022 27.6554,55.3622 28.7394,55.6442 C29.0114,61.3032 32.3854,66.5382 37.9164,69.8542 L37.4024,72.9302 C37.2714,73.7192 37.4934,74.5212 38.0084,75.1312 C38.5254,75.7402 39.2804,76.0902 40.0794,76.0902 L41.8764,76.0902 C43.2084,76.0902 44.3344,75.1362 44.5534,73.8222 L44.7544,72.6112 C46.7324,73.0802 48.7714,73.3182 50.8314,73.3182 C52.8894,73.3182 54.9284,73.0802 56.9074,72.6092 L57.1104,73.8222 C57.3294,75.1362 58.4554,76.0902 59.7864,76.0902 L61.5834,76.0902 C62.3824,76.0902 63.1374,75.7402 63.6534,75.1312 C64.1704,74.5202 64.3914,73.7182 64.2604,72.9302 L63.7464,69.8412 C67.6444,67.5002 70.5244,64.1772 71.9424,60.3862 L73.0024,60.3862 C74.4994,60.3862 75.7154,59.1682 75.7154,57.6722 L75.7154,52.1292 C75.7154,50.6332 74.4984,49.4162 73.0024,49.4162 L73.0024,49.4162 Z" id="Fill-3" fill="#5CA0DF"></path>
                        <path d="M64.6885,48.4925 C64.2095,48.4925 63.8215,48.8805 63.8215,49.3585 L63.8215,51.2065 C63.8215,51.6835 64.2095,52.0715 64.6885,52.0715 C65.1675,52.0715 65.5535,51.6835 65.5535,51.2065 L65.5535,49.3585 C65.5535,48.8805 65.1675,48.4925 64.6885,48.4925" id="Fill-5" fill="#5CA0DF"></path>
                    </g>
                </g>
            </g>
        </g>
    </g>
</svg>