<?xml version="1.0" encoding="UTF-8"?>
<svg width="102px" height="102px" viewBox="0 0 102 102" version="1.1" xmlns="http://www.w3.org/2000/svg" xmlns:xlink="http://www.w3.org/1999/xlink">
    <!-- Generator: Sketch 40 (33762) - http://www.bohemiancoding.com/sketch -->
    <title>ic_Marketplaces</title>
    <desc>Created with Sketch.</desc>
    <defs></defs>
    <g id="Page-1" stroke="none" stroke-width="1" fill="none" fill-rule="evenodd">
        <g id="Desktop-HD" transform="translate(-383.000000, -3092.000000)">
            <g id="AREAS-OF-expertise" transform="translate(58.000000, 2761.000000)">
                <g id="Marketplaces" transform="translate(266.000000, 332.000000)">
                    <g id="ic_Marketplaces" transform="translate(60.000000, 0.000000)">
                        <path d="M49.9994652,0 C77.6136643,0 100,22.3863357 100,49.9994652 C100,77.6136643 77.6136643,100 49.9994652,100 C22.3863357,100 0,77.6136643 0,49.9994652 C0,22.3863357 22.3863357,0 49.9994652,0 Z" id="Stroke-1" stroke="#5CA0DF" stroke-width="2"></path>
                        <path d="M68.669,58.647 L68.669,52.526 L74.812,52.526 L74.812,56.029 C74.812,57.472 73.637,58.646 72.194,58.646 L68.669,58.647 Z M52.904,52.526 L59.035,52.526 L59.035,58.649 L52.904,58.651 L52.904,52.526 Z M37.564,52.526 L43.269,52.526 L43.269,58.654 L38.738,58.656 L37.564,52.526 Z M43.269,36.757 L43.269,42.892 L35.72,42.892 L34.546,36.76 L43.269,36.757 Z M68.669,50.774 L74.8,50.774 L74.8,44.643 L68.669,44.643 L68.669,50.774 Z M52.904,50.774 L59.035,50.774 L59.035,44.643 L52.904,44.643 L52.904,50.774 Z M45.02,42.89 L51.152,42.89 L51.152,36.759 L45.02,36.759 L45.02,42.89 Z M59.035,42.89 L52.904,42.89 L52.904,36.754 L59.035,36.751 L59.035,42.89 Z M60.787,42.89 L66.918,42.89 L66.918,36.759 L60.787,36.759 L60.787,42.89 Z M36.055,44.643 L43.269,44.643 L43.269,50.774 L37.23,50.774 L36.055,44.643 Z M45.02,50.774 L51.152,50.774 L51.152,44.643 L45.02,44.643 L45.02,50.774 Z M45.02,58.654 L45.02,52.526 L51.152,52.526 L51.152,58.652 L45.02,58.654 Z M60.787,50.774 L66.918,50.774 L66.918,44.643 L60.787,44.643 L60.787,50.774 Z M60.787,58.649 L60.787,52.526 L66.918,52.526 L66.918,58.648 L60.787,58.649 Z M74.812,42.89 L68.669,42.89 L68.669,36.749 L74.812,36.748 L74.812,42.89 Z M47.649,67.416 C47.649,69.348 46.077,70.921 44.145,70.921 C42.212,70.921 40.641,69.348 40.641,67.416 C40.641,65.483 42.212,63.912 44.145,63.912 C46.077,63.912 47.649,65.483 47.649,67.416 Z M67.794,67.416 C67.794,69.348 66.223,70.921 64.29,70.921 C62.358,70.921 60.787,69.348 60.787,67.416 C60.787,65.483 62.358,63.912 64.29,63.912 C66.223,63.912 67.794,65.483 67.794,67.416 Z M25.752,31.503 C25.752,30.538 26.537,29.751 27.503,29.751 C28.468,29.751 29.254,30.538 29.254,31.503 C29.254,32.469 28.468,33.255 27.503,33.255 C26.537,33.255 25.752,32.469 25.752,31.503 Z M34.229,35.006 L33.501,30.628 L30.882,30.628 C30.49,29.122 29.13,28 27.503,28 C25.571,28 24,29.571 24,31.503 C24,33.436 25.571,35.006 27.503,35.006 C29.13,35.006 30.49,33.886 30.882,32.379 L32.015,32.379 L32.454,35.006 L32.623,36.024 L34.864,47.741 L35.779,52.526 L36.956,58.67 C34.794,58.833 32.992,60.495 32.779,62.588 C32.655,63.82 33.059,65.052 33.889,65.969 C34.72,66.888 35.906,67.416 37.136,67.416 L38.889,67.416 C38.889,70.314 41.246,72.671 44.144,72.671 C47.043,72.671 49.399,70.314 49.399,67.416 L59.035,67.416 C59.035,70.314 61.391,72.671 64.29,72.671 C67.189,72.671 69.546,70.314 69.546,67.416 L73.049,67.416 C73.533,67.416 73.924,67.025 73.924,66.54 C73.924,66.055 73.533,65.665 73.049,65.665 L69.239,65.665 C68.514,63.626 66.574,62.161 64.29,62.161 C62.006,62.161 60.064,63.626 59.34,65.665 L49.092,65.665 C48.37,63.626 46.427,62.161 44.144,62.161 C41.861,62.161 39.919,63.626 39.195,65.665 L37.137,65.665 C36.4,65.665 35.691,65.346 35.19,64.795 C34.684,64.234 34.447,63.515 34.523,62.766 C34.656,61.444 35.878,60.41 37.302,60.41 L37.987,60.41 L43.406,60.408 L52.904,60.405 L59.163,60.402 L68.669,60.4 L72.194,60.398 C74.603,60.398 76.564,58.438 76.564,56.03 L76.564,34.998 L34.229,35.006 Z" id="Fill-3" fill="#5CA0DF"></path>
                    </g>
                </g>
            </g>
        </g>
    </g>
</svg>