<?xml version="1.0" encoding="UTF-8"?>
<svg width="101px" height="101px" viewBox="0 0 101 101" version="1.1" xmlns="http://www.w3.org/2000/svg" xmlns:xlink="http://www.w3.org/1999/xlink">
    <!-- Generator: Sketch 40 (33762) - http://www.bohemiancoding.com/sketch -->
    <title>ic_travel</title>
    <desc>Created with Sketch.</desc>
    <defs>
        <polygon id="path-1" points="0 99.3262136 99.3252427 99.3262136 99.3252427 0 0 0"></polygon>
    </defs>
    <g id="Page-1" stroke="none" stroke-width="1" fill="none" fill-rule="evenodd">
        <g id="Desktop-HD" transform="translate(-649.000000, -3092.000000)">
            <g id="AREAS-OF-expertise" transform="translate(58.000000, 2761.000000)">
                <g id="travel" transform="translate(533.000000, 332.000000)">
                    <g id="ic_travel" transform="translate(59.000000, 0.000000)">
                        <path d="M0.970873786,49.6628155 C0.970873786,22.7715534 22.7708738,0.971553398 49.6621359,0.971553398 C76.5553398,0.971553398 98.3543689,22.7715534 98.3543689,49.6628155 C98.3543689,76.5550485 76.5553398,98.3550485 49.6621359,98.3550485 C22.7708738,98.3550485 0.970873786,76.5550485 0.970873786,49.6628155 L0.970873786,49.6628155 Z" id="Stroke-1" stroke="#5CA0DF" stroke-width="2"></path>
                        <path d="M23.4616505,41.4587379 C23.2315534,42.0800971 23.0179612,42.7169903 22.8325243,43.3529126 L24.5927184,43.8684466 C24.7674757,43.2752427 24.9645631,42.6791262 25.1800971,42.0995146 L23.4616505,41.4587379 Z" id="Fill-3" fill="#5CA0DF"></path>
                        <path d="M25.1218447,37.8265049 C24.8043689,38.4090291 24.5024272,39.01 24.2276699,39.6129126 L25.8975728,40.3750485 C26.1529126,39.8119417 26.434466,39.2507767 26.7325243,38.7061165 L25.1218447,37.8265049 Z" id="Fill-5" fill="#5CA0DF"></path>
                        <path d="M23.6076699,53.0949515 L21.7775728,53.2250485 C21.8241748,53.8862136 21.8950485,54.5532039 21.9892233,55.2095146 L23.8057282,54.9493204 C23.7183495,54.336699 23.6513592,53.7133981 23.6076699,53.0949515" id="Fill-7" fill="#5CA0DF"></path>
                        <path d="M24.1348544,56.7850485 L22.3406796,57.1733981 C22.4824272,57.8209709 22.6474757,58.4714563 22.8338835,59.1083495 L24.5950485,58.5908738 C24.4202913,57.9986408 24.2659223,57.3899029 24.1348544,56.7850485" id="Fill-9" fill="#5CA0DF"></path>
                        <path d="M21.7749515,49.2380583 C21.7293204,49.8963107 21.7031068,50.5642718 21.7031068,51.2264078 L21.7031068,51.2302913 L23.5390291,51.2264078 C23.5390291,50.6079612 23.563301,49.9807767 23.6060194,49.3662136 L21.7749515,49.2380583 Z" id="Fill-11" fill="#5CA0DF"></path>
                        <path d="M27.2834951,34.4700971 C26.8864078,35.0001942 26.5019417,35.5506796 26.1436893,36.1099029 L27.6864078,37.1021359 C28.0213592,36.5827184 28.3805825,36.0671845 28.7524272,35.5700971 L27.2834951,34.4700971 Z" id="Fill-13" fill="#5CA0DF"></path>
                        <path d="M47.6662136,23.3392233 C47.0040777,23.3858252 46.3370874,23.4586408 45.6827184,23.5518447 L45.9409709,25.3664078 C46.5535922,25.2790291 47.1778641,25.2130097 47.7972816,25.1693204 L47.6662136,23.3392233 Z" id="Fill-15" fill="#5CA0DF"></path>
                        <path d="M39.8887379,25.0259223 C39.2693204,25.2579612 38.6508738,25.5142718 38.0479612,25.7909709 L38.8100971,27.458932 C39.372233,27.2006796 39.9508738,26.9608738 40.5304854,26.7443689 L39.8887379,25.0259223 Z" id="Fill-17" fill="#5CA0DF"></path>
                        <path d="M43.7172816,23.9024272 C43.0697087,24.0441748 42.4172816,24.2092233 41.7842718,24.3956311 L42.2998058,26.1558252 C42.8930097,25.9830097 43.5007767,25.826699 44.1066019,25.6966019 L43.7172816,23.9024272 Z" id="Fill-19" fill="#5CA0DF"></path>
                        <path d="M25.1833981,60.3613592 L23.4639806,61.0021359 C23.6960194,61.6225243 23.9523301,62.2419417 24.2280583,62.8438835 L25.8969903,62.0807767 C25.6406796,61.5186408 25.3999029,60.9380583 25.1833981,60.3613592" id="Fill-21" fill="#5CA0DF"></path>
                        <path d="M32.9105825,28.8430097 C32.3824272,29.2400971 31.8581553,29.6614563 31.3581553,30.0954369 L32.5600971,31.4828155 C33.0280583,31.0760194 33.5164078,30.6828155 34.0125243,30.3119417 L32.9105825,28.8430097 Z" id="Fill-23" fill="#5CA0DF"></path>
                        <path d="M36.2640777,26.6851456 C35.6834951,27.0026214 35.1067961,27.3453398 34.5495146,27.7045631 L35.5427184,29.2463107 C36.0631068,28.9103883 36.6029126,28.5919417 37.1446602,28.2938835 L36.2640777,26.6851456 Z" id="Fill-25" fill="#5CA0DF"></path>
                        <path d="M29.8974757,31.4560194 C29.4295146,31.9249515 28.972233,32.4162136 28.5382524,32.9171845 L29.9236893,34.1181553 C30.3285437,33.651165 30.7576699,33.1919417 31.195534,32.7531068 L29.8974757,31.4560194 Z" id="Fill-27" fill="#5CA0DF"></path>
                        <path d="M22.34,45.2871845 C22.2001942,45.9337864 22.0817476,46.5959223 21.9875728,47.252233 L23.8040777,47.5104854 C23.8924272,46.8978641 24.0021359,46.2803883 24.1332039,45.6745631 L22.34,45.2871845 Z" id="Fill-29" fill="#5CA0DF"></path>
                        <path d="M69.4046602,68.3368932 C68.998835,68.8048544 68.5726214,69.2640777 68.1318447,69.7019417 L69.4308738,71 C69.8978641,70.5330097 70.3561165,70.0407767 70.791068,69.5398058 L69.4046602,68.3368932 Z" id="Fill-31" fill="#5CA0DF"></path>
                        <path d="M66.768835,70.9736893 C66.3008738,71.3785437 65.8115534,71.7727184 65.3164078,72.1445631 L66.4183495,73.6125243 C66.9474757,73.2154369 67.468835,72.7940777 67.9707767,72.3600971 L66.768835,70.9736893 Z" id="Fill-33" fill="#5CA0DF"></path>
                        <path d="M63.7861165,73.2083495 C63.2647573,73.5442718 62.7259223,73.8656311 62.1841748,74.1598058 L63.0637864,75.7704854 C63.6453398,75.4539806 64.2220388,75.1112621 64.7793204,74.7520388 L63.7861165,73.2083495 Z" id="Fill-35" fill="#5CA0DF"></path>
                        <path d="M71.642233,65.3541748 C71.3063107,65.8735922 70.95,66.3891262 70.5762136,66.8852427 L72.0461165,67.9862136 C72.442233,67.4570874 72.8276699,66.9046602 73.1859223,66.3473786 L71.642233,65.3541748 Z" id="Fill-37" fill="#5CA0DF"></path>
                        <path d="M75.7893204,51.23 L75.7893204,51.23 C75.7893204,51.8416505 75.7669903,52.4775728 75.723301,53.0950485 L77.5543689,53.2232039 C77.6,52.5639806 77.623301,51.8416505 77.623301,51.23 L75.7893204,51.23 Z" id="Fill-39" fill="#5CA0DF"></path>
                        <path d="M60.518835,74.9965049 C59.9537864,75.2537864 59.3770874,75.4935922 58.7974757,75.7091262 L59.4382524,77.4295146 C60.0576699,77.1984466 60.6780583,76.941165 61.2809709,76.664466 L60.518835,74.9965049 Z" id="Fill-41" fill="#5CA0DF"></path>
                        <path d="M75.5257282,54.9457282 C75.4383495,55.5593204 75.3286408,56.1767961 75.1975728,56.7816505 L76.9898058,57.17 C77.1296117,56.5224272 77.2470874,55.8612621 77.342233,55.2059223 L75.5257282,54.9457282 Z" id="Fill-43" fill="#5CA0DF"></path>
                        <path d="M73.4341748,62.0812621 C73.1759223,62.6443689 72.8933981,63.205534 72.5982524,63.751165 L74.2060194,64.6307767 C74.524466,64.0482524 74.8283495,63.4472816 75.1031068,62.8443689 L73.4341748,62.0812621 Z" id="Fill-45" fill="#5CA0DF"></path>
                        <path d="M74.7368932,58.5873786 C74.5621359,59.1825243 74.3650485,59.7776699 74.1495146,60.3572816 L75.868932,60.9980583 C76.1,60.3776699 76.3106796,59.7398058 76.4961165,59.1048544 L74.7368932,58.5873786 Z" id="Fill-47" fill="#5CA0DF"></path>
                        <path d="M37.1430097,74.1583495 L36.2633981,75.7690291 C36.8459223,76.0865049 37.4468932,76.3894175 38.048835,76.6641748 L38.8119417,74.9962136 C38.2498058,74.738932 37.6886408,74.4564078 37.1430097,74.1583495" id="Fill-49" fill="#5CA0DF"></path>
                        <path d="M26.7317476,63.7461165 L25.1220388,64.626699 C25.4404854,65.2072816 25.782233,65.7849515 26.1414563,66.3412621 L27.6832039,65.3480583 C27.3492233,64.8276699 27.028835,64.288835 26.7317476,63.7461165" id="Fill-51" fill="#5CA0DF"></path>
                        <path d="M28.7493204,66.8787379 L27.2813592,67.9806796 C27.6774757,68.5098058 28.098835,69.0321359 28.5337864,69.5321359 L29.9201942,68.331165 C29.5143689,67.8632039 29.1201942,67.3748544 28.7493204,66.8787379" id="Fill-53" fill="#5CA0DF"></path>
                        <path d="M57.0278641,76.2982524 C56.4346602,76.4720388 55.8278641,76.6264078 55.2230097,76.7584466 L55.6113592,78.5506796 C56.2579612,78.4108738 56.9084466,78.2458252 57.5433981,78.0574757 L57.0278641,76.2982524 Z" id="Fill-55" fill="#5CA0DF"></path>
                        <path d="M40.5372816,75.7113592 L39.8965049,77.4298058 C40.5168932,77.6628155 41.1547573,77.874466 41.7897087,78.058932 L42.3062136,76.2987379 C41.7120388,76.1249515 41.1178641,75.9278641 40.5372816,75.7113592" id="Fill-57" fill="#5CA0DF"></path>
                        <path d="M31.1906796,69.6965049 L29.8935922,70.9926214 C30.3615534,71.4615534 30.8528155,71.918835 31.3528155,72.3547573 L32.556699,70.9693204 C32.0887379,70.5625243 31.6285437,70.1333981 31.1906796,69.6965049" id="Fill-59" fill="#5CA0DF"></path>
                        <path d="M34.0085437,72.1398058 L32.9075728,73.6087379 C33.4386408,74.0067961 33.9891262,74.3893204 34.5473786,74.7475728 L35.5396117,73.2048544 C35.0201942,72.8708738 34.5046602,72.5126214 34.0085437,72.1398058" id="Fill-61" fill="#5CA0DF"></path>
                        <path d="M44.1126214,76.7590291 L43.7242718,78.5532039 C44.3728155,78.6920388 45.0339806,78.8114563 45.6893204,78.9046602 L45.9495146,77.0881553 C45.3349515,77.0007767 44.7184466,76.8900971 44.1126214,76.7590291" id="Fill-63" fill="#5CA0DF"></path>
                        <path d="M53.3852427,77.0870874 C52.7745631,77.174466 52.1502913,77.2404854 51.5308738,77.2841748 L51.66,79.1142718 C52.3231068,79.0676699 52.991068,78.9967961 53.6454369,78.9035922 L53.3852427,77.0870874 Z" id="Fill-65" fill="#5CA0DF"></path>
                        <path d="M49.6648544,77.3858252 C49.0464078,77.3848544 48.4192233,77.3431068 47.8027184,77.2984466 L47.6735922,79.1440777 C48.3328155,79.1897087 49.0027184,79.2401942 49.6648544,79.2401942 L49.667767,79.2401942 L49.6648544,77.3858252 Z" id="Fill-67" fill="#5CA0DF"></path>
                        <mask id="mask-2" fill="white">
                            <use xlink:href="#path-1"></use>
                        </mask>
                        <g id="Clip-70"></g>
                        <polygon id="Fill-69" fill="#5CA0DF" mask="url(#mask-2)" points="50.6902913 25.7893204 53.6252427 25.7893204 53.6252427 23.9553398 50.6902913 23.9553398"></polygon>
                        <polygon id="Fill-71" fill="#5CA0DF" mask="url(#mask-2)" points="59.6939806 21.1414563 56.6085437 21.1414563 54.1774757 18.7084466 52.8784466 20.0065049 54.0143689 21.1414563 51.2900971 21.1414563 50.5347573 18.8958252 48.7959223 19.482233 49.9726214 22.9764078 58.9502913 22.9764078 59.9570874 23.9550485 55.9561165 23.9550485 52.7862136 28.3366019 54.2706796 29.413301 56.8949515 25.7890291 64.4823301 25.7890291"></polygon>
                        <path d="M65.7354369,57.4829126 L65.7354369,52.9751456 L63.7995146,48.295534 L59.6257282,48.295534 L56.4985437,45.9838835 L57.2538835,43.0052427 L59.373301,40.8848544 L58.5218447,37.4819417 L62.5723301,36.8071845 C66.5315534,40.3547573 69.0276699,45.5052427 69.0276699,51.2266019 C69.0276699,53.8499029 68.5043689,56.3518447 67.5538835,58.6353398 L65.7354369,57.4829126 Z M52.5247573,70.3780583 L52.5247573,69.1965049 L49.1898058,65.8508738 L46.0548544,65.064466 L47.6276699,60.418835 L51.6694175,56.4401942 L51.6694175,50.0324272 L49.3791262,45.7062136 L43.334466,42.741165 L38.7169903,38.2479612 L35.7703883,42.2324272 L35.7703883,46.3382524 L35.0694175,51.6401942 L36.7587379,52.8994175 L39.5606796,55.4897087 L39.5606796,57.6596117 L37.3208738,60.3848544 L35.7703883,63.5702913 L35.7703883,64.6965049 C32.3868932,61.2081553 30.3024272,56.456699 30.3024272,51.2266019 C30.3024272,43.5256311 34.8208738,36.8615534 41.3480583,33.7431068 L42.2228155,35.4945631 L46.7519417,37.7295146 L50.6907767,36.441165 L50.6907767,35.0848544 L52.857767,35.0848544 L55.8936893,32.8926214 C57.588835,33.4683495 59.1762136,34.2751456 60.6228155,35.2732039 L56.2597087,35.9984466 L57.3412621,40.3217476 L55.5985437,42.0664078 L54.4208738,46.7285437 L59.018932,50.1314563 L62.5723301,50.1314563 L63.8995146,53.3401942 L63.8995146,58.4906796 L66.7635922,60.3052427 C63.9325243,65.6159223 58.7004854,69.4596117 52.5247573,70.3780583 L52.5247573,70.3780583 Z M49.6645631,70.5906796 C45.1092233,70.5906796 40.9150485,69.0062136 37.6024272,66.3625243 L37.6024272,63.9926214 L38.8762136,61.3838835 L41.3956311,58.3149515 L41.3956311,54.687767 L37.9684466,51.5178641 L37.0305825,50.8139806 L37.6024272,46.4586408 L37.6024272,42.8363107 L38.9432039,41.0275728 L42.2635922,44.2596117 L48.0364078,47.0906796 L49.834466,50.4887379 L49.834466,55.672233 L46.0305825,59.4178641 L43.6791262,66.3615534 L48.25,67.5062136 L50.6907767,69.9547573 L50.6907767,70.5625243 C50.3519417,70.58 50.0101942,70.5906796 49.6645631,70.5906796 L49.6645631,70.5906796 Z M49.665534,31.864466 C51.0208738,31.864466 52.3441748,32.0052427 53.6218447,32.2712621 L52.2645631,33.2508738 L48.8558252,33.2508738 L48.8558252,35.111068 L46.8927184,35.7528155 L43.5878641,34.1227184 L43.0412621,33.0314563 C45.1101942,32.2761165 47.3402913,31.864466 49.665534,31.864466 L49.665534,31.864466 Z M49.6645631,30.0295146 C37.9771845,30.0295146 28.4674757,39.5392233 28.4674757,51.2266019 C28.4674757,62.9159223 37.9771845,72.4246602 49.6645631,72.4246602 C61.3548544,72.4246602 70.8626214,62.9159223 70.8626214,51.2266019 C70.8626214,39.5392233 61.3548544,30.0295146 49.6645631,30.0295146 L49.6645631,30.0295146 Z" id="Fill-72" fill="#5CA0DF" mask="url(#mask-2)"></path>
                        <path d="M55.5431068,64.1035922 L53.0139806,64.1035922 L53.0139806,60.9948544 L53.0149515,60.9948544 L53.2965049,60.428835 L54.3848544,61.5725243 L56.5003883,63.0540777 L55.5431068,64.1035922 Z M55.5887379,60.1754369 L52.8178641,57.266699 L51.18,60.5637864 L51.18,65.9395146 L56.3547573,65.9395146 L59.2615534,62.7463107 L55.5887379,60.1754369 Z" id="Fill-73" fill="#5CA0DF" mask="url(#mask-2)"></path>
                    </g>
                </g>
            </g>
        </g>
    </g>
</svg>