<?xml version="1.0" encoding="UTF-8"?>
<svg width="103px" height="103px" viewBox="0 0 103 103" version="1.1" xmlns="http://www.w3.org/2000/svg" xmlns:xlink="http://www.w3.org/1999/xlink">
    <!-- Generator: Sketch 40 (33762) - http://www.bohemiancoding.com/sketch -->
    <title>ic_taxi</title>
    <desc>Created with Sketch.</desc>
    <defs></defs>
    <g id="Page-1" stroke="none" stroke-width="1" fill="none" fill-rule="evenodd">
        <g id="Desktop-HD" transform="translate(-119.000000, -3092.000000)">
            <g id="AREAS-OF-expertise" transform="translate(58.000000, 2761.000000)">
                <g id="taxi" transform="translate(0.000000, 332.000000)">
                    <g id="ic_taxi" transform="translate(62.000000, 0.000000)">
                        <path d="M0,50.1527 C0,22.4547 22.454,0.0007 50.153,0.0007 C77.852,0.0007 100.306,22.4547 100.306,50.1527 C100.306,77.8517 77.852,100.3057 50.153,100.3057 C22.454,100.3057 0,77.8517 0,50.1527 L0,50.1527 Z" id="Stroke-1" stroke="#5CA0DF" stroke-width="2"></path>
                        <path d="M32.2076,61.8714 C31.4146,61.8714 30.7696,61.2254 30.7696,60.4324 C30.7696,59.6394 31.4136,58.9924 32.2076,58.9924 C33.0006,58.9924 33.6466,59.6384 33.6466,60.4324 C33.6466,61.2254 33.0006,61.8714 32.2076,61.8714 M32.2076,56.8434 C30.2286,56.8434 28.6186,58.4534 28.6186,60.4324 C28.6186,62.4114 30.2286,64.0194 32.2076,64.0194 C34.1866,64.0194 35.7966,62.4114 35.7966,60.4324 C35.7966,58.4534 34.1866,56.8434 32.2076,56.8434" id="Fill-3" fill="#5CA0DF"></path>
                        <path d="M69.7251,61.8714 C68.9321,61.8714 68.2871,61.2254 68.2871,60.4324 C68.2871,59.6394 68.9321,58.9924 69.7251,58.9924 C70.5191,58.9924 71.1641,59.6384 71.1641,60.4324 C71.1641,61.2254 70.5191,61.8714 69.7251,61.8714 M69.7251,56.8434 C67.7461,56.8434 66.1361,58.4534 66.1361,60.4324 C66.1361,62.4114 67.7461,64.0194 69.7251,64.0194 C71.7051,64.0194 73.3141,62.4114 73.3141,60.4324 C73.3141,58.4534 71.7041,56.8434 69.7251,56.8434" id="Fill-5" fill="#5CA0DF"></path>
                        <path d="M80.6255,50.3021 L79.5555,56.3001 L75.6185,56.3001 C74.3145,54.4451 72.1595,53.2281 69.7255,53.2281 C67.2905,53.2281 65.1355,54.4451 63.8305,56.3001 L44.7025,56.3001 C44.1085,56.3001 43.6265,56.7811 43.6265,57.3741 C43.6265,57.9671 44.1085,58.4481 44.7025,58.4481 L62.8015,58.4481 C62.6815,58.8701 62.5975,59.3061 62.5545,59.7551 L39.3775,59.7551 C39.0355,56.1001 35.9515,53.2281 32.2075,53.2281 C29.7725,53.2281 27.6175,54.4451 26.3135,56.3001 L22.9355,56.3001 L22.9355,49.2821 C22.9355,47.9091 23.7545,46.6831 25.0225,46.1571 C26.6105,45.5001 27.7835,44.1731 28.2395,42.5151 L29.0285,39.6511 C30.1015,35.7531 33.6725,33.0321 37.7145,33.0321 L54.7425,33.0321 C59.1285,33.0321 63.0075,35.8271 64.3955,39.9891 L65.9565,44.6711 C66.0945,45.0821 66.4645,45.3711 66.8975,45.4041 L77.4285,46.1821 C78.4315,46.2561 79.3255,46.7371 79.9425,47.5311 C80.5605,48.3271 80.8025,49.3111 80.6255,50.3021 L80.6255,50.3021 Z M78.9385,59.7551 L76.8955,59.7551 C76.8535,59.3061 76.7695,58.8701 76.6475,58.4481 L79.1705,58.4481 L78.9385,59.7551 Z M69.7255,65.4861 C66.9385,65.4861 64.6715,63.2181 64.6715,60.4321 C64.6715,57.6461 66.9385,55.3781 69.7255,55.3781 C72.5115,55.3781 74.7785,57.6461 74.7785,60.4321 C74.7785,63.2181 72.5115,65.4861 69.7255,65.4861 L69.7255,65.4861 Z M32.2075,65.4861 C29.4205,65.4861 27.1535,63.2181 27.1535,60.4321 C27.1535,57.6461 29.4205,55.3781 32.2075,55.3781 C34.9945,55.3781 37.2605,57.6461 37.2605,60.4321 C37.2605,63.2181 34.9945,65.4861 32.2075,65.4861 L32.2075,65.4861 Z M25.0375,59.7551 L22.9355,59.7551 L22.9355,58.4481 L25.2845,58.4481 C25.1635,58.8701 25.0795,59.3061 25.0375,59.7551 L25.0375,59.7551 Z M48.6865,29.4961 L54.9695,28.2611 L54.9695,30.8861 C54.8935,30.8861 54.8185,30.8821 54.7425,30.8821 L48.6865,30.8821 L48.6865,29.4961 Z M81.6405,46.2131 C80.6595,44.9491 79.1825,44.1571 77.5865,44.0381 L67.7695,43.3121 L66.4345,39.3101 C65.0105,35.0361 61.4175,31.9531 57.1195,31.1131 L57.1195,26.9541 C57.1195,26.6331 56.9755,26.3291 56.7285,26.1241 C56.4795,25.9191 56.1525,25.8371 55.8375,25.8991 L47.4045,27.5561 C46.8995,27.6551 46.5365,28.0971 46.5365,28.6121 L46.5365,30.8821 L37.7145,30.8821 C32.7085,30.8821 28.2845,34.2521 26.9565,39.0791 L26.1665,41.9451 C25.8885,42.9581 25.1715,43.7701 24.2005,44.1711 C22.1255,45.0301 20.7855,47.0361 20.7855,49.2811 L20.7855,60.8301 C20.7855,61.4231 21.2665,61.9061 21.8605,61.9061 L25.1565,61.9061 C25.8375,65.1711 28.7405,67.6351 32.2075,67.6351 C35.6745,67.6351 38.5765,65.1711 39.2585,61.9061 L62.6745,61.9061 C63.3555,65.1711 66.2575,67.6351 69.7255,67.6351 C73.1915,67.6351 76.0945,65.1711 76.7765,61.9061 L79.8375,61.9061 C80.3585,61.9061 80.8045,61.5311 80.8965,61.0191 L82.7425,50.6811 C83.0225,49.1061 82.6225,47.4781 81.6405,46.2131 L81.6405,46.2131 Z" id="Fill-7" fill="#5CA0DF"></path>
                        <path d="M51.8785,43.2562 L51.8785,36.3452 L54.7425,36.3452 C57.7005,36.3452 60.3165,38.2302 61.2525,41.0352 L61.9915,43.2562 L51.8785,43.2562 Z M49.7285,43.2562 L36.4625,43.2562 L36.4625,36.4862 C36.8675,36.3952 37.2875,36.3452 37.7155,36.3452 L49.7285,36.3452 L49.7285,43.2562 Z M34.3125,43.2562 L31.4715,43.2562 L32.2235,40.5292 C32.5675,39.2772 33.3205,38.2192 34.3125,37.4802 L34.3125,43.2562 Z M63.2925,40.3562 C62.0625,36.6712 58.6275,34.1952 54.7425,34.1952 L37.7155,34.1952 C34.1945,34.1952 31.0845,36.5652 30.1505,39.9592 L29.0245,44.0452 C28.9355,44.3692 29.0025,44.7142 29.2055,44.9822 C29.4085,45.2492 29.7245,45.4052 30.0615,45.4052 L63.4825,45.4052 C63.8295,45.4052 64.1535,45.2392 64.3555,44.9592 C64.5575,44.6802 64.6125,44.3202 64.5035,43.9912 L63.2925,40.3562 Z" id="Fill-9" fill="#5CA0DF"></path>
                        <path d="M42.0816,56.9632 C42.0676,56.9332 42.0736,56.9452 42.0796,56.9612 C41.7206,56.1002 40.4506,56.0972 40.0966,56.9632 C39.9266,57.3782 40.0316,57.8672 40.3666,58.1702 C40.7216,58.4912 41.2586,58.5362 41.6616,58.2812 C42.0996,58.0072 42.2706,57.4472 42.0826,56.9692 C42.0886,56.9832 42.0926,56.9912 42.0816,56.9632" id="Fill-11" fill="#5CA0DF"></path>
                        <polygon id="Fill-13" fill="#5CA0DF" points="41.663 50.346 44.274 50.346 44.274 47.736 41.663 47.736"></polygon>
                        <polygon id="Fill-15" fill="#5CA0DF" points="46.883 50.346 49.493 50.346 49.493 47.736 46.883 47.736"></polygon>
                        <polygon id="Fill-16" fill="#5CA0DF" points="49.494 52.956 52.104 52.956 52.104 50.346 49.494 50.346"></polygon>
                        <polygon id="Path" fill="#5CA0DF" points="52.104 50.61 54.714 50.61 54.714 48 52.104 48"></polygon>
                        <polygon id="Fill-17" fill="#5CA0DF" points="44.273 52.956 46.883 52.956 46.883 50.346 44.273 50.346"></polygon>
                        <path d="M78.7876,48.8714 C78.2026,48.7664 77.6446,49.1564 77.5406,49.7414 L76.9826,52.8644 C76.8786,53.4484 77.2676,54.0074 77.8516,54.1124 C77.9156,54.1224 77.9796,54.1284 78.0426,54.1284 C78.5526,54.1284 79.0056,53.7634 79.0996,53.2414 L79.6566,50.1184 C79.7606,49.5344 79.3716,48.9754 78.7876,48.8714" id="Fill-18" fill="#5CA0DF"></path>
                    </g>
                </g>
            </g>
        </g>
    </g>
</svg>