<?xml version="1.0" encoding="UTF-8"?>
<svg width="102px" height="102px" viewBox="0 0 102 102" version="1.1" xmlns="http://www.w3.org/2000/svg" xmlns:xlink="http://www.w3.org/1999/xlink">
    <!-- Generator: Sketch 40 (33762) - http://www.bohemiancoding.com/sketch -->
    <title>online social</title>
    <desc>Created with Sketch.</desc>
    <defs></defs>
    <g id="Page-1" stroke="none" stroke-width="1" fill="none" fill-rule="evenodd">
        <g id="Desktop-HD" transform="translate(-647.000000, -2888.000000)">
            <g id="AREAS-OF-expertise" transform="translate(58.000000, 2761.000000)">
                <g id="online-social" transform="translate(533.000000, 128.000000)">
                    <g transform="translate(57.000000, 0.000000)">
                        <path d="M0,50.0002015 C0,22.3864235 22.3857235,0.0007 49.9995015,0.0007 C77.6152734,0.0007 100,22.3864235 100,50.0002015 C100,77.6149765 77.6152734,100.0007 49.9995015,100.0007 C22.3857235,100.0007 0,77.6149765 0,50.0002015 L0,50.0002015 Z" id="Stroke-1" stroke="#5CA0DF" stroke-width="2"></path>
                        <path d="M32.4497,49.7044 L29.6147,49.6954 C29.5437,49.6954 29.4847,49.6384 29.4847,49.5644 L29.4847,35.4534 C29.4847,35.1194 29.2967,34.8124 28.9967,34.6624 L25.7837,33.0564 L28.9967,31.4504 C29.2967,31.3014 29.4847,30.9944 29.4847,30.6594 L29.4847,27.1204 C29.4847,27.0494 29.5437,26.9904 29.6147,26.9904 L68.7447,26.9904 C68.8167,26.9904 68.8757,27.0494 68.8757,27.1204 L68.8757,47.0504 C68.8757,47.5394 69.2717,47.9364 69.7607,47.9364 C70.2487,47.9364 70.6447,47.5394 70.6447,47.0504 L70.6447,27.1204 C70.6447,26.0724 69.7937,25.2214 68.7447,25.2214 L29.6147,25.2214 C28.5677,25.2214 27.7167,26.0734 27.7167,27.1204 L27.7167,30.1124 L23.4097,32.2654 C23.1107,32.4144 22.9207,32.7214 22.9207,33.0564 C22.9207,33.3924 23.1107,33.6974 23.4097,33.8484 L27.7167,36.0004 L27.7167,49.5644 C27.7167,50.6134 28.5677,51.4654 29.6127,51.4654 L32.4437,51.4734 C32.9337,51.4734 33.3297,51.0794 33.3307,50.5924 C33.3327,50.1034 32.9367,49.7064 32.4497,49.7044" id="Fill-3" fill="#5CA0DF"></path>
                        <path d="M36.87,78.846 L42.117,78.846 L42.117,51.473 L36.87,51.473 L36.87,78.846 Z M77.385,54.232 C77.385,51.736 75.354,49.704 72.858,49.704 L61.784,49.704 C63.737,46.113 64.799,41.651 64.799,36.959 C64.799,34.462 62.77,32.432 60.274,32.432 C57.776,32.432 55.747,34.462 55.747,36.959 C55.747,43.987 50.029,49.704 43.001,49.704 L35.985,49.704 C35.496,49.704 35.1,50.101 35.1,50.589 L35.1,79.731 C35.1,80.219 35.496,80.616 35.985,80.616 L43.001,80.616 C43.49,80.616 43.885,80.219 43.885,79.731 L43.885,51.446 C51.477,50.987 57.514,44.666 57.514,36.959 C57.514,35.438 58.752,34.201 60.274,34.201 C61.793,34.201 63.032,35.438 63.032,36.959 C63.032,41.928 61.772,46.597 59.487,50.107 C59.309,50.379 59.295,50.725 59.45,51.011 C59.604,51.296 59.903,51.473 60.227,51.473 L72.858,51.473 C74.379,51.473 75.616,52.711 75.616,54.232 C75.616,55.752 74.379,56.991 72.858,56.991 L68.381,56.991 C67.893,56.991 67.499,57.386 67.499,57.874 C67.499,58.363 67.893,58.759 68.381,58.759 L71.366,58.759 C72.887,58.759 74.124,59.996 74.124,61.518 C74.124,63.038 72.887,64.276 71.366,64.276 L68.381,64.276 C67.893,64.276 67.499,64.672 67.499,65.16 C67.499,65.649 67.893,66.045 68.381,66.045 L69.874,66.045 C71.395,66.045 72.631,67.282 72.631,68.803 C72.631,70.324 71.395,71.561 69.874,71.561 L68.381,71.561 C67.893,71.561 67.499,71.957 67.499,72.446 C67.499,72.934 67.893,73.33 68.381,73.33 C69.903,73.33 71.141,74.567 71.141,76.088 C71.141,77.609 69.903,78.846 68.381,78.846 L46.54,78.846 C46.051,78.846 45.655,79.242 45.655,79.731 C45.655,80.219 46.051,80.616 46.54,80.616 L68.381,80.616 C70.877,80.616 72.909,78.584 72.909,76.088 C72.909,74.878 72.432,73.778 71.657,72.964 C73.27,72.272 74.403,70.666 74.403,68.803 C74.403,67.592 73.924,66.492 73.149,65.678 C74.762,64.986 75.893,63.381 75.893,61.518 C75.893,60.307 75.417,59.207 74.641,58.394 C76.252,57.699 77.385,56.096 77.385,54.232 L77.385,54.232 Z" id="Fill-5" fill="#5CA0DF"></path>
                        <path d="M65.729,76.1917 L65.729,54.1277 C65.729,53.6387 65.333,53.2437 64.844,53.2437 C64.356,53.2437 63.959,53.6387 63.959,54.1277 L63.959,76.1917 C63.959,76.6807 64.356,77.0767 64.844,77.0767 C65.333,77.0767 65.729,76.6807 65.729,76.1917" id="Fill-7" fill="#5CA0DF"></path>
                    </g>
                </g>
            </g>
        </g>
    </g>
</svg>