<?xml version="1.0" encoding="UTF-8"?>
<svg width="52px" height="60px" viewBox="0 0 52 60" version="1.1" xmlns="http://www.w3.org/2000/svg" xmlns:xlink="http://www.w3.org/1999/xlink">
    <!-- Generator: Sketch 40 (33762) - http://www.bohemiancoding.com/sketch -->
    <title>android</title>
    <desc>Created with Sketch.</desc>
    <defs>
        <polygon id="path-1" points="0 59.19 51.2952632 59.19 51.2952632 0 0 0"></polygon>
    </defs>
    <g id="Page-1" stroke="none" stroke-width="1" fill="none" fill-rule="evenodd">
        <g id="Desktop-HD" transform="translate(-432.000000, -2541.000000)">
            <g id="tech" transform="translate(0.000000, 2131.000000)">
                <g id="android" transform="translate(432.000000, 410.000000)">
                    <mask id="mask-2" fill="white">
                        <use xlink:href="#path-1"></use>
                    </mask>
                    <g id="Clip-2"></g>
                    <path d="M30.7771579,12.2838462 L33.3429474,12.2838462 L33.3429474,9.81346154 L30.7771579,9.81346154 L30.7771579,12.2838462 Z M17.9536842,12.2838462 L20.5167368,12.2838462 L20.5167368,9.81346154 L17.9536842,9.81346154 L17.9536842,12.2838462 Z M34.6251579,5.36884615 L37.9586316,2.16115385 C38.4731579,1.66615385 38.4731579,0.925384615 37.9586316,0.431538462 C37.4454737,-0.0623076923 36.6764211,-0.0623076923 36.1632632,0.431538462 L32.3166316,4.13538462 C30.5212632,2.90192308 28.2127368,2.40807692 25.6483158,2.40807692 C23.0838947,2.40807692 20.7753684,2.90192308 18.7227368,3.88846154 L15.1333684,0.184615385 C14.6202105,-0.0623076923 13.5938947,-0.0623076923 13.0821053,0.184615385 C12.8248421,0.678461538 12.8248421,1.66615385 13.0821053,2.16115385 L16.4142105,5.36884615 C12.8248421,8.08615385 10.2590526,12.2838462 10.2590526,17.22 L41.0362105,17.22 C41.0362105,12.2838462 38.4731579,7.83923077 34.6251579,5.36884615 L34.6251579,5.36884615 Z M47.4486316,19.6892308 C45.3973684,19.6892308 43.602,21.4188462 43.602,23.3930769 L43.602,40.6742308 C43.602,42.6496154 45.3973684,44.3769231 47.4486316,44.3769231 C49.5012632,44.3769231 51.2952632,42.6496154 51.2952632,40.6742308 L51.2952632,23.3930769 C51.2952632,21.4188462 49.5012632,19.6892308 47.4486316,19.6892308 L47.4486316,19.6892308 Z M3.84663158,19.6892308 C1.79536842,19.6892308 0,21.4188462 0,23.3930769 L0,40.6742308 C0,42.6496154 1.79536842,44.3769231 3.84663158,44.3769231 C5.89926316,44.3769231 7.69463158,42.6496154 7.69463158,40.6742308 L7.69463158,23.3930769 C7.69463158,21.4188462 5.89926316,19.6892308 3.84663158,19.6892308 L3.84663158,19.6892308 Z M10.2590526,44.3769231 C10.2590526,45.8584615 11.2867368,46.8461538 12.8248421,46.8461538 L15.3878947,46.8461538 L15.3878947,55.4873077 C15.3878947,57.4626923 17.1846316,59.19 19.2372632,59.19 C21.2885263,59.19 23.0838947,57.4626923 23.0838947,55.4873077 L23.0838947,46.8461538 L28.2127368,46.8461538 L28.2127368,55.4873077 C28.2127368,57.4626923 30.0081053,59.19 32.0607368,59.19 C34.112,59.19 35.906,57.4626923 35.906,55.4873077 L35.906,46.8461538 L38.4731579,46.8461538 C40.0112632,46.8461538 41.0362105,45.8584615 41.0362105,44.3769231 L41.0362105,19.6892308 L10.2590526,19.6892308 L10.2590526,44.3769231 Z" id="Fill-1" fill="#FFFFFF" mask="url(#mask-2)"></path>
                </g>
            </g>
        </g>
    </g>
</svg>