<?xml version="1.0" encoding="UTF-8"?>
<svg width="151px" height="41px" viewBox="0 0 151 41" version="1.1" xmlns="http://www.w3.org/2000/svg" xmlns:xlink="http://www.w3.org/1999/xlink">
    <!-- Generator: Sketch 40 (33762) - http://www.bohemiancoding.com/sketch -->
    <title>angular</title>
    <desc>Created with Sketch.</desc>
    <defs>
        <polygon id="path-1" points="19.0246 41 0 41 0 0.3143 19.0246 0.3143 19.0246 41"></polygon>
        <polygon id="path-3" points="0.8724 41 20.4124 41 20.4124 0.3144 0.8724 0.3144 0.8724 41"></polygon>
    </defs>
    <g id="Page-1" stroke="none" stroke-width="1" fill="none" fill-rule="evenodd">
        <g id="Desktop-HD" transform="translate(-834.000000, -2340.000000)">
            <g id="tech" transform="translate(0.000000, 2131.000000)">
                <g id="angular" transform="translate(834.000000, 208.000000)">
                    <polygon id="Fill-1" fill="#FFFFFF" points="44.1162 31.1758 44.1162 12.6818 46.4942 12.6818 57.7962 27.5668 57.7962 12.6818 60.0572 12.6818 60.0572 31.1758 57.6802 31.1758 46.3772 16.1468 46.3772 31.1758"></polygon>
                    <g id="Group-22" transform="translate(0.000000, 0.685600)">
                        <path d="M78.4629,29.7568 C76.9659,30.3148 75.3509,30.6088 73.6499,30.6088 C66.9559,30.6088 63.6089,27.4068 63.6089,20.9788 C63.6089,14.9018 66.8379,11.8498 73.2969,11.8498 C75.1459,11.8498 76.8769,12.1138 78.4629,12.6118 L78.4629,14.6688 C76.8769,14.0518 75.2339,13.7578 73.5609,13.7578 C68.5109,13.7578 65.9859,16.1658 65.9859,20.9208 C65.9859,26.0578 68.4829,28.6118 73.4429,28.6118 C74.2359,28.6118 75.1169,28.4948 76.0839,28.2898 L76.0839,22.0958 L78.4629,22.0958 L78.4629,29.7568 Z" id="Fill-2" fill="#FFFFFF"></path>
                        <path d="M82.2793,23.3584 L82.2793,11.9964 L84.6573,11.9964 L84.6573,23.3584 C84.6573,26.9084 86.4193,28.7004 89.9693,28.7004 C93.4943,28.7004 95.2843,26.9084 95.2843,23.3584 L95.2843,11.9964 L97.6623,11.9964 L97.6623,23.3584 C97.6623,28.2014 95.1083,30.6374 89.9693,30.6374 C84.8323,30.6374 82.2793,28.2014 82.2793,23.3584" id="Fill-4" fill="#FFFFFF"></path>
                        <polygon id="Fill-6" fill="#FFFFFF" points="104.2949 11.9961 104.2949 28.5541 113.9829 28.5541 113.9829 30.4901 101.9179 30.4901 101.9179 11.9961"></polygon>
                        <polygon id="Fill-8" fill="#FFFFFF" points="117.4189 30.4902 114.9229 30.4902 124.1109 9.5602 133.2999 30.4902 130.6579 30.4902 128.2779 24.6782 122.1739 24.6782 122.8199 22.7412 127.4849 22.7412 124.0229 14.3762"></polygon>
                        <path d="M135.8525,30.4902 L135.8525,11.9962 L143.7505,11.9962 C147.2725,11.9962 149.0345,13.4652 149.0345,16.4292 C149.0345,18.8362 147.3015,20.6272 143.8675,21.7722 L150.2075,30.4902 L147.0675,30.4902 L141.1965,22.1832 L141.1965,20.6272 C144.7185,20.0692 146.5095,18.7192 146.5095,16.5472 C146.5095,14.8442 145.5405,13.9932 143.5735,13.9932 L138.2905,13.9932 L138.2905,30.4902 L135.8525,30.4902 Z" id="Fill-10" fill="#FFFFFF"></path>
                        <g id="Group-14">
                            <mask id="mask-2" fill="white">
                                <use xlink:href="#path-1"></use>
                            </mask>
                            <g id="Clip-13"></g>
                            <polygon id="Fill-12" fill="#FFFFFF" mask="url(#mask-2)" points="13.8506 24.8623 11.4746 31.0083 7.1616 31.2043 19.0246 5.1343 19.0246 0.3143 -0.0004 7.0643 2.9506 32.1053 19.0246 41.0003 19.0246 24.8623"></polygon>
                        </g>
                        <polygon id="Fill-15" fill="#FFFFFF" points="15.4072 22.8623 19.0242 22.8623 19.0242 13.6343"></polygon>
                        <polygon id="Fill-17" fill="#FFFFFF" points="19.0762 22.8623 22.8922 22.8623 18.9912 14.0093 19.0242 13.6343 19.0242 22.8623 18.8722 22.8623"></polygon>
                        <g id="Group-21" transform="translate(18.000000, 0.000000)">
                            <mask id="mask-4" fill="white">
                                <use xlink:href="#path-3"></use>
                            </mask>
                            <g id="Clip-20"></g>
                            <polygon id="Fill-19" fill="#FFFFFF" mask="url(#mask-4)" points="1.0244 0.3144 1.0244 5.1344 0.9624 5.0694 13.2164 31.3724 8.9974 31.0674 6.3894 24.8624 0.8724 24.8624 1.0244 24.8624 1.0244 41.0004 17.2264 31.9884 20.4124 6.9474"></polygon>
                        </g>
                    </g>
                </g>
            </g>
        </g>
    </g>
</svg>