<?xml version="1.0" encoding="UTF-8"?>
<svg width="172px" height="31px" viewBox="0 0 172 31" version="1.1" xmlns="http://www.w3.org/2000/svg" xmlns:xlink="http://www.w3.org/1999/xlink">
    <!-- Generator: Sketch 40 (33762) - http://www.bohemiancoding.com/sketch -->
    <title>backbone</title>
    <desc>Created with Sketch.</desc>
    <defs>
        <polygon id="path-1" points="10.823 17.3092 10.823 0.4812 0.7123 0.4812 0.7123 17.3092"></polygon>
        <polygon id="path-3" points="0 30.6387 171.823 30.6387 171.823 -0.0003 0 -0.0003"></polygon>
    </defs>
    <g id="Page-1" stroke="none" stroke-width="1" fill="none" fill-rule="evenodd">
        <g id="Desktop-HD" transform="translate(-175.000000, -2345.000000)">
            <g id="tech" transform="translate(0.000000, 2131.000000)">
                <g id="backbone" transform="translate(175.000000, 214.000000)">
                    <path d="M35.9742,15.6524 L35.9742,22.7174 L39.8262,22.7174 C42.8572,22.7174 44.3712,21.4854 44.3712,19.0224 C44.3712,16.7754 42.7742,15.6524 39.5792,15.6524 L35.9742,15.6524 L35.9742,15.6524 Z M35.9742,14.6434 L39.5792,14.6434 C41.1182,14.6434 42.2362,14.3884 42.9332,13.8774 C43.6312,13.3664 43.9802,12.5644 43.9802,11.4764 C43.9802,10.3854 43.5862,9.5944 42.7992,9.1014 C42.0122,8.6094 40.8382,8.3634 39.2772,8.3634 L35.9742,8.3634 L35.9742,14.6434 L35.9742,14.6434 Z M34.8322,7.3554 L39.3222,7.3554 C41.3452,7.3554 42.8302,7.6984 43.7782,8.3844 C44.7272,9.0714 45.2012,10.1094 45.2012,11.4984 C45.2012,12.4464 44.9112,13.2354 44.3332,13.8664 C43.7552,14.4964 42.9102,14.9024 41.7972,15.0814 L41.7972,15.1484 C43.1022,15.3424 44.0642,15.7544 44.6802,16.3854 C45.2962,17.0164 45.6032,17.8944 45.6032,19.0224 C45.6032,20.5304 45.1032,21.6894 44.1032,22.5044 C43.1022,23.3184 41.6842,23.7244 39.8492,23.7244 L34.8322,23.7244 L34.8322,7.3554 L34.8322,7.3554 Z" id="Fill-1" fill="#FFFFFF"></path>
                    <path d="M50.8545,16.918 L56.7105,16.918 L54.4825,11.017 C54.2955,10.554 54.0725,9.912 53.8115,9.092 C53.6095,9.807 53.3895,10.457 53.1495,11.039 L50.8545,16.918 Z M57.0915,17.947 L50.4405,17.947 L48.1565,23.725 L46.8915,23.725 L53.4755,7.288 L54.2025,7.288 L60.6515,23.725 L59.3645,23.725 L57.0915,17.947 Z" id="Fill-3" fill="#FFFFFF"></path>
                    <path d="M69.9454,8.1514 C67.8924,8.1514 66.2764,8.8064 65.0974,10.1214 C63.9174,11.4334 63.3284,13.2334 63.3284,15.5174 C63.3284,17.8534 63.8834,19.6684 64.9964,20.9604 C66.1084,22.2514 67.6984,22.8954 69.7664,22.8954 C71.1394,22.8954 72.4014,22.7204 73.5504,22.3704 L73.5504,23.3784 C72.4674,23.7574 71.1174,23.9484 69.4974,23.9484 C67.1984,23.9484 65.3884,23.2064 64.0674,21.7194 C62.7454,20.2344 62.0854,18.1604 62.0854,15.4964 C62.0854,13.8304 62.4004,12.3644 63.0304,11.0954 C63.6624,9.8264 64.5694,8.8464 65.7524,8.1564 C66.9354,7.4654 68.3104,7.1204 69.8784,7.1204 C71.4754,7.1204 72.9044,7.4194 74.1664,8.0154 L73.7074,9.0454 C72.5124,8.4484 71.2584,8.1514 69.9454,8.1514" id="Fill-5" fill="#FFFFFF"></path>
                    <polygon id="Fill-7" fill="#FFFFFF" points="88.2066 23.7246 86.8076 23.7246 80.5256 15.0806 78.3426 17.0056 78.3426 23.7246 77.2006 23.7246 77.2006 7.3556 78.3426 7.3556 78.3426 15.8646 80.1566 14.0506 86.5716 7.3556 88.0276 7.3556 81.3206 14.2756"></polygon>
                    <path d="M91.6895,15.6524 L91.6895,22.7174 L95.5405,22.7174 C98.5715,22.7174 100.0865,21.4854 100.0865,19.0224 C100.0865,16.7754 98.4885,15.6524 95.2945,15.6524 L91.6895,15.6524 Z M91.6895,14.6434 L95.2945,14.6434 C96.8325,14.6434 97.9495,14.3884 98.6475,13.8774 C99.3455,13.3664 99.6945,12.5644 99.6945,11.4764 C99.6945,10.3854 99.3005,9.5944 98.5135,9.1014 C97.7265,8.6094 96.5515,8.3634 94.9925,8.3634 L91.6895,8.3634 L91.6895,14.6434 Z M90.5465,7.3554 L95.0365,7.3554 C97.0595,7.3554 98.5455,7.6984 99.4925,8.3844 C100.4405,9.0714 100.9155,10.1094 100.9155,11.4984 C100.9155,12.4464 100.6255,13.2354 100.0475,13.8664 C99.4685,14.4964 98.6235,14.9024 97.5115,15.0814 L97.5115,15.1484 C98.8175,15.3424 99.7785,15.7544 100.3945,16.3854 C101.0095,17.0164 101.3185,17.8944 101.3185,19.0224 C101.3185,20.5304 100.8175,21.6894 99.8175,22.5044 C98.8175,23.3184 97.3995,23.7244 95.5635,23.7244 L90.5465,23.7244 L90.5465,7.3554 Z" id="Fill-9" fill="#FFFFFF"></path>
                    <path d="M105.293,15.5176 C105.293,17.8616 105.816,19.6726 106.86,20.9526 C107.905,22.2346 109.406,22.8736 111.361,22.8736 C113.332,22.8736 114.838,22.2396 115.879,20.9706 C116.921,19.7016 117.441,17.8836 117.441,15.5176 C117.441,13.1586 116.921,11.3506 115.879,10.0936 C114.838,8.8356 113.339,8.2066 111.384,8.2066 C109.435,8.2066 107.933,8.8396 106.877,10.1096 C105.821,11.3786 105.293,13.1796 105.293,15.5176 M118.684,15.5176 C118.684,18.1156 118.035,20.1696 116.735,21.6806 C115.437,23.1936 113.646,23.9486 111.361,23.9486 C109.085,23.9486 107.297,23.1936 105.998,21.6806 C104.699,20.1696 104.05,18.1076 104.05,15.4966 C104.05,12.8906 104.705,10.8386 106.015,9.3416 C107.325,7.8466 109.114,7.0976 111.384,7.0976 C113.668,7.0976 115.456,7.8496 116.747,9.3536 C118.038,10.8586 118.684,12.9126 118.684,15.5176" id="Fill-11" fill="#FFFFFF"></path>
                    <path d="M134.3375,23.7246 L133.1835,23.7246 L123.4875,9.1916 L123.3975,9.1916 C123.4875,10.9236 123.5325,12.2296 123.5325,13.1096 L123.5325,23.7246 L122.4345,23.7246 L122.4345,7.3556 L123.5765,7.3556 L133.2625,21.8666 L133.3295,21.8666 C133.2625,20.5216 133.2285,19.2456 133.2285,18.0356 L133.2285,7.3556 L134.3375,7.3556 L134.3375,23.7246 Z" id="Fill-13" fill="#FFFFFF"></path>
                    <polygon id="Fill-15" fill="#FFFFFF" points="147.9068 23.7246 138.9618 23.7246 138.9618 7.3556 147.9068 7.3556 147.9068 8.4086 140.1028 8.4086 140.1028 14.5996 147.4698 14.5996 147.4698 15.6526 140.1028 15.6526 140.1028 22.6716 147.9068 22.6716"></polygon>
                    <path d="M151.1319,22.8516 C151.1319,22.1196 151.4309,21.7536 152.0269,21.7536 C152.6399,21.7536 152.9449,22.1196 152.9449,22.8516 C152.9449,23.5826 152.6399,23.9486 152.0269,23.9486 C151.4309,23.9486 151.1319,23.5826 151.1319,22.8516" id="Fill-17" fill="#FFFFFF"></path>
                    <path d="M154.4122,27.8565 C153.7252,27.8565 153.1622,27.7555 152.7212,27.5535 L152.7212,26.5685 C153.3042,26.7175 153.8592,26.7925 154.3892,26.7925 C156.1962,26.7925 157.0992,25.8065 157.0992,23.8365 L157.0992,7.3555 L158.2412,7.3555 L158.2412,23.7245 C158.2412,26.4785 156.9652,27.8565 154.4122,27.8565" id="Fill-19" fill="#FFFFFF"></path>
                    <g id="Group-23" transform="translate(161.000000, 6.638700)">
                        <mask id="mask-2" fill="white">
                            <use xlink:href="#path-1"></use>
                        </mask>
                        <g id="Clip-22"></g>
                        <path d="M10.8233,12.8642 C10.8233,14.2312 10.3213,15.3132 9.3173,16.1112 C8.3133,16.9102 6.9783,17.3092 5.3143,17.3092 C3.3143,17.3092 1.7793,17.0892 0.7123,16.6492 L0.7123,15.5082 C1.8923,16.0082 3.3963,16.2572 5.2243,16.2572 C6.5683,16.2572 7.6343,15.9502 8.4213,15.3342 C9.2093,14.7192 9.6023,13.9092 9.6023,12.9102 C9.6023,12.2902 9.4723,11.7772 9.2103,11.3692 C8.9493,10.9632 8.5243,10.5922 7.9333,10.2562 C7.3443,9.9202 6.4783,9.5582 5.3373,9.1702 C3.6643,8.5962 2.5093,7.9732 1.8713,7.3062 C1.2333,6.6372 0.9143,5.7482 0.9143,4.6352 C0.9143,3.4112 1.3943,2.4142 2.3523,1.6402 C3.3123,0.8672 4.5453,0.4812 6.0533,0.4812 C7.5913,0.4812 9.0353,0.7722 10.3863,1.3542 L9.9723,2.3402 C8.6133,1.7722 7.3143,1.4892 6.0753,1.4892 C4.8663,1.4892 3.9043,1.7692 3.1873,2.3292 C2.4703,2.8892 2.1123,3.6492 2.1123,4.6122 C2.1123,5.2182 2.2223,5.7142 2.4423,6.1012 C2.6623,6.4912 3.0233,6.8402 3.5233,7.1492 C4.0233,7.4592 4.8813,7.8302 6.0983,8.2642 C7.3743,8.7042 8.3333,9.1312 8.9753,9.5462 C9.6173,9.9592 10.0863,10.4302 10.3813,10.9552 C10.6753,11.4822 10.8233,12.1182 10.8233,12.8642" id="Fill-21" fill="#FFFFFF" mask="url(#mask-2)"></path>
                    </g>
                    <polygon id="Fill-24" fill="#FFFFFF" points="0 0 0 16.569 12.333 23.601 12.333 18.822 4.083 14.117 4.083 6.73 12.333 11.434 12.333 7.031"></polygon>
                    <polygon id="Fill-26" fill="#FFFFFF" points="24.667 0 24.667 16.569 12.333 23.601 12.333 18.822 20.584 14.117 20.584 6.73 12.333 11.434 12.333 7.031"></polygon>
                    <mask id="mask-4" fill="white">
                        <use xlink:href="#path-3"></use>
                    </mask>
                    <g id="Clip-29"></g>
                    <polygon id="Fill-28" fill="#FFFFFF" mask="url(#mask-4)" points="0 30.6387 0 14.0677 12.333 7.0377 12.333 11.8187 4.083 16.5207 4.083 23.5317 12.333 18.8277 12.333 23.6077"></polygon>
                    <polygon id="Fill-30" fill="#FFFFFF" mask="url(#mask-4)" points="24.667 30.6387 24.667 14.0677 12.333 7.0377 12.333 11.8187 20.584 16.5207 20.584 23.5317 12.333 18.8277 12.333 23.6077"></polygon>
                </g>
            </g>
        </g>
    </g>
</svg>