<?xml version="1.0" encoding="UTF-8"?>
<svg width="115px" height="40px" viewBox="0 0 115 40" version="1.1" xmlns="http://www.w3.org/2000/svg" xmlns:xlink="http://www.w3.org/1999/xlink">
    <!-- Generator: Sketch 40 (33762) - http://www.bohemiancoding.com/sketch -->
    <title>django copy</title>
    <desc>Created with Sketch.</desc>
    <defs></defs>
    <g id="Page-1" stroke="none" stroke-width="1" fill="none" fill-rule="evenodd">
        <g id="Desktop-HD" transform="translate(-1027.000000, -2441.000000)" fill="#FFFFFF">
            <g id="tech" transform="translate(0.000000, 2131.000000)">
                <g id="django-copy" transform="translate(1027.000000, 310.000000)">
                    <path d="M14.004355,14.916 C13.276405,14.678 12.672655,14.598 11.909055,14.598 C8.763805,14.598 6.949105,16.518 6.949105,19.878 C6.949105,23.16 8.682155,24.959 11.868805,24.959 C12.551905,24.959 13.115405,24.919 14.004355,24.8 L14.004355,14.916 Z M14.004355,0.562 L20.208605,0.562 L20.208605,29.08 C17.025405,29.68 14.688605,29.921 12.148255,29.921 C4.572055,29.92 0.621805,26.52 0.621805,19.998 C0.621805,13.718 4.813555,9.637 11.301855,9.637 C12.309255,9.637 13.076305,9.717 14.004355,9.957 L14.004355,0.562 Z" id="Fill-15"></path>
                    <path d="M23.87745,6.9159 L30.08285,6.9159 L30.08285,0.5939 L23.87745,0.5939 L23.87745,6.9159 Z M30.08285,10.0769 L30.08285,24.3589 C30.08285,29.2789 29.7206,31.6409 28.6327,33.6809 C27.62415,35.6429 26.2959,36.8819 23.5543,38.2419 L17.79165,35.5219 C20.5321,34.2399 21.8615,33.1209 22.70675,31.3989 C23.59455,29.6399 23.87745,27.5999 23.87745,22.2379 L23.87745,10.0769 L30.08285,10.0769 Z" id="Fill-17"></path>
                    <path d="M43.543945,21.2783 C39.433845,21.6783 38.103295,22.3193 38.103295,23.9203 C38.103295,25.1203 38.869195,25.6783 40.561995,25.6783 C41.490045,25.6783 42.335295,25.5993 43.543945,25.4003 L43.543945,21.2783 Z M33.832195,11.4753 C36.571495,10.1973 39.192345,9.6363 42.053545,9.6363 C45.239045,9.6363 47.334345,10.4763 48.258945,12.1173 C48.784495,13.0373 48.945495,14.2383 48.945495,16.7983 L48.945495,29.3193 C46.163645,29.7193 42.659595,30.0003 40.077845,30.0003 C34.879845,30.0003 32.541895,28.2003 32.541895,24.1993 C32.541895,19.8773 35.646895,17.8783 43.262195,17.2363 L43.262195,15.8773 C43.262195,14.7573 42.698695,14.3573 41.126645,14.3573 C38.828945,14.3573 36.250645,14.9973 33.832195,16.2373 L33.832195,11.4753 Z" id="Fill-19"></path>
                    <path d="M51.966775,11.0371 C55.635275,10.0771 58.659775,9.6371 61.721075,9.6371 C64.903125,9.6371 67.200825,10.3561 68.571625,11.7581 C69.863075,13.0761 70.265575,14.5161 70.265575,17.5981 L70.265575,29.6801 L64.056725,29.6801 L64.056725,17.8381 C64.056725,15.4781 63.252875,14.5981 61.033375,14.5981 C60.191575,14.5981 59.425675,14.6781 58.174475,15.0371 L58.174475,29.6801 L51.966775,29.6801 L51.966775,11.0371 Z" id="Fill-20"></path>
                    <path d="M85.01076,14.6367 L84.80836,14.6367 L84.36561,14.6367 C83.15581,14.5977 81.74706,14.9157 80.77876,15.5167 C79.28721,16.3577 78.52131,17.8787 78.52131,20.0377 C78.52131,23.1187 80.05311,24.8787 82.79356,24.8787 C83.64111,24.8787 84.32536,24.7187 85.13151,24.4807 L85.13151,24.0387 L85.13151,22.3597 C85.13151,21.6387 85.09126,20.8377 85.09126,19.9977 L85.05101,17.1577 L85.01076,15.1187 L85.01076,14.6367 Z M72.67701,33.0407 C74.85626,34.1607 77.03321,34.6807 79.32861,34.6807 C83.39846,34.6807 85.12921,33.0407 85.12921,29.1187 L85.12921,28.9997 C83.92171,29.5997 82.71306,29.8397 81.10076,29.8397 C75.66011,29.8397 72.19171,26.2797 72.19171,20.6377 C72.19171,13.6367 77.31151,9.6767 86.38041,9.6767 C89.04036,9.6767 91.49791,9.9557 94.47986,10.5557 L92.35581,14.9997 C90.70211,14.6797 92.22241,14.9567 90.97351,14.8367 L90.97351,15.4777 L91.05516,18.0767 L91.09541,21.4387 C91.13566,22.2797 91.13566,23.1187 91.17361,23.9577 L91.17361,25.6397 C91.17361,30.9207 90.73201,33.4007 89.40376,35.4417 C87.46831,38.4417 84.12296,39.9217 79.36656,39.9217 C76.94926,39.9217 74.85396,39.5617 72.67701,38.7217 L72.67701,33.0407 Z" id="Fill-21"></path>
                    <path d="M103.99473,25.2393 C106.37293,25.2393 107.78168,23.2793 107.78168,19.8783 C107.78168,16.5173 106.41318,14.5163 104.03498,14.5163 C101.57513,14.5163 100.16523,16.4773 100.16523,19.8783 C100.16753,23.2793 101.57513,25.2393 103.99473,25.2393 M104.11548,9.5563 C110.32203,9.5563 114.10898,13.4363 114.10898,19.7193 C114.10898,26.1603 110.16218,30.2003 103.87398,30.2003 C97.66743,30.2003 93.84023,26.3203 93.84023,20.0793 C93.84023,13.5973 97.78818,9.5563 104.11548,9.5563" id="Fill-22"></path>
                </g>
            </g>
        </g>
    </g>
</svg>