<?xml version="1.0" encoding="UTF-8"?>
<svg width="102px" height="39px" viewBox="0 0 102 39" version="1.1" xmlns="http://www.w3.org/2000/svg" xmlns:xlink="http://www.w3.org/1999/xlink">
    <!-- Generator: Sketch 40 (33762) - http://www.bohemiancoding.com/sketch -->
    <title>ember</title>
    <desc>Created with Sketch.</desc>
    <defs>
        <polygon id="path-1" points="101.93 38.7206812 101.93 0.270543029 0.929476928 0.270543029 0.929476928 38.7206812 101.93 38.7206812"></polygon>
    </defs>
    <g id="Page-1" stroke="none" stroke-width="1" fill="none" fill-rule="evenodd">
        <g id="Desktop-HD" transform="translate(-860.000000, -2441.000000)">
            <g id="tech" transform="translate(0.000000, 2131.000000)">
                <g id="ember" transform="translate(860.000000, 310.000000)">
                    <mask id="mask-2" fill="white">
                        <use xlink:href="#path-1"></use>
                    </mask>
                    <g id="Clip-2"></g>
                    <path d="M101.9097,28.1631 C101.7477,26.4641 100.2097,27.0951 100.2097,27.0951 C100.2097,27.0951 97.7507,29.0041 95.5827,28.7941 C93.4307,28.5661 94.1087,23.7451 94.1087,23.7451 C94.1087,23.7451 94.5787,19.3121 93.3017,18.9391 C92.0217,18.5681 90.4527,20.0881 90.4527,20.0881 C90.4527,20.0881 88.4967,22.2571 87.5727,25.0071 L87.3137,25.0901 C87.3137,25.0901 87.6037,20.2511 87.2637,19.1501 C87.0067,18.5991 84.6767,18.6481 84.3037,19.6211 C83.9157,20.5911 82.0557,27.3711 81.9267,30.2171 C81.9267,30.2171 78.2847,33.3081 75.0977,33.8261 C71.9107,34.3261 71.1497,32.3381 71.1497,32.3381 C71.1497,32.3381 79.8057,29.9261 79.4997,23.0171 C79.2087,16.1071 72.5257,18.6661 71.7647,19.2301 C71.0357,19.7811 67.1357,22.1281 65.9887,28.6471 C65.9567,28.8751 65.8747,29.8461 65.8747,29.8461 C65.8747,29.8461 62.5257,32.0951 60.6647,32.6941 C60.6647,32.6941 65.8747,23.9251 59.5137,19.9281 C56.6357,18.1961 54.3377,21.8361 54.3377,21.8361 C54.3377,21.8361 62.9457,12.2581 61.0367,4.1511 C60.1307,0.3011 58.2047,-0.1219 56.4247,0.5111 C53.7397,1.5781 52.7197,3.1311 52.7197,3.1311 C52.7197,3.1311 49.2417,8.1791 48.4317,15.6871 C47.6237,23.1951 46.4417,32.2561 46.4417,32.2561 C46.4417,32.2561 44.7917,33.8741 43.2697,33.9551 C41.7507,34.0371 42.4307,29.4261 42.4307,29.4261 C42.4307,29.4261 43.6107,22.3881 43.5297,21.2051 C43.4487,20.0241 43.3677,19.3761 41.9597,18.9571 C40.5687,18.5361 39.0317,20.3141 39.0317,20.3141 C39.0317,20.3141 35.0017,26.4151 34.6627,27.3531 L34.4527,27.7421 L34.2407,27.4841 C34.2407,27.4841 37.0897,19.1671 34.3717,19.0531 C31.6527,18.9241 29.8737,22.0131 29.8737,22.0131 C29.8737,22.0131 26.7827,27.1921 26.6527,27.7741 L26.4427,27.5171 C26.4427,27.5171 27.7207,21.4961 27.4637,20.0061 C27.2037,18.5201 25.8127,18.8271 25.8127,18.8271 C25.8127,18.8271 24.0317,18.6151 23.5627,19.7651 C23.0937,20.9141 21.3947,28.5031 21.1827,30.9131 C21.1827,30.9131 16.7347,34.1021 13.8037,34.1341 C10.8777,34.1811 11.1837,32.2721 11.1837,32.2721 C11.1837,32.2721 21.9127,28.5991 18.9827,21.3511 C17.6727,19.4891 16.1357,18.9061 13.9837,18.9391 C11.8157,18.9891 9.2747,20.2991 7.5277,24.1971 C6.7037,26.0581 6.3627,27.8221 6.3627,29.1651 C6.3627,29.1651 4.3557,29.5551 3.3367,28.6971 C2.3167,27.8551 1.7347,28.6971 1.7347,28.6971 C1.7347,28.6971 -0.0453,31.2371 1.6877,31.9171 C3.4167,32.5961 6.1037,33.2261 6.1037,33.2261 C6.3467,34.3261 7.0747,36.1231 9.1957,37.7241 C12.3657,40.1371 18.4827,37.3531 18.4827,37.3531 L20.9897,35.8641 C20.9897,35.8641 21.0717,38.1131 22.8987,38.4551 C24.7277,38.7931 25.4877,38.4221 28.6587,30.7191 C30.5207,26.7711 30.6497,26.9801 30.6497,26.9801 L30.8597,26.9331 C30.8597,26.9331 29.4197,34.4721 29.9707,36.5121 C30.5207,38.5511 32.9307,38.3411 32.9307,38.3411 C32.9307,38.3411 34.2407,38.8081 35.3087,35.0711 C36.3777,31.3351 38.4007,27.4341 38.4007,27.4341 L38.6577,27.4341 C38.6577,27.4341 37.7697,34.9411 39.1277,37.4001 C40.4867,39.8601 43.9987,38.1291 43.9987,38.1291 C43.9987,38.1291 46.4577,36.8361 46.8467,36.4471 C46.8467,36.4471 49.7597,38.9071 53.8857,38.4551 C63.0907,36.6421 66.3617,34.1811 66.3617,34.1811 C66.3617,34.1811 67.9447,38.1791 72.8327,38.5511 C78.4307,38.9711 81.4887,35.4441 81.4887,35.4441 C81.4887,35.4441 81.4397,37.7241 83.3977,38.5351 C85.3557,39.3451 86.6667,35.0711 86.6667,35.0711 L89.9357,26.3181 L90.2267,26.3181 C90.2267,26.3181 90.3877,31.9171 93.6237,32.8551 C96.8767,33.7781 101.0667,30.5411 101.0667,30.5411 C101.0667,30.5411 102.0867,29.8611 101.9097,28.1631 M10.7147,28.9881 C10.8447,23.9391 14.1467,21.7391 15.2957,22.8401 C16.4437,23.9391 16.0227,26.3181 13.8537,27.8061 C11.7017,29.2961 10.7147,28.9881 10.7147,28.9881 M53.7557,9.4581 C53.7557,9.4581 56.7647,1.6101 57.4927,5.4311 C58.2207,9.2481 51.1817,20.6061 51.1817,20.6061 C51.2477,18.0491 53.7557,9.4581 53.7557,9.4581 M57.3647,31.2861 C55.3747,36.4961 50.5347,34.3751 50.5347,34.3751 C50.5347,34.3751 49.9857,32.5151 51.5557,27.2901 C53.1247,22.0801 56.8127,24.1191 56.8127,24.1191 C56.8127,24.1191 59.3547,26.0761 57.3647,31.2861 M70.7137,28.9881 C70.7137,28.9881 70.2437,27.3381 71.9897,24.1491 C73.7207,20.9801 75.0827,22.7111 75.0827,22.7111 C75.0827,22.7111 76.5697,24.3281 74.8717,26.7381 C73.1727,29.1651 70.7137,28.9881 70.7137,28.9881" id="Fill-1" fill="#FFFFFF" mask="url(#mask-2)"></path>
                </g>
            </g>
        </g>
    </g>
</svg>