<?xml version="1.0" encoding="UTF-8"?>
<svg width="139px" height="49px" viewBox="0 0 139 49" version="1.1" xmlns="http://www.w3.org/2000/svg" xmlns:xlink="http://www.w3.org/1999/xlink">
    <!-- Generator: Sketch 40 (33762) - http://www.bohemiancoding.com/sketch -->
    <title>ionic</title>
    <desc>Created with Sketch.</desc>
    <defs>
        <polygon id="path-1" points="0 49 138.86 49 138.86 0.559 0 0.559"></polygon>
    </defs>
    <g id="Page-1" stroke="none" stroke-width="1" fill="none" fill-rule="evenodd">
        <g id="Desktop-HD" transform="translate(-1050.000000, -2330.000000)">
            <g id="tech" transform="translate(0.000000, 2131.000000)">
                <g id="ionic" transform="translate(1050.000000, 198.000000)">
                    <polygon id="Fill-1" fill="#FFFFFF" points="61.747 37.9434 62.749 37.9434 62.749 18.9884 61.747 18.9884"></polygon>
                    <g id="Group-13" transform="translate(0.000000, 0.441400)">
                        <path d="M76.9829,37.0381 C71.8689,37.0381 68.0059,33.1751 68.0059,28.0241 C68.0059,22.8741 71.8689,19.0131 76.9829,19.0131 C82.0979,19.0131 85.9619,22.8741 85.9619,28.0241 C85.9619,33.1751 82.0979,37.0381 76.9829,37.0381 L76.9829,37.0381 Z M76.9829,18.0811 C71.2959,18.0811 67.0049,22.3731 67.0049,28.0241 C67.0049,33.7131 71.2959,37.9681 76.9829,37.9681 C82.6699,37.9681 86.9619,33.7131 86.9619,28.0241 C86.9619,22.3731 82.6699,18.0811 76.9829,18.0811 L76.9829,18.0811 Z" id="Fill-2" fill="#FFFFFF"></path>
                        <path d="M105.8833,19.9766 C103.7373,18.2236 101.1623,18.0816 99.8383,18.0816 C96.8343,18.0816 93.5063,19.4766 92.3283,22.1956 L92.2563,22.1956 L92.2563,18.5466 L91.2543,18.5466 L91.2543,37.5016 L92.2563,37.5016 L92.2563,26.5936 C92.2563,21.8356 95.1883,19.0126 99.9463,19.0126 C102.8073,19.0126 104.3443,19.9416 105.3113,20.7996 C106.7423,22.0876 107.6353,24.1976 107.6353,27.4876 L107.6353,37.5016 L108.6373,37.5016 L108.6373,27.4876 C108.6373,24.0896 107.7423,21.5496 105.8833,19.9766" id="Fill-4" fill="#FFFFFF"></path>
                        <mask id="mask-2" fill="white">
                            <use xlink:href="#path-1"></use>
                        </mask>
                        <g id="Clip-7"></g>
                        <polygon id="Fill-6" fill="#FFFFFF" mask="url(#mask-2)" points="114.182 37.502 115.182 37.502 115.182 18.547 114.182 18.547"></polygon>
                        <path d="M129.4165,37.0381 C124.5885,37.0381 120.4395,33.3901 120.4395,28.0241 C120.4395,25.4491 121.5125,22.9461 123.0515,21.5501 C125.0165,19.7991 126.7705,19.0131 129.4535,19.0131 C133.1725,19.0131 136.4635,21.0861 137.7505,24.6981 L138.8595,24.6981 C137.3575,20.2281 133.2795,18.0811 129.4165,18.0811 C123.6585,18.0811 119.4375,22.4441 119.4375,28.0601 C119.4375,33.9631 123.9085,37.9681 129.4165,37.9681 C133.9245,37.9681 137.5005,35.3921 138.8225,31.5301 L137.7155,31.5301 C136.7855,34.3551 133.7095,37.0381 129.4165,37.0381" id="Fill-8" fill="#FFFFFF" mask="url(#mask-2)"></path>
                        <path d="M62.2475,11.5889 C62.8445,11.5889 63.3295,12.0729 63.3295,12.6709 C63.3295,13.2679 62.8445,13.7509 62.2475,13.7509 C61.6505,13.7509 61.1665,13.2679 61.1665,12.6709 C61.1665,12.0729 61.6505,11.5889 62.2475,11.5889" id="Fill-9" fill="#FFFFFF" mask="url(#mask-2)"></path>
                        <path d="M114.6821,11.5889 C115.2781,11.5889 115.7621,12.0729 115.7621,12.6709 C115.7621,13.2679 115.2781,13.7509 114.6821,13.7509 C114.0841,13.7509 113.6001,13.2679 113.6001,12.6709 C113.6001,12.0729 114.0841,11.5889 114.6821,11.5889" id="Fill-10" fill="#FFFFFF" mask="url(#mask-2)"></path>
                        <path d="M24.2207,14.8906 C29.6817,14.8906 34.1107,19.3176 34.1107,24.7786 C34.1107,30.2406 29.6817,34.6676 24.2207,34.6676 C18.7597,34.6676 14.3317,30.2406 14.3317,24.7786 C14.3317,19.3176 18.7597,14.8906 24.2207,14.8906" id="Fill-11" fill="#FFFFFF" mask="url(#mask-2)"></path>
                        <path d="M24.2207,48.1846 C11.3147,48.1846 0.8147,37.6846 0.8147,24.7786 C0.8147,11.8726 11.3147,1.3716 24.2207,1.3716 C29.4677,1.3716 34.3177,3.1086 38.2257,6.0366 C37.8327,6.5906 37.6007,7.2676 37.6007,7.9986 C37.6007,9.8766 39.1227,11.3986 41.0007,11.3986 C41.7327,11.3986 42.4067,11.1656 42.9617,10.7736 C45.8897,14.6806 47.6257,19.5316 47.6257,24.7786 C47.6267,37.6846 37.1267,48.1846 24.2207,48.1846 M44.4027,7.9986 C44.4027,6.1206 42.8797,4.5976 41.0007,4.5976 C40.1497,4.5976 39.3727,4.9136 38.7757,5.4306 C34.7197,2.3726 29.6787,0.5586 24.2207,0.5586 C10.8657,0.5586 -0.0003,11.4236 -0.0003,24.7786 C-0.0003,38.1346 10.8657,48.9996 24.2207,48.9996 C37.5757,48.9996 48.4427,38.1346 48.4427,24.7786 C48.4427,19.3216 46.6267,14.2796 43.5687,10.2236 C44.0867,9.6276 44.4027,8.8506 44.4027,7.9986" id="Fill-12" fill="#FFFFFF" mask="url(#mask-2)"></path>
                    </g>
                </g>
            </g>
        </g>
    </g>
</svg>