<?xml version="1.0" encoding="UTF-8"?>
<svg width="146px" height="36px" viewBox="0 0 146 36" version="1.1" xmlns="http://www.w3.org/2000/svg" xmlns:xlink="http://www.w3.org/1999/xlink">
    <!-- Generator: Sketch 40 (33762) - http://www.bohemiancoding.com/sketch -->
    <title>knockout</title>
    <desc>Created with Sketch.</desc>
    <defs>
        <polygon id="path-1" points="6.206 6.07498694 6.206 0.6489155 0.829947644 0.6489155 0.829947644 6.07498694 6.206 6.07498694"></polygon>
        <polygon id="path-3" points="0.000260562767 33 140.222231 33 140.222231 0.161629467 0.000260562767 0.161629467"></polygon>
    </defs>
    <g id="Page-1" stroke="none" stroke-width="1" fill="none" fill-rule="evenodd">
        <g id="Desktop-HD" transform="translate(-412.000000, -2342.000000)">
            <g id="tech" transform="translate(0.000000, 2131.000000)">
                <g id="knockout" transform="translate(412.000000, 211.000000)">
                    <path d="M77.1225,26.2961 C77.3825,26.3371 77.6385,26.3781 77.8945,26.4421 C78.2145,26.5321 78.5265,26.3631 78.8415,26.3201 C79.5545,26.1411 80.0285,25.5551 80.4975,25.0341 C81.0675,24.0421 81.4235,22.9481 81.8685,21.8981 C81.9425,21.6861 82.0265,21.4781 82.1185,21.2731 C82.1925,21.0621 82.2765,20.8541 82.3665,20.6481 C82.4405,20.4381 82.5265,20.2301 82.6165,20.0251 C82.6905,19.8141 82.7745,19.6051 82.8605,19.3981 C82.9425,19.1821 83.0405,18.9721 83.1495,18.7681 C83.1405,18.7281 83.1185,18.6471 83.1085,18.6071 C83.6475,19.5171 84.2945,20.3591 84.8255,21.2751 C84.9095,21.4001 84.9955,21.5261 85.0775,21.6521 C85.1615,21.7751 85.2435,21.9011 85.3275,22.0281 C85.4115,22.1521 85.4935,22.2771 85.5775,22.4041 C85.6615,22.5291 85.7435,22.6541 85.8275,22.7791 C86.4605,23.7301 87.0915,24.6831 87.7225,25.6341 C87.8995,25.9301 88.1905,26.1231 88.4685,26.3161 C88.9215,26.4901 89.3785,26.4691 89.8335,26.3201 C90.4975,26.0381 90.9915,25.4911 91.3685,24.8961 C91.4375,24.5391 91.5935,24.1811 91.5015,23.8151 C91.3585,23.3191 91.1015,22.8711 90.8585,22.4211 C90.7675,22.2951 90.6815,22.1671 90.5955,22.0421 C90.4645,21.8401 90.3455,21.6331 90.2285,21.4251 C89.9275,20.9721 89.6165,20.5231 89.3535,20.0491 C89.1325,19.7241 88.9195,19.3961 88.7305,19.0521 C88.6425,18.9261 88.5605,18.7971 88.4785,18.6681 C88.3395,18.4601 88.2005,18.2501 88.0625,18.0431 C88.8945,17.4161 89.7165,16.7721 90.5755,16.1801 C90.7395,16.0491 90.9095,15.9231 91.0835,15.8071 C91.4645,15.4761 91.8455,15.1441 92.1615,14.7481 C92.6655,14.0981 92.8005,13.1941 92.4955,12.4271 C92.2555,12.0091 91.8645,11.7271 91.4525,11.4901 C90.8705,11.4501 90.2695,11.4091 89.7185,11.6351 C89.5505,11.7261 89.3805,11.8131 89.2145,11.9001 C87.5935,13.0191 86.0485,14.2421 84.4745,15.4241 C84.5155,15.2921 84.5605,15.1601 84.6085,15.0311 C84.6875,14.8191 84.7715,14.6101 84.8605,14.4051 C84.9375,14.1951 85.0225,13.9851 85.1105,13.7801 C85.1875,13.5691 85.2715,13.3611 85.3605,13.1561 C85.4355,12.9441 85.5215,12.7361 85.6105,12.5321 C85.6855,12.3221 85.7695,12.1131 85.8605,11.9071 C85.9355,11.6971 86.0215,11.4891 86.1085,11.2831 C86.1855,11.0711 86.2695,10.8651 86.3585,10.6581 C86.4355,10.4471 86.5195,10.2411 86.6085,10.0331 C86.6855,9.8231 86.7695,9.6161 86.8585,9.4101 C86.9355,9.1991 87.0175,8.9921 87.1065,8.7861 C87.1855,8.5761 87.2695,8.3671 87.3585,8.1621 C87.4355,7.9521 87.5175,7.7431 87.6065,7.5371 C87.6835,7.3281 87.7675,7.1191 87.8565,6.9131 C87.9335,6.7031 88.0175,6.4941 88.1065,6.2891 C88.1835,6.0781 88.2675,5.8701 88.3565,5.6631 C88.4315,5.4531 88.5175,5.2461 88.6065,5.0391 C88.6835,4.8281 88.7655,4.6201 88.8555,4.4161 C88.9315,4.2031 89.0175,3.9941 89.1105,3.7901 C89.2225,3.4501 89.3415,3.1091 89.4955,2.7871 C89.6145,2.2501 89.7395,1.6991 89.5075,1.1711 C89.2125,0.6471 88.7355,0.2531 88.1925,0.0021 C87.7925,-0.0009 87.3925,-0.0019 86.9935,0.0061 C86.1085,0.2541 85.4315,0.9231 84.9875,1.7061 C84.8155,2.1661 84.6345,2.6211 84.4445,3.0731 C84.3685,3.2841 84.2845,3.4931 84.1945,3.6971 C84.1185,3.9091 84.0345,4.1151 83.9465,4.3211 C83.8705,4.5331 83.7845,4.7401 83.6965,4.9451 C83.6185,5.1561 83.5365,5.3641 83.4465,5.5691 C83.3705,5.7801 83.2865,5.9881 83.1985,6.1941 C83.1205,6.4051 83.0365,6.6131 82.9465,6.8191 C82.7905,7.2371 82.6205,7.6541 82.4465,8.0671 C82.3705,8.2781 82.2865,8.4861 82.1985,8.6911 C82.1225,8.9021 82.0385,9.1101 81.9485,9.3151 C81.8725,9.5261 81.7885,9.7341 81.7005,9.9401 C81.6225,10.1501 81.5385,10.3581 81.4505,10.5641 C81.3725,10.7751 81.2885,10.9831 81.2005,11.1881 C81.1245,11.3981 81.0385,11.6081 80.9505,11.8141 C80.8745,12.0231 80.7925,12.2321 80.7005,12.4381 C80.6245,12.6481 80.5405,12.8561 80.4525,13.0621 C80.3745,13.2731 80.2905,13.4811 80.2025,13.6861 C80.1245,13.8981 80.0425,14.1041 79.9525,14.3111 C79.8765,14.5231 79.7925,14.7291 79.7025,14.9361 C79.6265,15.1461 79.5425,15.3531 79.4545,15.5591 C79.3765,15.7711 79.2925,15.9781 79.2045,16.1841 C79.1265,16.3951 79.0425,16.6031 78.9545,16.8081 C78.8765,17.0181 78.7925,17.2271 78.7045,17.4321 C78.6285,17.6431 78.5445,17.8521 78.4545,18.0561 C78.3785,18.2681 78.2925,18.4751 78.2065,18.6821 C78.1285,18.8911 78.0445,19.1001 77.9565,19.3061 C77.8785,19.5161 77.7965,19.7241 77.7085,19.9291 C77.6305,20.1401 77.5445,20.3461 77.4585,20.5551 C77.3805,20.7651 77.2945,20.9721 77.2065,21.1781 C77.1305,21.3881 77.0445,21.5971 76.9565,21.8021 C76.8805,22.0121 76.7965,22.2191 76.7105,22.4261 C76.6325,22.6381 76.5425,22.8461 76.4525,23.0511 C76.2585,23.7261 75.8395,24.4541 76.1515,25.1581 C76.2985,25.6601 76.7475,25.9721 77.1225,26.2961" id="Fill-1" fill="#FFFFFF"></path>
                    <path d="M109.7944,25.0471 C110.1834,25.4491 110.6874,25.7081 111.1904,25.9351 C111.3254,25.9801 111.4564,26.0271 111.5914,26.0821 C113.1494,26.1401 114.7144,26.1441 116.2734,26.0831 C116.4014,26.0271 116.5324,25.9771 116.6654,25.9301 C116.8334,25.8471 117.0034,25.7641 117.1754,25.6841 C117.4444,25.4431 117.7104,25.1931 117.9664,24.9381 C117.9764,24.9911 117.9914,25.1001 117.9994,25.1541 C118.3334,25.5401 118.7204,25.8771 119.1894,26.0881 C120.3064,26.1461 121.4254,26.1091 122.5424,26.1191 C123.3744,26.1041 124.2224,26.1851 125.0284,25.9411 C125.1984,25.8531 125.3684,25.7681 125.5424,25.6831 C125.9174,25.4571 126.2204,25.1391 126.4564,24.7681 C126.5874,24.3851 126.6204,23.9821 126.7084,23.5881 C126.6444,23.3491 126.6224,23.0991 126.5524,22.8621 C126.4254,22.5521 126.1514,22.3461 125.9194,22.1201 C124.7064,21.7251 123.4254,21.8761 122.1734,21.8481 C122.5324,20.8991 122.8994,19.9511 123.3144,19.0241 C123.3884,18.8121 123.4724,18.6041 123.5624,18.3991 C123.6404,18.1881 123.7224,17.9801 123.8124,17.7751 C123.8884,17.5641 123.9724,17.3571 124.0624,17.1511 C124.1384,16.9401 124.2224,16.7331 124.3104,16.5271 C124.3884,16.3171 124.4704,16.1081 124.5604,15.9021 C124.6384,15.6921 124.7244,15.4841 124.8174,15.2771 C125.0524,14.5231 125.4234,13.7681 125.3514,12.9561 C125.2924,12.8261 125.2374,12.6941 125.1874,12.5621 C125.1574,12.4941 125.0994,12.3611 125.0714,12.2951 C124.7764,11.9651 124.4314,11.6821 124.0304,11.4891 C123.5424,11.4501 123.0504,11.4561 122.5604,11.4921 C122.0324,11.7541 121.5384,12.0901 121.1554,12.5411 C121.0714,12.6711 120.9874,12.8021 120.8994,12.9291 C120.6734,13.3371 120.4684,13.7571 120.2744,14.1811 C120.2004,14.3941 120.1164,14.6041 120.0284,14.8121 C119.9524,15.0221 119.8644,15.2301 119.7784,15.4361 C119.7004,15.6471 119.6164,15.8531 119.5284,16.0591 C119.4524,16.2711 119.3664,16.4771 119.2804,16.6831 C119.2004,16.8951 119.1184,17.1021 119.0304,17.3071 C118.9524,17.5181 118.8684,17.7271 118.7804,17.9321 C118.7024,18.1411 118.6184,18.3511 118.5304,18.5571 C118.4524,18.7681 118.3684,18.9751 118.2824,19.1811 C118.2044,19.3921 118.1204,19.6001 118.0344,19.8081 C117.8414,20.4771 117.3904,21.0331 116.8154,21.4181 C116.3084,21.6721 115.7514,21.8851 115.1774,21.8541 C114.7944,21.8541 114.3704,21.9001 114.0694,21.6181 C113.8804,21.3161 113.9114,20.9701 114.0194,20.6491 C114.0674,20.5241 114.1144,20.4011 114.1614,20.2771 C114.2024,20.1521 114.2434,20.0271 114.2844,19.9031 C114.3234,19.7871 114.3624,19.6701 114.3994,19.5521 C114.4604,19.4201 114.5174,19.2851 114.5794,19.1531 C114.6514,18.9401 114.7334,18.7321 114.8254,18.5261 C114.8984,18.3141 114.9854,18.1061 115.0754,17.9011 C115.2314,17.4821 115.4014,17.0651 115.5754,16.6521 C115.6484,16.4401 115.7334,16.2331 115.8234,16.0281 C115.8984,15.8181 115.9814,15.6091 116.0754,15.4041 C116.2314,14.9831 116.3984,14.5631 116.5834,14.1521 C116.7514,13.6381 116.7674,13.1011 116.7374,12.5651 C116.5644,12.2301 116.3764,11.8881 116.0754,11.6461 C115.4374,11.0571 114.4624,11.1371 113.6944,11.3871 C113.1264,11.7511 112.6424,12.2341 112.2804,12.8021 C112.1104,13.1351 111.9424,13.4681 111.7824,13.8061 C111.7124,14.0201 111.6284,14.2291 111.5404,14.4371 C111.4604,14.6471 111.3764,14.8541 111.2884,15.0601 C111.2104,15.2721 111.1284,15.4791 111.0384,15.6841 C110.9624,15.8951 110.8784,16.1031 110.7904,16.3071 C110.7124,16.5201 110.6284,16.7271 110.5384,16.9321 C110.4624,17.1441 110.3784,17.3501 110.2904,17.5571 C110.2124,17.7681 110.1284,17.9741 110.0404,18.1811 C109.9644,18.3921 109.8784,18.5991 109.7884,18.8061 C109.7144,19.0161 109.6304,19.2231 109.5404,19.4301 C109.4644,19.6401 109.3784,19.8481 109.2864,20.0531 C109.0874,20.6241 108.8804,21.1931 108.7614,21.7851 C108.7224,22.4101 108.7204,23.0431 108.9014,23.6491 C109.1404,24.1491 109.3904,24.6591 109.7944,25.0471" id="Fill-3" fill="#FFFFFF"></path>
                    <path d="M129.0405,25.9445 C130.0995,26.2355 131.2065,26.0785 132.2925,26.1195 C133.3685,26.0845 134.4705,26.2265 135.5225,25.9445 C135.8885,25.7675 136.2165,25.5285 136.5465,25.2875 C136.6965,25.0495 136.8705,24.8185 136.9705,24.5495 C137.1775,24.0765 137.0835,23.5455 137.0855,23.0435 C136.9445,22.8235 136.8005,22.6045 136.6615,22.3855 C136.4055,22.2535 136.1495,22.1245 135.8945,21.9965 C134.8255,21.7445 133.7245,21.8885 132.6365,21.8425 C132.6795,21.7995 132.7615,21.7175 132.8045,21.6765 C132.8705,21.4525 132.9565,21.2345 133.0505,21.0195 C133.1265,20.8105 133.2105,20.6025 133.3005,20.3965 C133.3765,20.1855 133.4605,19.9785 133.5505,19.7745 C133.6265,19.5625 133.7085,19.3545 133.8005,19.1475 C133.8745,18.9375 133.9585,18.7295 134.0485,18.5235 C134.1245,18.3135 134.2085,18.1055 134.2985,17.8985 C134.3765,17.6895 134.4585,17.4815 134.5485,17.2755 C134.6245,17.0645 134.7065,16.8575 134.7965,16.6515 C134.8765,16.4335 134.9685,16.2215 135.0715,16.0155 C135.0835,15.9445 135.1065,15.8025 135.1165,15.7315 C136.0445,15.7175 136.9815,15.8045 137.8905,15.5825 C138.5735,15.2915 139.2535,14.8885 139.5635,14.1735 C139.6875,13.6415 139.8275,13.0585 139.5955,12.5345 C139.4855,12.1125 139.1085,11.8685 138.7675,11.6485 C138.6305,11.6015 138.4955,11.5495 138.3645,11.4955 C137.8395,11.4615 137.3085,11.4885 136.7885,11.3965 C136.8585,11.2735 136.9295,11.1505 136.9995,11.0285 C137.1515,10.6025 137.3515,10.1955 137.5565,9.7915 C137.6345,9.5365 137.7205,9.2835 137.8125,9.0325 C137.9155,8.6435 137.9995,8.2485 137.9625,7.8455 C137.9035,7.7135 137.8475,7.5775 137.7945,7.4445 C137.7695,7.3765 137.7105,7.2415 137.6835,7.1745 C137.3865,6.8445 137.0405,6.5615 136.6405,6.3715 C135.9785,6.3265 135.2965,6.3025 134.6675,6.5515 C134.2395,6.8855 133.8565,7.2705 133.5035,7.6825 C133.3785,7.9325 133.2535,8.1855 133.1325,8.4365 C133.0605,8.6495 132.9745,8.8605 132.8865,9.0655 C132.8085,9.2765 132.7245,9.4845 132.6345,9.6895 C132.5585,9.9015 132.4745,10.1095 132.3865,10.3145 C132.1775,10.6775 132.1815,11.2775 131.7635,11.4425 C131.0175,11.4765 130.2615,11.4135 129.5405,11.6355 C128.8785,11.9185 128.3045,12.3835 127.9955,13.0455 C127.9705,13.3045 127.9075,13.5575 127.8585,13.8125 C127.8005,14.1485 127.9445,14.4675 128.0015,14.7915 C128.4215,15.6105 129.4335,15.7885 130.2675,15.7335 C129.8975,16.5345 129.6085,17.3695 129.2635,18.1795 C129.1875,18.3895 129.1035,18.5975 129.0155,18.8045 C128.9375,19.0135 128.8535,19.2215 128.7655,19.4275 C128.6875,19.6385 128.6035,19.8455 128.5175,20.0525 C128.4385,20.2625 128.3535,20.4705 128.2655,20.6765 C128.1885,20.8865 128.1055,21.0945 128.0175,21.2995 C127.7905,21.8425 127.5405,22.3755 127.4375,22.9615 C127.2305,23.4785 127.4335,24.0135 127.4975,24.5355 C127.8065,25.1945 128.3805,25.6595 129.0405,25.9445" id="Fill-5" fill="#FFFFFF"></path>
                    <path d="M62.7202,23.8996 C63.0302,24.2296 63.2632,24.6306 63.6212,24.9146 C63.9452,25.1756 64.2852,25.4126 64.6362,25.6356 C64.8892,25.7256 65.1412,25.8206 65.3872,25.9316 C65.5612,25.9726 65.7352,26.0146 65.9052,26.0786 C68.2512,26.1596 70.5982,26.1096 72.9462,26.1096 C73.4372,26.1456 73.8942,25.9666 74.3492,25.8146 C74.4092,25.7796 74.5342,25.7136 74.5952,25.6796 C74.7632,25.5446 74.9332,25.4136 75.1102,25.2876 C75.2402,25.1086 75.3742,24.9316 75.5182,24.7616 C75.6332,24.4026 75.7122,24.0326 75.7802,23.6606 C75.7332,23.4156 75.6732,23.1716 75.6422,22.9246 C75.6082,22.8536 75.5392,22.7126 75.5052,22.6426 C75.2962,22.4546 75.0742,22.2856 74.8492,22.1206 C74.4432,22.0136 74.0342,21.8956 73.6152,21.8516 C71.9902,21.8356 70.3632,21.8666 68.7392,21.8386 C68.0302,21.7146 67.2272,21.6206 66.7022,21.0736 C66.2142,20.4286 66.0852,19.5466 66.2812,18.7706 C66.3082,18.2836 66.4952,17.8266 66.7012,17.3886 C66.7992,17.2266 66.8962,17.0646 66.9982,16.9056 C67.3632,16.3786 67.7662,15.8486 68.3612,15.5686 C68.7782,15.2836 69.2952,15.3506 69.7722,15.3616 C70.1322,15.4066 70.3752,15.7066 70.5352,16.0066 C70.5452,16.2346 70.5622,16.4626 70.6052,16.6846 C70.7042,17.2576 70.5452,17.8756 70.8082,18.4196 C71.3792,19.1286 72.4062,19.2776 73.2252,18.9566 C73.3952,18.8646 73.5672,18.7746 73.7402,18.6876 C73.9082,18.5156 74.0772,18.3446 74.2462,18.1696 C74.3292,18.0366 74.4132,17.9016 74.5032,17.7716 C74.5802,17.5606 74.6672,17.3526 74.7632,17.1496 C75.1532,15.7146 74.9082,14.1126 73.9992,12.9156 C73.4432,12.2956 72.7362,11.8386 71.9762,11.5126 C71.0152,11.1406 69.9822,11.2076 68.9732,11.2336 C68.1132,11.2936 67.3052,11.6226 66.5152,11.9486 C66.2642,12.1056 66.0112,12.2606 65.7532,12.4036 C64.7882,13.1096 63.9372,13.9686 63.2262,14.9276 C63.1072,15.1396 62.9852,15.3486 62.8482,15.5516 C62.6702,15.8796 62.5052,16.2156 62.3402,16.5506 C61.6052,18.4886 61.4182,20.6666 62.0862,22.6496 C62.2892,23.0696 62.4972,23.4886 62.7202,23.8996" id="Fill-7" fill="#FFFFFF"></path>
                    <path d="M98.0366,17.7531 C98.4816,16.8731 99.1406,16.0681 100.0366,15.6261 C100.5506,15.4641 101.1086,15.2471 101.6476,15.4491 C102.3216,15.5501 102.8156,16.0991 103.1146,16.6751 C103.4136,17.7011 103.2766,18.8151 102.8526,19.7861 C102.7596,19.9591 102.6616,20.1311 102.5596,20.2981 C102.4756,20.4231 102.3956,20.5471 102.3136,20.6721 C102.0696,21.0441 101.7436,21.3601 101.3586,21.5841 C100.9156,21.8281 100.4156,21.8631 99.9256,21.9311 C99.1676,21.8761 98.2496,21.7481 97.8466,21.0081 C97.2806,19.9891 97.5656,18.7491 98.0366,17.7531 M93.8046,23.7751 C94.2886,24.4191 94.8236,25.0511 95.5246,25.4691 C95.8956,25.6961 96.3256,25.7961 96.7296,25.9481 C97.1436,25.9441 97.5346,26.1171 97.9506,26.0961 C99.3976,26.1041 100.8606,26.2001 102.2926,25.9461 C102.5446,25.8511 102.8026,25.7641 103.0616,25.6871 C103.3116,25.5601 103.5596,25.4341 103.8116,25.3081 C104.9196,24.6221 105.7886,23.6311 106.4646,22.5261 C106.6806,22.1151 106.8916,21.6991 107.0896,21.2771 C107.1616,21.0621 107.2456,20.8511 107.3436,20.6451 C107.9136,18.9351 108.1046,17.0631 107.5956,15.3161 C107.4976,15.1071 107.4116,14.8961 107.3356,14.6821 C107.2786,14.5601 107.2216,14.4381 107.1696,14.3151 C106.4876,13.1351 105.4346,12.1891 104.1866,11.6411 C102.9606,11.1411 101.6246,11.1801 100.3276,11.2511 C99.2276,11.4331 98.1756,11.8411 97.2126,12.3991 C97.0836,12.4881 96.9586,12.5741 96.8316,12.6601 C96.0756,13.1901 95.4466,13.8711 94.8176,14.5411 C94.7006,14.7181 94.5736,14.8871 94.4446,15.0521 C94.3566,15.1781 94.2686,15.3061 94.1826,15.4321 C93.9136,15.9221 93.6676,16.4231 93.4256,16.9291 C93.3496,17.1811 93.2666,17.4321 93.1796,17.6831 C93.1386,17.8551 93.0996,18.0301 93.0446,18.2011 C92.7886,19.7171 92.7806,21.3101 93.2966,22.7771 C93.4646,23.1101 93.6306,23.4441 93.8046,23.7751" id="Fill-9" fill="#FFFFFF"></path>
                    <g id="Group-13" transform="translate(139.000000, 20.558800)">
                        <mask id="mask-2" fill="white">
                            <use xlink:href="#path-1"></use>
                        </mask>
                        <g id="Clip-12"></g>
                        <path d="M5.9232,2.1113 C5.5852,1.5593 5.1012,1.1103 4.5192,0.8233 C4.3782,0.7773 4.2392,0.7263 4.1032,0.6743 C3.3782,0.6003 2.6462,0.6753 2.0192,1.0703 C1.7572,1.3263 1.4972,1.5853 1.2432,1.8503 C1.1612,2.0213 1.0772,2.1903 0.9972,2.3613 C0.9462,2.4963 0.8962,2.6303 0.8412,2.7643 C0.8352,3.1253 0.8192,3.4873 0.8412,3.8463 C1.0032,4.6253 1.4722,5.3253 2.1502,5.7463 C2.2122,5.7813 2.3392,5.8503 2.4022,5.8863 C3.2022,6.1603 4.1282,6.1513 4.8922,5.7573 C5.2022,5.4683 5.5092,5.1733 5.7922,4.8513 C5.8742,4.6793 5.9622,4.5093 6.0522,4.3393 C6.3042,3.6033 6.2372,2.8163 5.9232,2.1113" id="Fill-11" fill="#FFFFFF" mask="url(#mask-2)"></path>
                    </g>
                    <g id="Group-16" transform="translate(0.000000, 2.558800)">
                        <mask id="mask-4" fill="white">
                            <use xlink:href="#path-3"></use>
                        </mask>
                        <g id="Clip-15"></g>
                        <path d="M139.6772,28.1924 C139.4132,28.0654 139.1502,27.9354 138.8902,27.8024 C138.5582,27.7754 138.2402,27.6494 137.9062,27.6524 C100.9912,27.6544 64.0782,27.6524 27.1652,27.6544 C26.4502,27.6434 25.6882,27.3484 25.2862,26.7314 C25.2032,26.5684 25.1242,26.4044 25.0562,26.2354 C24.8992,25.8614 24.7802,25.4744 24.6332,25.0984 C24.6192,25.0434 24.5932,24.9294 24.5792,24.8714 C24.4182,24.5474 24.3032,24.2044 24.1922,23.8614 C23.9952,23.4164 23.8492,22.9504 23.6942,22.4884 C23.4932,22.0454 23.3512,21.5794 23.1942,21.1164 C22.9932,20.6724 22.8512,20.2044 22.6952,19.7434 C22.4942,19.2984 22.3522,18.8324 22.1962,18.3714 C21.9952,17.9244 21.8532,17.4584 21.6972,16.9984 C21.4972,16.5504 21.3482,16.0854 21.2012,15.6204 C21.1222,15.4504 21.0452,15.2824 20.9672,15.1144 C21.6892,14.3484 22.4702,13.6414 23.1412,12.8304 C23.7682,12.1674 24.4172,11.5264 25.0512,10.8694 C25.8442,9.9224 26.7602,9.0854 27.6052,8.1844 C28.1672,7.5004 28.8162,6.8914 29.4302,6.2544 C29.9692,5.7494 30.4042,5.1484 30.9242,4.6244 C31.0082,4.4934 31.0942,4.3654 31.1822,4.2394 C31.3662,3.9034 31.5312,3.5544 31.7162,3.2204 C31.7162,2.7224 31.8092,2.1984 31.6012,1.7284 C31.3782,1.1244 30.8272,0.7174 30.2702,0.4414 C29.5572,0.3804 28.8202,0.3674 28.1802,0.7264 C27.9252,0.8984 27.6692,1.0694 27.4112,1.2344 C25.8052,2.7164 24.4052,4.3974 22.8462,5.9234 C21.9852,6.9744 20.9392,7.8554 20.0712,8.9014 C19.3342,9.7004 18.5212,10.4304 17.8262,11.2694 C17.4012,11.7404 16.9132,12.1574 16.5272,12.6644 C16.7432,12.2814 16.8802,11.8634 17.0772,11.4714 C17.1852,11.1324 17.3072,10.7954 17.4572,10.4684 C17.7382,9.5374 18.0322,8.5974 18.1152,7.6234 C18.1402,6.7484 18.1672,5.8654 17.9642,5.0074 C17.8212,4.6354 17.6702,4.2664 17.5302,3.8924 C16.9552,2.8724 16.1082,2.0354 15.1692,1.3504 C14.4212,0.9114 13.6172,0.5894 12.7892,0.3394 C12.5392,0.3164 12.2972,0.2534 12.0532,0.2044 C10.5532,0.1314 9.0142,0.0944 7.5742,0.5894 C7.3262,0.6804 7.0762,0.7664 6.8242,0.8444 C6.3212,1.0854 5.8212,1.3344 5.3292,1.5994 C5.2042,1.6894 5.0742,1.7764 4.9472,1.8604 C3.8422,2.6214 2.8812,3.5704 2.0562,4.6244 C1.8922,4.8774 1.7242,5.1254 1.5552,5.3734 C1.3922,5.6694 1.2152,5.9574 1.0392,6.2464 C0.9192,6.5414 0.8042,6.8404 0.6692,7.1304 C0.3182,8.0234 0.1902,8.9784 0.0242,9.9124 C-0.0618,11.1114 0.0872,12.3104 0.4182,13.4654 C0.5552,13.7564 0.6682,14.0584 0.7882,14.3594 C1.3822,15.3674 2.0922,16.3354 3.0752,17.0004 C3.2912,17.1184 3.5062,17.2414 3.7142,17.3734 C3.9262,17.4544 4.1342,17.5394 4.3382,17.6364 C5.3022,17.8754 6.3532,17.9244 7.3132,17.6474 C8.3662,17.1834 9.1762,16.0754 8.9952,14.8904 C8.9372,14.7584 8.8842,14.6274 8.8312,14.4964 C8.8052,14.4284 8.7482,14.2924 8.7192,14.2244 C8.4232,13.9114 8.0742,13.6564 7.6912,13.4554 C7.4192,13.3774 7.1612,13.2594 6.9032,13.1484 C6.2792,12.8554 5.7522,12.3744 5.4002,11.7814 C5.1452,11.3344 5.1152,10.8284 5.0812,10.3284 C5.1412,9.9604 5.0962,9.5764 5.2082,9.2184 C5.5312,7.6954 6.6352,6.4364 7.9242,5.6274 C8.0852,5.5354 8.2532,5.4544 8.4212,5.3764 C9.1662,5.0444 10.0012,4.9824 10.8002,5.0954 C11.5642,5.2724 12.2202,5.7774 12.6102,6.4544 C12.8612,7.1024 12.7622,7.8314 12.5852,8.4864 C12.3472,9.3894 12.0312,10.2694 11.6652,11.1274 C11.5882,11.3384 11.5052,11.5474 11.4162,11.7534 C11.3392,11.9634 11.2532,12.1704 11.1662,12.3774 C11.0882,12.5874 11.0042,12.7944 10.9152,13.0004 C10.8392,13.2124 10.7542,13.4184 10.6662,13.6244 C10.5892,13.8354 10.5042,14.0434 10.4152,14.2494 C10.3392,14.4594 10.2552,14.6684 10.1652,14.8714 C10.0892,15.0834 10.0042,15.2914 9.9152,15.4954 C9.8392,15.7074 9.7532,15.9144 9.6632,16.1204 C9.3832,16.8314 9.1132,17.5474 8.7922,18.2424 C8.7172,18.4544 8.6332,18.6644 8.5452,18.8694 C8.4672,19.0784 8.3842,19.2874 8.2952,19.4934 C8.2172,19.7034 8.1332,19.9104 8.0452,20.1174 C7.9672,20.3274 7.8832,20.5344 7.7942,20.7424 C7.7172,20.9524 7.6332,21.1584 7.5452,21.3654 C7.4682,21.5764 7.3832,21.7834 7.2932,21.9884 C7.2172,22.1994 7.1342,22.4054 7.0442,22.6104 C6.9672,22.8234 6.8842,23.0304 6.7942,23.2354 C6.7172,23.4474 6.6322,23.6544 6.5422,23.8594 C6.1842,24.6294 6.0162,25.4734 6.1342,26.3204 C6.2322,26.4964 6.3272,26.6734 6.4182,26.8534 C6.7122,27.1694 7.0632,27.4204 7.4362,27.6314 C7.6492,27.6654 7.8562,27.7244 8.0692,27.7694 C8.5822,27.8494 9.0702,27.6324 9.5552,27.5044 C9.6172,27.4684 9.7392,27.3994 9.8012,27.3654 C10.4482,26.9614 10.8942,26.3374 11.2892,25.6964 C11.3682,25.5274 11.4492,25.3594 11.5312,25.1914 C11.6282,24.9454 11.7232,24.6994 11.8292,24.4574 C11.9052,24.2454 11.9892,24.0384 12.0792,23.8304 C12.1552,23.6214 12.2382,23.4144 12.3292,23.2074 C12.4042,22.9964 12.4892,22.7894 12.5792,22.5844 C12.6552,22.3734 12.7392,22.1644 12.8292,21.9614 C12.9052,21.7484 12.9902,21.5404 13.0792,21.3374 C13.1562,21.1254 13.2392,20.9184 13.3312,20.7124 C13.5222,20.2064 13.7202,19.7034 13.9512,19.2134 C14.0262,19.0014 14.1102,18.7934 14.1982,18.5884 C14.2772,18.3774 14.3612,18.1694 14.4492,17.9634 C14.5272,17.7544 14.6112,17.5444 14.6992,17.3384 C14.7772,17.1294 14.8622,16.9204 14.9502,16.7144 C15.0272,16.5044 15.1102,16.2974 15.1972,16.0904 C15.2762,15.8764 15.3672,15.6674 15.4722,15.4634 C15.5032,15.3014 15.5342,15.1414 15.5622,14.9804 C15.7862,15.5044 15.9772,16.0434 16.1532,16.5854 C16.3022,16.9114 16.4192,17.2494 16.5292,17.5884 C16.6972,17.9574 16.8142,18.3484 16.9612,18.7274 C16.9742,18.7854 17.0032,18.8974 17.0152,18.9544 C17.1762,19.2774 17.2912,19.6194 17.4032,19.9604 C17.6002,20.4064 17.7452,20.8724 17.9012,21.3324 C18.1022,21.7764 18.2462,22.2444 18.4022,22.7054 C18.5492,23.0294 18.6662,23.3674 18.7762,23.7074 C18.9452,24.0764 19.0612,24.4674 19.2092,24.8464 C19.2222,24.9034 19.2502,25.0144 19.2632,25.0724 C19.4782,25.5124 19.6162,25.9844 19.7752,26.4484 C20.0652,27.1554 20.3132,27.8784 20.5832,28.5894 C20.5962,28.6464 20.6232,28.7594 20.6362,28.8154 C20.7542,29.0574 20.8522,29.3084 20.9502,29.5594 C21.0942,29.8584 21.2462,30.1544 21.3962,30.4534 C21.7492,30.9364 22.0512,31.4924 22.5832,31.8054 C22.9932,32.0924 23.4882,32.4434 23.9502,32.6194 C24.4032,32.6014 24.8332,33.0004 25.2842,33.0004 L137.1572,33.0004 C137.7142,33.0004 138.2362,32.5154 138.7652,32.3554 C139.2882,32.0334 139.7412,31.4824 140.0462,30.9464 C140.0932,30.8104 140.1442,30.6214 140.2002,30.4904 C140.2302,30.0064 140.2262,29.4924 140.2082,29.0084 C140.0522,28.7304 139.8902,28.4294 139.6772,28.1924" id="Fill-14" fill="#FFFFFF" mask="url(#mask-4)"></path>
                    </g>
                    <path d="M30.7578,12.6799 C30.6748,12.8469 30.5908,13.0119 30.5088,13.1789 C29.7778,15.0599 29.0178,16.9319 28.2648,18.8049 C28.1898,19.0139 28.1068,19.2219 28.0158,19.4279 C27.9408,19.6389 27.8568,19.8459 27.7668,20.0529 C27.6908,20.2629 27.6078,20.4709 27.5188,20.6759 C27.4418,20.8869 27.3578,21.0949 27.2688,21.2999 C27.1908,21.5119 27.1078,21.7189 27.0188,21.9249 C26.9428,22.1349 26.8588,22.3429 26.7708,22.5479 C26.6928,22.7599 26.6068,22.9689 26.5138,23.1729 C26.2198,23.8299 26.1388,24.5499 26.2338,25.2639 C26.2718,25.3319 26.3528,25.4689 26.3908,25.5379 C26.6728,25.8689 27.0108,26.1499 27.4158,26.3229 C27.7348,26.3609 28.0448,26.5319 28.3698,26.4429 C28.5868,26.3899 28.8058,26.3479 29.0298,26.3209 C29.6428,26.0869 30.1378,25.6559 30.5558,25.1599 C30.6938,24.8939 30.8498,24.6369 31.0108,24.3819 C31.9288,22.1339 32.7708,19.8559 33.7508,17.6339 C33.8818,17.3879 34.0148,17.1439 34.1588,16.9059 C34.7088,16.1309 35.4998,15.3589 36.5288,15.4449 C36.6988,15.4639 36.8698,15.4799 37.0438,15.4919 C37.2898,15.6399 37.5188,15.8149 37.7168,16.0249 C37.7758,16.6039 37.6458,17.1659 37.3838,17.6829 C37.3058,17.8919 37.2218,18.0999 37.1338,18.3049 C37.0548,18.5159 36.9708,18.7239 36.8828,18.9309 C36.8068,19.1409 36.7218,19.3489 36.6318,19.5519 C36.5558,19.7639 36.4718,19.9709 36.3818,20.1759 C36.3058,20.3879 36.2218,20.5949 36.1308,20.8009 C35.9708,21.2209 35.8078,21.6399 35.6228,22.0499 C35.5608,22.2579 35.4918,22.4639 35.4348,22.6749 C35.4138,22.7029 35.3758,22.7599 35.3568,22.7889 C35.3428,23.0599 35.3198,23.3289 35.2398,23.5899 C35.3098,23.8539 35.3388,24.1259 35.3568,24.3999 C35.5358,24.7279 35.7028,25.0729 35.9588,25.3519 C36.3108,25.6759 36.7578,25.8629 37.1758,26.0859 C39.1538,26.1399 41.1348,26.1429 43.1128,26.0829 C43.3628,25.9769 43.6218,25.8889 43.8828,25.8099 C44.3298,25.5409 44.7028,25.1729 45.0278,24.7659 C45.2068,24.1189 45.3168,23.4219 45.0578,22.7799 C44.7708,22.4439 44.4208,22.1689 44.0138,21.9939 C42.9098,21.7479 41.7738,21.8809 40.6508,21.8479 C41.2638,20.2749 41.8688,18.6979 42.5468,17.1519 C42.7718,16.5069 42.9978,15.8569 43.0808,15.1759 C43.1388,14.5779 42.9558,13.9949 42.8108,13.4229 C42.4958,12.8239 42.0228,12.3399 41.5218,11.8969 C41.0368,11.6139 40.5108,11.4289 39.9838,11.2439 C39.3758,11.2279 38.7638,11.1869 38.1568,11.2469 C37.6488,11.3429 37.1608,11.5159 36.6758,11.6919 C36.3328,11.8779 36.0048,12.0899 35.6618,12.2799 C35.4848,12.4029 35.3048,12.5239 35.1288,12.6499 C34.8818,12.2399 34.5608,11.8849 34.1498,11.6349 C33.5238,11.3779 32.8368,11.4659 32.1788,11.4929 C31.6048,11.7569 31.0948,12.1369 30.7578,12.6799" id="Fill-17" fill="#FFFFFF"></path>
                    <path d="M50.9697,17.7639 C51.3297,17.0419 51.8317,16.3859 52.4947,15.9189 C52.9407,15.6089 53.4627,15.4289 53.9997,15.3659 C54.3017,15.3579 54.5877,15.4759 54.8867,15.5039 C55.3867,15.7449 55.7887,16.1589 56.0447,16.6509 C56.4207,17.9579 56.1417,19.4199 55.3707,20.5359 C55.0707,21.0079 54.6567,21.4029 54.1567,21.6519 C53.3107,22.0039 52.3357,21.9919 51.4867,21.6579 C51.1507,21.4159 50.7927,21.1469 50.6507,20.7419 C50.3257,19.7579 50.5237,18.6769 50.9697,17.7639 M46.2377,22.7749 C46.6367,23.7009 47.2477,24.5159 48.0097,25.1759 C48.8247,25.8109 49.8697,25.9889 50.8697,26.0939 C52.3257,26.1079 53.7967,26.2019 55.2347,25.9469 C56.0607,25.7139 56.8127,25.2979 57.5057,24.7979 C58.6877,23.7829 59.5337,22.4449 60.1517,21.0279 C60.2697,20.6449 60.3977,20.2659 60.5337,19.8909 C60.5987,19.2689 60.8477,18.6729 60.8137,18.0429 C60.8087,17.5449 60.8297,17.0479 60.7977,16.5529 C60.6997,16.0059 60.5747,15.4609 60.4077,14.9309 C60.2767,14.6819 60.1507,14.4289 60.0227,14.1789 C59.8477,13.9279 59.6777,13.6749 59.5147,13.4169 C59.2247,13.1179 58.9297,12.8219 58.6307,12.5319 C58.1457,12.2029 57.6567,11.8789 57.1207,11.6389 C56.5957,11.4659 56.0607,11.3029 55.5087,11.2399 C54.5137,11.2049 53.5087,11.1669 52.5317,11.3889 C52.1557,11.5219 51.7737,11.6459 51.3927,11.7659 C50.9757,11.9689 50.5597,12.1769 50.1517,12.3999 C50.0237,12.4879 49.8947,12.5729 49.7657,12.6599 C48.6697,13.4889 47.7097,14.4949 46.9907,15.6729 C46.8167,16.0029 46.6487,16.3369 46.4887,16.6749 C46.4167,16.8909 46.3317,17.1049 46.2357,17.3129 C45.7477,18.9579 45.6557,20.7279 46.1087,22.3929 C46.1537,22.5189 46.1977,22.6459 46.2377,22.7749" id="Fill-19" fill="#FFFFFF"></path>
                </g>
            </g>
        </g>
    </g>
</svg>