<?xml version="1.0" encoding="UTF-8"?>
<svg width="141px" height="39px" viewBox="0 0 141 39" version="1.1" xmlns="http://www.w3.org/2000/svg" xmlns:xlink="http://www.w3.org/1999/xlink">
    <!-- Generator: Sketch 40 (33762) - http://www.bohemiancoding.com/sketch -->
    <title>MongoDB-Logo</title>
    <desc>Created with Sketch.</desc>
    <defs>
        <path d="M3.11389262,0.0223216962 L2.12080797,0.351811725 C2.12080797,0.351811725 2.2474585,5.38956507 0.434774915,5.74231365 C-0.760532929,7.13048462 0.618767868,65.0395557 4.96114739,5.94071396 C4.96114739,5.94071396 3.47488473,5.19272618 3.19354224,3.92249243 C2.91229918,2.65139492 3.11389262,0.0223216962 3.11389262,0.0223216962 L3.11389262,0.0223216962 Z" id="path-1"></path>
        <path d="M1.52796021,0.00348828412 C1.52796021,0.00348828412 10.1572661,5.69998913 8.13563073,17.5304549 C6.1887062,26.1255205 1.59203125,28.9510971 1.09809089,30.0298074 C0.554299071,30.7932433 0.0065960363,32.1463653 0.0065960363,32.1463653 L0.373653855,8.19799922 C0.373653855,8.19799922 -0.385586383,0.885559061 1.52796021,0.00348828412 L1.52796021,0.00348828412 Z" id="path-3"></path>
        <path d="M7.68129972,0.0173749771 C7.68129972,0.0173749771 -0.413289736,5.55205266 0.0524378588,15.317421 C0.518292668,25.0830883 6.23544194,29.8846283 7.34894567,30.7557027 C8.06884172,31.5247863 8.09860674,31.8211244 8.15429187,32.5799092 C8.65883893,31.4935579 8.57494663,16.3536739 8.62841099,14.584084 C8.8358381,7.6955202 8.24776334,1.31770763 7.68129972,0.0173749771 L7.68129972,0.0173749771 Z" id="path-5"></path>
        <linearGradient x1="-9.62444561%" y1="43.9043949%" x2="152.344354%" y2="53.6889702%" id="linearGradient-7">
            <stop stop-color="#FFFFFF" offset="0%"></stop>
            <stop stop-color="#FFFFFF" offset="100%"></stop>
        </linearGradient>
    </defs>
    <g id="Page-1" stroke="none" stroke-width="1" fill="none" fill-rule="evenodd">
        <g id="Desktop-HD" transform="translate(-185.000000, -2442.000000)">
            <g id="tech" transform="translate(0.000000, 2131.000000)">
                <g id="MongoDB-Logo" transform="translate(185.000000, 310.000000)">
                    <g id="svg2">
                        <g id="g10" transform="translate(70.698875, 20.290703) scale(1, -1) translate(-70.698875, -20.290703) translate(0.198875, 0.790703)">
                            <g id="g12" transform="translate(0.298313, 0.000000)">
                                <g id="g14" transform="translate(6.065702, 0.930209)">
                                    <g id="g16-Clipped">
                                        <mask id="mask-2" fill="white">
                                            <use xlink:href="#path-1"></use>
                                        </mask>
                                        <g id="path20"></g>
                                        <g id="g16" mask="url(#mask-2)" fill="#FFFFFF">
                                            <path d="M3.11389262,0.0223216962 L2.12080797,0.351811725 C2.12080797,0.351811725 2.2474585,5.38956507 0.434774915,5.74231365 C-0.760532929,7.13048462 0.618767868,65.0395557 4.96114739,5.94071396 C4.96114739,5.94071396 3.47488473,5.19272618 3.19354224,3.92249243 C2.91229918,2.65139492 3.11389262,0.0223216962 3.11389262,0.0223216962" id="path30"></path>
                                        </g>
                                    </g>
                                </g>
                                <g id="g32" transform="translate(8.187040, 5.813807)">
                                    <g id="g34-Clipped">
                                        <mask id="mask-4" fill="white">
                                            <use xlink:href="#path-3"></use>
                                        </mask>
                                        <g id="path38"></g>
                                        <g id="g34" mask="url(#mask-4)" fill="#FFFFFF">
                                            <path d="M1.52796021,0.00348828412 C1.52796021,0.00348828412 10.1572661,5.69998913 8.13563073,17.5304549 C6.1887062,26.1255205 1.59203125,28.9510971 1.09809089,30.0298074 C0.554299071,30.7932433 0.0065960363,32.1463653 0.0065960363,32.1463653 L0.373653855,8.19799922 C0.373653855,8.19799922 -0.385586383,0.885559061 1.52796021,0.00348828412" id="path46"></path>
                                        </g>
                                    </g>
                                </g>
                                <g id="g48" transform="translate(0.000000, 5.481589)">
                                    <g id="g50-Clipped" transform="translate(0.000000, -0.000000)">
                                        <mask id="mask-6" fill="white">
                                            <use xlink:href="#path-5"></use>
                                        </mask>
                                        <g id="path54"></g>
                                        <g id="g50" mask="url(#mask-6)" fill="url(#linearGradient-7)">
                                            <path d="M7.68129972,0.0173749771 C7.68129972,0.0173749771 -0.413289736,5.55205266 0.0524378588,15.317421 C0.518292668,25.0830883 6.23544194,29.8846283 7.34894567,30.7557027 C8.06884172,31.5247863 8.09860674,31.8211244 8.15429187,32.5799092 C8.65883893,31.4935579 8.57494663,16.3536739 8.62841099,14.584084 C8.8358381,7.6955202 8.24776334,1.31770763 7.68129972,0.0173749771" id="path62"></path>
                                        </g>
                                    </g>
                                </g>
                                <path d="M105.490508,8.65114394 C106.062938,8.19228508 107.207798,8.00331975 108.217091,8.00331975 C109.525691,8.00331975 110.807112,8.24663587 112.061022,9.3795641 C113.342111,10.5404983 114.214843,12.3215165 114.214843,15.1550995 C114.214843,17.8808447 113.178702,20.0938454 111.052392,21.389228 C109.85251,22.1447571 108.298961,22.4414274 106.526649,22.4414274 C106.008579,22.4414274 105.490508,22.414551 105.190538,22.2797371 C105.108667,22.2257517 104.944926,22.0098103 104.944926,21.9015739 C104.890567,21.4159715 104.890567,17.7188887 104.890567,15.532997 C104.890567,13.2931199 104.890567,10.1626008 104.944926,9.78447084 C104.972769,9.46079129 105.135847,8.89409462 105.490508,8.65114394 L105.490508,8.65114394 Z M100.048612,23.6559815 C100.511992,23.6559815 102.273034,23.5751197 103.091407,23.5751197 C104.618108,23.5751197 105.681097,23.6559815 108.543578,23.6559815 C110.94301,23.6559815 112.960933,23.0082569 114.405764,21.7669925 C116.150896,20.2555357 117.077656,18.1506386 117.077656,15.5869823 C117.077656,11.943619 115.414725,9.83868874 113.751795,8.65114394 C112.088202,7.41001245 109.93438,6.70820291 106.853799,6.70820291 C105.217717,6.70820291 102.409264,6.76218826 100.064522,6.78879888 L100.032371,6.78879888 C99.9236523,7.00510572 100.233235,7.84657951 100.42515,7.86850587 C101.0589,7.94039774 101.230596,7.96478251 101.524931,8.08624124 C102.0198,8.29038892 102.136805,8.54317324 102.191827,9.43394812 C102.273034,11.1068295 102.246186,13.103922 102.246186,15.3710409 C102.246186,16.9900698 102.273034,20.1476978 102.218675,21.1463105 C102.136805,21.9828011 101.783138,22.1984767 101.073815,22.3606985 C100.719154,22.4414274 100.228595,22.5225217 99.5471147,22.6035163 C99.492424,22.7653395 99.9123827,23.494258 100.048612,23.6559815 L100.048612,23.6559815 Z" id="path64" fill="#FFFFFF"></path>
                                <path d="M124.297498,22.3334567 C124.188779,22.3064474 124.052218,22.0365206 124.052218,21.9015739 C124.02537,20.9303691 123.99819,18.393556 123.99819,16.6395471 C123.99819,16.5855618 124.079398,16.5046004 124.13442,16.5046004 C124.48875,16.4773253 125.360819,16.4503492 126.096989,16.4503492 C127.133131,16.4503492 127.733403,16.5855618 128.060222,16.7475178 C128.932622,17.1790352 129.341311,18.1236293 129.341311,19.1490852 C129.341311,21.4969329 127.705561,22.3877078 125.279611,22.3877078 C125.115871,22.3877078 124.652159,22.3877078 124.297498,22.3334567 L124.297498,22.3334567 Z M130.486502,11.5387123 C130.486502,13.9135694 128.742033,15.2628044 125.551739,15.2628044 C125.41551,15.2628044 124.406548,15.2900463 124.161268,15.2357951 C124.079398,15.2090849 123.99819,15.1550995 123.99819,15.1011142 C123.99819,13.4006919 123.970348,10.6750796 124.052218,9.59590416 C124.106909,9.13701208 124.434391,8.48918789 124.84308,8.30038866 C125.279611,8.05730509 126.260399,8.00331975 126.94221,8.00331975 C128.823572,8.00331975 130.486502,9.05605067 130.486502,11.5387123 L130.486502,11.5387123 Z M119.373673,23.6559815 C119.618953,23.6559815 120.344848,23.5751197 122.198367,23.5751197 C123.9435,23.5751197 125.360819,23.6288393 127.05126,23.6288393 C129.150391,23.6288393 132.040383,22.8733102 132.040383,19.7427911 C132.040383,18.2046239 130.950214,16.9630938 129.532563,16.3693546 C129.450693,16.3423785 129.450693,16.2883932 129.532563,16.2613839 C131.550155,15.7489383 133.322135,14.5074082 133.322135,12.1325512 C133.322135,9.81171267 131.877305,8.35424113 129.777843,7.43662307 C128.496422,6.87015896 126.915362,6.68119362 125.306128,6.68119362 C124.079398,6.68119362 120.791986,6.81617361 118.964984,6.78879888 C118.773732,6.87015896 119.139994,7.73379166 119.303072,7.86850587 C119.739604,7.89534905 120.076035,7.92687649 120.539746,8.06185647 C121.193715,8.22381252 121.271276,8.43520254 121.353147,9.40680594 C121.408169,10.2431968 121.408169,13.2388688 121.408169,15.3710409 C121.408169,18.2855853 121.435017,20.2555357 121.408169,21.2270062 C121.380326,21.9828011 121.107867,22.2257517 120.589796,22.3606985 C120.181107,22.4414274 119.499627,22.5225217 118.954377,22.6035163 C118.817484,22.7384631 119.237443,23.5480108 119.373673,23.6559815 L119.373673,23.6559815 Z" id="path66" fill="#FFFFFF"></path>
                                <path d="M21.8371891,6.71999663 C21.7917461,6.79268583 21.7437177,7.00733158 21.7538272,7.26556427 C21.7613181,7.46190483 21.8001651,7.58661929 21.8369571,7.62930924 C22.3510833,7.71070254 22.5945069,7.76558488 22.8835061,7.84305801 C23.3655471,7.96285565 23.5471867,8.22381252 23.5755596,8.84167069 C23.6546457,10.2971822 23.6593193,13.0264157 23.6303166,14.9459021 L23.6307144,15.0024788 C23.632902,15.2082875 23.6361503,15.4899083 23.3781094,15.6884415 C23.000014,15.9381362 22.5286128,16.1446094 21.932119,16.3239405 C21.7038431,16.3916796 21.5775904,16.5119756 21.584319,16.6526697 C21.5914453,16.7878822 21.7346688,16.959838 22.0323191,17.0173117 C22.8217221,17.0989375 24.8918169,17.5928786 25.7039911,17.9684173 C25.7520527,17.9099137 25.8279237,17.7829734 25.8132732,17.5806529 C25.8072075,17.4955388 25.7996834,17.4065045 25.792325,17.3142477 C25.7691228,17.0430253 25.7432359,16.7355912 25.7432359,16.4290541 C25.7432359,16.3387574 25.8408506,16.2532113 25.9444316,16.2532113 C25.9971336,16.2532113 26.0458249,16.2738421 26.0854343,16.3130437 C27.6334477,17.527332 29.0179525,17.9607763 29.7307221,17.9607763 C30.901966,17.9607763 31.813346,17.4004249 32.5178292,16.2484274 C32.559129,16.1874323 32.614549,16.1552404 32.676565,16.1552404 C32.7355978,16.1552404 32.7914156,16.185738 32.8241637,16.2346736 C34.2476812,17.3155434 35.6583711,17.9607763 36.6013723,17.9607763 C38.8334179,17.9607763 40.1665465,16.2879945 40.1665465,13.4871349 C40.1665465,12.6822715 40.15826,11.6621311 40.1512994,10.7097299 C40.1443387,9.87426924 40.1387039,9.09096673 40.1387039,8.54902027 C40.1387039,8.41756179 40.3140458,8.05315238 40.5788816,7.98023063 C40.9050374,7.82113165 41.3767037,7.73990446 41.9720043,7.63698347 L41.9948749,7.63322941 C42.0402848,7.47283479 41.9454875,6.8482326 41.8546677,6.72039529 C41.7071684,6.72155805 41.5023267,6.73222223 41.2474347,6.74504583 C40.7840548,6.76893227 40.1489792,6.80099126 39.4094939,6.80099126 C37.9265458,6.80099126 37.1515944,6.77178934 36.4114462,6.7239168 C36.3557611,6.90922774 36.336205,7.50695353 36.4041541,7.6315351 C36.8357139,7.71249652 37.0491736,7.7671463 37.3083746,7.84395499 C37.7803724,7.99983146 37.9162706,8.21407855 37.9437817,8.84167069 C37.9547198,9.28833717 38.0402363,13.216278 37.888428,14.1489787 C37.7485523,15.1154992 37.0206681,16.246866 35.4293329,16.246866 C34.8390042,16.246866 33.8850649,16.0010915 32.9757731,15.3108099 C32.9193256,15.2559275 32.8868426,15.1492525 32.8868426,15.0791878 L32.8884999,15.0612481 C32.9955944,14.5577392 32.9955944,13.9706443 32.9955944,13.0822282 C32.9955944,12.5759951 32.9923461,12.0387329 32.9894955,11.5053577 C32.9832972,10.4224282 32.9774635,9.39979615 32.9955944,8.62729072 C32.9955944,8.10065948 33.3136294,7.97504803 33.5695158,7.87355558 C33.7083972,7.84265935 33.8187731,7.81608194 33.9291489,7.78973709 C34.143603,7.73794438 34.3650177,7.68462346 34.6934937,7.63193376 C34.7382406,7.52811578 34.7422181,7.21809038 34.6805668,6.95294757 C34.646095,6.80643963 34.6066514,6.74195621 34.5857694,6.72092684 C33.7610992,6.74919855 32.9147846,6.77398198 31.6939544,6.77398198 C31.3239135,6.77398198 30.7195309,6.75803554 30.1864784,6.74375018 C29.7544214,6.73222223 29.3451357,6.72092684 29.112584,6.71999663 C29.0789409,6.77335077 29.0318074,6.94424347 29.0318074,7.19044988 C29.0318074,7.41921488 29.0737702,7.58053971 29.1168598,7.63023945 C29.2314453,7.65150138 29.3405947,7.67083644 29.4447061,7.6894074 C29.7311199,7.74053567 29.9784215,7.78415584 30.2157462,7.84265935 C30.619828,7.96607816 30.7714374,8.19098943 30.8009704,8.70539506 C30.8798246,9.90642789 30.9414428,13.3660416 30.7717026,14.2325314 C30.482836,15.6229282 29.6921403,16.327462 28.422221,16.327462 C27.6775981,16.327462 26.7378784,15.9688996 25.9694236,15.3921699 C25.8406186,15.2970561 25.7432359,15.0576269 25.7432359,14.8366358 C25.7432359,14.4247193 25.7419432,13.9340672 25.7402527,13.4081004 C25.735082,11.6704366 25.7289831,9.50776685 25.771211,8.57174395 C25.797098,8.28414323 25.897066,7.94169339 26.4389023,7.81541751 C26.5570011,7.78232864 26.7618429,7.74794413 26.9991676,7.70874246 C27.1357619,7.68591911 27.2851837,7.66110246 27.4387155,7.63346196 C27.4938703,7.48476139 27.4600946,6.90155351 27.3655625,6.71999663 C27.1287681,6.72155805 26.8371835,6.73517897 26.5027413,6.74986299 C25.9918302,6.77242056 25.356622,6.80099126 24.6324501,6.80099126 C23.7803682,6.80099126 23.1869901,6.77242056 22.7105176,6.74986299 C22.3909579,6.73481353 22.1137586,6.72129228 21.8371891,6.71999663 L21.8371891,6.71999663" id="path68" fill="#FFFFFF"></path>
                                <path d="M48.8849155,16.8133301 C48.3887212,16.8133301 47.9253414,16.6831673 47.5806239,16.4467281 C46.6339767,15.8702642 46.1520351,14.7193298 46.1520351,13.0286415 C46.1520351,9.86244229 47.7357467,7.65150138 50.0025956,7.65150138 C50.6714801,7.65150138 51.2167303,7.84395499 51.6698349,8.24015763 C52.366562,8.80921304 52.7358074,9.9713432 52.7358074,11.5985447 C52.7358074,14.7177683 51.1882248,16.8133301 48.8849155,16.8133301 L48.8849155,16.8133301 L48.8849155,16.8133301 Z M49.3214471,6.47707917 C45.2252754,6.47707917 43.765861,9.48520928 43.765861,12.2998227 C43.765861,14.2660189 44.5689864,15.803422 46.1536924,16.8688769 C47.2799905,17.5619823 48.6247201,17.9607763 49.8395177,17.9607763 C52.9655086,17.9607763 55.1491612,15.7106337 55.1491612,12.4885222 C55.1491612,10.2978466 54.2764294,8.56888688 52.6260945,7.48824968 C51.8345701,7.00214898 50.461335,6.47707917 49.3214471,6.47707917 L49.3214471,6.47707917 L49.3214471,6.47707917 Z" id="path70" fill="#FFFFFF"></path>
                                <path d="M91.3027323,16.8133301 C90.805875,16.8133301 90.3421638,16.6831673 89.9977777,16.4467281 C89.051462,15.8702642 88.5695204,14.7196952 88.5695204,13.0286415 C88.5695204,9.86244229 90.1525691,7.65150138 92.4200809,7.65150138 C93.0889654,7.65150138 93.6342156,7.84395499 94.0873202,8.2404234 C94.7837158,8.80921304 95.1532927,9.97107743 95.1532927,11.598146 C95.1532927,14.7175026 93.6057102,16.8133301 91.3027323,16.8133301 L91.3027323,16.8133301 L91.3027323,16.8133301 Z M91.7389324,6.47707917 C87.6424293,6.47707917 86.1830148,9.48494351 86.1830148,12.2995901 C86.1830148,14.2662847 86.9868032,15.8038207 88.5715092,16.8692423 C89.6974758,17.5622481 91.0422054,17.9607763 92.2566716,17.9607763 C95.3829939,17.9607763 97.5666465,15.7102682 97.5666465,12.488788 C97.5666465,10.2975808 96.6939147,8.5686211 95.0435798,7.48864834 C94.2520554,7.00214898 92.8791518,6.47707917 91.7389324,6.47707917 L91.7389324,6.47707917 L91.7389324,6.47707917 Z" id="path72" fill="#FFFFFF"></path>
                                <path d="M77.5952407,16.921035 C76.332713,16.921035 75.5166606,15.9226881 75.5166606,14.3777437 C75.5166606,12.8185471 76.2183596,10.9979618 78.1955132,10.9979618 C78.5349273,10.9979618 79.1504469,11.1490211 79.4553893,11.4856572 C79.9147916,11.9081714 80.2147621,12.7813056 80.2147621,13.7033089 C80.2147621,15.7183079 79.2353004,16.921035 77.5952407,16.921035 L77.5952407,16.921035 L77.5952407,16.921035 Z M77.4321628,6.26153643 C76.9578449,6.26153643 76.6127959,6.12330072 76.4066284,6.00742324 C75.4072791,5.36597762 74.9438993,4.72539577 74.9438993,3.98790607 C74.9438993,3.29232893 75.213707,2.73975814 75.7930975,2.24843831 C76.4947965,1.65317093 77.4411122,1.36339086 78.6860727,1.36339086 C81.1342297,1.36339086 82.2320222,2.68162008 82.2320222,3.98790607 C82.2320222,4.89695291 81.776266,5.50637275 80.8388996,5.85091556 C80.1163187,6.11526105 78.9094761,6.26153643 77.4321628,6.26153643 L77.4321628,6.26153643 L77.4321628,6.26153643 Z M77.5952407,0 C76.1248881,0 75.0652133,0.310675221 74.1599985,1.00794136 C73.2796431,1.68833948 72.8852068,2.69732068 72.8852068,3.39459877 C72.8852068,3.59495917 72.9326054,4.11315208 73.3674798,4.60822265 C73.6240291,4.89980998 74.2173409,5.44537761 75.5882558,6.38934052 C75.6303511,6.40518729 75.6595195,6.44684737 75.6595195,6.49731122 C75.6595195,6.55365531 75.6233905,6.59920233 75.5736716,6.6098333 C74.4437275,7.04301174 74.1029875,7.75365827 74.0002352,8.1393296 C73.9985779,8.15308341 73.9939375,8.17527554 73.9889656,8.19876332 C73.9564826,8.35008841 73.9263198,8.49307483 74.1304986,8.63984854 C74.2886046,8.75290217 74.5428338,8.90369571 74.8119786,9.0626618 C75.2090666,9.2975396 75.6591881,9.56371228 75.9084453,9.77759393 C75.947889,9.81613117 75.963799,9.87270781 75.9545181,9.92928446 C75.9449058,9.98652554 75.9117599,10.0333682 75.8630354,10.0574872 C74.1908242,10.6200644 73.3489181,11.8635546 73.3489181,13.7572942 C73.3489181,14.979888 73.9120671,16.0849099 74.8935175,16.7895766 C75.5660481,17.3216562 77.2541693,17.9614075 78.3476529,17.9614075 L78.4112931,17.9607763 C79.5365967,17.9340327 80.170678,17.6982247 81.0483817,17.3727844 C81.5250199,17.1960115 81.9761358,17.1243854 82.6072339,17.1243854 C83.538634,17.1243854 83.9453344,17.4198929 84.2943608,17.7592199 C84.3142484,17.7171944 84.3619785,17.5837758 84.3831919,17.2766075 C84.4053996,16.9633263 84.3198832,16.499152 84.0805697,16.1678314 C83.8899807,15.9037517 83.4488086,15.7121951 83.0321645,15.7121951 C82.9904007,15.7121951 82.9492997,15.7141552 82.9098561,15.7183079 C82.480948,15.7604663 82.2794209,15.8230229 82.2774321,15.8240527 L82.1723596,15.7873427 C82.1392137,15.7389386 82.1607585,15.6849533 82.1879382,15.6168154 C82.1945674,15.6004703 82.2011965,15.5848893 82.2035167,15.574657 C82.2582075,15.356224 82.355325,14.7183996 82.355325,14.5396997 C82.355325,12.553803 81.5727501,11.687579 80.7268664,11.04713 C79.9197635,10.4373447 78.9764308,10.0706098 77.91311,9.95822061 L77.9121156,9.95822061 C77.8905708,9.95822061 77.7898072,9.94915107 77.5866228,9.93124454 C77.4556964,9.91928471 77.2926186,9.90450103 77.268422,9.90450103 L77.244557,9.90137819 C77.0596028,9.84895426 76.5803129,9.62082048 76.5803129,9.19608036 C76.5803129,8.84256768 76.7977501,8.40470497 77.8342228,8.32633485 C78.0443678,8.31048808 78.26976,8.29480741 78.505096,8.27869486 C79.8736907,8.18331521 81.5826938,8.06444777 82.3871451,7.79126529 C83.4935556,7.38768743 84.1819962,6.39558621 84.1819962,5.20219438 C84.1819962,3.41988053 82.9161538,1.74414206 80.7964728,0.720237649 C79.7682867,0.235536917 78.7241905,0 77.5952407,0 L77.5952407,0 L77.5952407,0 Z" id="path74" fill="#FFFFFF"></path>
                                <path d="M70.8699354,7.670471 C70.2703258,7.75143241 69.8337942,7.83242705 69.3160551,8.07521162 C69.2341847,8.12919697 69.1248032,8.37214765 69.1248032,8.45310907 C69.0701124,9.28976571 69.0701124,11.7185749 69.0701124,13.3106278 C69.0701124,14.6061433 68.8523438,15.7394701 68.3070935,16.5494829 C67.6527932,17.4668684 66.7260336,18.006589 65.5261516,18.006589 C64.4631622,18.006589 63.0451801,17.2779031 61.8731407,16.2793236 C61.8456296,16.2523144 61.6656473,16.0812888 61.6696248,16.3470628 C61.6736023,16.6124382 61.7147033,17.1526903 61.7392313,17.4928146 C61.7640907,17.8328061 61.5605748,17.9930678 61.5605748,17.9930678 C60.7972245,17.6153032 58.6473807,17.1037547 57.8535361,17.0214644 C57.2731512,16.9096067 57.1269777,16.3510826 57.7448175,16.1582304 L57.7448175,16.1580975 C57.7448175,16.1572005 57.7507838,16.1561706 57.7540984,16.1551075 C58.4007751,15.9603284 58.8363124,15.7521609 59.1614737,15.5374154 C59.407085,15.3484501 59.3795738,15.0785234 59.3795738,14.862582 C59.4067535,13.0545877 59.4067535,10.2745914 59.3248831,8.76353313 C59.2977034,8.16969429 59.1339626,7.95415155 58.6977625,7.84591508 L58.7375375,7.85927022 C58.4103874,7.77870747 58.1375966,7.72445635 57.7289075,7.670471 C57.5923463,7.53575679 57.5923463,6.7530855 57.728576,6.5908969 C58.0013669,6.5908969 59.3921693,6.67212408 60.5370291,6.67212408 C62.118089,6.67212408 62.9361301,6.5908969 63.3451506,6.5908969 C63.50856,6.78009478 63.5632507,7.50878072 63.4542007,7.670471 C62.9904894,7.69744706 62.6633393,7.75143241 62.3361891,7.83242705 C61.8999889,7.94039774 61.7909389,8.15620625 61.7640907,8.6420744 C61.7093999,9.91034806 61.7093999,12.6089511 61.7093999,14.4443201 C61.7093999,14.9570646 61.8456296,15.1999821 62.0093704,15.3349621 C62.5542892,15.8208302 63.4542007,16.1442108 64.2450621,16.1442108 C65.008081,16.1442108 65.5261516,15.9014262 65.9079925,15.5778795 C66.4260631,15.1459967 66.6166521,14.5253147 66.6713428,14.0664226 C66.7803929,13.040701 66.7528818,10.9899222 66.7528818,9.20877107 C66.7528818,8.23716767 66.6713428,7.99425021 66.317013,7.88641239 C66.1532722,7.80528487 65.717072,7.72445635 65.1990015,7.670471 C65.0355921,7.50878072 65.0899514,6.7530855 65.1990015,6.5908969 C65.9079925,6.5908969 66.7260336,6.67212408 67.9252526,6.67212408 C69.4251051,6.67212408 70.3790444,6.5908969 70.7608853,6.5908969 C70.9242947,6.78009478 70.978654,7.48190432 70.8699354,7.670471" id="path76" fill="#FFFFFF"></path>
                                <path d="M137.158111,9.00206532 L137.619503,9.00206532 C137.992394,9.00206532 138.134259,9.13249392 138.134259,9.47039238 C138.134259,9.8140382 137.998029,9.92709182 137.57807,9.92709182 L137.158111,9.92709182 L137.158111,9.00206532 L137.158111,9.00206532 Z M138.140225,7.54937771 L137.595969,8.72356736 L137.158111,8.72356736 L137.158111,7.54937771 L136.838585,7.54937771 L136.838585,10.2176493 L137.6258,10.2176493 C138.211157,10.2176493 138.453785,9.9565263 138.453785,9.47039238 C138.453785,9.07940556 138.270157,8.83024241 137.927428,8.7587492 L138.489251,7.54937771 L138.140225,7.54937771 L138.140225,7.54937771 Z M137.6258,10.8042126 C136.554524,10.8042126 135.703006,9.9565263 135.703006,8.87761663 C135.703006,7.81644738 136.554524,6.96241576 137.619503,6.96241576 C138.678514,6.96241576 139.530364,7.81644738 139.530364,8.87761663 C139.530364,9.96237333 138.702379,10.8042126 137.6258,10.8042126 L137.6258,10.8042126 Z M137.619503,6.77268633 C136.436525,6.77268633 135.513743,7.69771283 135.513743,8.88333077 C135.513743,10.0752608 136.436525,10.993942 137.6258,10.993942 C138.785244,10.993942 139.725262,10.0632013 139.725262,8.91329679 C139.725262,7.70977233 138.802812,6.77268633 137.619503,6.77268633 L137.619503,6.77268633 Z" id="path78" fill="#FFFFFF"></path>
                            </g>
                        </g>
                    </g>
                </g>
            </g>
        </g>
    </g>
</svg>