<?xml version="1.0" encoding="UTF-8"?>
<svg width="135px" height="38px" viewBox="0 0 135 38" version="1.1" xmlns="http://www.w3.org/2000/svg" xmlns:xlink="http://www.w3.org/1999/xlink">
    <!-- Generator: Sketch 40 (33762) - http://www.bohemiancoding.com/sketch -->
    <title>node js</title>
    <desc>Created with Sketch.</desc>
    <defs>
        <polygon id="path-1" points="53.1573672 0.0725581395 0 0.0725581395 0 38.1511628 106.314734 38.1511628 106.314734 0.0725581395 53.1573672 0.0725581395"></polygon>
    </defs>
    <g id="Page-1" stroke="none" stroke-width="1" fill="none" fill-rule="evenodd">
        <g id="Desktop-HD" transform="translate(-392.000000, -2442.000000)">
            <g id="tech" transform="translate(0.000000, 2131.000000)">
                <g id="node-js" transform="translate(392.000000, 310.000000)">
                    <path d="M124.154472,14.4458605 C123.824886,14.4458605 123.505541,14.5137674 123.223438,14.6728372 L114.275266,19.8356279 C113.695231,20.1686512 113.344231,20.7984186 113.344231,21.468186 L113.344231,31.776093 C113.344231,32.444 113.695231,33.0737674 114.275266,33.4086512 L116.611231,34.7565581 C117.747093,35.3146977 118.166059,35.3072558 118.682783,35.3072558 C120.3633,35.3072558 121.323197,34.2877209 121.323197,32.5165581 L121.323197,22.3426047 C121.323197,22.1974884 121.199369,22.096093 121.057852,22.096093 L119.936886,22.096093 C119.792576,22.096093 119.67061,22.1974884 119.67061,22.3426047 L119.67061,32.5165581 C119.67061,33.3016744 118.852231,34.0914419 117.522714,33.4263256 L115.091783,32.004 C115.006128,31.9565581 114.940024,31.8737674 114.940024,31.776093 L114.940024,21.468186 C114.940024,21.3705116 115.005197,21.271907 115.091783,21.2216744 L124.020403,16.0774884 C124.105128,16.0300465 124.203817,16.0300465 124.28761,16.0774884 L133.2153,21.2216744 C133.301886,21.2737674 133.36799,21.3677209 133.36799,21.468186 L133.36799,31.776093 C133.36799,31.8737674 133.318645,31.9751628 133.235783,32.0226047 L124.28761,37.1667907 C124.210334,37.2123721 124.105128,37.2123721 124.020403,37.1667907 L121.721679,35.7993488 C121.653714,35.7602791 121.56061,35.7630698 121.494507,35.7993488 C120.859541,36.1593488 120.740369,36.2021395 120.145438,36.4067907 C119.998334,36.4588837 119.775817,36.5379535 120.220852,36.7872558 L123.223438,38.5537674 C123.509266,38.7174884 123.827679,38.7993488 124.154472,38.7993488 C124.48499,38.7993488 124.799679,38.7174884 125.084576,38.5537674 L134.032748,33.4086512 C134.611852,33.071907 134.963783,32.444 134.963783,31.776093 L134.963783,21.468186 C134.963783,20.7984186 134.611852,20.1705116 134.032748,19.8356279 L125.084576,14.6728372 C124.804334,14.5137674 124.483128,14.4458605 124.154472,14.4458605" id="Fill-4" fill="#FFFFFF"></path>
                    <path d="M126.54751,21.8114419 C123.999269,21.8114419 122.481683,22.8942326 122.481683,24.696093 C122.481683,26.6505116 123.988097,27.1872558 126.433924,27.4291163 C129.359234,27.7156279 129.588269,28.1453953 129.588269,28.7212093 C129.588269,29.7174884 128.791303,30.1435349 126.908752,30.1435349 C124.543924,30.1435349 124.023476,29.5528372 123.849372,28.3779535 C123.829821,28.2523721 123.732062,28.1500465 123.602648,28.1500465 L122.444441,28.1500465 C122.301062,28.1500465 122.178166,28.2728372 122.178166,28.4170233 C122.178166,29.9212093 122.996545,31.699814 126.908752,31.699814 C129.740959,31.699814 131.373062,30.5891163 131.373062,28.6430698 C131.373062,26.7156279 130.053786,26.1974884 127.307234,25.8346977 C124.532752,25.468186 124.268338,25.2877209 124.268338,24.6384186 C124.268338,24.1026047 124.491786,23.3863256 126.54751,23.3863256 C128.384441,23.3863256 129.062234,23.7816744 129.340614,25.0179535 C129.364821,25.1351628 129.467234,25.2272558 129.588269,25.2272558 L130.746476,25.2272558 C130.817234,25.2272558 130.887062,25.1835349 130.936407,25.1314419 C130.984821,25.0784186 131.019269,25.016093 131.011821,24.9426047 C130.832131,22.8123721 129.411372,21.8114419 126.54751,21.8114419" id="Fill-6" fill="#FFFFFF"></path>
                    <g id="nodejs" transform="translate(0.000000, 0.857581)">
                        <mask id="mask-2" fill="white">
                            <use xlink:href="#path-1"></use>
                        </mask>
                        <g id="Clip-9"></g>
                        <path d="M67.4058724,22.015814 C67.4561483,22.015814 67.5138724,22.027907 67.5585621,22.0530233 L70.8069414,23.9330233 C70.8953897,23.9823256 70.9587,24.0781395 70.9587,24.1795349 L70.9587,27.9376744 C70.9587,28.04 70.8963207,28.1348837 70.8069414,28.1851163 L67.5585621,30.064186 C67.4691828,30.1134884 67.3611828,30.1134884 67.2727345,30.064186 L64.0243552,28.1851163 C63.9359069,28.1330233 63.8725966,28.04 63.8725966,27.9376744 L63.8725966,24.1795349 C63.8725966,24.0781395 63.9368379,23.9832558 64.0243552,23.9330233 L67.2727345,22.0539535 C67.3174241,22.027907 67.3565276,22.015814 67.4058724,22.015814 L67.4058724,22.015814 Z M95.7512172,13.8548837 C95.5529069,13.8539535 95.3592517,13.9032558 95.1823552,14.0055814 L85.7007,19.4725581 C85.3469069,19.6762791 85.1318379,20.0502326 85.1318379,20.4604651 L85.1318379,31.3925581 C85.1318379,31.8037209 85.3636655,32.1767442 85.7202517,32.3804651 L95.124631,37.7330233 C95.4719069,37.9311628 95.8955276,37.9460465 96.2455966,37.7516279 L101.94539,34.5823256 C102.12601,34.4809302 102.247976,34.2939535 102.248907,34.0874419 C102.249838,33.8818605 102.142769,33.6976744 101.96401,33.5934884 L92.4274241,28.1274419 C92.2477345,28.0260465 92.1229759,27.8195349 92.1229759,27.615814 L92.1229759,24.1990698 C92.1229759,23.9944186 92.2495966,23.8074419 92.4274241,23.7051163 L95.3909069,21.9972093 C95.5668724,21.8939535 95.7838034,21.8939535 95.9607,21.9972093 L98.9241828,23.7051163 C99.1010793,23.8074419 99.2090793,23.9944186 99.2090793,24.1990698 L99.2090793,26.8948837 C99.2090793,27.0986047 99.3170793,27.2855814 99.4949069,27.3869767 C99.6718034,27.4902326 99.8878034,27.4902326 100.0647,27.3869767 L105.744941,24.0846512 C106.096872,23.88 106.314734,23.5051163 106.314734,23.0967442 L106.314734,20.4604651 C106.314734,20.052093 106.098734,19.6762791 105.744941,19.4725581 L96.3219414,14.0055814 C96.1441138,13.9032558 95.9495276,13.8548837 95.7512172,13.8539535 L95.7512172,13.8548837 Z M10.5624931,13.7218605 C10.3828034,13.7283721 10.2124241,13.7590698 10.0504241,13.8548837 L0.5697,19.3209302 C0.217768966,19.5246512 -9.31034483e-05,19.895814 -9.31034483e-05,20.307907 L0.0194586207,34.9813953 C0.0194586207,35.1851163 0.124665517,35.3739535 0.303424138,35.4744186 C0.48032069,35.5795349 0.699113793,35.5795349 0.874148276,35.4744186 L6.49759655,32.2474419 C6.85418276,32.0353488 7.08694138,31.6669767 7.08694138,31.2604651 L7.08694138,24.4074419 C7.08694138,23.9990698 7.30107931,23.6232558 7.65673448,23.4204651 L10.0504241,22.0353488 C10.2291828,21.932093 10.4209759,21.8818605 10.6202172,21.8818605 C10.8157345,21.8818605 11.0168379,21.9311628 11.1900103,22.0353488 L13.5837,23.4204651 C13.9384241,23.6232558 14.1544241,23.9990698 14.1544241,24.4074419 L14.1544241,31.2604651 C14.1544241,31.6669767 14.3890448,32.0372093 14.743769,32.2474419 L20.3662862,35.4744186 C20.5431828,35.5795349 20.7610448,35.5795349 20.9360793,35.4744186 C21.1101828,35.3739535 21.2219069,35.1851163 21.2219069,34.9813953 L21.2405276,20.307907 C21.2405276,19.895814 21.0263897,19.5246512 20.6698034,19.3209302 L11.1900103,13.8548837 C11.0298724,13.7590698 10.8594931,13.7283721 10.6770103,13.7218605 L10.5624931,13.7218605 Z M71.5480448,0.0725581395 C71.4493552,0.0734883721 71.3506655,0.0976744186 71.2631483,0.148837209 C71.0881138,0.251162791 70.9773207,0.44 70.9773207,0.641860465 L70.9773207,15.1637209 C70.9773207,15.3051163 70.9112172,15.4334884 70.7873897,15.5051163 C70.6644931,15.5767442 70.5127345,15.5767442 70.3889069,15.5051163 L68.0138379,14.1376744 C67.6600448,13.9348837 67.2280448,13.9348837 66.8742517,14.1376744 L57.3944586,19.6046512 C57.0397345,19.8093023 56.8237345,20.2018605 56.8237345,20.6102326 L56.8237345,31.5432558 C56.8237345,31.9544186 57.0397345,32.3274419 57.3944586,32.532093 L66.8742517,37.9990698 C67.2289759,38.2018605 67.6591138,38.2018605 68.0138379,37.9990698 L77.4945621,32.532093 C77.8483552,32.3274419 78.0643552,31.9544186 78.0643552,31.5432558 L78.0643552,4.28651163 C78.0643552,3.87255814 77.8381138,3.4827907 77.4759414,3.28093023 L71.8329414,0.130232558 C71.7435621,0.08 71.6458034,0.0725581395 71.5480448,0.0725581395 L71.5480448,0.0725581395 Z" id="Fill-8" fill="#FFFFFF" mask="url(#mask-2)"></path>
                    </g>
                    <path d="M39.0420931,14.6538605 C38.8437828,14.6538605 38.6491966,14.704093 38.4723,14.8064186 L28.9925069,20.2547907 C28.6377828,20.4575814 28.4217828,20.8510698 28.4217828,21.2603721 L28.4217828,32.1933953 C28.4217828,32.6017674 28.6377828,32.9757209 28.9925069,33.1803721 L38.4723,38.6482791 C38.8260931,38.8510698 39.2571621,38.8510698 39.6109552,38.6482791 L49.0916793,33.1803721 C49.4454724,32.9757209 49.6614724,32.6017674 49.6614724,32.1933953 L49.6614724,21.2603721 C49.6614724,20.8501395 49.4464034,20.4575814 49.0916793,20.2547907 L39.6109552,14.8064186 C39.4349897,14.704093 39.2394724,14.6538605 39.0420931,14.6538605" id="Fill-11" fill="#FFFFFF"></path>
                    <path d="M95.7328759,24.4113488 C95.6956345,24.4113488 95.6528069,24.4113488 95.6192897,24.4308837 L93.7944621,25.4932093 C93.7255655,25.5313488 93.6808759,25.603907 93.6808759,25.6829767 L93.6808759,27.7713488 C93.6808759,27.8494884 93.7255655,27.9220465 93.7944621,27.9592558 L95.6192897,29.003907 C95.6863241,29.043907 95.7598759,29.043907 95.8278414,29.003907 L97.6508069,27.9592558 C97.7197034,27.9220465 97.7653241,27.8494884 97.7653241,27.7713488 L97.7653241,25.6829767 C97.7653241,25.603907 97.7197034,25.5313488 97.6508069,25.4932093 L95.8278414,24.4308837 C95.7933931,24.4104186 95.7701172,24.4113488 95.7328759,24.4113488" id="Fill-13" fill="#FFFFFF"></path>
                </g>
            </g>
        </g>
    </g>
</svg>