<?xml version="1.0" encoding="UTF-8"?>
<svg width="56px" height="60px" viewBox="0 0 56 60" version="1.1" xmlns="http://www.w3.org/2000/svg" xmlns:xlink="http://www.w3.org/1999/xlink">
    <!-- Generator: Sketch 40 (33762) - http://www.bohemiancoding.com/sketch -->
    <title>phonegap</title>
    <desc>Created with Sketch.</desc>
    <defs></defs>
    <g id="Page-1" stroke="none" stroke-width="1" fill="none" fill-rule="evenodd">
        <g id="Desktop-HD" transform="translate(-799.000000, -2541.000000)" fill="#FFFFFF">
            <g id="tech" transform="translate(0.000000, 2131.000000)">
                <g id="phonegap" transform="translate(799.000000, 410.000000)">
                    <path d="M47.8701714,45.7857736 L31.8701714,47.4261509 C31.8701714,47.4261509 27.2130286,48.131434 27.1078857,42.5242642 C27.0301714,38.3921887 26.1078857,14.727283 26.1078857,14.727283 C26.1078857,14.727283 25.7867429,10.3869057 30.5798857,10.7446415 C35.4747429,11.1046415 47.1993143,11.9865283 47.1993143,11.9865283 C47.1993143,11.9865283 50.3376,12.7291698 50.4747429,16.271434 C50.6233143,20.1238868 51.9787429,41.5110566 51.9787429,41.5110566 C51.9787429,41.5110566 52.3307429,45.027283 47.8701714,45.7857736 M52.6838857,8.59256604 C52.5033143,3.94879245 48.3833143,2.97633962 48.3833143,2.97633962 C48.3833143,2.97633962 34.1033143,0.843509434 27.8450286,0.0691698113 C21.5878857,-0.707433962 21.9776,5.29822642 21.9776,5.29822642 C21.9776,5.29822642 23.3981714,49.0823774 23.5467429,54.5050189 C23.7124571,60.9669057 29.8004571,59.9265283 29.8004571,59.9265283 L51.3181714,56.2404906 C55.2301714,55.4661509 55.4233143,50.6253962 55.4233143,50.6253962 C55.4233143,50.6253962 52.8827429,13.6608679 52.6838857,8.59256604 C52.5033143,3.94879245 52.8827429,13.6608679 52.6838857,8.59256604" id="Fill-1"></path>
                    <path d="M8.70502857,39.4057358 L5.74845714,39.6140377 C5.74845714,39.6140377 2.76674286,40.0147925 2.69817143,36.7815849 C2.65017143,34.4008302 2.35074286,20.882717 2.35074286,20.882717 C2.35074286,20.882717 2.14502857,18.3808302 5.21131429,18.5846038 C5.98731429,18.633283 7.09131429,18.7057358 8.30845714,18.7747925 C8.26388571,16.5355472 8.2296,14.5747925 8.20217143,13.0838491 C6.51302857,12.9581887 4.93474286,12.8223396 3.80674286,12.7046038 C-0.244685714,12.2608302 0.00331428571,15.6310189 0.00331428571,15.6310189 C0.00331428571,15.6310189 0.491314286,40.4234717 0.582742857,43.4630943 C0.692457143,47.0868679 4.63188571,46.5004528 4.63188571,46.5004528 L8.83531429,46.053283 C8.79988571,44.2555472 8.75188571,41.9630943 8.70502857,39.4057358" id="Fill-3"></path>
                    <path d="M20.4595429,16.871434 C20.4435429,16.5544528 20.3909714,16.2680377 20.3109714,16.0087925 C19.0184,15.9046415 15.7692571,15.0657736 14.7269714,16.1570943 C14.0675429,16.8442642 14.3406857,18.2899245 14.3555429,19.1095472 C15.7498286,19.1887925 16.7121143,19.2442642 16.7121143,19.2442642 C16.7121143,19.2442642 18.7224,19.6687925 18.8081143,21.7076604 C18.9006857,23.9321887 18.8869714,36.3884151 18.8869714,36.3884151 C18.8869714,36.3884151 19.1144,38.4182264 16.2629714,38.8495472 L14.7692571,38.9604906 C14.7761143,39.402 14.7841143,39.7574717 14.7875429,40.0212453 C14.8504,43.5736981 18.6641143,42.4359623 21.0572571,42.2061509 C21.2618286,38.4386038 20.8961143,34.556717 20.8138286,30.7880377 C20.7098286,26.1499245 20.6721143,21.5038868 20.4595429,16.871434 C20.4435429,16.5544528 20.5875429,19.707283 20.4595429,16.871434" id="Fill-5"></path>
                    <path d="M21.6961143,43.662 L17.3864,44.0740755 C17.3864,44.0740755 13.3669714,44.6446415 13.2812571,40.0574717 C13.2195429,36.671434 12.8149714,17.4827547 12.8149714,17.4827547 C12.8149714,17.4827547 12.5349714,13.9359623 16.6595429,14.2189811 C17.7201143,14.291434 19.1772571,14.4103019 20.7646857,14.5348302 C20.6446857,10.8544528 20.5498286,7.94954717 20.5018286,6.45520755 C18.3304,6.24350943 16.2824,6.0329434 14.7692571,5.85973585 C9.31782857,5.24841509 9.66068571,10.0223774 9.66068571,10.0223774 C9.66068571,10.0223774 10.3086857,45.2208679 10.4366857,49.5216226 C10.5829714,54.6623774 15.8881143,53.8382264 15.8881143,53.8382264 L21.9886857,53.0638868 C21.9281143,51.0612453 21.8252571,47.7001132 21.6961143,43.662" id="Fill-7"></path>
                    <path d="M30.4673143,12.2403396 C29.7038857,12.1792075 28.7770286,12.2290189 28.2101714,12.8199623 C27.6136,13.4392075 27.6033143,14.3199623 27.6364571,15.1158113 C29.7998857,15.3014717 31.3690286,15.4384528 31.3690286,15.4384528 C31.3690286,15.4384528 34.0696,16.040717 34.1918857,18.9410943 C34.3187429,22.0950566 35.0913143,39.2301509 35.0913143,39.2301509 C35.0913143,39.2301509 35.3941714,42.1124151 31.5541714,42.7339245 L28.6467429,43.011283 C29.0318857,47.511283 34.9107429,45.6105283 37.9164571,45.3026038 C37.6078857,38.5327925 36.6490286,17.5995849 36.4341714,12.6841132 C34.1553143,12.5075094 31.9770286,12.3467547 30.4673143,12.2403396 C30.3176,12.2278868 31.9770286,12.3467547 30.4673143,12.2403396" id="Fill-9"></path>
                </g>
            </g>
        </g>
    </g>
</svg>