<?xml version="1.0" encoding="UTF-8"?>
<svg width="146px" height="39px" viewBox="0 0 146 39" version="1.1" xmlns="http://www.w3.org/2000/svg" xmlns:xlink="http://www.w3.org/1999/xlink">
    <!-- Generator: Sketch 40 (33762) - http://www.bohemiancoding.com/sketch -->
    <title>python</title>
    <desc>Created with Sketch.</desc>
    <defs>
        <polygon id="path-1" points="4.56615915e-20 0.237319431 4.56615915e-20 28.1567 27.2014846 28.1567 27.2014846 0.237319431 0 0.237319431"></polygon>
    </defs>
    <g id="Page-1" stroke="none" stroke-width="1" fill="none" fill-rule="evenodd">
        <g id="Desktop-HD" transform="translate(-623.000000, -2341.000000)">
            <g id="tech" transform="translate(0.000000, 2131.000000)">
                <g id="python" transform="translate(623.000000, 210.000000)">
                    <path d="M62.5621231,19.9151 C62.5621231,22.4011 61.9882308,24.4651 60.8359538,26.1051 C59.5477846,27.9621 57.7665846,28.9181 55.4889846,28.9711 C53.7740462,29.0271 52.0040769,28.4801 50.1835692,27.3341 L50.1835692,37.9481 L47.2366154,36.8801 L47.2366154,13.3201 C47.7217846,12.7181 48.3428462,12.1991 49.0953077,11.7621 C50.8484308,10.7221 52.9800308,10.1881 55.4844923,10.1631 L55.5271692,10.2051 C57.8171231,10.1761 59.5848462,11.1331 60.8236,13.0711 C61.9814923,14.8501 62.5621231,17.1291 62.5621231,19.9151 M59.1749231,19.7131 C59.1749231,14.8201 57.8036462,12.3081 55.0588462,12.1711 C53.9660923,12.1181 52.8991692,12.2951 51.8603231,12.7031 C51.0337385,13.0061 50.4755692,13.3041 50.1835692,13.6051 L50.1835692,25.2831 C51.9400615,26.4041 53.4977692,26.9251 54.8600615,26.8431 C57.7351385,26.6481 59.1749231,24.2731 59.1749231,19.7131" id="Fill-1" fill="#FFFFFF"></path>
                    <path d="M80.5566231,26.8819 C80.5566231,30.2159 80.2309308,32.5249 79.5728077,33.8089 C78.9135615,35.0909 77.6557154,36.1169 75.8015154,36.8799 C74.2965923,37.4829 72.6692538,37.8109 70.9217462,37.8659 L70.4354538,35.9799 C72.2110385,35.7339 73.4621462,35.4879 74.1865308,35.2429 C75.6139615,34.7519 76.5932846,33.9989 77.1301154,32.9899 C77.5625,32.1669 77.7747615,30.5999 77.7747615,28.2779 L77.7747615,27.4989 C75.7610846,28.4289 73.6519462,28.8909 71.4451,28.8909 C69.9952077,28.8909 68.7160231,28.4289 67.6142846,27.4989 C66.3766538,26.4869 65.7567154,25.2029 65.7567154,23.6469 L65.7567154,11.1889 L68.7025462,10.1629 L68.7025462,22.7029 C68.7025462,24.0409 69.1259462,25.0729 69.9772385,25.7979 C70.8296538,26.5219 71.9313923,26.8689 73.2802077,26.8419 C74.6312692,26.8129 76.0766692,26.2809 77.6130385,25.2439 L77.6130385,10.6149 L80.5566231,10.6149 L80.5566231,26.8819 Z" id="Fill-3" fill="#FFFFFF"></path>
                    <path d="M92.0550215,28.8077 C91.7046215,28.8377 91.3811754,28.8497 91.08356,28.8497 C89.4180369,28.8497 88.1186369,28.4477 87.1932215,27.6387 C86.2689292,26.8297 85.8050985,25.7127 85.8050985,24.2877 L85.8050985,12.4967 L83.7880523,12.4967 L83.7880523,10.6157 L85.8050985,10.6157 L85.8050985,5.6147 L88.7453138,4.5487 L88.7453138,10.6157 L92.0550215,10.6157 L92.0550215,12.4967 L88.7453138,12.4967 L88.7453138,24.2047 C88.7453138,25.3287 89.0418062,26.1247 89.6359138,26.5907 C90.1446677,26.9747 90.95216,27.1937 92.0550215,27.2487 L92.0550215,28.8077 Z" id="Fill-5" fill="#FFFFFF"></path>
                    <path d="M109.883868,28.5625 L106.940283,28.5625 L106.940283,17.0075 C106.940283,15.8325 106.668498,14.8205 106.130545,13.9745 C105.50836,13.0185 104.64696,12.5405 103.53736,12.5405 C102.187422,12.5405 100.50056,13.2635 98.4722831,14.7125 L98.4722831,28.5625 L95.5286985,28.5625 L95.5286985,0.9445 L98.4722831,0.0005 L98.4722831,12.5805 C100.35456,11.1875 102.409791,10.4895 104.643591,10.4895 C106.203545,10.4895 107.46476,11.0245 108.431729,12.0885 C109.400945,13.1525 109.883868,14.4795 109.883868,16.0635 L109.883868,28.5625 Z" id="Fill-7" fill="#FFFFFF"></path>
                    <path d="M128.760095,19.2608 C128.760095,21.9358 128.087372,24.1628 126.743049,25.9428 C125.267326,27.9338 123.224449,28.9318 120.617788,28.9318 C118.033588,28.9318 116.018788,27.9338 114.566649,25.9428 C113.247034,24.1628 112.591157,21.9358 112.591157,19.2608 C112.591157,16.7458 113.304311,14.6298 114.727249,12.9068 C116.232172,11.0788 118.208788,10.1628 120.657095,10.1628 C123.099788,10.1628 125.091003,11.0788 126.626249,12.9068 C128.048065,14.6298 128.760095,16.7458 128.760095,19.2608 M125.537988,19.2408 C125.537988,17.3628 125.185342,15.8088 124.484542,14.5808 C123.656834,13.0838 122.363049,12.2948 120.617788,12.2128 C117.388942,12.4028 115.777326,14.7548 115.777326,19.2608 C115.777326,21.3278 116.11088,23.0548 116.788095,24.4398 C117.651742,26.2038 118.948895,27.0748 120.673942,27.0458 C123.916265,27.0198 125.537988,24.4198 125.537988,19.2408" id="Fill-9" fill="#FFFFFF"></path>
                    <path d="M145.643535,28.5625 L142.698828,28.5625 L142.698828,16.3525 C142.698828,15.0135 142.302382,13.9685 141.509489,13.2145 C140.71772,12.4645 139.662028,12.1025 138.342412,12.1305 C136.945305,12.1565 135.613335,12.6235 134.350997,13.5225 L134.350997,28.5625 L131.407412,28.5625 L131.407412,13.1525 C133.102135,11.8985 134.662089,11.0795 136.083905,10.6965 C137.428228,10.3395 138.614197,10.1635 139.633951,10.1635 C140.333628,10.1635 140.991751,10.2315 141.609443,10.3695 C142.768458,10.6415 143.708474,11.1465 144.433982,11.8855 C145.24372,12.7035 145.643535,13.6855 145.643535,14.8355 L145.643535,28.5625 Z" id="Fill-11" fill="#FFFFFF"></path>
                    <g id="Group-15" transform="translate(0.000000, 0.816800)">
                        <mask id="mask-2" fill="white">
                            <use xlink:href="#path-1"></use>
                        </mask>
                        <g id="Clip-14"></g>
                        <path d="M13.3595615,2.9987 C14.2737462,2.9987 15.0217154,3.7707 15.0217154,4.7217 C15.0217154,5.6667 14.2737462,6.4327 13.3595615,6.4327 C12.4408846,6.4327 11.6974077,5.6677 11.6974077,4.7217 C11.6974077,3.7707 12.4408846,2.9987 13.3595615,2.9987 M18.1528538,0.2377 C16.6367,0.2437 15.1913,0.3757 13.9177308,0.6037 C10.1666538,1.2787 9.48494615,2.6877 9.48494615,5.2867 L9.48494615,8.7227 L18.3493923,8.7227 L18.3493923,9.8657 L9.48494615,9.8657 L6.16063846,9.8657 C3.58317692,9.8657 1.32803846,11.4397 0.623869231,14.4327 C-0.189238462,17.8647 -0.227423077,20.0067 0.623869231,23.5897 C1.25503846,26.2567 2.75771538,28.1567 5.33180769,28.1567 L8.37983846,28.1567 L8.37983846,24.0407 C8.37983846,21.0677 10.9123769,18.4437 13.9177308,18.4437 L22.7698231,18.4437 C25.2327308,18.4437 27.2014846,16.3827 27.2014846,13.8677 L27.2014846,5.2867 C27.2014846,2.8477 25.1743308,1.0127 22.7698231,0.6037 C21.2469308,0.3477 19.6667615,0.2297 18.1528538,0.2377" id="Fill-13" fill="#FFFFFF" mask="url(#mask-2)"></path>
                    </g>
                    <path d="M23.3279923,32.4073 C24.2466692,32.4073 24.9901462,33.1713 24.9901462,34.1193 C24.9901462,35.0683 24.2466692,35.8413 23.3279923,35.8413 C22.4138077,35.8413 21.6635923,35.0683 21.6635923,34.1193 C21.6635923,33.1713 22.4138077,32.4073 23.3279923,32.4073 L23.3279923,32.4073 Z M28.3077154,10.6823 L28.3077154,14.6833 C28.3077154,17.7843 25.7201462,20.3953 22.7698231,20.3953 L13.9177308,20.3953 C11.4930077,20.3953 9.48494615,22.5043 9.48494615,24.9733 L9.48494615,33.5503 C9.48494615,35.9923 11.5749923,37.4283 13.9177308,38.1293 C16.7231769,38.9683 19.4129462,39.1203 22.7698231,38.1293 C25.0013769,37.4723 27.2014846,36.1513 27.2014846,33.5503 L27.2014846,30.1173 L18.3493923,30.1173 L18.3493923,28.9733 L27.2014846,28.9733 L31.6342692,28.9733 C34.2094846,28.9733 35.1674692,27.1463 36.0636846,24.4063 C36.9879769,21.5843 36.9509154,18.8693 36.0636846,15.2503 C35.4280231,12.6433 34.2106077,10.6823 31.6342692,10.6823 L28.3077154,10.6823 Z" id="Fill-16" fill="#FFFFFF"></path>
                </g>
            </g>
        </g>
    </g>
</svg>