<?xml version="1.0" encoding="UTF-8"?>
<svg width="60px" height="53px" viewBox="0 0 60 53" version="1.1" xmlns="http://www.w3.org/2000/svg" xmlns:xlink="http://www.w3.org/1999/xlink">
    <!-- Generator: Sketch 40 (33762) - http://www.bohemiancoding.com/sketch -->
    <title>react</title>
    <desc>Created with Sketch.</desc>
    <defs></defs>
    <g id="Page-1" stroke="none" stroke-width="1" fill="none" fill-rule="evenodd">
        <g id="Desktop-HD" transform="translate(-549.000000, -2545.000000)" fill="#FFFFFF">
            <g id="tech" transform="translate(0.000000, 2131.000000)">
                <g id="react" transform="translate(549.000000, 413.000000)">
                    <g id="Group-3" transform="translate(0.000000, 0.064000)">
                        <path d="M47.4490169,34.0373 C47.1235932,34.1433 46.7900339,34.2463 46.4503729,34.3443 C45.6957966,32.0003 44.6798644,29.5073 43.4361356,26.9323 C44.6229153,24.4173 45.6002034,21.9563 46.3324068,19.6273 C46.9405424,19.8003 47.5313898,19.9813 48.1008814,20.1753 C53.608678,22.0393 56.9666441,24.7953 56.9666441,26.9193 C56.9666441,29.1823 53.3391864,32.1173 47.4490169,34.0373 M45.2910508,46.5223 C44.9361356,48.4023 44.2242712,49.6533 43.3415593,50.1553 C41.467322,51.2233 37.4564746,49.8363 33.1303729,46.1763 C32.6351186,45.7563 32.1357966,45.3083 31.6354576,44.8343 C33.3113898,43.0303 34.987322,40.9333 36.6225763,38.6053 C39.5005424,38.3543 42.2178305,37.9453 44.6818983,37.3843 C44.8029153,37.8653 44.9117288,38.3383 45.0063051,38.8003 C45.6002034,41.7583 45.6856271,44.4323 45.2910508,46.5223 M29.8537627,43.0433 C28.648678,41.7663 27.4466441,40.3523 26.2730847,38.8313 C27.4120678,38.8743 28.5734237,38.8973 29.7541017,38.8973 C30.967322,38.8973 32.1663051,38.8703 33.3469831,38.8183 C32.187661,40.3673 31.0171525,41.7833 29.8537627,43.0433 M26.9493559,45.8703 C24.6408814,47.8543 22.327322,49.2623 20.288339,49.9713 C18.4547797,50.6073 16.9964746,50.6253 16.1137627,50.1253 C14.2374915,49.0613 13.4564746,44.9513 14.5212203,39.4383 C14.6422373,38.8073 14.788678,38.1593 14.9554576,37.4963 C17.3930847,38.0253 20.0910508,38.4063 22.9751186,38.6373 C24.6215593,40.9163 26.3463051,43.0103 28.0842712,44.8433 C27.7049492,45.2043 27.3256271,45.5473 26.9493559,45.8703 M13.1727458,34.4753 C12.6663051,34.3333 12.1751186,34.1823 11.7032542,34.0233 C8.80189831,33.0483 6.4059661,31.7813 4.76257627,30.3963 C3.28698305,29.1543 2.54257627,27.9203 2.54257627,26.9193 C2.54257627,24.7883 5.77240678,22.0703 11.1602034,20.2233 C11.8141017,19.9983 12.4985085,19.7873 13.2093559,19.5903 C13.9537627,21.9713 14.9310508,24.4623 16.1096949,26.9793 C14.9157966,29.5353 13.9242712,32.0653 13.1727458,34.4753 M16.0751186,3.8393 C18.0663051,2.7053 22.468678,4.3213 27.108,8.3733 C27.4049492,8.6323 27.7029153,8.9023 28.0008814,9.1833 C26.2720678,11.0083 24.5635932,13.0863 22.9324068,15.3523 C20.1327458,15.6073 17.4530847,16.0163 14.9900339,16.5663 C14.8354576,15.9543 14.6981695,15.3513 14.5812203,14.7633 C13.4635932,9.1423 14.2059661,4.9033 16.0751186,3.8393 M29.7835932,10.9713 C30.9551186,12.2203 32.1296949,13.6133 33.2849492,15.1273 C32.1215593,15.0723 30.9429153,15.0463 29.7541017,15.0463 C28.5785085,15.0463 27.408,15.0723 26.2517288,15.1263 C27.4069831,13.6263 28.5917288,12.2323 29.7835932,10.9713 M41.9625763,24.0403 C41.4235932,23.0333 40.8530847,22.0173 40.2510508,20.9963 C39.6612203,19.9963 39.0581695,19.0183 38.4418983,18.0693 C40.3405424,18.3053 42.1598644,18.6183 43.868339,19.0023 C43.3557966,20.6193 42.7161356,22.3083 41.9625763,24.0403 M40.2612203,32.9293 C40.8663051,31.8953 41.4429153,30.8593 41.9869831,29.8283 C42.7832542,31.6113 43.4524068,33.3363 43.9852881,34.9753 C42.2605424,35.3633 40.3974915,35.6753 38.4347797,35.9063 C39.0520678,34.9443 39.6612203,33.9513 40.2612203,32.9293 M17.568,24.0393 C16.827661,22.3123 16.1951186,20.6153 15.6774915,18.9743 C17.3747797,18.6013 19.1859661,18.2973 21.0724068,18.0643 C20.4469831,19.0233 19.8378305,20.0083 19.2469831,21.0133 C18.6591864,22.0163 18.0988475,23.0273 17.568,24.0393 M17.5710508,29.9183 C18.1039322,30.9303 18.6663051,31.9413 19.2581695,32.9463 L19.2591864,32.9463 C19.8612203,33.9713 20.4856271,34.9733 21.1263051,35.9513 C19.1768136,35.7383 17.3402034,35.4473 15.6418983,35.0843 C16.167661,33.4163 16.8154576,31.6823 17.5710508,29.9183 M18.9195254,26.9783 C19.688339,25.4053 20.5344407,23.8243 21.4507119,22.2613 L21.4507119,22.2623 C22.3690169,20.6943 23.3361356,19.1833 24.3357966,17.7453 C26.1052881,17.6133 27.9205424,17.5453 29.7541017,17.5453 C31.5968136,17.5453 33.4141017,17.6143 35.1835932,17.7473 C36.168,19.1753 37.1290169,20.6823 38.0503729,22.2483 C38.9839322,23.8333 39.8412203,25.4033 40.6171525,26.9433 C39.8432542,28.5103 38.988,30.0963 38.0595254,31.6803 C37.1290169,33.2673 36.1730847,34.7803 35.2049492,36.2093 C33.4385085,36.3333 31.6130847,36.3983 29.7541017,36.3983 C27.9032542,36.3983 26.1012203,36.3423 24.3663051,36.2303 C23.3585085,34.7813 22.3822373,33.2643 21.4578305,31.6933 L21.4578305,31.6933 C20.5364746,30.1283 19.688339,28.5493 18.9195254,26.9783 M32.9330847,7.9473 C37.3263051,4.1873 41.4327458,2.7043 43.3039322,3.7643 C45.2971525,4.8943 46.0710508,9.4533 44.8191864,15.4303 C44.7388475,15.8103 44.6493559,16.1973 44.5507119,16.5933 C42.0825763,16.0313 39.4018983,15.6143 36.5951186,15.3563 C34.9598644,13.0653 33.2656271,10.9843 31.5642712,9.1823 C32.0218983,8.7503 32.4774915,8.3373 32.9330847,7.9473 M48.928678,17.8113 C48.3124068,17.6023 47.6717288,17.4043 47.0127458,17.2183 C47.1215593,16.7833 47.2202034,16.3543 47.308678,15.9333 C48.7588475,9.0113 47.8110508,3.4353 44.5730847,1.5983 C41.4693559,-0.1617 36.3907119,1.6733 31.2642712,6.0613 C30.7710508,6.4853 30.2768136,6.9303 29.7815593,7.3993 C29.4530847,7.0883 29.1235932,6.7903 28.7961356,6.5033 C23.4215593,1.8113 18.0357966,-0.1647 14.8008814,1.6753 C11.7002034,3.4403 10.7808814,8.6833 12.0866441,15.2433 C12.2127458,15.8773 12.3602034,16.5233 12.5259661,17.1803 C11.7642712,17.3933 11.028,17.6213 10.3242712,17.8623 C4.02427119,20.0223 0.00020338983,23.4073 0.00020338983,26.9193 C0.00020338983,30.5453 4.32020339,34.1823 10.8815593,36.3893 C11.3991864,36.5623 11.9371525,36.7273 12.4903729,36.8843 C12.3103729,37.5943 12.1547797,38.2923 12.0235932,38.9713 C10.7788475,45.4183 11.7500339,50.5373 14.8435932,52.2913 C18.0398644,54.1023 23.4012203,52.2403 28.6222373,47.7533 C29.0351186,47.3973 29.4490169,47.0213 29.8639322,46.6273 C30.4029153,47.1363 30.9388475,47.6183 31.4727458,48.0703 C36.5310508,52.3483 41.5252881,54.0773 44.6168136,52.3193 C47.8069831,50.5033 48.8452881,45.0033 47.4988475,38.3133 C47.3961356,37.8043 47.2761356,37.2813 47.1418983,36.7503 C47.5181695,36.6413 47.888339,36.5273 48.247322,36.4103 C55.0700339,34.1873 59.5090169,30.5943 59.5090169,26.9193 C59.5090169,23.3943 55.3557966,19.9873 48.928678,17.8113" id="Fill-1"></path>
                    </g>
                    <path d="M29.7536949,32.2087 C32.6886102,32.2087 35.0692881,29.8687 35.0692881,26.9827 C35.0692881,24.0987 32.6886102,21.7577 29.7536949,21.7577 C26.8208136,21.7577 24.4401356,24.0987 24.4401356,26.9827 C24.4401356,29.8687 26.8208136,32.2087 29.7536949,32.2087" id="Fill-4"></path>
                </g>
            </g>
        </g>
    </g>
</svg>