<?xml version="1.0" encoding="UTF-8"?>
<svg width="24px" height="24px" viewBox="0 0 24 24" version="1.1" xmlns="http://www.w3.org/2000/svg" xmlns:xlink="http://www.w3.org/1999/xlink">
    <!-- Generator: Sketch 40 (33762) - http://www.bohemiancoding.com/sketch -->
    <title>linkedin</title>
    <desc>Created with Sketch.</desc>
    <defs></defs>
    <g id="Page-1" stroke="none" stroke-width="1" fill="none" fill-rule="evenodd">
        <g id="Desktop-HD" transform="translate(-429.000000, -5655.000000)">
            <g id="about-us" transform="translate(239.000000, 5367.000000)">
                <g id="ic_social" transform="translate(129.000000, 288.000000)">
                    <g id="linkedin" transform="translate(61.000000, 0.000000)">
                        <path d="M0.192,21.4464925 C0.192,22.5504586 1.08244297,23.4454 2.19090751,23.4454 L21.6380925,23.4454 C22.7420586,23.4454 23.637,22.554957 23.637,21.4464925 L23.637,1.99930751 C23.637,0.895341378 22.746557,0.0004 21.6380925,0.0004 L2.19090751,0.0004 C1.08694138,0.0004 0.192,0.890842967 0.192,1.99930751 L0.192,21.4464925 Z" id="Fill-3" fill="#5CA0DF"></path>
                        <path d="M8.8481,9.3536 L6.5451,9.3536 C6.4421,9.3536 6.3601,9.4356 6.3601,9.5376 L6.3601,16.9386 C6.3601,17.0406 6.4421,17.1236 6.5451,17.1236 L8.8481,17.1236 C8.9511,17.1236 9.0331,17.0406 9.0331,16.9386 L9.0331,9.5376 C9.0331,9.4356 8.9511,9.3536 8.8481,9.3536" id="Fill-6" fill="#FFFFFF"></path>
                        <path d="M7.6973,5.6739 C6.8593,5.6739 6.1773,6.3559 6.1773,7.1919 C6.1773,8.0299 6.8593,8.7109 7.6973,8.7109 C8.5343,8.7109 9.2163,8.0299 9.2163,7.1919 C9.2163,6.3559 8.5343,5.6739 7.6973,5.6739" id="Fill-8" fill="#FFFFFF"></path>
                        <path d="M14.7075,9.169 C13.7825,9.169 13.0985,9.566 12.6835,10.019 L12.6835,9.538 C12.6835,9.436 12.6005,9.354 12.4985,9.354 L10.2925,9.354 C10.1905,9.354 10.1075,9.436 10.1075,9.538 L10.1075,16.939 C10.1075,17.041 10.1905,17.123 10.2925,17.123 L12.5905,17.123 C12.6935,17.123 12.7755,17.041 12.7755,16.939 L12.7755,13.277 C12.7755,12.043 13.1115,11.562 13.9715,11.562 C14.9075,11.562 14.9825,12.333 14.9825,13.34 L14.9825,16.939 C14.9825,17.041 15.0645,17.123 15.1675,17.123 L17.4665,17.123 C17.5685,17.123 17.6515,17.041 17.6515,16.939 L17.6515,12.879 C17.6515,11.045 17.3015,9.169 14.7075,9.169" id="Fill-10" fill="#FFFFFF"></path>
                    </g>
                </g>
            </g>
        </g>
    </g>
</svg>