<?xml version="1.0" encoding="UTF-8"?>
<svg width="24px" height="24px" viewBox="0 0 24 24" version="1.1" xmlns="http://www.w3.org/2000/svg" xmlns:xlink="http://www.w3.org/1999/xlink">
    <!-- Generator: Sketch 40 (33762) - http://www.bohemiancoding.com/sketch -->
    <title>twitter</title>
    <desc>Created with Sketch.</desc>
    <defs></defs>
    <g id="Page-1" stroke="none" stroke-width="1" fill="none" fill-rule="evenodd">
        <g id="Desktop-HD" transform="translate(-399.000000, -5655.000000)">
            <g id="about-us" transform="translate(239.000000, 5367.000000)">
                <g id="ic_social" transform="translate(129.000000, 288.000000)">
                    <g id="twitter" transform="translate(31.000000, 0.000000)">
                        <path d="M0.001,21.4464925 C0.001,22.5504586 0.891442967,23.4454 1.99990751,23.4454 L21.4470925,23.4454 C22.5510586,23.4454 23.446,22.554957 23.446,21.4464925 L23.446,1.99930751 C23.446,0.895341378 22.555557,0.0004 21.4470925,0.0004 L1.99990751,0.0004 C0.895941378,0.0004 0.001,0.890842967 0.001,1.99930751 L0.001,21.4464925 Z" id="Fill-1" fill="#5CA0DF"></path>
                        <path d="M14.9311,14.9629 L11.7321,14.9629 C11.2871,14.9629 10.9091,14.8079 10.5981,14.4949 C10.2861,14.1819 10.1321,13.8049 10.1321,13.3579 L10.1321,12.2189 L14.6901,12.2189 C15.1011,12.2189 15.4551,12.0709 15.7491,11.7769 C16.0431,11.4829 16.1911,11.1289 16.1911,10.7169 C16.1911,10.3039 16.0431,9.9509 15.7481,9.6559 C15.4531,9.3609 15.0981,9.2139 14.6851,9.2139 L10.1321,9.2139 L10.1321,6.8609 C10.1321,6.4159 9.9731,6.0349 9.6581,5.7179 C9.3441,5.3999 8.9641,5.2399 8.5241,5.2399 C8.0701,5.2399 7.6841,5.3979 7.3701,5.7089 C7.0551,6.0209 6.8981,6.4039 6.8981,6.8629 L6.8981,13.3579 C6.8981,14.6939 7.3701,15.8359 8.3151,16.7829 C9.2611,17.7329 10.4011,18.2049 11.7341,18.2049 L14.9321,18.2049 C15.3761,18.2049 15.7571,18.0449 16.0741,17.7279 C16.3911,17.4109 16.5501,17.0289 16.5501,16.5839 C16.5501,16.1399 16.3911,15.7579 16.0741,15.4409 C15.7571,15.1229 15.3751,14.9629 14.9311,14.9629" id="Fill-12" fill="#FFFFFF"></path>
                    </g>
                </g>
            </g>
        </g>
    </g>
</svg>