<?xml version="1.0" encoding="UTF-8"?>
<svg width="66px" height="61px" viewBox="0 0 66 61" version="1.1" xmlns="http://www.w3.org/2000/svg" xmlns:xlink="http://www.w3.org/1999/xlink">
    <!-- Generator: Sketch 40 (33762) - http://www.bohemiancoding.com/sketch -->
    <title>ic_idea</title>
    <desc>Created with Sketch.</desc>
    <defs></defs>
    <g id="Page-1" stroke="none" stroke-width="1" fill="none" fill-rule="evenodd">
        <g id="Desktop-HD" transform="translate(-137.000000, -1902.000000)" fill="#5CA0DF">
            <g id="work-process" transform="translate(0.000000, 1664.000000)">
                <g id="idea" transform="translate(97.000000, 208.000000)">
                    <g id="ic_idea" transform="translate(40.000000, 30.000000)">
                        <path d="M32.201,14.106 C35.563,14.106 38.297,16.84 38.297,20.201 C38.297,23.562 35.563,26.297 32.201,26.297 C28.841,26.297 26.105,23.562 26.105,20.201 C26.105,16.84 28.841,14.106 32.201,14.106 L32.201,14.106 Z M32.201,28.405 C36.724,28.405 40.403,24.725 40.403,20.202 C40.403,15.68 36.724,12 32.201,12 C27.679,12 24,15.68 24,20.202 C24,24.725 27.679,28.405 32.201,28.405 L32.201,28.405 Z" id="Fill-43"></path>
                        <path d="M32.6566742,31 C27.5426742,31 22.9976742,34.065 21.0776742,38.808 C20.8586742,39.346 21.1186742,39.96 21.6576742,40.179 C22.1976742,40.397 22.8116742,40.138 23.0296742,39.598 C24.6266742,35.654 28.4056742,33.105 32.6566742,33.105 C36.9096742,33.105 40.6876742,35.654 42.2846742,39.598 C42.4506742,40.008 42.8456742,40.256 43.2616742,40.256 C43.3916742,40.256 43.5266742,40.23 43.6556742,40.179 C44.1956742,39.96 44.4556742,39.346 44.2376742,38.808 C42.3166742,34.065 37.7706742,31 32.6566742,31" id="Fill-45"></path>
                        <path d="M29.052,49 C28.47,49 28,49.471 28,50.053 C28,50.635 28.47,51.105 29.052,51.105 L35.322,51.105 C35.903,51.105 36.375,50.635 36.375,50.053 C36.375,49.471 35.903,49 35.322,49 L29.052,49 Z" id="Fill-47"></path>
                        <path d="M2.107,58.807 L63.197,58.807 L63.197,55.259 L2.107,55.259 L2.107,58.807 Z M6.34,45.278 L58.963,45.278 L62.604,53.152 L2.701,53.152 L6.34,45.278 Z M6.721,12.293 C6.721,10.752 7.975,9.498 9.515,9.498 L55.789,9.498 C57.33,9.498 58.584,10.752 58.584,12.293 L58.584,43.174 L6.721,43.174 L6.721,12.293 Z M28.039,7.391 L37.264,7.391 L37.264,2.106 L28.039,2.106 L28.039,7.391 Z M65.301,54.169 C65.301,54.155 65.301,54.142 65.3,54.129 C65.298,54.099 65.294,54.068 65.289,54.038 C65.288,54.029 65.287,54.018 65.285,54.01 C65.27,53.928 65.243,53.848 65.21,53.774 C65.209,53.77 65.208,53.767 65.207,53.764 L60.69,43.995 L60.69,12.293 C60.69,9.59 58.491,7.392 55.789,7.392 L39.371,7.392 L39.371,1.052 C39.371,0.471 38.899,0 38.319,0 L26.987,0 C26.404,0 25.934,0.471 25.934,1.052 L25.934,7.392 L9.515,7.392 C6.813,7.392 4.613,9.59 4.613,12.293 L4.613,43.995 L0.098,53.764 C0.096,53.767 0.096,53.77 0.094,53.774 C0.06,53.849 0.035,53.928 0.02,54.01 C0.017,54.018 0.016,54.029 0.015,54.039 C0.01,54.068 0.006,54.099 0.004,54.129 C0.003,54.142 0.002,54.155 0.002,54.17 C0.002,54.184 0,54.194 0,54.206 L0,59.857 C0,60.441 0.471,60.912 1.053,60.912 L64.25,60.912 C64.832,60.912 65.304,60.441 65.304,59.857 L65.304,54.206 C65.304,54.194 65.302,54.183 65.301,54.169 L65.301,54.169 Z" id="Fill-49"></path>
                        <path d="M31,4.99790921 C31,5.54862095 31.448,5.99701953 31.9991111,5.99701953 C32.5502222,5.99701953 33,5.54862095 33,4.99790921 C33,4.44452843 32.5502222,3.99701953 31.9991111,3.99701953 C31.448,3.99701953 31,4.44452843 31,4.99790921 Z" id="Fill-51"></path>
                    </g>
                </g>
            </g>
        </g>
    </g>
</svg>