<?xml version="1.0" encoding="UTF-8"?>
<svg width="24px" height="24px" viewBox="0 0 24 24" version="1.1" xmlns="http://www.w3.org/2000/svg" xmlns:xlink="http://www.w3.org/1999/xlink">
    <!-- Generator: Sketch 40 (33762) - http://www.bohemiancoding.com/sketch -->
    <title>facebook</title>
    <desc>Created with Sketch.</desc>
    <defs></defs>
    <g id="Page-1" stroke="none" stroke-width="1" fill="none" fill-rule="evenodd">
        <g id="Desktop-HD" transform="translate(-368.000000, -5655.000000)">
            <g id="about-us" transform="translate(239.000000, 5367.000000)">
                <g id="ic_social" transform="translate(129.000000, 288.000000)">
                    <g id="facebook">
                        <path d="M0,21.4464925 C0,22.5504586 0.890442967,23.4454 1.99890751,23.4454 L21.4460925,23.4454 C22.5500586,23.4454 23.445,22.554957 23.445,21.4464925 L23.445,1.99930751 C23.445,0.895341378 22.554557,0.0004 21.4460925,0.0004 L1.99890751,0.0004 C0.894941378,0.0004 0,0.890842967 0,1.99930751 L0,21.4464925 Z" id="Fill-2" fill="#5CA0DF"></path>
                        <path d="M10.5893,19.336 L13.7443,19.336 L13.7443,11.719 L15.8623,11.719 C15.8623,11.719 16.0603,10.489 16.1563,9.145 L13.7573,9.145 L13.7573,7.393 C13.7573,7.131 14.1003,6.778 14.4413,6.778 L16.1603,6.778 L16.1603,4.109 L13.8223,4.109 C10.5113,4.109 10.5893,6.676 10.5893,7.059 L10.5893,9.154 L9.0533,9.154 L9.0533,11.718 L10.5893,11.718 L10.5893,19.336 Z" id="Fill-4" fill="#FFFFFF"></path>
                    </g>
                </g>
            </g>
        </g>
    </g>
</svg>