<?xml version="1.0" encoding="UTF-8"?>
<svg width="50px" height="50px" viewBox="0 0 50 50" version="1.1" xmlns="http://www.w3.org/2000/svg" xmlns:xlink="http://www.w3.org/1999/xlink">
    <!-- Generator: Sketch 40 (33762) - http://www.bohemiancoding.com/sketch -->
    <title>fb</title>
    <desc>Created with Sketch.</desc>
    <defs></defs>
    <g id="Page-1" stroke="none" stroke-width="1" fill="none" fill-rule="evenodd">
        <g id="Desktop-HD" transform="translate(-304.000000, -7829.000000)">
            <g id="footer" transform="translate(0.000000, 7705.000000)">
                <g id="Page-1" transform="translate(302.000000, 124.000000)">
                    <g id="fb" transform="translate(2.000000, 0.000000)">
                        <path d="M0,48.0090859 C0,49.1086374 0.889064278,50 1.99091407,50 L48.0090859,50 C49.1086374,50 50,49.1109357 50,48.0090859 L50,1.99091407 C50,0.891362589 49.1109357,0 48.0090859,0 L1.99091407,0 C0.891362589,0 0,0.889064278 0,1.99091407 L0,48.0090859 Z" id="Fill-4" fill="#FF8B00"></path>
                        <path d="M32.0272315,15.0053483 L29.032061,15 C25.661585,15 23.4868498,17.0497231 23.4868498,20.2306047 L23.4868498,22.6413358 L20.4713139,22.6413358 C20.2094728,22.6413358 20,22.8338734 20,23.0745454 L20,26.5683005 C20,26.8062984 20.2094728,27.0028472 20.4713139,27.0028472 L23.4868498,27.0028472 L23.4868498,35.8154533 C23.4868498,36.0561253 23.6963226,36.25 23.9552543,36.25 L27.8901431,36.25 C28.1519842,36.25 28.3600023,36.0561253 28.3600023,35.8154533 L28.3600023,27.0028472 L31.8861282,27.0028472 C32.1465146,27.0028472 32.3559874,26.8062984 32.3559874,26.5683005 L32.3588968,23.0745454 C32.3588968,22.9595577 32.3079832,22.8499182 32.2192482,22.7670201 C32.1305132,22.6881331 32.0112301,22.6413358 31.8861282,22.6413358 L28.3600023,22.6413358 L28.3600023,20.5996351 C28.3600023,19.614217 28.6174793,19.1154911 30.0081462,19.1154911 L32.0272315,19.1154911 C32.2890725,19.1154911 32.5,18.9229535 32.5,18.6822815 L32.5,15.4385579 C32.5,15.1992229 32.2890725,15.0053483 32.0272315,15.0053483" id="Fill-5" fill="#FFFFFF"></path>
                    </g>
                </g>
            </g>
        </g>
    </g>
</svg>