<?xml version="1.0" encoding="UTF-8"?>
<svg width="50px" height="50px" viewBox="0 0 50 50" version="1.1" xmlns="http://www.w3.org/2000/svg" xmlns:xlink="http://www.w3.org/1999/xlink">
    <!-- Generator: Sketch 40 (33762) - http://www.bohemiancoding.com/sketch -->
    <title>twitter</title>
    <desc>Created with Sketch.</desc>
    <defs></defs>
    <g id="Page-1" stroke="none" stroke-width="1" fill="none" fill-rule="evenodd">
        <g id="Desktop-HD" transform="translate(-374.000000, -7829.000000)">
            <g id="footer" transform="translate(0.000000, 7705.000000)">
                <g id="Page-1" transform="translate(302.000000, 124.000000)">
                    <g id="twitter" transform="translate(72.000000, 0.000000)">
                        <path d="M0,48.0090859 C0,49.1086374 0.889064278,50 1.99091407,50 L48.0090859,50 C49.1086374,50 50,49.1109357 50,48.0090859 L50,1.99091407 C50,0.891362589 49.1109357,0 48.0090859,0 L1.99091407,0 C0.891362589,0 0,0.889064278 0,1.99091407 L0,48.0090859 Z" id="Fill-1" fill="#FF8B00"></path>
                        <path d="M36.25,18.3209288 C35.4650565,18.6738985 34.6261562,18.9135531 33.7461459,19.0177508 C34.6467112,18.470713 35.3365879,17.6058723 35.6603289,16.5756177 C34.8175745,17.082279 33.8861768,17.4508782 32.8905447,17.6462489 C32.0978931,16.789223 30.9635149,16.25 29.7109455,16.25 C27.3047276,16.25 25.3532888,18.2323608 25.3532888,20.669284 C25.3532888,21.0144388 25.3905447,21.3530813 25.4637718,21.678699 C21.8422405,21.4911432 18.6305242,19.7328074 16.4825283,17.0614394 C16.1061151,17.71007 15.8902878,18.470713 15.8902878,19.2795475 C15.8902878,20.8138583 16.6636691,22.1671256 17.8301644,22.959028 C17.114594,22.9329786 16.442703,22.735003 15.8556012,22.4041753 L15.8556012,22.4601816 C15.8556012,24.5988389 17.3586845,26.3871316 19.3538027,26.7935025 C18.9863823,26.8911879 18.6035457,26.9471941 18.2040082,26.9471941 C17.9200925,26.9471941 17.6490236,26.9198422 17.3830935,26.863836 C17.9406475,28.6208693 19.5465057,29.9011983 21.4529805,29.93376 C19.9627441,31.1190086 18.0832477,31.8236454 16.0418808,31.8236454 C15.6898767,31.8236454 15.344296,31.8015034 15,31.7624293 C16.9295992,33.0167088 19.2201953,33.75 21.6816547,33.75 C29.6980987,33.75 34.0827338,27.0162251 34.0827338,21.1772477 L34.0673176,20.6067654 C34.9254882,19.9867892 35.6654676,19.2092141 36.25,18.3209288" id="Fill-7" fill="#FFFFFF"></path>
                    </g>
                </g>
            </g>
        </g>
    </g>
</svg>