<svg width="26" height="26" viewBox="0 0 26 26" xmlns="http://www.w3.org/2000/svg"><title>Fill 1</title><path d="M17.364 13.002l8.185-8.185a1.545 1.545 0 0 0 0-2.183L23.366.453a1.542 1.542 0 0 0-2.183 0L13 8.636 4.815.455a1.537 1.537 0 0 0-2.18 0L.454 2.638a1.54 1.54 0 0 0 0 2.18l8.18 8.184-8.178 8.183a1.537 1.537 0 0 0 0 2.179l2.183 2.18a1.536 1.536 0 0 0 2.18 0L13 17.367l8.181 8.18a1.542 1.542 0 0 0 2.183 0l2.183-2.18a1.543 1.543 0 0 0 0-2.181l-8.183-8.183z" fill="#090C16" fill-rule="evenodd"/></svg>