<svg width="52" height="60" viewBox="0 0 52 60" xmlns="http://www.w3.org/2000/svg" xmlns:xlink="http://www.w3.org/1999/xlink"><title>android</title><defs><path id="a" d="M0 59.19h51.295V0H0z"/></defs><g fill="none" fill-rule="evenodd"><mask id="b" fill="#fff"><use xlink:href="#a"/></mask><path d="M30.777 12.284h2.566v-2.47h-2.566v2.47zm-12.823 0h2.563v-2.47h-2.563v2.47zm16.671-6.915L37.96 2.16c.514-.495.514-1.236 0-1.73a1.273 1.273 0 0 0-1.796 0l-3.846 3.704c-1.796-1.233-4.104-1.727-6.669-1.727-2.564 0-4.873.494-6.925 1.48L15.133.185c-.513-.247-1.54-.247-2.05 0-.258.493-.258 1.481 0 1.976l3.331 3.208c-3.59 2.717-6.155 6.915-6.155 11.851h30.777c0-4.936-2.563-9.38-6.41-11.851zm12.824 14.32c-2.052 0-3.847 1.73-3.847 3.704v17.281c0 1.976 1.795 3.703 3.847 3.703s3.846-1.727 3.846-3.703v-17.28c0-1.975-1.794-3.705-3.846-3.705zm-43.602 0C1.795 19.69 0 21.42 0 23.393v17.281c0 1.976 1.795 3.703 3.847 3.703s3.848-1.727 3.848-3.703v-17.28c0-1.975-1.796-3.705-3.848-3.705zm6.412 24.688c0 1.481 1.028 2.47 2.566 2.47h2.563v8.64c0 1.976 1.797 3.703 3.85 3.703 2.05 0 3.846-1.727 3.846-3.703v-8.64h5.129v8.64c0 1.976 1.795 3.703 3.848 3.703 2.051 0 3.845-1.727 3.845-3.703v-8.64h2.567c1.538 0 2.563-.989 2.563-2.47V19.689H10.26v24.688z" fill="#FFF" mask="url(#b)"/></g></svg>