<svg width="60" height="56" viewBox="0 0 60 56" xmlns="http://www.w3.org/2000/svg" xmlns:xlink="http://www.w3.org/1999/xlink"><title>Page 1</title><defs><path id="a" d="M59.276 55.744V0H0v55.744z"/></defs><g fill="none" fill-rule="evenodd"><mask id="b" fill="#fff"><use xlink:href="#a"/></mask><path d="M21.387 35.836c-.744 0-1.347-2.21-1.347-4.939 0-2.725.603-4.935 1.347-4.935s1.346 2.21 1.346 4.935c0 2.729-.602 4.94-1.346 4.94zm17.008-.41c-.744 0-1.346-2.211-1.346-4.939 0-2.727.602-4.937 1.346-4.937.745 0 1.347 2.21 1.347 4.937 0 2.728-.602 4.939-1.347 4.939zm4.716-24.807H34.45l.578 3.981H24.25l.578-3.981h-8.661l-5.39 10.617 2.695 21.235h32.334L48.5 21.236l-5.39-10.617zm10.778 45.125h-9.6l.673-7.963h-4.714l-.674 7.963H19.702l-.672-7.963h-4.716l.674 7.963H5.39L0 21.236 13.472 0h32.334l13.47 21.236-5.387 34.508z" fill="#FFF" mask="url(#b)"/></g></svg>