<svg width="102" height="39" viewBox="0 0 102 39" xmlns="http://www.w3.org/2000/svg" xmlns:xlink="http://www.w3.org/1999/xlink"><title>ember</title><defs><path id="a" d="M101.93 38.72V.27H.93v38.45h101z"/></defs><g fill="none" fill-rule="evenodd"><mask id="b" fill="#fff"><use xlink:href="#a"/></mask><path d="M101.91 28.163c-.162-1.699-1.7-1.068-1.7-1.068s-2.46 1.91-4.627 1.7c-2.152-.229-1.474-5.05-1.474-5.05s.47-4.433-.807-4.806c-1.28-.37-2.85 1.15-2.85 1.15s-1.955 2.168-2.88 4.918l-.258.083s.29-4.839-.05-5.94c-.257-.55-2.587-.502-2.96.471-.388.97-2.248 7.75-2.377 10.596 0 0-3.642 3.091-6.83 3.61-3.186.5-3.947-1.489-3.947-1.489s8.656-2.412 8.35-9.32c-.291-6.91-6.974-4.352-7.735-3.788-.73.551-4.63 2.898-5.776 9.417a46.093 46.093 0 0 0-.114 1.2s-3.35 2.248-5.21 2.847c0 0 5.21-8.769-1.151-12.766-2.878-1.732-5.176 1.908-5.176 1.908s8.608-9.578 6.699-17.685C60.13.301 58.205-.122 56.425.511c-2.685 1.067-3.705 2.62-3.705 2.62s-3.478 5.048-4.288 12.556c-.808 7.508-1.99 16.57-1.99 16.57s-1.65 1.617-3.172 1.698c-1.52.082-.84-4.529-.84-4.529s1.18-7.038 1.1-8.22c-.081-1.182-.162-1.83-1.57-2.249-1.391-.42-2.928 1.357-2.928 1.357s-4.03 6.101-4.37 7.04l-.21.388-.211-.258s2.849-8.317.13-8.43c-2.718-.13-4.497 2.96-4.497 2.96s-3.091 5.178-3.221 5.76l-.21-.257s1.278-6.02 1.02-7.51c-.26-1.487-1.65-1.18-1.65-1.18s-1.781-.212-2.25.938c-.47 1.15-2.168 8.738-2.38 11.148 0 0-4.448 3.19-7.38 3.221-2.925.047-2.62-1.862-2.62-1.862s10.73-3.673 7.8-10.92c-1.31-1.863-2.847-2.446-5-2.413-2.167.05-4.708 1.36-6.455 5.258-.824 1.861-1.165 3.625-1.165 4.968 0 0-2.007.39-3.026-.468-1.02-.842-1.602 0-1.602 0s-1.78 2.54-.047 3.22c1.729.68 4.416 1.31 4.416 1.31.243 1.1.97 2.896 3.092 4.497 3.17 2.413 9.287-.37 9.287-.37l2.507-1.49s.082 2.25 1.909 2.591c1.829.338 2.589-.033 5.76-7.736 1.862-3.948 1.99-3.739 1.99-3.739l.21-.047s-1.44 7.54-.888 9.58c.55 2.038 2.96 1.828 2.96 1.828s1.31.467 2.378-3.27c1.069-3.736 3.092-7.637 3.092-7.637h.257s-.888 7.507.47 9.966c1.359 2.46 4.87.73 4.87.73s2.46-1.294 2.849-1.683c0 0 2.913 2.46 7.039 2.008 9.205-1.813 12.476-4.274 12.476-4.274s1.583 3.998 6.47 4.37c5.599.42 8.657-3.107 8.657-3.107s-.05 2.28 1.909 3.091c1.958.81 3.269-3.464 3.269-3.464l3.269-8.753h.29s.162 5.6 3.398 6.537c3.253.923 7.443-2.314 7.443-2.314s1.02-.68.843-2.378m-91.195.825c.13-5.049 3.432-7.249 4.58-6.148 1.149 1.1.728 3.478-1.441 4.966-2.152 1.49-3.14 1.182-3.14 1.182m43.042-19.53s3.009-7.848 3.737-4.027c.728 3.817-6.311 15.175-6.311 15.175.066-2.557 2.574-11.148 2.574-11.148m3.609 21.828c-1.99 5.21-6.83 3.09-6.83 3.09s-.55-1.86 1.02-7.086c1.57-5.21 5.258-3.17 5.258-3.17s2.542 1.956.552 7.166m13.349-2.298s-.47-1.65 1.276-4.839c1.73-3.169 3.093-1.438 3.093-1.438s1.487 1.617-.211 4.027c-1.7 2.427-4.158 2.25-4.158 2.25" fill="#FFF" mask="url(#b)"/></g></svg>