<svg width="216" height="40" viewBox="0 0 216 40" xmlns="http://www.w3.org/2000/svg" xmlns:xlink="http://www.w3.org/1999/xlink"><title>sql</title><defs><path id="a" d="M17.756 20.434V.154H.322v20.28h17.434z"/></defs><g fill="none" fill-rule="evenodd"><path d="M153.82 8.218c2.125-1.18 4.643-1.259 7.016-1.3 2.566.03 5.38.241 7.477 1.896 1.314 1.017 1.871 2.7 1.875 4.317-.815.004-1.627 0-2.439 0-.295-1.586-.99-3.293-2.638-3.879-2.755-1.048-5.92-.983-8.726-.162-2.25.624-3.071 3.886-1.338 5.462 1.242.993 2.896 1.128 4.393 1.462 3.068.655 6.321.762 9.18 2.166 3.047 1.53 2.93 6.417.244 8.251-2.23 1.535-5.063 1.704-7.684 1.725-2.855-.045-5.968-.314-8.29-2.162-1.485-1.18-1.946-3.142-2.032-4.952a54.882 54.882 0 0 1 2.5-.059c.183 1.924 1.084 3.924 2.996 4.655 2.993 1.166 6.453 1.152 9.507.224 2.136-.603 2.965-3.33 1.995-5.2-.461-.844-1.366-1.303-2.253-1.548-3.732-1.01-7.684-1.065-11.33-2.414-3.44-1.265-3.553-6.762-.454-8.482m27.097.682c-2.783.649-5.376 2.594-6.277 5.387-.953 3.007-.623 6.63 1.55 9.045 1.913 2.172 4.857 3.151 7.688 3.196 3.13.104 6.556-.796 8.616-3.303 2.813-3.628 2.49-9.673-1.276-12.535-2.845-2.32-6.848-2.53-10.301-1.79m-3.89-.465c2.847-1.455 6.146-1.683 9.283-1.424 2.978.248 6.012 1.352 8.028 3.641 2.5 2.7 2.947 6.783 2.008 10.228-.509 1.93-1.86 3.455-3.312 4.752 1.145.834 2.335 1.603 3.48 2.444a36.74 36.74 0 0 1-1.578 1.442c-1.21-.78-2.322-1.71-3.574-2.417-.966 0-1.85.586-2.813.72-2.683.476-5.472.51-8.152-.017-2.92-.586-5.726-2.228-7.302-4.814-1.558-2.527-1.76-5.717-1.045-8.548.66-2.62 2.59-4.807 4.977-6.007" fill="#FFF"/><g transform="translate(198.115 7.22)"><mask id="b" fill="#fff"><use xlink:href="#a"/></mask><path d="M.329.215C1.119.198 1.91.177 2.705.153c.066 6.187.014 12.373.024 18.559 5.008.086 10.02-.038 15.027.062l-.01 1.652c-5.806.003-11.615.024-17.424-.014C.332 13.68.318 6.946.329.215" fill="#FFF" mask="url(#b)"/></g><path d="M24.782 2.804c2.222-.478 4.604-.416 6.745.391a8.94 8.94 0 0 1 3.788 2.786c.471.593.531 1.388.562 2.117.02 1.735-.328 3.45-.773 5.12-.85 3.09-2.142 6.052-3.765 8.809a7.56 7.56 0 0 1-.528.783c-.015-.076-.044-.23-.06-.306.203-.532.497-1.032.611-1.595.408-1.592.063-3.229-.083-4.83-.154-1.511.361-2.981.348-4.488.06-.739-.233-1.437-.516-2.099-1.023-2.295-2.652-4.338-4.742-5.74-.509-.351-1.079-.595-1.587-.948" fill="#FFF"/><path d="M18.61 3.014c2.733-.348 5.605.405 7.776 2.12 1.795 1.422 3.213 3.348 3.978 5.514-1.27-.045-2.711-.096-3.738.789-.931.787-1.051 2.13-.842 3.26.486 2.685 2.065 4.967 3.231 7.38.31.566.727 1.06 1.122 1.568-.472.239-.998.467-1.265.953-.47.758-.304 1.682-.42 2.524-.27 2.36-.535 4.72-.918 7.064-.181 1.123-.657 2.317-1.715 2.876-1.084.553-2.344.9-3.563.712-1.157-.204-1.886-1.285-2.214-2.34-.24-.883-.265-1.806-.334-2.715a83.774 83.774 0 0 1-.06-6.592c.047-.859-.393-1.752-1.156-2.169-.37-.208-.801-.236-1.216-.27.325-1.615 1.306-3.009 1.642-4.621.436-1.995.195-4.072-.251-6.042-.218-.983-.964-1.853-1.957-2.092-1.529-.385-3.07.214-4.438.855.173-2.228.767-4.507 2.128-6.315a6.313 6.313 0 0 1 4.21-2.46" fill="#FFF"/><path d="M6.96 3.198c2.434-.47 4.93.028 7.266.743-1.03 1.135-1.832 2.472-2.301 3.936-.638 1.954-.929 4.035-.777 6.09.088 1.446.05 2.9-.15 4.337-.253 1.874.497 3.803 1.886 5.068-.945 1.109-1.948 2.166-2.864 3.3-.405.478-.951 1.047-1.64.905-.807-.234-1.32-.972-1.769-1.635-1.213-1.946-1.945-4.144-2.615-6.327-.75-2.582-1.383-5.207-1.747-7.875-.182-2.03-.069-4.207.968-6.015.775-1.369 2.223-2.241 3.743-2.527m20.783 9.364c-.298.247.024.613.28.729.621.366 1.472-.145 1.493-.857-.56-.262-1.265-.235-1.773.128m-.33-.335c.895-.638 2.066-.495 3.101-.43-.044 1.434-.485 2.84-.341 4.285.13 1.787.647 3.708-.194 5.402-1.127-2.248-2.585-4.394-3.092-6.898-.144-.797-.18-1.805.526-2.36" fill="#FFF"/><path d="M15.388 12.604c-.172.06-.352.178-.317.388.123.714 1.078 1.149 1.68.704.264-.15.543-.562.238-.81-.437-.356-1.071-.424-1.601-.282m-3.155.547c1.123-.727 2.435-1.298 3.795-1.22.704.032 1.354.53 1.523 1.226.618 2.466.809 5.21-.374 7.545-.413.9-.747 1.834-1.036 2.78-1.968.02-3.642-1.647-3.99-3.524-.239-1.062.072-2.13.109-3.194.082-1.204-.003-2.409-.027-3.613m17.733 11.851c.292-.215.706-.413 1.043-.179 1.433.757 3.098.388 4.621.203-.93.908-2.22 1.333-3.488 1.47-.84.1-1.711.13-2.522-.148.005-.46-.02-1.005.346-1.346m-14.425 1.759c.823-.443 1.15-1.42 1.918-1.922.837-.119 1.449 1.128.816 1.718-1.236 1.678-3.708 1.998-5.495 1.085.881-.41 1.912-.377 2.761-.88m30.392-17.71c-.004 2.807-.014 5.614.007 8.421 2.989-.007 5.978.045 8.966-.024 1.669-.052 3.622-.628 4.32-2.31.55-1.507.465-3.38-.553-4.673-.99-1.19-2.649-1.41-4.104-1.417-2.878-.004-5.757-.004-8.636.003m-2.03-1.617c3.784.014 7.567-.031 11.354-.055 1.754-.02 3.643.303 4.998 1.507 1.837 1.593 2.156 4.4 1.369 6.6-.932 2.38-3.605 3.493-6.006 3.551-3.236.042-6.476-.017-9.713.025-.034 2.865.048 5.727.017 8.593-.674-.004-1.348-.004-2.018 0-.021-6.742-.025-13.48 0-20.221m53.917 2.597h2.077c0 1.444-.003 2.886.01 4.33 1.18.014 2.36.014 3.54 0 .017.47.034.935.055 1.404a82.628 82.628 0 0 1-3.58-.003c-.049 2.837-.01 5.672-.028 8.506.02.645-.041 1.5.616 1.87.918.461 1.98.293 2.965.237 0 .449.003.9.006 1.352-1.516.172-3.15.286-4.557-.414-.85-.445-1.132-1.462-1.114-2.358-.018-3.07.007-6.135-.007-9.204-.891.004-1.778 0-2.67-.01.008-.459.011-.917.018-1.373.88.01 1.758.004 2.638-.034.01-1.435.014-2.869.031-4.303M68.448 15.48c-1.944.227-3.856 1.455-4.492 3.376-.712 2.134-.41 4.796 1.32 6.372 1.37 1.259 3.327 1.552 5.115 1.466 1.624-.066 3.347-.497 4.506-1.714 1.269-1.249 1.479-3.17 1.314-4.859-.128-1.462-.83-2.945-2.116-3.724-1.675-1.024-3.742-1.138-5.647-.917m-1.015-1.345c2.631-.39 5.507-.3 7.873 1.041 3.557 2.007 4.055 7.393 1.579 10.428-2.126 2.365-5.607 2.686-8.589 2.434-2.421-.148-4.9-1.351-6.046-3.579-1.039-2.059-1.053-4.62-.083-6.707.977-2.03 3.106-3.255 5.266-3.617m13.779.972c1.369-.875 3.054-1.013 4.636-1.124 2.232-.051 4.674-.065 6.607 1.221 1.077.676 1.466 1.955 1.617 3.148-.726.028-1.455.035-2.18.035-.152-.99-.554-2.038-1.545-2.452-1.782-.82-3.842-.731-5.74-.459-1.18.17-2.621.842-2.656 2.218-.103.976.788 1.662 1.637 1.872 2.504.631 5.122.569 7.643 1.11 1.125.266 2.339.718 2.979 1.749.873 1.496.33 3.645-1.184 4.51-1.836 1.09-4.058 1.145-6.136 1.155-2.022-.08-4.223-.114-5.95-1.32-1.06-.735-1.424-2.049-1.623-3.256.753-.01 1.506 0 2.26.014.037 1.645 1.416 2.81 2.964 3.007 2.25.324 4.736.51 6.831-.538 1.451-.73 1.31-3.086-.224-3.63-3.112-.911-6.504-.611-9.572-1.729-2.211-.882-2.246-4.286-.364-5.53m30.243.43c-1.496.235-2.996.966-3.828 2.28-.966 1.562-.98 3.603-.33 5.29.691 1.748 2.573 2.64 4.344 2.824 2.25.324 4.874.03 6.48-1.749 1.799-2.193 1.603-6-.805-7.69-1.699-1.155-3.89-1.223-5.86-.955m-1.741-1.23c2.143-.48 4.437-.514 6.552.127 1.207.328 2.05 1.293 2.961 2.08.042-.708.059-1.414.097-2.118.664.004 1.327-.003 1.995-.017.179 4.086.024 8.186.079 12.28.051 1.692-.279 3.554-1.596 4.737-1.73 1.573-4.196 1.828-6.429 1.873-1.984-.042-4.075-.087-5.87-1.032-1.256-.651-1.858-2.03-2.106-3.355.678-.013 1.355-.02 2.036-.041.43.88.76 1.945 1.706 2.407 1.418.683 3.04.703 4.582.693 1.716-.059 3.684-.39 4.764-1.883 1.042-1.427.804-3.293.804-4.952-2.15 2.183-5.4 2.59-8.306 2.238-1.823-.21-3.728-.862-4.918-2.334-1.445-1.79-1.624-4.317-1.087-6.483.56-2.21 2.59-3.734 4.736-4.22m18.005.202c1.507-.661 3.192-.537 4.799-.534 0 .562.003 1.124.01 1.686-1.651-.024-3.491-.244-4.912.79-1.386.952-1.864 2.724-1.888 4.328-.024 2.29.014 4.582-.01 6.876-.681-.004-1.362-.007-2.04-.007a472.768 472.768 0 0 1-.017-13.252c.681.003 1.365.003 2.046-.007.014.762.018 1.528.038 2.29.506-.838 1.039-1.755 1.975-2.17m9.238 1.663c-1.496.776-2.198 2.424-2.556 3.99 4.186.03 8.376.027 12.565 0-.141-.956-.42-1.925-1.08-2.656-2.115-2.569-6.119-2.838-8.929-1.334m-3.725 1.086c1.386-2.241 4.096-3.196 6.618-3.276 2.58-.127 5.489.224 7.374 2.183 1.396 1.359 1.854 3.352 1.93 5.238-4.926.045-9.851-.035-14.773.041.113 1.335.516 2.718 1.551 3.635 1.912 1.762 4.798 1.92 7.223 1.376 1.61-.349 2.848-1.604 3.44-3.107.75-.004 1.5 0 2.252.007-.643 2.241-2.614 3.865-4.842 4.369-3.02.703-6.501.582-9.105-1.276-2.844-2.004-3.38-6.29-1.668-9.19" fill="#FFF"/><path d="M22.865 2.133c-.215.043-.426-.053-.636-.08-2.356-.48-4.954-.29-6.997 1.077-2.452-.885-5.09-1.42-7.7-1.145C5.59 2.187 3.64 3.09 2.526 4.749c-1.409 2.068-1.6 4.71-1.375 7.134.453 3.219 1.236 6.387 2.231 9.477.657 1.927 1.379 3.867 2.546 5.55.593.826 1.38 1.66 2.44 1.79.943.114 1.795-.472 2.373-1.165a80.354 80.354 0 0 1 3.092-3.514c.696.343 1.452.54 2.224.597-.418.498-.763 1.147-1.428 1.342-.897.347-1.948.3-2.74.9-.455.326-.478 1.04-.067 1.416.74.721 1.832.877 2.818.959a5.345 5.345 0 0 0 3.87-1.282c-.007 2.227.005 4.46.254 6.675.125 1.297.684 2.59 1.667 3.462.927.81 2.25.98 3.427.775 1.154-.22 2.343-.568 3.245-1.36.96-.847 1.368-2.128 1.56-3.357.344-2.2.606-4.414.856-6.626 2.47.418 5.263-.056 7.108-1.864.395-.372.769-1.016.38-1.522-.4-.465-1.083-.338-1.611-.232-1.27.226-2.649.49-3.879-.038 2.195-3.472 3.922-7.264 4.887-11.266.352-1.521.622-3.076.572-4.642-.039-.877-.16-1.81-.695-2.535a10.02 10.02 0 0 0-5.351-3.59c-2.639-.718-5.47-.504-8.065.3m.008-1.124c2.382-.627 4.902-.894 7.34-.43 2.213.4 4.32 1.442 5.922 3.035.708.711 1.428 1.489 1.695 2.487.477 1.716.287 3.532 0 5.263-.756 4.153-2.392 8.103-4.487 11.751.942 0 1.85-.3 2.784-.362.916-.06 1.895.504 2.115 1.436.276.991-.345 1.952-1.074 2.567-1.853 1.654-4.425 2.2-6.848 2.06-.144 2.508-.195 5.114-1.25 7.44-.472 1.038-1.215 1.964-2.19 2.564-.933.583-2.017.858-3.085 1.063-1.169.21-2.45.096-3.459-.578-.931-.594-1.516-1.594-1.85-2.626-.828-2.157-.746-4.51-.843-6.781-1.64.661-3.506.66-5.17.086-.584-.204-1.1-.559-1.544-.987-.856.713-2.036 1.08-3.131.77-1.393-.381-2.38-1.553-3.12-2.732-1.284-2.117-2.09-4.48-2.802-6.842-.785-2.728-1.452-5.5-1.811-8.319-.203-2.505.022-5.186 1.37-7.371C2.52 2.713 4.42 1.518 6.453 1.119c2.88-.587 5.85-.02 8.612.846.894-.402 1.787-.843 2.766-1.002 1.664-.339 3.376-.184 5.043.046" fill="#FFF"/></g></svg>