<?xml version="1.0" encoding="UTF-8"?>
<svg width="61px" height="61px" viewBox="0 0 61 61" version="1.1" xmlns="http://www.w3.org/2000/svg" xmlns:xlink="http://www.w3.org/1999/xlink">
    <!-- Generator: Sketch 40 (33762) - http://www.bohemiancoding.com/sketch -->
    <title>ic_ui/ux</title>
    <desc>Created with Sketch.</desc>
    <defs></defs>
    <g id="Page-1" stroke="none" stroke-width="1" fill="none" fill-rule="evenodd">
        <g id="Desktop-HD" transform="translate(-561.000000, -1902.000000)" fill="#5CA0DF">
            <g id="work-process" transform="translate(0.000000, 1664.000000)">
                <g id="ui/ux" transform="translate(514.000000, 208.000000)">
                    <g id="ic_ui/ux" transform="translate(47.000000, 30.000000)">
                        <path d="M56.499,52.6035 L58.448,52.6035 L58.448,9.7425 L56.499,9.7425 L56.499,52.6035 Z M54.552,5.8445 L50.655,5.8445 L50.655,7.7915 L54.552,7.7915 L54.552,11.6895 L50.655,11.6895 L50.655,13.6385 L54.552,13.6385 L54.552,17.5335 L50.655,17.5335 L50.655,19.4825 L54.552,19.4825 L54.552,23.3795 L50.655,23.3795 L50.655,25.3285 L54.552,25.3285 L54.552,29.2245 L50.655,29.2245 L50.655,31.1725 L54.552,31.1725 L54.552,35.0685 L50.655,35.0685 L50.655,37.0175 L54.552,37.0175 L54.552,40.9145 L50.655,40.9145 L50.655,42.8635 L54.552,42.8635 L54.552,46.7575 L50.655,46.7575 L50.655,48.7075 L54.552,48.7075 L54.552,52.6035 L50.655,52.6035 L50.655,54.5495 L54.552,54.5495 L54.552,58.4475 L46.758,58.4475 L46.758,1.9485 L54.552,1.9485 L54.552,5.8445 Z M42.862,15.5855 L44.81,15.5855 L44.81,9.7415 L42.862,9.7415 L42.862,15.5855 Z M42.862,19.4825 L44.81,19.4825 L44.81,17.5335 L42.862,17.5335 L42.862,19.4825 Z M42.862,33.1215 L44.81,33.1215 L44.81,21.4325 L42.862,21.4325 L42.862,33.1215 Z M42.862,37.0175 L44.81,37.0175 L44.81,35.0685 L42.862,35.0685 L42.862,37.0175 Z M42.862,52.6035 L44.81,52.6035 L44.81,38.9645 L42.862,38.9645 L42.862,52.6035 Z M37.991,46.7575 L40.914,46.7575 L40.914,9.7415 L37.991,9.7415 L37.991,46.7575 Z M33.12,50.6565 L40.914,50.6565 L40.914,48.7085 L33.12,48.7085 L33.12,50.6565 Z M40.914,54.5495 C40.914,56.7025 39.166,58.4475 37.017,58.4475 C34.868,58.4475 33.12,56.7025 33.12,54.5495 L33.12,52.6035 L40.914,52.6035 L40.914,54.5495 Z M33.12,46.7585 L36.042,46.7585 L36.042,9.7425 L33.12,9.7425 L33.12,46.7585 Z M37.017,3.6255 L39.995,7.7915 L34.039,7.7915 L37.017,3.6255 Z M1.948,15.5855 L31.173,15.5855 L31.173,9.7415 L1.948,9.7415 L1.948,15.5855 Z M31.173,19.4825 L3.898,19.4825 L3.898,38.9645 L31.173,38.9645 L31.173,52.6035 L1.948,52.6035 L1.948,17.5335 L31.173,17.5335 L31.173,19.4825 Z M31.173,25.3285 L29.712,23.3795 L22.911,23.3795 L15.118,33.1215 L7.792,33.1215 L7.792,35.0685 L31.173,35.0685 L31.173,37.0175 L5.845,37.0175 L5.845,21.4315 L31.173,21.4315 L31.173,25.3285 Z M31.173,33.1215 L17.612,33.1215 L23.847,25.3285 L28.737,25.3285 L31.173,28.5735 L31.173,33.1215 Z M56.499,7.7915 L56.499,0.0005 L44.81,0.0005 L44.81,7.7915 L42.389,7.7915 L37.017,0.2725 L31.645,7.7915 L0,7.7915 L0,54.5495 L31.173,54.5495 C31.173,57.7745 33.793,60.3965 37.017,60.3965 C40.24,60.3965 42.861,57.7745 42.861,54.5495 L44.81,54.5495 L44.81,60.3965 L56.499,60.3965 L56.499,54.5495 L60.396,54.5495 L60.396,7.7915 L56.499,7.7915 Z" id="Fill-1"></path>
                        <polygon id="Fill-3" points="3.898 13.6385 5.845 13.6385 5.845 11.6895 3.898 11.6895"></polygon>
                        <polygon id="Fill-4" points="7.792 13.6385 9.741 13.6385 9.741 11.6895 7.792 11.6895"></polygon>
                        <polygon id="Fill-5" points="11.689 13.6385 13.637 13.6385 13.637 11.6895 11.689 11.6895"></polygon>
                        <path d="M5.845,48.7075 L15.587,48.7075 L15.587,42.8625 L5.845,42.8625 L5.845,48.7075 Z M3.897,50.6565 L17.533,50.6565 L17.533,40.9145 L3.897,40.9145 L3.897,50.6565 Z" id="Fill-6"></path>
                        <polygon id="Fill-7" points="19.482 42.8635 29.223 42.8635 29.223 40.9145 19.482 40.9145"></polygon>
                        <polygon id="Fill-8" points="19.482 46.7575 29.223 46.7575 29.223 44.8085 19.482 44.8085"></polygon>
                        <polygon id="Fill-9" points="19.482 50.6555 29.223 50.6555 29.223 48.7075 19.482 48.7075"></polygon>
                    </g>
                </g>
            </g>
        </g>
    </g>
</svg>