<?xml version="1.0" encoding="UTF-8"?>
<svg width="102px" height="102px" viewBox="0 0 102 102" version="1.1" xmlns="http://www.w3.org/2000/svg" xmlns:xlink="http://www.w3.org/1999/xlink">
    <!-- Generator: Sketch 40 (33762) - http://www.bohemiancoding.com/sketch -->
    <title>fantasy sport</title>
    <desc>Created with Sketch.</desc>
    <defs></defs>
    <g id="Page-1" stroke="none" stroke-width="1" fill="none" fill-rule="evenodd">
        <g id="Desktop-HD" transform="translate(-116.000000, -2888.000000)">
            <g id="AREAS-OF-expertise" transform="translate(58.000000, 2761.000000)">
                <g id="fantasy-sport" transform="translate(0.000000, 128.000000)">
                    <g transform="translate(59.000000, 0.000000)">
                        <path d="M0,49.9995015 C0,22.3857235 22.3855004,0 50,0 C77.6144996,0 100,22.3857235 100,49.9995015 C100,77.6142765 77.6144996,100 50,100 C22.3855004,100 0,77.6142765 0,49.9995015 L0,49.9995015 Z" id="Stroke-1" stroke="#5CA0DF" stroke-width="2"></path>
                        <path d="M40.8516,32.3734 C40.3856,32.0484 39.7426,32.1624 39.4176,32.6284 C39.0916,33.0964 39.2056,33.7374 39.6726,34.0634 C40.4386,34.5974 41.0976,35.3014 41.5786,36.1004 C41.7716,36.4214 42.1126,36.6004 42.4616,36.6004 C42.6426,36.6004 42.8266,36.5514 42.9926,36.4514 C43.4796,36.1584 43.6376,35.5234 43.3436,35.0364 C42.7136,33.9914 41.8526,33.0724 40.8516,32.3734" id="Fill-3" fill="#5CA0DF"></path>
                        <path d="M69.4327,32.3734 C68.9667,32.0484 68.3237,32.1624 67.9977,32.6284 C67.6727,33.0964 67.7867,33.7374 68.2537,34.0634 C69.0187,34.5974 69.6777,35.3014 70.1587,36.1004 C70.3517,36.4214 70.6927,36.6004 71.0427,36.6004 C71.2237,36.6004 71.4077,36.5514 71.5737,36.4514 C72.0607,36.1584 72.2187,35.5234 71.9247,35.0364 C71.2947,33.9914 70.4327,33.0724 69.4327,32.3734" id="Fill-5" fill="#5CA0DF"></path>
                        <path d="M74.0531492,69.0862567 C73.5209974,69.195174 72.981804,69.2511315 72.4506582,69.2511315 C68.7758938,69.2511315 65.56387,66.6521052 64.8124194,63.0728233 L62.5138055,52.2020786 C63.1646603,51.2458048 63.5449124,50.0966774 63.5449124,48.8596168 C63.5449124,48.6217974 63.529823,48.387975 63.5026622,48.1581495 C63.9040394,48.2111093 64.3094405,48.2420858 64.7208773,48.2420858 C69.559535,48.2420858 73.4968544,44.3310558 73.4968544,39.5227073 C73.4968544,38.9551383 73.0331078,38.4934889 72.4607177,38.4934889 C71.8883277,38.4934889 71.424581,38.9551383 71.424581,39.5227073 C71.424581,43.1939194 68.4167668,46.1816505 64.7208773,46.1816505 C64.0448735,46.1816505 63.3819472,46.0827256 62.7441699,45.8878736 C61.9504691,44.5189132 60.6266284,43.4886955 59.0523042,43.0810051 C58.3742886,42.0168133 58.0161675,40.7917436 58.0161675,39.5227073 C58.0161675,35.8494967 61.0239818,32.8627649 64.7208773,32.8627649 C65.2932673,32.8627649 65.757014,32.4031139 65.757014,31.8335464 C65.757014,31.2649782 65.2932673,30.8033288 64.7208773,30.8033288 C59.8802076,30.8033288 55.9428882,34.7143588 55.9428882,39.5227073 C55.9428882,40.7128035 56.1843181,41.8759203 56.6490707,42.952103 C53.7498999,43.3767805 51.5196911,45.864891 51.5196911,48.8596168 C51.5196911,49.4561638 51.6082154,50.0307275 51.7731925,50.5763132 L48.9162719,50.5763132 C49.080243,50.0307275 49.1697733,49.4561638 49.1697733,48.8596168 C49.1697733,45.8628925 46.9385586,43.3767805 44.0403937,42.952103 C44.5041403,41.8769195 44.7465762,40.7168005 44.7465762,39.5227073 C44.7465762,38.9531398 44.2818236,38.4924896 43.7094335,38.4924896 C43.1370435,38.4924896 42.6732969,38.9531398 42.6732969,39.5227073 C42.6732969,40.7947413 42.3141699,42.0168133 41.6351483,43.0810051 C40.06183,43.4886955 38.7389953,44.5189132 37.9432826,45.8858751 C37.3075171,46.0817264 36.6435849,46.1816505 35.9685871,46.1816505 C32.2726976,46.1816505 29.2648833,43.1939194 29.2648833,39.5227073 C29.2648833,35.8494967 32.2726976,32.8627649 35.9685871,32.8627649 C36.5409772,32.8627649 37.0047238,32.4011154 37.0047238,31.8335464 C37.0047238,31.2629797 36.5409772,30.8033288 35.9685871,30.8033288 C31.1289234,30.8033288 27.190598,34.7143588 27.190598,39.5227073 C27.190598,44.3300566 31.1289234,48.2420858 35.9685871,48.2420858 C36.378012,48.2420858 36.785425,48.2111093 37.1868022,48.156151 C37.1596413,48.3859765 37.143546,48.6217974 37.143546,48.8596168 C37.143546,50.0946789 37.5237981,51.2448055 38.1736469,52.1990808 L35.8740271,63.0728233 C35.1225765,66.6521052 31.9115587,69.2511315 28.2367943,69.2511315 C27.7056485,69.2511315 27.166455,69.195174 26.6353092,69.0862567 C22.4193395,68.2129199 19.704259,64.0960463 20.5824603,59.9082265 L26.1112052,33.5462458 C26.9894064,29.3604245 31.1349592,26.6644718 35.349923,27.5338117 C37.1234268,27.9005332 38.7229,28.8767918 39.8525908,30.2797264 C40.0497585,30.5235413 40.3475221,30.6664328 40.6623869,30.6664328 L60.0240596,30.6664328 C60.3389244,30.6664328 60.6376939,30.5235413 60.8328498,30.2797264 C61.9635465,28.8767918 63.5630197,27.9005332 65.3365235,27.5338117 C69.5524933,26.6634726 73.6970401,29.3604245 74.5742354,33.5462458 L80.1049922,59.9082265 C80.9831935,64.0960463 78.268113,68.2139192 74.0531492,69.0862567 M57.5333077,52.7726453 C55.3604385,52.7726453 53.5929704,51.0169785 53.5929704,48.8596168 C53.5929704,46.7012559 55.3604385,44.9455891 57.5333077,44.9455891 C59.704165,44.9455891 61.4716331,46.7012559 61.4716331,48.8596168 C61.4716331,51.0169785 59.704165,52.7726453 57.5333077,52.7726453 M43.1571626,52.7726453 C40.9842935,52.7726453 39.2168253,51.0169785 39.2168253,48.8596168 C39.2168253,46.7012559 40.9842935,44.9455891 43.1571626,44.9455891 C45.3290258,44.9455891 47.096494,46.7012559 47.096494,48.8596168 C47.096494,51.0169785 45.3290258,52.7726453 43.1571626,52.7726453 M82.1350153,59.4895445 L76.6052645,33.1275638 C75.4946869,27.8295871 70.2496222,24.41518 64.9140212,25.517343 C62.8357121,25.9480159 60.946523,27.038188 59.5432117,28.6069967 L41.1442408,28.6069967 C39.7409294,27.038188 37.8517404,25.9480159 35.7724253,25.517343 C30.4368243,24.41518 25.1927655,27.8295871 24.082188,33.1275638 L18.5524371,59.4895445 C17.4408536,64.7885204 20.8772059,69.9975647 26.2128069,71.1027254 C26.8827749,71.2406207 27.5638084,71.3105676 28.2367943,71.3105676 C32.8883439,71.3105676 36.9534199,68.0250626 37.9030443,63.4965016 L39.9330674,53.8977908 C40.8655904,54.4883424 41.9711382,54.8320813 43.1571626,54.8320813 C45.038304,54.8320813 46.7202657,53.968737 47.8227956,52.6197614 C47.8781233,52.6297538 47.933451,52.63475 47.9907906,52.63475 L52.69465,52.63475 C52.7529955,52.63475 52.8093292,52.6297538 52.8656628,52.6197614 C53.9681927,53.968737 55.6501544,54.8320813 57.5333077,54.8320813 C58.7173202,54.8320813 59.821862,54.4883424 60.7533791,53.8987901 L62.7823963,63.4935038 C63.7340325,68.0250626 67.7991086,71.3105676 72.4506582,71.3105676 C73.1226381,71.3105676 73.8036716,71.2406207 74.4746456,71.1027254 C79.8092406,69.9975647 83.2455929,64.7885204 82.1350153,59.4895445" id="Fill-7" fill="#5CA0DF"></path>
                        <path d="M35.8643,34.1058 C35.2953,34.1058 34.8343,34.5668 34.8343,35.1368 L34.8343,37.3348 C34.8343,37.9048 35.2953,38.3648 35.8643,38.3648 C36.4333,38.3648 36.8943,37.9048 36.8943,37.3348 L36.8943,35.1368 C36.8943,34.5668 36.4333,34.1058 35.8643,34.1058" id="Fill-9" fill="#5CA0DF"></path>
                        <path d="M35.8643,40.7015 C35.2953,40.7015 34.8343,41.1635 34.8343,41.7315 L34.8343,43.9305 C34.8343,44.5005 35.2953,44.9605 35.8643,44.9605 C36.4333,44.9605 36.8943,44.5005 36.8943,43.9305 L36.8943,41.7315 C36.8943,41.1635 36.4333,40.7015 35.8643,40.7015" id="Fill-11" fill="#5CA0DF"></path>
                        <path d="M33.6661,38.5032 L31.4671,38.5032 C30.8981,38.5032 30.4371,38.9652 30.4371,39.5332 C30.4371,40.1042 30.8981,40.5642 31.4671,40.5642 L33.6661,40.5642 C34.2351,40.5642 34.6961,40.1042 34.6961,39.5332 C34.6961,38.9652 34.2351,38.5032 33.6661,38.5032" id="Fill-13" fill="#5CA0DF"></path>
                        <path d="M40.2618,38.5032 L38.0628,38.5032 C37.4938,38.5032 37.0318,38.9652 37.0318,39.5332 C37.0318,40.1042 37.4938,40.5642 38.0628,40.5642 L40.2618,40.5642 C40.8308,40.5642 41.2918,40.1042 41.2918,39.5332 C41.2918,38.9652 40.8308,38.5032 40.2618,38.5032" id="Fill-15" fill="#5CA0DF"></path>
                        <path d="M64.4458,34.1058 C63.8768,34.1058 63.4148,34.5668 63.4148,35.1368 L63.4148,37.3348 C63.4148,37.9048 63.8768,38.3648 64.4458,38.3648 C65.0148,38.3648 65.4768,37.9048 65.4768,37.3348 L65.4768,35.1368 C65.4768,34.5668 65.0148,34.1058 64.4458,34.1058" id="Fill-17" fill="#5CA0DF"></path>
                        <path d="M64.4458,40.7015 C63.8768,40.7015 63.4148,41.1635 63.4148,41.7315 L63.4148,43.9305 C63.4148,44.5005 63.8768,44.9605 64.4458,44.9605 C65.0148,44.9605 65.4768,44.5005 65.4768,43.9305 L65.4768,41.7315 C65.4768,41.1635 65.0148,40.7015 64.4458,40.7015" id="Fill-19" fill="#5CA0DF"></path>
                        <path d="M62.2466,38.5032 L60.0486,38.5032 C59.4796,38.5032 59.0176,38.9652 59.0176,39.5332 C59.0176,40.1042 59.4796,40.5642 60.0486,40.5642 L62.2466,40.5642 C62.8156,40.5642 63.2776,40.1042 63.2776,39.5332 C63.2776,38.9652 62.8156,38.5032 62.2466,38.5032" id="Fill-21" fill="#5CA0DF"></path>
                        <path d="M68.8423,38.5032 L66.6443,38.5032 C66.0743,38.5032 65.6133,38.9652 65.6133,39.5332 C65.6133,40.1042 66.0743,40.5642 66.6443,40.5642 L68.8423,40.5642 C69.4113,40.5642 69.8733,40.1042 69.8733,39.5332 C69.8733,38.9652 69.4113,38.5032 68.8423,38.5032" id="Fill-23" fill="#5CA0DF"></path>
                        <path d="M43.0098,47.2972 C42.1388,47.2972 41.4298,48.0062 41.4298,48.8772 C41.4298,49.7482 42.1388,50.4562 43.0098,50.4562 C43.8808,50.4562 44.5898,49.7482 44.5898,48.8772 C44.5898,48.0062 43.8808,47.2972 43.0098,47.2972" id="Fill-25" fill="#5CA0DF"></path>
                        <path d="M52.354,38.5032 L47.957,38.5032 C47.387,38.5032 46.926,38.9652 46.926,39.5332 C46.926,40.1042 47.387,40.5642 47.957,40.5642 L52.354,40.5642 C52.922,40.5642 53.384,40.1042 53.384,39.5332 C53.384,38.9652 52.922,38.5032 52.354,38.5032" id="Fill-27" fill="#5CA0DF"></path>
                        <path d="M57.3008,47.2972 C56.4288,47.2972 55.7198,48.0062 55.7198,48.8772 C55.7198,49.7482 56.4288,50.4562 57.3008,50.4562 C58.1708,50.4562 58.8808,49.7482 58.8808,48.8772 C58.8808,48.0062 58.1708,47.2972 57.3008,47.2972" id="Fill-29" fill="#5CA0DF"></path>
                    </g>
                </g>
            </g>
        </g>
    </g>
</svg>