<?xml version="1.0" encoding="UTF-8"?>
<svg width="103px" height="103px" viewBox="0 0 103 103" version="1.1" xmlns="http://www.w3.org/2000/svg" xmlns:xlink="http://www.w3.org/1999/xlink">
    <!-- Generator: Sketch 40 (33762) - http://www.bohemiancoding.com/sketch -->
    <title>ic_real estate</title>
    <desc>Created with Sketch.</desc>
    <defs></defs>
    <g id="Page-1" stroke="none" stroke-width="1" fill="none" fill-rule="evenodd">
        <g id="Desktop-HD" transform="translate(-919.000000, -3092.000000)">
            <g id="AREAS-OF-expertise" transform="translate(58.000000, 2761.000000)">
                <g id="real-estate" transform="translate(804.000000, 332.000000)">
                    <g id="ic_real-estate" transform="translate(58.000000, 0.000000)">
                        <path d="M0,50.1527 C0,22.4547 22.454,0.0007 50.152,0.0007 C77.852,0.0007 100.306,22.4547 100.306,50.1527 C100.306,77.8517 77.852,100.3057 50.152,100.3057 C22.454,100.3057 0,77.8517 0,50.1527 L0,50.1527 Z" id="Stroke-1" stroke="#5CA0DF" stroke-width="2"></path>
                        <path d="M46.4297,61.3636 L46.4297,61.2936 C46.8827,62.0906 47.3057,62.8266 47.6887,63.4826 L38.7887,63.4826 L34.2787,72.3156 L66.0267,72.3156 L61.5157,63.4826 L53.1507,63.4826 C53.5227,62.8456 53.9307,62.1336 54.3687,61.3636 L63.1667,61.3636 L70.3137,74.3186 L29.9907,74.3186 L37.1377,61.3636 L46.4297,61.3636 Z M52.1157,65.2496 L60.4427,65.2496 L63.1487,70.5496 L37.1577,70.5496 L39.8627,65.2496 L48.7227,65.2496 C49.2477,66.1366 49.5897,66.6976 49.6697,66.8296 L50.4197,68.0556 L51.1677,66.8296 C51.2487,66.6976 51.5897,66.1366 52.1157,65.2496 L52.1157,65.2496 Z M44.3967,53.8796 C40.0147,45.4856 37.6997,39.4936 37.6997,36.5496 C37.6997,32.4596 39.6097,28.7016 42.7967,26.3126 L42.7967,35.3376 L41.9767,35.3376 L41.9767,37.1016 L59.2037,37.1016 L59.2037,35.3376 L58.2677,35.3376 L58.2677,28.0366 L51.9387,28.0366 L51.9387,23.8586 C58.2497,24.6166 63.1387,30.0176 63.1387,36.5496 C63.1387,39.4926 60.8257,45.4806 56.4457,53.8716 C54.0387,58.4796 51.6097,62.6546 50.4197,64.6566 C49.2317,62.6566 46.8047,58.4866 44.3967,53.8796 L44.3967,53.8796 Z M44.5547,25.2036 C44.5817,25.1906 44.6107,25.1746 44.6387,25.1596 L44.5547,24.9966 L44.5547,19.9106 L50.1807,19.9106 L50.1807,35.3376 L44.5547,35.3376 L44.5547,25.2036 Z M51.9387,35.3366 L56.5097,35.3366 L56.5097,29.8026 L51.9387,29.8026 L51.9387,35.3366 Z M27.0067,76.0846 L73.2977,76.0846 L64.2027,59.5966 L55.3607,59.5966 C59.4017,52.3276 64.8967,41.5306 64.8967,36.5496 C64.8967,29.0456 59.1977,22.8496 51.9387,22.0806 L51.9387,18.1426 L42.7967,18.1426 L42.7967,24.1776 C38.5397,26.8226 35.9417,31.4586 35.9417,36.5496 C35.9417,41.5276 41.4347,52.3276 45.4787,59.5966 L36.1017,59.5966 L27.0067,76.0846 Z" id="Fill-3" fill="#5CA0DF"></path>
                    </g>
                </g>
            </g>
        </g>
    </g>
</svg>