<svg width="50" height="50" viewBox="0 0 50 50" xmlns="http://www.w3.org/2000/svg"><title>fb</title><g fill="none" fill-rule="evenodd"><path d="M0 48.01C0 49.108.89 50 1.99 50h46.02A1.99 1.99 0 0 0 50 48.01V1.99A1.99 1.99 0 0 0 48.01 0H1.99A1.99 1.99 0 0 0 0 1.99v46.02z" fill="#FF8B00"/><path d="M32.027 15.005L29.032 15c-3.37 0-5.545 2.05-5.545 5.23v2.411H20.47c-.262 0-.471.193-.471.434v3.493c0 .238.21.435.471.435h3.016v8.812c0 .241.21.435.468.435h3.935c.262 0 .47-.194.47-.435v-8.812h3.526c.26 0 .47-.197.47-.435l.003-3.493a.422.422 0 0 0-.14-.308.504.504 0 0 0-.333-.126H28.36V20.6c0-.986.257-1.485 1.648-1.485h2.02c.261 0 .472-.192.472-.433V15.44c0-.24-.21-.434-.473-.434" fill="#FFF"/></g></svg>