<svg width="24" height="24" viewBox="0 0 24 24" xmlns="http://www.w3.org/2000/svg"><title>linkedin</title><g fill="none" fill-rule="evenodd"><path d="M.192 21.446c0 1.104.89 2 1.999 2h19.447a1.997 1.997 0 0 0 1.999-2V2c0-1.105-.89-2-1.999-2H2.191C1.087 0 .192.89.192 2v19.446z" fill="#5CA0DF"/><path d="M8.848 9.354H6.545a.184.184 0 0 0-.185.184v7.4c0 .103.082.186.185.186h2.303a.185.185 0 0 0 .185-.185V9.538a.184.184 0 0 0-.185-.184m-1.151-3.68c-.838 0-1.52.682-1.52 1.518 0 .838.682 1.519 1.52 1.519a1.52 1.52 0 0 0 1.52-1.52c0-.835-.683-1.517-1.52-1.517m7.01 3.495c-.925 0-1.609.397-2.024.85v-.481a.184.184 0 0 0-.184-.184h-2.207a.184.184 0 0 0-.184.184v7.401c0 .102.082.184.184.184h2.299a.184.184 0 0 0 .184-.184v-3.662c0-1.234.336-1.715 1.197-1.715.936 0 1.01.771 1.01 1.778v3.599c0 .102.083.184.186.184h2.299a.184.184 0 0 0 .184-.184v-4.06c0-1.834-.35-3.71-2.944-3.71" fill="#FFF"/></g></svg>