<svg width="24" height="24" viewBox="0 0 24 24" xmlns="http://www.w3.org/2000/svg"><title>twitter</title><g fill="none" fill-rule="evenodd"><path d="M.001 21.446c0 1.104.89 2 1.999 2h19.447a1.997 1.997 0 0 0 1.999-2V2c0-1.105-.89-2-1.999-2H2C.896 0 0 .89 0 2v19.446z" fill="#5CA0DF"/><path d="M14.931 14.963h-3.199c-.445 0-.823-.155-1.134-.468a1.546 1.546 0 0 1-.466-1.137v-1.14h4.558a1.45 1.45 0 0 0 1.06-.441 1.45 1.45 0 0 0 .441-1.06c0-.413-.148-.766-.443-1.061a1.45 1.45 0 0 0-1.063-.442h-4.553V6.86c0-.445-.159-.826-.474-1.143a1.54 1.54 0 0 0-1.134-.478c-.454 0-.84.158-1.154.469a1.557 1.557 0 0 0-.472 1.154v6.495c0 1.336.472 2.478 1.417 3.425.946.95 2.086 1.422 3.42 1.422h3.197c.444 0 .825-.16 1.142-.477.317-.317.476-.7.476-1.144a1.56 1.56 0 0 0-.476-1.143 1.559 1.559 0 0 0-1.143-.478" fill="#FFF"/></g></svg>