<svg width="50" height="50" viewBox="0 0 50 50" xmlns="http://www.w3.org/2000/svg"><title>twitter</title><g fill="none" fill-rule="evenodd"><path d="M0 48.01C0 49.108.89 50 1.99 50h46.02A1.99 1.99 0 0 0 50 48.01V1.99A1.99 1.99 0 0 0 48.01 0H1.99A1.99 1.99 0 0 0 0 1.99v46.02z" fill="#FF8B00"/><path d="M36.25 18.32a8.541 8.541 0 0 1-2.504.698 4.408 4.408 0 0 0 1.914-2.442 8.572 8.572 0 0 1-2.77 1.07 4.327 4.327 0 0 0-3.18-1.396c-2.405 0-4.357 1.982-4.357 4.42 0 .344.038.683.11 1.009-3.62-.188-6.832-1.946-8.98-4.618a4.413 4.413 0 0 0-.593 2.219c0 1.534.774 2.887 1.94 3.679a4.334 4.334 0 0 1-1.974-.555v.056c0 2.139 1.503 3.927 3.498 4.334-.368.097-.75.153-1.15.153a3.94 3.94 0 0 1-.82-.083c.557 1.757 2.163 3.037 4.069 3.07a8.66 8.66 0 0 1-5.411 1.89c-.352 0-.698-.022-1.042-.062a12.215 12.215 0 0 0 6.682 1.988c8.016 0 12.4-6.734 12.4-12.573l-.015-.57a8.761 8.761 0 0 0 2.183-2.286" fill="#FFF"/></g></svg>