<svg width="151" height="41" viewBox="0 0 151 41" xmlns="http://www.w3.org/2000/svg" xmlns:xlink="http://www.w3.org/1999/xlink"><title>angular</title><defs><path id="a" d="M19.025 41H0V.314h19.025V41z"/><path id="c" d="M.872 41h19.54V.314H.872V41z"/></defs><g fill="none" fill-rule="evenodd"><path fill="#FFF" d="M44.116 30.176V11.682h2.378l11.302 14.885V11.682h2.261v18.494H57.68l-11.303-15.03v15.03zm34.347-.734a13.719 13.719 0 0 1-4.813.852c-6.694 0-10.041-3.202-10.041-9.63 0-6.077 3.229-9.129 9.688-9.129 1.849 0 3.58.264 5.166.762v2.057a13.428 13.428 0 0 0-4.902-.91c-5.05 0-7.575 2.407-7.575 7.162 0 5.137 2.497 7.691 7.457 7.691.793 0 1.674-.117 2.64-.322v-6.194h2.38v7.661zm3.817-6.398V11.682h2.377v11.362c0 3.55 1.762 5.342 5.312 5.342 3.525 0 5.315-1.792 5.315-5.342V11.682h2.378v11.362c0 4.843-2.554 7.279-7.693 7.279-5.137 0-7.69-2.436-7.69-7.279m22.016-11.362V28.24h9.688v1.936h-12.065V11.682zm13.124 18.494h-2.496l9.188-20.93 9.189 20.93h-2.642l-2.38-5.812h-6.104l.646-1.937h4.665l-3.462-8.365zm18.433 0V11.682h7.898c3.523 0 5.285 1.469 5.285 4.433 0 2.407-1.733 4.198-5.167 5.343l6.34 8.718h-3.14l-5.872-8.307v-1.556c3.523-.558 5.314-1.908 5.314-4.08 0-1.703-.97-2.554-2.936-2.554h-5.284v16.497h-2.438z"/><g transform="translate(0 -.314)"><mask id="b" fill="#fff"><use xlink:href="#a"/></mask><path fill="#FFF" mask="url(#b)" d="M13.85 24.862l-2.375 6.146-4.313.196 11.863-26.07V.314L0 7.064l2.95 25.041L19.026 41V24.862z"/></g><path fill="#FFF" d="M15.407 22.548h3.617V13.32z"/><path fill="#FFF" d="M19.076 22.548h3.816l-3.9-8.853.032-.375v9.228h-.152z"/><g transform="translate(18 -.314)"><mask id="d" fill="#fff"><use xlink:href="#c"/></mask><path fill="#FFF" mask="url(#d)" d="M1.024.314v4.82L.962 5.07l12.254 26.303-4.219-.305-2.608-6.205H.872h.152V41l16.202-9.012 3.186-25.04z"/></g></g></svg>