<svg width="47" height="60" viewBox="0 0 47 60" xmlns="http://www.w3.org/2000/svg"><title>apple</title><path d="M31.867 9.059C34.103 6.658 35.615 3.324 35.202 0c-3.222.115-7.126 1.897-9.438 4.297-2.073 2.126-3.887 5.523-3.403 8.782 3.594.244 7.266-1.623 9.506-4.02zm6.86 22.956c-.068-7.452 5.883-11.032 6.146-11.205-3.346-5.06-8.556-5.753-10.412-5.83-4.436-.468-8.65 2.694-10.903 2.694-2.243 0-5.713-2.634-9.393-2.563-4.837.08-9.295 2.906-11.779 7.384-5.025 9.008-1.288 22.353 3.609 29.66 2.394 3.577 5.244 7.59 8.986 7.445 3.613-.145 4.975-2.41 9.334-2.41 4.36 0 5.582 2.41 9.397 2.337 3.881-.072 6.338-3.646 8.712-7.234 2.746-4.149 3.878-8.165 3.943-8.368-.084-.049-7.56-2.999-7.64-11.91z" fill="#FFF" fill-rule="evenodd"/></svg>