<svg width="172" height="31" viewBox="0 0 172 31" xmlns="http://www.w3.org/2000/svg" xmlns:xlink="http://www.w3.org/1999/xlink"><title>backbone</title><defs><path id="a" d="M10.823 17.31V.48H.713v16.83z"/><path id="c" d="M0 30.639h171.823V-.001H0z"/></defs><g fill="none" fill-rule="evenodd"><path d="M35.974 15.652v7.065h3.852c3.031 0 4.545-1.232 4.545-3.695 0-2.247-1.597-3.37-4.792-3.37h-3.605zm0-1.009h3.605c1.54 0 2.657-.255 3.354-.766.698-.51 1.047-1.313 1.047-2.4 0-1.092-.394-1.883-1.18-2.376-.788-.492-1.962-.738-3.523-.738h-3.303v6.28zm-1.142-7.288h4.49c2.023 0 3.508.343 4.456 1.03.95.686 1.423 1.724 1.423 3.113 0 .948-.29 1.737-.868 2.368-.578.63-1.423 1.036-2.536 1.215v.067c1.305.194 2.267.606 2.883 1.237.616.631.923 1.51.923 2.637 0 1.508-.5 2.667-1.5 3.482-1 .814-2.419 1.22-4.254 1.22h-5.017V7.355zm16.023 9.563h5.856l-2.228-5.901a28.58 28.58 0 0 1-.671-1.925 17.875 17.875 0 0 1-.662 1.947l-2.295 5.879zm6.237 1.029H50.44l-2.285 5.778h-1.264l6.583-16.437h.727l6.45 16.437h-1.288l-2.272-5.778zm12.853-9.796c-2.053 0-3.669.655-4.848 1.97-1.18 1.312-1.769 3.112-1.769 5.396 0 2.336.555 4.151 1.668 5.443 1.112 1.291 2.702 1.935 4.77 1.935 1.373 0 2.635-.175 3.784-.525v1.008c-1.083.38-2.433.57-4.053.57-2.299 0-4.109-.742-5.43-2.229-1.322-1.485-1.982-3.559-1.982-6.223 0-1.666.315-3.132.945-4.4.632-1.27 1.54-2.25 2.722-2.94 1.183-.69 2.558-1.036 4.126-1.036 1.597 0 3.026.3 4.288.895l-.459 1.03a8.31 8.31 0 0 0-3.762-.894m18.262 15.574h-1.4l-6.281-8.644-2.183 1.925v6.719H77.2V7.355h1.142v8.51l1.814-1.814 6.415-6.695h1.456l-6.707 6.92zm3.483-8.073v7.065h3.85c3.031 0 4.546-1.232 4.546-3.695 0-2.247-1.597-3.37-4.791-3.37h-3.606zm0-1.009h3.605c1.537 0 2.654-.255 3.352-.766.698-.51 1.047-1.313 1.047-2.4 0-1.092-.394-1.883-1.18-2.376-.787-.492-1.962-.738-3.521-.738H91.69v6.28zm-1.144-7.288h4.49c2.023 0 3.51.343 4.457 1.03.948.686 1.422 1.724 1.422 3.113 0 .948-.29 1.737-.868 2.368-.578.63-1.423 1.036-2.535 1.215v.067c1.305.194 2.266.606 2.882 1.237.615.631.924 1.51.924 2.637 0 1.508-.5 2.667-1.5 3.482-1 .814-2.418 1.22-4.254 1.22h-5.017V7.355zm14.747 8.163c0 2.344.523 4.155 1.567 5.435 1.045 1.282 2.546 1.92 4.501 1.92 1.971 0 3.477-.633 4.518-1.902 1.042-1.27 1.562-3.087 1.562-5.453 0-2.36-.52-4.167-1.562-5.424-1.041-1.258-2.54-1.887-4.495-1.887-1.949 0-3.451.633-4.507 1.903-1.056 1.269-1.584 3.07-1.584 5.408m13.391 0c0 2.598-.649 4.652-1.949 6.163-1.298 1.513-3.089 2.268-5.374 2.268-2.276 0-4.064-.755-5.363-2.268-1.299-1.511-1.948-3.573-1.948-6.184 0-2.606.655-4.658 1.965-6.155 1.31-1.495 3.099-2.244 5.369-2.244 2.284 0 4.072.752 5.363 2.256 1.291 1.505 1.937 3.559 1.937 6.164m15.654 8.207h-1.154l-9.697-14.533h-.09c.09 1.732.135 3.038.135 3.918v10.615h-1.097V7.355h1.141l9.686 14.512h.067a77.151 77.151 0 0 1-.1-3.831V7.356h1.108v16.369zm13.569 0h-8.945V7.355h8.945V8.41h-7.804v6.19h7.367v1.054h-7.367v7.019h7.804zm3.225-.873c0-.732.299-1.098.895-1.098.613 0 .918.366.918 1.098 0 .73-.305 1.097-.918 1.097-.596 0-.895-.366-.895-1.097m3.28 5.005c-.687 0-1.25-.101-1.69-.303v-.985a6.734 6.734 0 0 0 1.667.224c1.807 0 2.71-.986 2.71-2.956V7.355h1.142v16.37c0 2.753-1.276 4.131-3.829 4.131" fill="#FFF"/><g transform="translate(161 6.639)"><mask id="b" fill="#fff"><use xlink:href="#a"/></mask><path d="M10.823 12.864c0 1.367-.502 2.45-1.506 3.247-1.004.8-2.339 1.198-4.003 1.198-2 0-3.535-.22-4.602-.66v-1.14c1.18.5 2.684.748 4.512.748 1.344 0 2.41-.307 3.197-.923.788-.615 1.181-1.425 1.181-2.424 0-.62-.13-1.133-.392-1.54-.26-.407-.686-.778-1.277-1.114-.589-.336-1.455-.698-2.596-1.086-1.673-.574-2.828-1.197-3.466-1.864-.638-.669-.957-1.558-.957-2.67 0-1.225.48-2.222 1.438-2.996C3.312.867 4.545.481 6.053.481c1.538 0 2.982.291 4.333.873l-.414.986c-1.359-.568-2.658-.85-3.897-.85-1.209 0-2.17.28-2.888.84-.717.56-1.075 1.32-1.075 2.282 0 .606.11 1.102.33 1.49.22.39.581.738 1.081 1.047.5.31 1.358.681 2.575 1.115 1.276.44 2.235.867 2.877 1.282.642.413 1.111.884 1.406 1.41.294.526.442 1.162.442 1.908" fill="#FFF" mask="url(#b)"/></g><path fill="#FFF" d="M0 0v16.569l12.333 7.032v-4.779l-8.25-4.705V6.73l8.25 4.704V7.031zm24.667 0v16.569l-12.334 7.032v-4.779l8.251-4.705V6.73l-8.251 4.704V7.031z"/><mask id="d" fill="#fff"><use xlink:href="#c"/></mask><path fill="#FFF" mask="url(#d)" d="M0 30.639V14.068l12.333-7.03v4.78l-8.25 4.703v7.01l8.25-4.703v4.78zm24.667 0V14.068l-12.334-7.03v4.78l8.251 4.703v7.01l-8.251-4.703v4.78z"/></g></svg>