<svg width="115" height="40" viewBox="0 0 115 40" xmlns="http://www.w3.org/2000/svg"><title>django copy</title><g fill="#FFF" fill-rule="evenodd"><path d="M14.004 14.916c-.728-.238-1.331-.318-2.095-.318-3.145 0-4.96 1.92-4.96 5.28 0 3.282 1.733 5.081 4.92 5.081.683 0 1.246-.04 2.135-.159v-9.884zm0-14.354h6.205V29.08c-3.184.6-5.52.841-8.06.841C4.571 29.92.621 26.52.621 19.998c0-6.28 4.192-10.361 10.68-10.361 1.007 0 1.774.08 2.702.32V.562z"/><path d="M23.877 6.916h6.206V.594h-6.206v6.322zm6.206 3.16V24.36c0 4.92-.362 7.282-1.45 9.322-1.009 1.962-2.337 3.2-5.079 4.56l-5.762-2.72c2.74-1.281 4.07-2.4 4.915-4.122.888-1.76 1.17-3.8 1.17-9.161V10.077h6.206zm13.461 11.202c-4.11.4-5.44 1.041-5.44 2.642 0 1.2.765 1.758 2.458 1.758.928 0 1.773-.079 2.982-.278v-4.122zm-9.712-9.803c2.74-1.278 5.36-1.839 8.222-1.839 3.185 0 5.28.84 6.205 2.481.525.92.686 2.121.686 4.681V29.32c-2.781.4-6.285.681-8.867.681-5.198 0-7.536-1.8-7.536-5.8 0-4.323 3.105-6.322 10.72-6.964v-1.359c0-1.12-.563-1.52-2.135-1.52-2.298 0-4.876.64-7.295 1.88v-4.762zm18.135-.438c3.668-.96 6.693-1.4 9.754-1.4 3.182 0 5.48.72 6.85 2.121 1.292 1.318 1.695 2.758 1.695 5.84V29.68h-6.21V17.838c0-2.36-.803-3.24-3.023-3.24-.841 0-1.607.08-2.859.44V29.68h-6.207V11.037zm33.043 3.6h-.644c-1.21-.04-2.619.279-3.587.88-1.492.84-2.258 2.362-2.258 4.52 0 3.082 1.532 4.842 4.273 4.842.847 0 1.531-.16 2.338-.398v-2.122c0-.72-.04-1.521-.04-2.361l-.041-2.84-.04-2.04v-.481zM72.678 33.04c2.18 1.12 4.356 1.64 6.652 1.64 4.07 0 5.8-1.64 5.8-5.562v-.12c-1.207.6-2.416.84-4.028.84-5.44 0-8.91-3.56-8.91-9.201 0-7.001 5.12-10.961 14.19-10.961 2.66 0 5.117.279 8.099.879L92.356 15c-1.654-.32-.134-.043-1.382-.163v.64l.081 2.6.04 3.362c.04.84.04 1.68.079 2.519v1.682c0 5.28-.442 7.76-1.77 9.802-1.936 3-5.281 4.48-10.037 4.48-2.418 0-4.513-.36-6.69-1.2V33.04zm31.317-7.8c2.378 0 3.787-1.96 3.787-5.362 0-3.36-1.369-5.362-3.747-5.362-2.46 0-3.87 1.961-3.87 5.362.003 3.401 1.41 5.361 3.83 5.361m.12-15.683c6.207 0 9.994 3.88 9.994 10.163 0 6.441-3.947 10.481-10.235 10.481-6.207 0-10.034-3.88-10.034-10.12 0-6.483 3.948-10.524 10.275-10.524"/></g></svg>