<svg width="139" height="49" viewBox="0 0 139 49" xmlns="http://www.w3.org/2000/svg" xmlns:xlink="http://www.w3.org/1999/xlink"><title>ionic</title><defs><path id="a" d="M0 49h138.86V.559H0z"/></defs><g fill="none" fill-rule="evenodd"><path fill="#FFF" d="M61.747 36.943h1.002V17.988h-1.002z"/><g transform="translate(0 -.559)"><path d="M76.983 37.038c-5.114 0-8.977-3.863-8.977-9.014 0-5.15 3.863-9.01 8.977-9.01 5.115 0 8.979 3.86 8.979 9.01 0 5.151-3.864 9.014-8.98 9.014zm0-18.957c-5.687 0-9.978 4.292-9.978 9.943 0 5.69 4.29 9.944 9.978 9.944 5.687 0 9.979-4.255 9.979-9.944 0-5.65-4.292-9.943-9.98-9.943zm28.9 1.896c-2.146-1.753-4.72-1.895-6.045-1.895-3.004 0-6.332 1.395-7.51 4.114h-.072v-3.65h-1.002v18.956h1.002V26.594c0-4.758 2.932-7.581 7.69-7.581 2.861 0 4.398.929 5.365 1.787 1.431 1.288 2.324 3.398 2.324 6.688v10.014h1.002V27.488c0-3.398-.895-5.938-2.754-7.511" fill="#FFF"/><mask id="b" fill="#fff"><use xlink:href="#a"/></mask><path fill="#FFF" mask="url(#b)" d="M114.182 37.502h1V18.547h-1zm15.235-.464c-4.829 0-8.978-3.648-8.978-9.014 0-2.575 1.074-5.078 2.613-6.474 1.964-1.75 3.718-2.537 6.401-2.537 3.72 0 7.01 2.073 8.297 5.685h1.11c-1.503-4.47-5.58-6.617-9.444-6.617-5.757 0-9.978 4.363-9.978 9.98 0 5.902 4.47 9.907 9.979 9.907 4.507 0 8.083-2.576 9.405-6.438h-1.107c-.93 2.825-4.006 5.508-8.298 5.508M62.248 11.589a1.082 1.082 0 1 1 0 2.164 1.082 1.082 0 0 1 0-2.164m52.434 0a1.081 1.081 0 1 1-.002 2.162 1.081 1.081 0 0 1 .002-2.162M24.22 14.89c5.462 0 9.89 4.428 9.89 9.889 0 5.462-4.428 9.889-9.89 9.889-5.46 0-9.888-4.427-9.888-9.89 0-5.46 4.428-9.887 9.889-9.887"/><path d="M24.22 48.185c-12.905 0-23.405-10.5-23.405-23.406 0-12.906 10.5-23.407 23.406-23.407a23.284 23.284 0 0 1 14.005 4.665 3.4 3.4 0 0 0 4.736 4.737 23.28 23.28 0 0 1 4.664 14.005c0 12.906-10.5 23.406-23.405 23.406M44.403 7.999A3.402 3.402 0 0 0 41 4.598c-.851 0-1.628.316-2.225.833A24.097 24.097 0 0 0 24.22.559C10.866.559 0 11.424 0 24.779c0 13.356 10.866 24.22 24.22 24.22 13.356 0 24.223-10.864 24.223-24.22a24.101 24.101 0 0 0-4.874-14.555 3.38 3.38 0 0 0 .834-2.225" fill="#FFF" mask="url(#b)"/></g></g></svg>