<svg width="146" height="36" viewBox="0 0 146 36" xmlns="http://www.w3.org/2000/svg" xmlns:xlink="http://www.w3.org/1999/xlink"><title>knockout</title><defs><path id="a" d="M6.206 6.075V.649H.83v5.426h5.376z"/><path id="c" d="M0 33h140.222V.162H0z"/></defs><g fill="none" fill-rule="evenodd"><path d="M77.123 26.296c.26.041.515.082.771.146.32.09.632-.079.947-.122.714-.179 1.188-.765 1.657-1.286.57-.992.925-2.086 1.37-3.136.075-.212.159-.42.25-.625a9.79 9.79 0 0 1 .249-.625c.073-.21.16-.418.25-.623.073-.21.157-.42.243-.627a5.27 5.27 0 0 1 .29-.63c-.01-.04-.032-.12-.041-.16.538.91 1.186 1.751 1.717 2.667.084.125.17.251.252.377.084.123.165.25.25.376.084.124.165.25.25.376.084.125.165.25.25.375l1.894 2.855c.178.296.469.49.747.682.453.174.91.153 1.365.004.663-.282 1.157-.829 1.534-1.424.07-.357.226-.715.133-1.08-.142-.497-.4-.945-.642-1.395-.091-.126-.177-.254-.263-.379a11.38 11.38 0 0 1-.368-.617c-.3-.453-.611-.902-.874-1.376a12.39 12.39 0 0 1-.623-.997c-.088-.126-.17-.255-.252-.384-.14-.208-.278-.418-.416-.625.831-.627 1.653-1.27 2.513-1.863a7.7 7.7 0 0 1 .508-.373c.38-.33.761-.663 1.078-1.059a2.4 2.4 0 0 0 .334-2.32c-.24-.419-.631-.7-1.043-.938-.582-.04-1.184-.08-1.734.145-.168.091-.338.178-.504.265-1.621 1.12-3.166 2.342-4.74 3.524a7.57 7.57 0 0 1 .134-.393c.079-.212.163-.42.252-.626.076-.21.161-.42.25-.625.076-.21.16-.419.25-.624.075-.212.16-.42.25-.624a8.75 8.75 0 0 1 .25-.625c.075-.21.16-.418.248-.624.077-.212.16-.418.25-.625.077-.21.16-.417.25-.625.077-.21.16-.417.25-.623.077-.21.159-.418.248-.624.079-.21.162-.419.252-.624.077-.21.159-.419.248-.625.076-.209.16-.418.25-.624.076-.21.16-.419.25-.624.076-.21.16-.419.25-.626.075-.21.16-.417.25-.624.076-.21.159-.419.249-.623.076-.213.162-.422.255-.626.111-.34.23-.68.385-1.003.119-.537.244-1.088.011-1.616-.294-.524-.772-.918-1.315-1.169-.4-.003-.8-.004-1.198.004-.885.248-1.563.917-2.007 1.7-.171.46-.352.915-.542 1.367-.076.211-.16.42-.25.624-.076.212-.16.418-.248.624-.076.212-.163.42-.25.624-.079.211-.16.42-.25.624-.076.211-.16.42-.249.625-.077.211-.161.42-.251.625-.157.418-.326.835-.5 1.248-.076.211-.16.42-.249.624-.075.211-.16.42-.25.624-.075.211-.16.42-.247.625-.078.21-.162.418-.25.624-.078.211-.162.42-.25.624-.076.21-.162.42-.25.626a9.436 9.436 0 0 1-.25.624c-.076.21-.16.418-.248.624-.079.211-.163.42-.25.624-.079.212-.16.418-.25.625-.077.212-.16.418-.25.625-.077.21-.16.417-.249.623-.078.212-.161.42-.25.625-.078.211-.161.42-.25.624-.078.21-.161.42-.25.624-.075.211-.16.42-.25.624a13.57 13.57 0 0 1-.247.626c-.078.21-.162.418-.25.624-.078.21-.16.418-.248.623-.079.211-.165.417-.25.626-.079.21-.165.417-.252.623-.076.21-.162.42-.25.624-.076.21-.16.417-.246.624-.079.212-.168.42-.258.625-.195.675-.614 1.403-.302 2.107.148.502.597.814.972 1.138m32.671-1.249c.39.402.893.661 1.396.888.135.045.266.092.401.147 1.558.058 3.123.062 4.682.001.128-.056.26-.106.392-.153.168-.083.338-.166.51-.246.27-.24.535-.49.791-.746.01.053.025.162.033.216.334.386.721.723 1.19.934 1.117.058 2.236.021 3.353.031.832-.015 1.68.066 2.486-.178.17-.088.34-.173.514-.258.375-.226.678-.544.914-.915.131-.383.164-.786.252-1.18-.064-.239-.086-.489-.156-.726-.127-.31-.4-.516-.633-.742-1.213-.395-2.494-.244-3.746-.272a51.41 51.41 0 0 1 1.141-2.824c.074-.212.158-.42.248-.625.078-.21.16-.419.25-.624.076-.21.16-.418.25-.624.076-.21.16-.418.248-.624.078-.21.16-.419.25-.625.078-.21.164-.418.257-.625.235-.754.606-1.509.534-2.32a6.69 6.69 0 0 1-.164-.395c-.03-.068-.088-.2-.116-.267a3.368 3.368 0 0 0-1.04-.806 9.619 9.619 0 0 0-1.47.003c-.529.262-1.023.598-1.406 1.05-.084.13-.168.26-.256.387a18.25 18.25 0 0 0-.625 1.252c-.074.213-.158.423-.246.631-.076.21-.164.418-.25.624-.078.211-.162.417-.25.623-.076.212-.162.418-.248.624-.08.212-.162.42-.25.624-.078.211-.162.42-.25.625-.078.21-.162.42-.25.625-.078.211-.162.418-.248.624-.078.211-.162.42-.248.627-.193.67-.644 1.225-1.219 1.61-.507.254-1.064.467-1.638.436-.383 0-.807.046-1.108-.236-.189-.302-.158-.648-.05-.969l.142-.372.123-.374c.04-.116.078-.233.115-.35.061-.133.118-.268.18-.4a7.27 7.27 0 0 1 .246-.627c.073-.212.16-.42.25-.625.156-.419.326-.836.5-1.249.073-.212.158-.419.248-.624a7.75 7.75 0 0 1 .252-.624c.156-.42.323-.84.508-1.252.168-.514.184-1.05.154-1.587-.173-.335-.36-.677-.662-.919-.638-.589-1.613-.509-2.38-.259a4.655 4.655 0 0 0-1.415 1.415c-.17.333-.338.666-.498 1.004-.07.214-.154.423-.242.631-.08.21-.164.417-.252.623-.078.212-.16.42-.25.624-.076.211-.16.42-.248.623-.078.213-.162.42-.252.625-.076.212-.16.418-.248.625-.078.211-.162.417-.25.624-.076.211-.162.418-.252.625a9.41 9.41 0 0 1-.248.624c-.076.21-.162.418-.254.623-.199.571-.406 1.14-.525 1.732-.039.625-.04 1.258.14 1.864.24.5.49 1.01.893 1.398m19.246.898c1.06.29 2.167.133 3.252.174 1.077-.035 2.178.108 3.23-.174.367-.178.695-.416 1.025-.657.15-.239.323-.47.423-.739.208-.473.113-1.003.115-1.505-.14-.22-.285-.44-.424-.659a79.143 79.143 0 0 0-.767-.389c-1.069-.252-2.17-.107-3.257-.153.042-.044.125-.125.167-.166a5.59 5.59 0 0 1 .246-.657c.076-.21.16-.418.25-.623.076-.211.16-.418.25-.622a9.09 9.09 0 0 1 .25-.627c.075-.21.158-.418.248-.625.077-.21.16-.418.25-.625.078-.209.16-.416.25-.622.077-.212.159-.418.249-.625.08-.218.172-.43.274-.636.012-.07.036-.213.046-.284.928-.014 1.865.074 2.774-.149.683-.29 1.363-.694 1.673-1.409.124-.531.263-1.114.031-1.639-.11-.421-.487-.666-.827-.886a7.142 7.142 0 0 1-.404-.152c-.525-.035-1.055-.008-1.576-.1l.212-.368c.151-.426.351-.833.556-1.237.078-.255.164-.508.256-.758.103-.39.188-.784.15-1.187a10.644 10.644 0 0 1-.167-.402c-.025-.067-.084-.202-.111-.27a3.356 3.356 0 0 0-1.043-.803c-.662-.045-1.344-.069-1.974.18a8.135 8.135 0 0 0-1.163 1.131c-.125.25-.25.503-.371.755a8.538 8.538 0 0 1-.246.629 11.29 11.29 0 0 1-.252.623c-.076.213-.16.42-.248.626-.21.363-.206.963-.624 1.128-.745.034-1.501-.03-2.222.193-.662.283-1.237.748-1.545 1.41-.025.259-.088.511-.137.767-.058.335.086.654.142.978.42.82 1.433.998 2.267.942-.37.802-.66 1.636-1.005 2.447-.076.21-.16.418-.248.625-.077.209-.161.416-.25.622-.077.212-.161.419-.247.625-.08.21-.165.419-.252.625-.077.21-.16.418-.248.622-.228.544-.478 1.076-.58 1.663-.207.517-.005 1.052.06 1.573.308.66.883 1.125 1.543 1.41M62.72 23.9c.31.33.543.73.901 1.015.324.26.664.498 1.015.72.253.09.505.186.751.297.174.04.348.083.518.147 2.346.08 4.693.03 7.041.03.491.037.948-.142 1.403-.294.06-.035.185-.101.246-.135.168-.135.338-.266.515-.392.13-.18.264-.356.408-.526a8.77 8.77 0 0 0 .262-1.101c-.047-.245-.107-.49-.138-.736l-.137-.282a8.384 8.384 0 0 0-.656-.522c-.406-.107-.815-.225-1.234-.27-1.625-.015-3.252.016-4.876-.012-.709-.124-1.512-.218-2.037-.765-.488-.645-.617-1.527-.42-2.303.026-.487.213-.944.42-1.382.097-.162.194-.324.296-.483.365-.527.768-1.057 1.363-1.337.417-.285.934-.218 1.411-.207.36.045.603.345.763.645.01.228.027.456.07.678.1.573-.06 1.19.203 1.735.571.709 1.598.858 2.417.537.17-.092.342-.182.515-.27.168-.171.337-.342.506-.517.083-.133.167-.268.257-.398.077-.211.164-.42.26-.622.39-1.435.145-3.037-.764-4.234-.556-.62-1.263-1.077-2.023-1.403-.96-.372-1.994-.305-3.003-.28-.86.06-1.668.39-2.458.716-.25.157-.504.312-.762.455a11.928 11.928 0 0 0-2.527 2.524 8.849 8.849 0 0 1-.378.624c-.178.328-.343.664-.508.999-.735 1.938-.922 4.116-.254 6.099.203.42.411.839.634 1.25m35.317-6.147c.445-.88 1.104-1.685 2-2.127.514-.162 1.072-.379 1.61-.177.675.101 1.169.65 1.468 1.226.299 1.026.162 2.14-.262 3.111-.093.173-.191.345-.293.512-.084.125-.164.25-.246.374-.244.372-.57.688-.955.912-.443.244-.943.28-1.433.347-.758-.055-1.676-.183-2.08-.923-.565-1.019-.28-2.259.19-3.255m-4.231 6.022c.484.644 1.019 1.276 1.72 1.694.37.227.8.327 1.205.48.414-.005.805.168 1.22.147 1.448.008 2.91.104 4.343-.15.252-.095.51-.182.769-.259.25-.127.498-.253.75-.379 1.108-.686 1.977-1.677 2.653-2.782.216-.41.427-.827.625-1.249.072-.215.156-.426.254-.632.57-1.71.76-3.582.252-5.329a7.038 7.038 0 0 1-.26-.634 10.887 10.887 0 0 1-.166-.367 6.465 6.465 0 0 0-2.983-2.674c-1.226-.5-2.562-.46-3.86-.39-1.1.182-2.151.59-3.114 1.148a52.87 52.87 0 0 1-.381.261c-.756.53-1.385 1.211-2.014 1.881a7.96 7.96 0 0 1-.373.511 43.13 43.13 0 0 0-.262.38c-.27.49-.515.991-.757 1.497-.076.252-.16.503-.246.754-.041.172-.08.347-.135.518-.256 1.516-.264 3.11.252 4.576.168.333.334.667.508.998" fill="#FFF"/><g transform="translate(139 20.559)"><mask id="b" fill="#fff"><use xlink:href="#a"/></mask><path d="M5.923 2.111A3.427 3.427 0 0 0 4.52.823a8.875 8.875 0 0 1-.416-.149C3.378.6 2.646.675 2.02 1.07c-.262.256-.522.515-.776.78-.082.171-.166.34-.246.511-.05.135-.1.27-.156.403-.006.361-.022.723 0 1.082a2.943 2.943 0 0 0 1.31 1.9l.251.14c.8.274 1.726.265 2.49-.129.31-.289.617-.584.9-.906.082-.172.17-.342.26-.512.252-.736.185-1.523-.129-2.228" fill="#FFF" mask="url(#b)"/></g><g transform="translate(0 2.559)"><mask id="d" fill="#fff"><use xlink:href="#c"/></mask><path d="M139.677 28.192a35.956 35.956 0 0 1-.787-.39c-.332-.027-.65-.153-.984-.15-36.915.002-73.828 0-110.74.002-.716-.01-1.478-.306-1.88-.923a6.18 6.18 0 0 1-.23-.496c-.157-.374-.276-.76-.423-1.137l-.054-.227a7.3 7.3 0 0 1-.387-1.01c-.197-.445-.343-.91-.498-1.373-.2-.443-.343-.909-.5-1.372-.2-.444-.343-.912-.499-1.373-.2-.445-.343-.91-.499-1.372-.2-.447-.343-.913-.499-1.373-.2-.448-.349-.913-.496-1.378l-.234-.506c.722-.766 1.503-1.473 2.174-2.284.627-.663 1.276-1.304 1.91-1.96.793-.948 1.71-1.785 2.554-2.686.562-.684 1.211-1.293 1.825-1.93.54-.505.974-1.106 1.494-1.63.084-.13.17-.259.258-.385.184-.336.35-.685.534-1.019 0-.498.093-1.022-.115-1.492-.223-.604-.774-1.01-1.33-1.287-.714-.06-1.45-.074-2.09.285-.256.172-.512.343-.77.508-1.606 1.482-3.006 3.163-4.565 4.69-.86 1.05-1.907 1.931-2.775 2.977-.737.8-1.55 1.53-2.245 2.368-.425.471-.913.888-1.299 1.395.216-.383.353-.8.55-1.193.108-.339.23-.676.38-1.003.281-.93.575-1.87.658-2.845.025-.875.052-1.758-.15-2.616-.144-.372-.295-.74-.435-1.115-.575-1.02-1.422-1.857-2.36-2.542-.75-.439-1.554-.76-2.38-1.01-.25-.024-.493-.087-.737-.136-1.5-.073-3.039-.11-4.479.385-.248.091-.498.177-.75.255-.503.241-1.003.49-1.495.755-.125.09-.255.177-.382.261-1.105.761-2.066 1.71-2.89 2.764-.165.253-.333.501-.502.75-.163.295-.34.583-.516.872-.12.295-.235.594-.37.884C.32 8.023.19 8.978.024 9.912a10.237 10.237 0 0 0 .394 3.553c.137.291.25.593.37.894.594 1.008 1.304 1.976 2.287 2.641.216.118.431.241.64.373.211.081.42.166.623.263.964.24 2.015.288 2.975.011 1.053-.464 1.863-1.572 1.682-2.757a14.347 14.347 0 0 1-.164-.394 10.398 10.398 0 0 0-.112-.272 3.901 3.901 0 0 0-1.028-.769c-.272-.078-.53-.196-.788-.307A3.474 3.474 0 0 1 5.4 11.781c-.255-.447-.285-.953-.319-1.453.06-.368.015-.752.127-1.11.323-1.523 1.427-2.782 2.716-3.59.161-.093.33-.174.497-.252.745-.332 1.58-.394 2.38-.28a2.85 2.85 0 0 1 1.81 1.358c.25.648.151 1.377-.026 2.032a19.24 19.24 0 0 1-.92 2.641c-.077.211-.16.42-.249.626-.077.21-.163.417-.25.624-.078.21-.162.417-.25.623-.077.212-.162.418-.25.624-.077.211-.162.42-.25.625-.077.21-.16.42-.25.622-.077.212-.162.42-.25.624a9.944 9.944 0 0 1-.253.625c-.28.711-.55 1.427-.87 2.122-.076.212-.16.422-.248.627a13.3 13.3 0 0 1-.25.624c-.078.21-.162.417-.25.624-.078.21-.162.417-.25.625-.078.21-.162.416-.25.623a10.53 10.53 0 0 1-.252.623 9.83 9.83 0 0 1-.249.622c-.077.213-.16.42-.25.625a10.29 10.29 0 0 1-.252.624c-.358.77-.526 1.614-.408 2.461.098.176.193.353.284.533a4.19 4.19 0 0 0 1.018.778c.213.034.42.093.633.138.513.08 1.001-.137 1.486-.265l.246-.139c.647-.404 1.093-1.028 1.488-1.669.08-.169.16-.337.242-.505.097-.246.192-.492.298-.734.076-.212.16-.419.25-.627.076-.209.16-.416.25-.623a9.3 9.3 0 0 1 .25-.623c.076-.21.16-.42.25-.623.076-.213.161-.42.25-.624.077-.212.16-.419.252-.625a20.37 20.37 0 0 1 .62-1.499c.075-.212.16-.42.247-.625.08-.21.163-.419.251-.625.078-.209.162-.419.25-.625.078-.209.163-.418.251-.624.077-.21.16-.417.247-.624a5.62 5.62 0 0 1 .275-.627c.031-.162.062-.322.09-.483.224.524.415 1.063.591 1.605.15.326.266.664.376 1.003.168.37.285.76.432 1.14.013.057.042.17.054.226.161.323.276.665.388 1.006.197.446.342.912.498 1.372.201.444.345.912.501 1.373.147.324.264.662.374 1.002.17.37.285.76.433 1.14l.054.225c.215.44.353.912.512 1.376.29.707.538 1.43.808 2.141l.053.226c.118.242.216.493.314.744.144.3.296.595.446.894.353.483.655 1.04 1.187 1.352.41.287.905.638 1.367.814.453-.018.883.381 1.334.381h111.873c.557 0 1.08-.485 1.608-.645.523-.322.976-.873 1.281-1.409.047-.136.098-.325.154-.456.03-.484.026-.998.008-1.482-.156-.278-.318-.579-.53-.816" fill="#FFF" mask="url(#d)"/></g><path d="M30.758 12.68l-.25.499c-.73 1.88-1.49 3.753-2.243 5.626a9.398 9.398 0 0 1-.25.623 9.79 9.79 0 0 1-.248.625c-.076.21-.16.418-.248.623-.077.21-.161.419-.25.624-.078.212-.161.419-.25.625-.076.21-.16.418-.248.623a9.002 9.002 0 0 1-.257.625 3.847 3.847 0 0 0-.28 2.09c.038.069.119.206.157.275.282.33.62.612 1.025.785.319.038.629.209.954.12a5.6 5.6 0 0 1 .66-.122c.613-.234 1.108-.665 1.526-1.161.138-.266.294-.523.455-.778.918-2.248 1.76-4.526 2.74-6.748.13-.246.264-.49.408-.728.55-.775 1.34-1.547 2.37-1.461.17.019.34.035.515.047.246.148.475.323.673.533.059.579-.071 1.14-.333 1.658a13.91 13.91 0 0 1-.25.622c-.08.21-.163.419-.251.626-.076.21-.161.418-.251.62a9.46 9.46 0 0 1-.25.625c-.076.212-.16.419-.251.625-.16.42-.323.839-.508 1.249-.062.208-.131.414-.188.625a2.871 2.871 0 0 0-.078.114c-.014.27-.037.54-.117.8.07.265.099.537.117.81.179.329.346.674.602.953.352.324.799.51 1.217.734 1.978.054 3.959.057 5.937-.003.25-.106.509-.194.77-.273.447-.27.82-.637 1.145-1.044.179-.647.289-1.344.03-1.986a2.873 2.873 0 0 0-1.044-.786c-1.104-.246-2.24-.113-3.363-.146.613-1.573 1.218-3.15 1.896-4.696.225-.645.45-1.295.534-1.976.058-.598-.125-1.181-.27-1.753-.315-.6-.788-1.083-1.29-1.526-.484-.283-1.01-.468-1.537-.653-.608-.016-1.22-.057-1.827.003-.508.096-.996.269-1.481.445-.343.186-.671.398-1.014.588-.177.123-.357.244-.533.37a2.936 2.936 0 0 0-.98-1.015c-.625-.257-1.312-.17-1.97-.142-.574.264-1.084.644-1.421 1.187m20.212 5.084c.36-.722.862-1.378 1.525-1.845.446-.31.968-.49 1.505-.553.302-.008.588.11.887.138.5.24.902.655 1.158 1.147.376 1.307.097 2.769-.674 3.885-.3.472-.714.867-1.214 1.116-.846.352-1.821.34-2.67.006-.336-.242-.694-.511-.836-.916-.325-.984-.127-2.065.319-2.978m-4.732 5.01a6.68 6.68 0 0 0 1.772 2.402c.815.635 1.86.813 2.86.918 1.456.014 2.927.108 4.365-.147.826-.233 1.578-.65 2.27-1.15 1.183-1.014 2.029-2.352 2.647-3.77.118-.382.246-.761.382-1.136.065-.622.314-1.218.28-1.848-.005-.498.016-.995-.016-1.49a13.068 13.068 0 0 0-.39-1.622c-.131-.25-.257-.502-.385-.752a20.163 20.163 0 0 1-.508-.762 40.98 40.98 0 0 0-.884-.885c-.485-.33-.974-.653-1.51-.893-.525-.173-1.06-.336-1.612-.4-.995-.034-2-.072-2.977.15a34.49 34.49 0 0 1-1.14.377c-.416.203-.832.41-1.24.634-.128.088-.257.173-.386.26-1.096.829-2.056 1.835-2.775 3.013-.174.33-.342.664-.502 1.002-.072.216-.157.43-.253.638-.488 1.645-.58 3.415-.127 5.08.045.126.089.253.129.382" fill="#FFF"/></g></svg>