<svg width="141" height="39" viewBox="0 0 141 39" xmlns="http://www.w3.org/2000/svg" xmlns:xlink="http://www.w3.org/1999/xlink"><title>MongoDB-Logo</title><defs><path d="M3.114.022l-.993.33S2.247 5.39.435 5.742C-.761 7.13.619 65.04 4.96 5.941c0 0-1.486-.748-1.767-2.019-.282-1.27-.08-3.9-.08-3.9z" id="a"/><path d="M1.528.003S10.158 5.7 8.136 17.53c-1.947 8.596-6.544 11.421-7.038 12.5-.544.763-1.091 2.116-1.091 2.116L.374 8.198S-.386.886 1.528.003z" id="c"/><path d="M7.681.017S-.413 5.552.052 15.317c.466 9.766 6.183 14.568 7.297 15.439.72.769.75 1.065.805 1.824.505-1.086.42-16.226.474-17.996.208-6.888-.38-13.266-.947-14.567z" id="e"/><linearGradient x1="-9.624%" y1="43.904%" x2="152.344%" y2="53.689%" id="g"><stop stop-color="#FFF" offset="0%"/><stop stop-color="#FFF" offset="100%"/></linearGradient></defs><g fill="none" fill-rule="evenodd"><g transform="matrix(1 0 0 -1 6.563 37.86)"><mask id="b" fill="#fff"><use xlink:href="#a"/></mask><g mask="url(#b)" fill="#FFF"><path d="M3.114.022l-.993.33S2.247 5.39.435 5.742C-.761 7.13.619 65.04 4.96 5.941c0 0-1.486-.748-1.767-2.019-.282-1.27-.08-3.9-.08-3.9"/></g></g><g transform="matrix(1 0 0 -1 8.684 32.977)"><mask id="d" fill="#fff"><use xlink:href="#c"/></mask><g mask="url(#d)" fill="#FFF"><path d="M1.528.003S10.158 5.7 8.136 17.53c-1.947 8.596-6.544 11.421-7.038 12.5-.544.763-1.091 2.116-1.091 2.116L.374 8.198S-.386.886 1.528.003"/></g></g><g transform="matrix(1 0 0 -1 .497 33.31)"><mask id="f" fill="#fff"><use xlink:href="#e"/></mask><g mask="url(#f)" fill="url(#g)"><path d="M7.681.017S-.413 5.552.052 15.317c.466 9.766 6.183 14.568 7.297 15.439.72.769.75 1.065.805 1.824.505-1.086.42-16.226.474-17.996.208-6.888-.38-13.266-.947-14.567"/></g></g><path d="M105.988 30.14c.572.458 1.717.647 2.726.647 1.309 0 2.59-.243 3.844-1.376 1.281-1.16 2.154-2.942 2.154-5.775 0-2.726-1.036-4.94-3.162-6.235-1.2-.755-2.754-1.052-4.526-1.052-.518 0-1.036.027-1.336.162-.082.054-.246.27-.246.378-.054.486-.054 4.183-.054 6.369 0 2.24 0 5.37.054 5.748.028.324.191.89.546 1.134zm-5.442-15.005c.463 0 2.224.08 3.043.08 1.526 0 2.59-.08 5.452-.08 2.4 0 4.417.647 5.862 1.889 1.745 1.511 2.672 3.616 2.672 6.18 0 3.643-1.663 5.748-3.326 6.936-1.664 1.24-3.817 1.943-6.898 1.943-1.636 0-4.445-.054-6.79-.081h-.031c-.11-.216.2-1.058.392-1.08.634-.072.806-.096 1.1-.218.495-.204.612-.456.667-1.347.081-1.673.054-3.67.054-5.937 0-1.62.027-4.777-.027-5.776-.082-.836-.436-1.052-1.145-1.214-.355-.08-.845-.162-1.527-.243-.054-.162.366-.89.502-1.052zm24.249 1.322c-.109.027-.246.297-.246.432a267.85 267.85 0 0 0-.054 5.262c0 .054.082.135.137.135.354.027 1.226.054 1.962.054 1.036 0 1.637-.135 1.963-.297.873-.431 1.281-1.376 1.281-2.401 0-2.348-1.635-3.239-4.061-3.239-.164 0-.628 0-.982.054zm6.189 10.795c0-2.375-1.745-3.724-4.935-3.724-.136 0-1.145-.027-1.39.027-.082.027-.164.08-.164.135 0 1.7-.027 4.426.054 5.505.055.459.383 1.107.791 1.295.437.243 1.418.297 2.1.297 1.88 0 3.544-1.052 3.544-3.535zM119.87 15.135c.245 0 .971.08 2.825.08 1.745 0 3.162-.053 4.852-.053 2.1 0 4.99.755 4.99 3.886 0 1.538-1.09 2.78-2.508 3.373-.082.027-.082.081 0 .108 2.017.513 3.79 1.754 3.79 4.13 0 2.32-1.446 3.777-3.545 4.695-1.281.567-2.862.756-4.472.756-1.226 0-4.514-.135-6.34-.108-.192-.081.174-.945.337-1.08.437-.027.773-.058 1.237-.193.654-.162.731-.373.813-1.345.055-.836.055-3.832.055-5.964 0-2.915.027-4.885 0-5.856-.027-.756-.3-.999-.818-1.134-.409-.08-1.09-.162-1.635-.243-.137-.135.283-.944.419-1.052zM22.334 32.07c-.045-.072-.093-.287-.083-.545.008-.196.046-.32.083-.364a9.014 9.014 0 0 0 1.047-.213c.482-.12.663-.381.692-.999.079-1.455.084-4.185.055-6.104v-.057c.002-.206.005-.487-.253-.686-.378-.25-.85-.456-1.446-.635-.228-.068-.354-.188-.347-.329.007-.135.15-.307.448-.365.789-.081 2.859-.575 3.671-.95a.537.537 0 0 1 .11.387l-.021.266c-.024.272-.05.58-.05.886 0 .09.098.175.202.175.052 0 .101-.02.14-.06 1.549-1.214 2.933-1.647 3.646-1.647 1.171 0 2.083.56 2.787 1.712.041.061.097.093.159.093.059 0 .115-.03.147-.079 1.424-1.08 2.835-1.726 3.778-1.726 2.232 0 3.565 1.673 3.565 4.474 0 .804-.009 1.825-.016 2.777-.006.835-.012 1.619-.012 2.16 0 .132.175.497.44.57.326.159.798.24 1.393.343l.023.003c.045.16-.05.785-.14.913-.148 0-.352-.012-.607-.024a34.485 34.485 0 0 0-1.838-.056c-1.483 0-2.258.029-2.998.077-.056-.186-.076-.783-.008-.908.432-.08.645-.135.905-.212.472-.156.607-.37.635-.998.01-.447.096-4.375-.055-5.307-.14-.967-.868-2.098-2.46-2.098-.59 0-1.544.246-2.453.936a.364.364 0 0 0-.089.232l.002.017c.107.504.107 1.091.107 1.98 0 .506-.003 1.043-.006 1.576-.007 1.083-.012 2.106.006 2.878 0 .527.318.653.574.754.139.031.249.058.36.084.214.052.435.105.764.158.044.104.048.414-.013.679-.035.146-.074.21-.095.232a77.655 77.655 0 0 0-2.892-.053c-.37 0-.974.016-1.507.03-.432.011-.842.023-1.074.024-.034-.054-.081-.225-.081-.47 0-.23.042-.39.085-.44l.328-.06c.286-.05.534-.094.77-.153.405-.123.557-.348.586-.863.079-1.2.14-4.66-.03-5.527-.288-1.39-1.079-2.095-2.349-2.095-.744 0-1.684.359-2.452.936-.13.095-.227.334-.227.555 0 .412 0 .903-.003 1.429-.005 1.737-.01 3.9.031 4.836.026.288.126.63.668.756.118.033.323.068.56.107l.44.075c.055.149.021.732-.073.914a25.648 25.648 0 0 1-.863-.03 40.218 40.218 0 0 0-1.87-.051c-.852 0-1.446.028-1.922.05-.32.016-.597.03-.874.03m27.048-10.093c-.496 0-.96.13-1.304.367-.947.576-1.429 1.727-1.429 3.418 0 3.166 1.584 5.377 3.85 5.377.67 0 1.215-.192 1.668-.588.697-.57 1.066-1.732 1.066-3.359 0-3.12-1.548-5.215-3.85-5.215zm.437 10.337c-4.097 0-5.556-3.009-5.556-5.823 0-1.966.803-3.504 2.388-4.57 1.126-.692 2.47-1.091 3.686-1.091 3.126 0 5.31 2.25 5.31 5.472 0 2.19-.873 3.92-2.524 5-.791.487-2.164 1.012-3.304 1.012zM91.8 21.977c-.497 0-.96.13-1.305.367-.946.576-1.428 1.727-1.428 3.418 0 3.166 1.583 5.377 3.85 5.377.67 0 1.214-.192 1.668-.589.696-.569 1.065-1.73 1.065-3.357 0-3.12-1.547-5.216-3.85-5.216zm.436 10.337c-4.096 0-5.556-3.008-5.556-5.823 0-1.967.804-3.504 2.389-4.57 1.126-.693 2.47-1.091 3.685-1.091 3.126 0 5.31 2.25 5.31 5.472 0 2.191-.873 3.92-2.523 5-.792.487-2.165 1.012-3.305 1.012zM78.092 21.87c-1.262 0-2.078.998-2.078 2.543 0 1.56.702 3.38 2.679 3.38.34 0 .955-.151 1.26-.488.459-.422.759-1.296.759-2.218 0-2.015-.98-3.217-2.62-3.217zm-.163 10.66c-.474 0-.819.137-1.025.253-1 .642-1.463 1.282-1.463 2.02 0 .695.27 1.248.85 1.74.701.595 1.647.884 2.892.884 2.448 0 3.546-1.318 3.546-2.624 0-.91-.456-1.519-1.393-1.863-.722-.265-1.93-.41-3.407-.41zm.163 6.26c-1.47 0-2.53-.31-3.435-1.007-.88-.68-1.275-1.69-1.275-2.387 0-.2.048-.718.483-1.214.256-.291.85-.837 2.22-1.78a.113.113 0 0 0 .072-.109.112.112 0 0 0-.086-.112c-1.13-.433-1.47-1.144-1.574-1.53a.832.832 0 0 0-.01-.06c-.033-.15-.063-.293.14-.44.159-.113.413-.264.682-.423.397-.235.847-.501 1.097-.715a.171.171 0 0 0 .046-.152.171.171 0 0 0-.092-.128c-1.672-.562-2.514-1.806-2.514-3.7 0-1.222.563-2.327 1.545-3.032.672-.532 2.36-1.172 3.454-1.172h.063c1.126.028 1.76.263 2.638.589.476.177.927.248 1.558.248.932 0 1.339-.295 1.688-.635.02.043.067.176.088.483.023.313-.063.778-.302 1.109-.19.264-.632.456-1.049.456a3.452 3.452 0 0 1-.755-.112l-.104.036c-.034.049-.012.103.015.17l.016.043c.054.218.152.856.152 1.035 0 1.986-.783 2.852-1.629 3.493-.807.61-1.75.976-2.814 1.088-.022 0-.123.01-.326.027-.131.012-.294.027-.318.027l-.024.003c-.185.053-.664.28-.664.706 0 .353.217.791 1.253.87l.671.047c1.369.095 3.078.214 3.882.487 1.107.404 1.795 1.396 1.795 2.59 0 1.782-1.266 3.458-3.385 4.481a7.343 7.343 0 0 1-3.202.72zm-6.725-7.67c-.6-.08-1.036-.162-1.554-.405-.082-.053-.191-.296-.191-.377-.055-.837-.055-3.266-.055-4.858 0-1.295-.217-2.429-.763-3.239-.654-.917-1.58-1.457-2.78-1.457-1.064 0-2.482.729-3.654 1.727-.027.027-.207.198-.203-.067.004-.266.045-.806.07-1.146.024-.34-.18-.5-.18-.5-.763.377-2.912.889-3.706.971-.58.112-.727.67-.109.863 0 .002.006.003.01.004.646.194 1.082.403 1.407.617.245.19.218.46.218.675.027 1.808.027 4.588-.055 6.1-.027.593-.19.809-.627.917l.04-.014a8.61 8.61 0 0 1-1.009.19c-.136.134-.136.917 0 1.079.273 0 1.663-.081 2.808-.081 1.581 0 2.4.08 2.808.08.164-.188.218-.917.11-1.079a5.796 5.796 0 0 1-1.119-.162c-.436-.108-.545-.324-.572-.81-.054-1.268-.054-3.966-.054-5.802 0-.512.136-.755.3-.89.544-.486 1.444-.81 2.235-.81.763 0 1.281.243 1.663.567.518.432.709 1.052.764 1.511.109 1.026.081 3.077.081 4.858 0 .972-.081 1.214-.436 1.322-.164.081-.6.162-1.118.216-.163.162-.109.918 0 1.08.71 0 1.527-.081 2.726-.081 1.5 0 2.454.08 2.836.08.163-.188.218-.89.11-1.079m66.287-1.331h.462c.373 0 .514-.13.514-.469 0-.343-.136-.456-.556-.456h-.42v.925zm.982 1.452l-.544-1.174h-.438v1.174h-.32v-2.668h.788c.585 0 .828.261.828.747 0 .391-.184.64-.526.712l.561 1.21h-.349zm-.514-3.255a1.91 1.91 0 0 0-1.923 1.927 1.91 1.91 0 0 0 1.917 1.915c1.059 0 1.91-.854 1.91-1.915 0-1.085-.827-1.927-1.904-1.927zm-.006 4.032a2.083 2.083 0 0 1-2.106-2.11 2.08 2.08 0 0 1 2.112-2.111c1.16 0 2.1.93 2.1 2.08 0 1.204-.923 2.141-2.106 2.141z" fill="#FFF"/></g></svg>