<svg width="135" height="38" viewBox="0 0 135 38" xmlns="http://www.w3.org/2000/svg" xmlns:xlink="http://www.w3.org/1999/xlink"><title>node js</title><defs><path id="a" d="M53.157.073H0V38.15h106.315V.073H53.157z"/></defs><g fill="none" fill-rule="evenodd"><path d="M124.154 13.446c-.33 0-.648.068-.93.227l-8.949 5.163a1.88 1.88 0 0 0-.93 1.632v10.308c0 .668.35 1.298.93 1.633l2.336 1.348c1.136.558 1.555.55 2.072.55 1.68 0 2.64-1.02 2.64-2.79V21.343c0-.146-.124-.247-.265-.247h-1.121c-.144 0-.266.101-.266.247v10.174c0 .785-.819 1.574-2.148.91l-2.431-1.423c-.086-.047-.152-.13-.152-.228V20.468a.3.3 0 0 1 .152-.246l8.928-5.145a.269.269 0 0 1 .268 0l8.927 5.145a.301.301 0 0 1 .153.246v10.308c0 .098-.05.2-.132.247l-8.948 5.144a.278.278 0 0 1-.268 0l-2.298-1.368a.242.242 0 0 0-.227 0c-.635.36-.755.403-1.35.608-.147.052-.37.131.076.38l3.002 1.767c.286.163.605.245.931.245.331 0 .646-.082.93-.245l8.949-5.145a1.89 1.89 0 0 0 .93-1.633V20.468c0-.67-.351-1.297-.93-1.632l-8.948-5.163a1.871 1.871 0 0 0-.93-.227" fill="#FFF"/><path d="M126.548 20.811c-2.549 0-4.066 1.083-4.066 2.885 0 1.955 1.506 2.491 3.952 2.733 2.925.287 3.154.716 3.154 1.292 0 .996-.797 1.423-2.68 1.423-2.364 0-2.885-.591-3.059-1.766-.02-.126-.117-.228-.246-.228h-1.159a.271.271 0 0 0-.266.267c0 1.504.819 3.283 4.73 3.283 2.833 0 4.465-1.11 4.465-3.057 0-1.927-1.32-2.446-4.066-2.808-2.774-.367-3.039-.547-3.039-1.197 0-.535.224-1.252 2.28-1.252 1.836 0 2.514.396 2.793 1.632.024.117.126.21.247.21h1.158c.071 0 .141-.044.19-.097.049-.053.083-.115.076-.188-.18-2.13-1.6-3.132-4.464-3.132" fill="#FFF"/><g transform="translate(0 -.142)"><mask id="b" fill="#fff"><use xlink:href="#a"/></mask><path d="M67.406 22.016c.05 0 .108.012.153.037l3.248 1.88c.088.05.152.145.152.247v3.758a.29.29 0 0 1-.152.247l-3.248 1.88a.295.295 0 0 1-.286 0l-3.249-1.88a.295.295 0 0 1-.151-.247V24.18c0-.102.064-.197.151-.247l3.249-1.879a.248.248 0 0 1 .133-.038zm28.345-8.161a1.12 1.12 0 0 0-.569.15l-9.481 5.468a1.134 1.134 0 0 0-.57.987v10.933c0 .41.233.784.59.987l9.404 5.353c.347.198.77.213 1.12.019l5.7-3.17a.579.579 0 0 0 .304-.495.564.564 0 0 0-.285-.494l-9.537-5.466a.61.61 0 0 1-.304-.511v-3.417c0-.205.127-.392.304-.494l2.964-1.708a.563.563 0 0 1 .57 0l2.963 1.708c.177.102.285.29.285.494v2.696c0 .204.108.39.286.492a.563.563 0 0 0 .57 0l5.68-3.302c.352-.205.57-.58.57-.988V20.46c0-.408-.216-.784-.57-.987l-9.423-5.467a1.145 1.145 0 0 0-.57-.152zm-85.189-.133c-.18.006-.35.037-.512.133L.57 19.32c-.352.204-.57.575-.57.987L.02 34.98c0 .204.105.393.283.493a.556.556 0 0 0 .571 0l5.624-3.227c.356-.212.589-.58.589-.987v-6.853c0-.408.214-.784.57-.987l2.393-1.385a1.132 1.132 0 0 1 1.14 0l2.394 1.385c.354.203.57.58.57.987v6.853c0 .407.235.777.59.987l5.622 3.227a.573.573 0 0 0 .856-.493l.019-14.673c0-.412-.215-.783-.571-.987l-9.48-5.466a1.034 1.034 0 0 0-.513-.133h-.115zM71.548.072a.574.574 0 0 0-.57.57v14.522c0 .141-.067.27-.19.341a.396.396 0 0 1-.4 0l-2.374-1.367a1.143 1.143 0 0 0-1.14 0l-9.48 5.467c-.354.204-.57.597-.57 1.005v10.933c0 .411.216.784.57.99l9.48 5.466c.355.203.785.203 1.14 0l9.48-5.467c.354-.205.57-.578.57-.989V4.287c0-.414-.226-.804-.588-1.006L71.833.13a.563.563 0 0 0-.285-.058z" fill="#FFF" mask="url(#b)"/></g><path d="M39.042 13.654c-.198 0-.393.05-.57.152l-9.48 5.449c-.354.203-.57.596-.57 1.005v10.933c0 .409.216.783.57.987l9.48 5.468c.354.203.785.203 1.139 0l9.48-5.468c.354-.204.57-.578.57-.987V20.26c0-.41-.215-.802-.57-1.005l-9.48-5.449a1.127 1.127 0 0 0-.569-.152m56.691 9.757c-.037 0-.08 0-.114.02l-1.825 1.062a.218.218 0 0 0-.113.19v2.088c0 .078.045.151.113.188l1.825 1.045c.067.04.14.04.209 0l1.823-1.045a.216.216 0 0 0 .114-.188v-2.088a.22.22 0 0 0-.114-.19l-1.823-1.062c-.035-.02-.058-.02-.095-.02" fill="#FFF"/></g></svg>