<svg width="56" height="60" viewBox="0 0 56 60" xmlns="http://www.w3.org/2000/svg"><title>phonegap</title><g fill="#FFF" fill-rule="evenodd"><path d="M47.87 45.786l-16 1.64s-4.657.705-4.762-4.902c-.078-4.132-1-27.797-1-27.797s-.321-4.34 4.472-3.982c4.895.36 16.62 1.242 16.62 1.242s3.138.742 3.275 4.284c.148 3.853 1.504 25.24 1.504 25.24s.352 3.516-4.109 4.275m4.814-37.193c-.18-4.644-4.3-5.617-4.3-5.617S34.103.844 27.844.07c-6.257-.776-5.867 5.23-5.867 5.23s1.42 43.783 1.569 49.206c.165 6.462 6.253 5.422 6.253 5.422l21.518-3.687c3.912-.774 4.105-5.615 4.105-5.615s-2.54-36.964-2.74-42.032c-.18-4.644.2 5.068 0 0M8.705 39.406l-2.957.208s-2.981.4-3.05-2.832c-.048-2.381-.347-15.9-.347-15.9s-.206-2.501 2.86-2.297c.776.048 1.88.12 3.097.19-.044-2.24-.078-4.2-.106-5.691a159.298 159.298 0 0 1-4.395-.38C-.245 12.261.003 15.631.003 15.631s.488 24.792.58 27.832c.11 3.624 4.049 3.037 4.049 3.037l4.203-.447c-.035-1.797-.083-4.09-.13-6.647M20.46 16.871a3.513 3.513 0 0 0-.149-.862c-1.293-.104-4.542-.943-5.584.148-.66.687-.386 2.133-.371 2.953l2.356.134s2.01.425 2.096 2.464c.093 2.224.079 14.68.079 14.68s.227 2.03-2.624 2.462l-1.494.11.019 1.061c.062 3.553 3.876 2.415 6.27 2.185.204-3.767-.162-7.65-.244-11.418-.104-4.638-.142-9.284-.354-13.917-.016-.317.128 2.836 0 0"/><path d="M21.696 43.662l-4.31.412s-4.019.57-4.105-4.017c-.061-3.386-.466-22.574-.466-22.574s-.28-3.547 3.845-3.264c1.06.072 2.517.191 4.105.316l-.263-8.08a369.71 369.71 0 0 1-5.733-.595c-5.451-.612-5.108 4.162-5.108 4.162s.648 35.199.776 39.5c.146 5.14 5.451 4.316 5.451 4.316l6.1-.774c-.06-2.003-.163-5.364-.292-9.402m8.771-31.422c-.763-.06-1.69-.011-2.257.58-.596.62-.607 1.5-.574 2.296 2.164.185 3.733.322 3.733.322s2.7.603 2.823 3.503c.127 3.154.9 20.29.9 20.29s.302 2.881-3.538 3.503l-2.907.277c.385 4.5 6.264 2.6 9.27 2.292-.31-6.77-1.268-27.703-1.483-32.619a912.911 912.911 0 0 0-5.967-.444"/></g></svg>