<svg width="146" height="39" viewBox="0 0 146 39" xmlns="http://www.w3.org/2000/svg" xmlns:xlink="http://www.w3.org/1999/xlink"><title>python</title><defs><path id="a" d="M0 .237v27.92h27.201V.237H0z"/></defs><g fill="none" fill-rule="evenodd"><path d="M62.562 19.915c0 2.486-.574 4.55-1.726 6.19-1.288 1.857-3.07 2.813-5.347 2.866-1.715.056-3.485-.49-5.305-1.637v10.614l-2.947-1.068V13.32c.485-.602 1.106-1.12 1.858-1.558 1.753-1.04 3.885-1.574 6.39-1.599l.042.042c2.29-.029 4.058.928 5.297 2.866 1.157 1.78 1.738 4.058 1.738 6.844m-3.387-.202c0-4.893-1.371-7.405-4.116-7.542a7.646 7.646 0 0 0-3.199.532c-.826.303-1.384.601-1.676.902v11.678c1.756 1.121 3.314 1.642 4.676 1.56 2.875-.195 4.315-2.57 4.315-7.13m21.382 7.169c0 3.334-.326 5.643-.984 6.927-.66 1.282-1.917 2.308-3.771 3.07-1.505.604-3.133.932-4.88.987l-.487-1.886c1.776-.246 3.027-.492 3.752-.737 1.427-.491 2.406-1.244 2.943-2.253.433-.823.645-2.39.645-4.712v-.78a14.919 14.919 0 0 1-6.33 1.393c-1.45 0-2.729-.462-3.83-1.392-1.238-1.012-1.858-2.296-1.858-3.852V11.189l2.946-1.026v12.54c0 1.338.423 2.37 1.274 3.095.853.724 1.954 1.07 3.303 1.044 1.351-.03 2.797-.561 4.333-1.598v-14.63h2.944v16.268zm11.498 1.926c-.35.03-.674.042-.971.042-1.666 0-2.965-.402-3.89-1.211-.925-.81-1.389-1.926-1.389-3.351V12.497h-2.017v-1.881h2.017V5.615l2.94-1.066v6.067h3.31v1.88h-3.31v11.709c0 1.124.297 1.92.89 2.386.51.384 1.317.603 2.42.658v1.559zm17.829-.245h-2.944V17.008c0-1.175-.272-2.188-.81-3.033-.622-.957-1.483-1.434-2.593-1.434-1.35 0-3.036.723-5.065 2.171v13.85H95.53V.945L98.472 0v12.58c1.883-1.393 3.938-2.09 6.172-2.09 1.56 0 2.82.534 3.788 1.598.969 1.065 1.452 2.392 1.452 3.976v12.498zm18.876-9.303c0 2.676-.673 4.903-2.017 6.683-1.476 1.99-3.519 2.989-6.125 2.989-2.584 0-4.6-.998-6.051-2.99-1.32-1.78-1.976-4.006-1.976-6.681 0-2.515.713-4.631 2.136-6.354 1.505-1.828 3.482-2.744 5.93-2.744 2.443 0 4.434.916 5.97 2.744 1.421 1.723 2.133 3.839 2.133 6.354m-3.222-.02c0-1.878-.353-3.432-1.053-4.66-.828-1.497-2.122-2.286-3.867-2.368-3.23.19-4.84 2.542-4.84 7.048 0 2.067.333 3.794 1.01 5.179.864 1.764 2.16 2.635 3.886 2.606 3.242-.026 4.864-2.626 4.864-7.805m20.106 9.322h-2.945v-12.21c0-1.34-.397-2.385-1.19-3.139-.791-.75-1.847-1.112-3.167-1.084-1.397.026-2.729.493-3.991 1.393v15.04h-2.944v-15.41c1.695-1.255 3.255-2.074 4.677-2.457 1.344-.357 2.53-.532 3.55-.532.7 0 1.358.068 1.975.206 1.16.272 2.1.777 2.825 1.516.81.818 1.21 1.8 1.21 2.95v13.726z" fill="#FFF"/><g transform="translate(0 .817)"><mask id="b" fill="#fff"><use xlink:href="#a"/></mask><path d="M13.36 2.999c.914 0 1.662.772 1.662 1.723 0 .945-.748 1.71-1.662 1.71-.92 0-1.663-.764-1.663-1.71 0-.951.744-1.723 1.663-1.723M18.153.238a24.89 24.89 0 0 0-4.235.366c-3.751.675-4.433 2.084-4.433 4.683v3.436h8.864v1.143H6.161c-2.578 0-4.833 1.574-5.537 4.567-.813 3.432-.851 5.574 0 9.157.631 2.667 2.134 4.567 4.708 4.567H8.38V24.04c0-2.973 2.532-5.597 5.538-5.597h8.852c2.463 0 4.431-2.061 4.431-4.576v-8.58c0-2.44-2.027-4.274-4.431-4.683a27.29 27.29 0 0 0-4.617-.366" fill="#FFF" mask="url(#b)"/></g><path d="M23.328 32.407c.919 0 1.662.764 1.662 1.712 0 .95-.743 1.722-1.662 1.722-.914 0-1.664-.773-1.664-1.722 0-.948.75-1.712 1.664-1.712zm4.98-21.725v4.001c0 3.101-2.588 5.712-5.538 5.712h-8.852c-2.425 0-4.433 2.11-4.433 4.578v8.577c0 2.442 2.09 3.878 4.433 4.58 2.805.838 5.495.99 8.852 0 2.23-.659 4.43-1.98 4.43-4.58v-3.433h-8.85v-1.144h13.285c2.575 0 3.533-1.827 4.43-4.567.924-2.822.887-5.537 0-9.156-.636-2.607-1.853-4.568-4.43-4.568h-3.326z" fill="#FFF"/></g></svg>