<svg width="60" height="53" viewBox="0 0 60 53" xmlns="http://www.w3.org/2000/svg"><title>react</title><g fill="#FFF" fill-rule="evenodd"><path d="M47.449 33.101c-.325.106-.659.21-.999.307-.754-2.344-1.77-4.837-3.014-7.412 1.187-2.515 2.164-4.976 2.896-7.305.609.173 1.2.354 1.769.548 5.508 1.864 8.866 4.62 8.866 6.744 0 2.263-3.628 5.198-9.518 7.118m-2.158 12.485c-.355 1.88-1.067 3.131-1.95 3.633-1.874 1.068-5.885-.319-10.21-3.979-.496-.42-.995-.868-1.496-1.342 1.676-1.804 3.352-3.9 4.988-6.229 2.878-.25 5.595-.66 8.059-1.22.12.48.23.953.324 1.415.594 2.958.68 5.632.285 7.722m-15.437-3.479a55.963 55.963 0 0 1-3.58-4.212c1.138.043 2.3.066 3.48.066 1.213 0 2.412-.027 3.593-.079a53.475 53.475 0 0 1-3.493 4.225m-2.905 2.827c-2.308 1.984-4.622 3.392-6.66 4.101-1.834.636-3.293.654-4.175.154-1.877-1.064-2.658-5.174-1.593-10.687.121-.63.268-1.279.434-1.942 2.438.53 5.136.91 8.02 1.141 1.647 2.28 3.371 4.373 5.11 6.206-.38.361-.76.704-1.136 1.027M13.173 33.54a29.828 29.828 0 0 1-1.47-.452c-2.901-.975-5.297-2.242-6.94-3.627-1.476-1.242-2.22-2.476-2.22-3.477 0-2.13 3.23-4.849 8.617-6.696a35.197 35.197 0 0 1 2.05-.633c.744 2.381 1.721 4.872 2.9 7.39-1.194 2.555-2.186 5.085-2.937 7.495m2.902-30.636c1.991-1.134 6.394.482 11.033 4.534.297.26.595.53.893.81-1.729 1.825-3.437 3.903-5.069 6.17-2.8.254-5.479.663-7.942 1.213a36.297 36.297 0 0 1-.409-1.803c-1.117-5.62-.375-9.86 1.494-10.924m13.709 7.132a53.735 53.735 0 0 1 3.5 4.156 74.832 74.832 0 0 0-3.53-.08c-1.175 0-2.346.025-3.502.08a54.27 54.27 0 0 1 3.532-4.156m12.179 13.07a84.52 84.52 0 0 0-3.521-5.972c1.899.236 3.718.55 5.426.933a52.347 52.347 0 0 1-1.905 5.038m-1.702 8.89a80.961 80.961 0 0 0 1.726-3.102 52.523 52.523 0 0 1 1.998 5.147 54.35 54.35 0 0 1-5.55.931 88.18 88.18 0 0 0 1.826-2.977m-22.693-8.89a54.564 54.564 0 0 1-1.89-5.065 58.864 58.864 0 0 1 5.394-.91 73.709 73.709 0 0 0-3.504 5.975m.003 5.88a72.918 72.918 0 0 0 1.687 3.027h.001a72.405 72.405 0 0 0 1.867 3.005 54.829 54.829 0 0 1-5.484-.867 55.783 55.783 0 0 1 1.93-5.166m1.348-2.94a70.956 70.956 0 0 1 2.53-4.717v.001a69.138 69.138 0 0 1 2.886-4.517 73 73 0 0 1 10.848.002 74.573 74.573 0 0 1 2.866 4.501 81.766 81.766 0 0 1 2.567 4.695 75.518 75.518 0 0 1-2.557 4.737 82.302 82.302 0 0 1-2.855 4.53 78.008 78.008 0 0 1-5.45.188 83.83 83.83 0 0 1-5.389-.168 71.183 71.183 0 0 1-2.908-4.537 69.705 69.705 0 0 1-2.538-4.715m14.013-19.03c4.393-3.76 8.5-5.244 10.37-4.184 1.994 1.13 2.768 5.69 1.516 11.666-.08.38-.17.767-.268 1.163-2.468-.562-5.15-.979-7.956-1.237-1.635-2.29-3.33-4.372-5.03-6.174.457-.432.912-.845 1.368-1.235m15.996 9.864a38.752 38.752 0 0 0-1.916-.593c.109-.435.207-.864.296-1.285C48.759 8.075 47.81 2.5 44.573.662c-3.104-1.76-8.182.075-13.309 4.463a41.49 41.49 0 0 0-1.482 1.338 34.633 34.633 0 0 0-.986-.896C23.422.875 18.036-1.1 14.801.74c-3.1 1.765-4.02 7.008-2.714 13.568.126.634.273 1.28.439 1.937a40.34 40.34 0 0 0-2.202.682C4.024 19.086 0 22.471 0 25.983c0 3.626 4.32 7.263 10.882 9.47.517.173 1.055.338 1.608.495a37.3 37.3 0 0 0-.466 2.087c-1.245 6.447-.274 11.566 2.82 13.32 3.196 1.811 8.557-.05 13.778-4.538.413-.356.827-.732 1.242-1.126a39.88 39.88 0 0 0 1.609 1.443c5.058 4.278 10.052 6.007 13.144 4.25 3.19-1.817 4.228-7.317 2.882-14.007a33.162 33.162 0 0 0-.357-1.563c.376-.109.746-.223 1.105-.34 6.823-2.223 11.262-5.816 11.262-9.49 0-3.526-4.153-6.933-10.58-9.109"/><path d="M29.754 31.209c2.935 0 5.315-2.34 5.315-5.226 0-2.884-2.38-5.225-5.315-5.225-2.933 0-5.314 2.34-5.314 5.225 0 2.886 2.38 5.226 5.314 5.226"/></g></svg>