<svg width="70" height="58" viewBox="0 0 70 58" xmlns="http://www.w3.org/2000/svg"><title>ic_delivering</title><g fill="#5CA0DF" fill-rule="evenodd"><path d="M66.882 42.394H2.229V5.608c0-1.843 1.5-3.344 3.343-3.344h57.966a3.348 3.348 0 0 1 3.344 3.344v36.786zm0 3.343c0 1.844-1.5 3.343-3.344 3.343H5.572a3.347 3.347 0 0 1-3.343-3.343v-1.114h64.653v1.114zM22.295 55.77h24.523v-4.46H22.295v4.46zM63.538.035H5.572A5.58 5.58 0 0 0 0 5.608v40.129c0 3.075 2.5 5.573 5.572 5.573h14.493v4.46h-4.457V58h37.898v-2.23h-4.458v-4.46h14.49a5.578 5.578 0 0 0 5.573-5.573V5.607A5.58 5.58 0 0 0 63.538.036z"/><path d="M6.689 37.935h55.733V15.64H6.689v22.295zm0-24.524h55.733V6.722H6.689v6.689zm-2.23 26.752h60.194V4.492H4.459v35.671z"/><path d="M8.917 11.18h2.23V8.951h-2.23zm4.459 0h2.231V8.951h-2.231zm4.458 0h2.23V8.951h-2.23zm-4.458 11.147v1.115l1.285 7.804h2.749l1.538-3.08 1.543 3.08h2.746l1.271-7.62.016-1.299h-2.23v1.023l-.814 4.888-2.532-5.057-2.529 5.057-.812-4.888v-1.023zm31.212 0v1.115l1.286 7.804h2.746l1.542-3.08 1.54 3.08h2.746l1.272-7.62.016-1.299h-2.23v1.023l-.814 4.888-2.53-5.057-2.53 5.057-.815-4.888v-1.023zm-15.606 0v1.115l1.285 7.804h2.75l1.54-3.08 1.538 3.08h2.748l1.271-7.62.013-1.299H37.9v1.023l-.814 4.888-2.53-5.057-2.533 5.057-.812-4.888v-1.023zM8.917 20.099h51.276V17.87H8.917zm0 15.606h51.276v-2.229H8.917zm16.721-4.459h2.23v-2.23h-2.23zm15.605 0h2.231v-2.23h-2.231z"/></g></svg>