<svg width="64" height="71" viewBox="0 0 64 71" xmlns="http://www.w3.org/2000/svg"><title>ic_feedback</title><g fill="#5CA0DF" fill-rule="evenodd"><path d="M23.13 23.144c-4.528 0-8.214-3.685-8.214-8.213 0-4.53 3.686-8.216 8.214-8.216 4.53 0 8.214 3.685 8.214 8.216 0 4.528-3.683 8.213-8.214 8.213m0-18.863c-5.87 0-10.646 4.778-10.646 10.65 0 5.87 4.777 10.648 10.646 10.648 5.872 0 10.649-4.779 10.649-10.648 0-5.872-4.777-10.65-10.65-10.65"/><path d="M19.814 13.538a1.217 1.217 0 1 0-1.72-1.723 1.217 1.217 0 0 0 1.72 1.723m7.492-2.078a1.224 1.224 0 0 0-1.218 1.218c0 .32.13.633.36.86.226.227.539.358.858.358.32 0 .635-.132.862-.358.225-.227.357-.54.357-.86 0-.322-.132-.635-.357-.863a1.238 1.238 0 0 0-.862-.355m-2.065 4.875a2.986 2.986 0 0 1-4.22 0 1.218 1.218 0 0 0-1.723 1.72 5.405 5.405 0 0 0 3.832 1.586 5.408 5.408 0 0 0 3.834-1.585 1.218 1.218 0 0 0-1.723-1.721"/><path d="M15.827 27.416c-.203 0-.4.049-.578.143l-8.917 4.8 1.787-3.124a1.218 1.218 0 0 0-1.059-1.819H6.055a3.627 3.627 0 0 1-3.622-3.622V6.058a3.627 3.627 0 0 1 3.622-3.621h34.151a3.625 3.625 0 0 1 3.622 3.62v17.737a3.626 3.626 0 0 1-3.622 3.622H15.827zm30.436-3.622V6.058A6.065 6.065 0 0 0 40.206 0H6.056A6.063 6.063 0 0 0 0 6.058v17.736a6.067 6.067 0 0 0 5.014 5.966l-2.907 5.085a1.216 1.216 0 0 0 .188 1.454 1.211 1.211 0 0 0 1.446.222l12.392-6.672h24.073a6.064 6.064 0 0 0 6.057-6.055z"/><path d="M60.71 57.196a3.627 3.627 0 0 1-3.623 3.62h-1.004c-.434 0-.834.23-1.053.605-.217.377-.218.84-.003 1.216l1.786 3.125-8.917-4.8a1.23 1.23 0 0 0-.581-.146H22.938a3.625 3.625 0 0 1-3.622-3.62V39.458a3.625 3.625 0 0 1 3.622-3.62h34.149a3.626 3.626 0 0 1 3.623 3.62v17.738zm-3.623-23.794H22.938a6.064 6.064 0 0 0-6.058 6.056v17.738a6.064 6.064 0 0 0 6.058 6.055h24.073l12.391 6.672c.181.098.38.146.576.144a1.215 1.215 0 0 0 1.058-1.818l-2.905-5.087a6.064 6.064 0 0 0 5.013-5.966V39.458a6.063 6.063 0 0 0-6.057-6.056z"/><path d="M40.013 56.897c-4.53 0-8.214-3.686-8.214-8.214 0-4.529 3.685-8.215 8.214-8.215 4.528 0 8.215 3.686 8.215 8.215 0 4.53-3.687 8.214-8.215 8.214m0-18.863c-5.872 0-10.65 4.777-10.65 10.65 0 5.871 4.778 10.65 10.65 10.65 5.872 0 10.649-4.779 10.649-10.65 0-5.873-4.777-10.65-10.65-10.65"/><path d="M35.837 47.647c.32 0 .635-.13.86-.356.226-.227.357-.54.357-.86a1.218 1.218 0 1 0-1.217 1.217m8.351-2.435a1.218 1.218 0 1 0 .862 2.078 1.224 1.224 0 0 0 0-1.722 1.229 1.229 0 0 0-.861-.356m-4.176 7.62a2.8 2.8 0 0 1-2.52-1.582h5.04a2.802 2.802 0 0 1-2.52 1.582m4.018-4.017h-8.036c-.671 0-1.216.545-1.216 1.218a5.24 5.24 0 0 0 5.234 5.235 5.24 5.24 0 0 0 5.234-5.235c0-.673-.545-1.218-1.216-1.218"/></g></svg>