<svg width="66" height="61" viewBox="0 0 66 61" xmlns="http://www.w3.org/2000/svg"><title>ic_idea</title><g fill="#5CA0DF" fill-rule="evenodd"><path d="M32.201 14.106a6.102 6.102 0 0 1 6.096 6.095 6.103 6.103 0 0 1-6.096 6.096 6.104 6.104 0 0 1-6.096-6.096 6.103 6.103 0 0 1 6.096-6.095zm0 14.299c4.523 0 8.202-3.68 8.202-8.203 0-4.522-3.679-8.202-8.202-8.202C27.679 12 24 15.68 24 20.202c0 4.523 3.679 8.203 8.201 8.203zM32.657 31a12.442 12.442 0 0 0-11.58 7.808 1.052 1.052 0 1 0 1.953.79 10.346 10.346 0 0 1 9.627-6.493c4.253 0 8.03 2.549 9.628 6.493a1.054 1.054 0 0 0 1.953-.79A12.445 12.445 0 0 0 32.657 31m-3.605 18a1.052 1.052 0 1 0 0 2.105h6.27a1.052 1.052 0 1 0 0-2.105h-6.27z"/><path d="M2.107 58.807h61.09v-3.548H2.107v3.548zM6.34 45.278h52.623l3.641 7.874H2.701l3.639-7.874zm.381-32.985a2.798 2.798 0 0 1 2.794-2.795h46.274a2.798 2.798 0 0 1 2.795 2.795v30.881H6.721V12.293zm21.318-4.902h9.225V2.106h-9.225v5.285zm37.262 46.778l-.001-.04a.94.94 0 0 0-.011-.091l-.004-.028a1.048 1.048 0 0 0-.078-.246l-4.517-9.769V12.293a4.906 4.906 0 0 0-4.901-4.901H39.371v-6.34C39.371.471 38.899 0 38.319 0H26.987c-.583 0-1.053.471-1.053 1.052v6.34H9.515a4.907 4.907 0 0 0-4.902 4.901v31.702L.098 53.764l-.004.01a1.012 1.012 0 0 0-.074.236c-.003.008-.004.019-.005.029a.885.885 0 0 0-.011.09l-.002.041-.002.036v5.651c0 .584.471 1.055 1.053 1.055H64.25c.582 0 1.054-.471 1.054-1.055v-5.651l-.003-.037z"/><path d="M31 4.998a1 1 0 1 0 2-.002 1 1 0 0 0-2 .002z"/></g></svg>