<svg width="103" height="103" viewBox="0 0 103 103" xmlns="http://www.w3.org/2000/svg"><title>ic_taxi</title><g fill="none" fill-rule="evenodd"><path d="M1 51.153C1 23.455 23.454 1 51.153 1c27.699 0 50.153 22.454 50.153 50.152 0 27.699-22.454 50.153-50.153 50.153C23.454 101.306 1 78.852 1 51.153z" stroke="#5CA0DF" stroke-width="2"/><path d="M33.208 62.871a1.44 1.44 0 0 1 0-2.879c.793 0 1.439.646 1.439 1.44 0 .793-.646 1.44-1.44 1.44m0-5.029a3.593 3.593 0 0 0-3.588 3.59 3.591 3.591 0 0 0 3.589 3.586 3.591 3.591 0 0 0 3.589-3.587 3.593 3.593 0 0 0-3.59-3.589m37.518 5.028a1.44 1.44 0 0 1 0-2.879 1.44 1.44 0 0 1 0 2.879m0-5.028a3.593 3.593 0 0 0-3.589 3.59 3.591 3.591 0 0 0 3.59 3.586 3.59 3.59 0 0 0 3.588-3.587 3.593 3.593 0 0 0-3.589-3.589" fill="#5CA0DF"/><path d="M81.626 51.302l-1.07 5.998h-3.938a7.197 7.197 0 0 0-5.892-3.072A7.201 7.201 0 0 0 64.83 57.3H45.701a1.075 1.075 0 0 0 0 2.148h18.1c-.12.422-.205.858-.248 1.307H40.377c-.342-3.655-3.425-6.527-7.17-6.527a7.198 7.198 0 0 0-5.893 3.072h-3.378v-7.018c0-1.373.819-2.599 2.087-3.125a5.492 5.492 0 0 0 3.216-3.642l.79-2.864a9.032 9.032 0 0 1 8.686-6.619h17.027c4.387 0 8.266 2.795 9.654 6.957l1.56 4.682c.138.411.508.7.941.733l10.531.778a3.475 3.475 0 0 1 2.514 1.35c.619.795.86 1.78.684 2.77zm-1.688 9.453h-2.043a7.07 7.07 0 0 0-.248-1.307h2.523l-.231 1.307zm-9.213 5.731a5.06 5.06 0 0 1-5.053-5.054 5.06 5.06 0 0 1 5.053-5.054 5.06 5.06 0 0 1 5.053 5.054 5.06 5.06 0 0 1-5.053 5.054zm-37.517 0a5.06 5.06 0 0 1-5.054-5.054 5.06 5.06 0 0 1 5.054-5.054 5.06 5.06 0 0 1 5.053 5.054 5.06 5.06 0 0 1-5.053 5.054zm-7.17-5.73h-2.102v-1.308h2.349a7.152 7.152 0 0 0-.247 1.307zm23.649-30.26l6.282-1.235v2.625c-.075 0-.15-.004-.227-.004h-6.055v-1.386zM82.64 47.213a5.672 5.672 0 0 0-4.055-2.175l-9.817-.726-1.335-4.002a12.303 12.303 0 0 0-9.314-8.197v-4.159a1.075 1.075 0 0 0-1.282-1.055l-8.434 1.657a1.075 1.075 0 0 0-.868 1.056v2.27h-8.822c-5.005 0-9.43 3.37-10.758 8.197l-.79 2.866a3.353 3.353 0 0 1-1.965 2.226 5.514 5.514 0 0 0-3.416 5.11v11.55c0 .592.482 1.075 1.075 1.075h3.297c.68 3.265 3.584 5.73 7.05 5.73 3.468 0 6.37-2.465 7.051-5.73h23.416c.681 3.265 3.583 5.73 7.051 5.73 3.467 0 6.37-2.465 7.052-5.73h3.06c.522 0 .968-.375 1.06-.887l1.846-10.338a5.676 5.676 0 0 0-1.102-4.468z" fill="#5CA0DF"/><path d="M52.879 44.256v-6.91h2.864a6.854 6.854 0 0 1 6.51 4.69l.739 2.22H52.879zm-2.15 0H37.462v-6.77a5.716 5.716 0 0 1 1.253-.14h12.013v6.91zm-15.416 0H32.47l.753-2.727a5.676 5.676 0 0 1 2.089-3.049v5.776zm28.98-2.9a9.003 9.003 0 0 0-8.55-6.16H38.714a7.865 7.865 0 0 0-7.565 5.763l-1.126 4.086a1.077 1.077 0 0 0 1.037 1.36h33.421a1.075 1.075 0 0 0 1.022-1.414l-1.212-3.635zM43.082 57.963c-.014-.03-.008-.018-.002-.002-.36-.86-1.63-.864-1.983.002-.17.415-.065.904.27 1.207.355.321.892.366 1.295.111a1.085 1.085 0 0 0 .42-1.318m-.419-6.617h2.611v-2.61h-2.611zm5.22 0h2.61v-2.61h-2.61zm2.611 2.61h2.61v-2.61h-2.61zm2.61-2.346h2.61V49h-2.61zm-7.831 2.346h2.61v-2.61h-2.61zm34.515-4.085a1.074 1.074 0 0 0-1.247.87l-.558 3.123a1.077 1.077 0 0 0 1.06 1.264c.51 0 .963-.365 1.057-.887l.557-3.123a1.075 1.075 0 0 0-.87-1.247" fill="#5CA0DF"/></g></svg>