<svg width="101" height="101" viewBox="0 0 101 101" xmlns="http://www.w3.org/2000/svg" xmlns:xlink="http://www.w3.org/1999/xlink"><title>ic_travel</title><defs><path id="a" d="M0 99.326h99.325V0H0z"/></defs><g transform="translate(1 1)" fill="none" fill-rule="evenodd"><path d="M.97 49.663C.97 22.772 22.77.972 49.663.972c26.893 0 48.692 21.8 48.692 48.69 0 26.893-21.799 48.693-48.692 48.693-26.891 0-48.691-21.8-48.691-48.692z" stroke="#5CA0DF" stroke-width="2"/><path d="M23.462 41.459c-.23.621-.444 1.258-.63 1.894l1.76.515c.175-.593.373-1.189.588-1.768l-1.718-.641zm1.66-3.632c-.318.582-.62 1.183-.894 1.786l1.67.762c.255-.563.536-1.124.835-1.669l-1.611-.88zm-1.514 15.268l-1.83.13c.046.661.117 1.328.211 1.985l1.817-.26a26.32 26.32 0 0 1-.198-1.855m.527 3.69l-1.794.388c.141.648.306 1.298.493 1.935l1.761-.517a25.476 25.476 0 0 1-.46-1.806m-2.36-7.547a28.857 28.857 0 0 0-.072 1.988v.004l1.836-.004c0-.618.024-1.245.067-1.86l-1.831-.128zm5.508-14.768c-.397.53-.781 1.08-1.14 1.64l1.543.992c.335-.52.695-1.035 1.066-1.532l-1.469-1.1zm20.383-11.13a27.87 27.87 0 0 0-1.983.212l.258 1.814a26.31 26.31 0 0 1 1.856-.197l-.13-1.83zm-7.777 1.686c-.62.232-1.238.488-1.841.765l.762 1.668c.562-.258 1.14-.498 1.72-.715l-.641-1.718zm3.828-1.124a28.2 28.2 0 0 0-1.933.494l.516 1.76c.593-.173 1.2-.33 1.807-.46l-.39-1.794zM25.183 60.361l-1.719.641c.232.62.488 1.24.764 1.842l1.669-.763a27.287 27.287 0 0 1-.714-1.72m7.727-31.518c-.528.397-1.052.818-1.552 1.252l1.202 1.388c.468-.407.956-.8 1.453-1.171l-1.102-1.469zm3.354-2.158c-.58.318-1.157.66-1.714 1.02l.993 1.541c.52-.336 1.06-.654 1.602-.952l-.88-1.609zm-6.367 4.771c-.467.469-.925.96-1.359 1.461l1.386 1.201a26.85 26.85 0 0 1 1.272-1.365l-1.299-1.297zM22.34 45.287a28.5 28.5 0 0 0-.352 1.965l1.816.258c.088-.612.198-1.23.33-1.835l-1.794-.388zm47.065 23.05c-.406.468-.832.927-1.273 1.365L69.43 71c.467-.467.925-.96 1.36-1.46l-1.386-1.203zm-2.636 2.637a27.14 27.14 0 0 1-1.453 1.17l1.102 1.469c.53-.398 1.05-.819 1.553-1.253l-1.202-1.386zm-2.983 2.234c-.521.336-1.06.658-1.602.952l.88 1.61a26.943 26.943 0 0 0 1.715-1.018l-.993-1.544zm7.856-7.854c-.336.52-.692 1.035-1.066 1.531l1.47 1.101a27.83 27.83 0 0 0 1.14-1.639l-1.544-.993zM75.79 51.23c0 .612-.023 1.248-.067 1.865l1.831.128c.046-.659.07-1.381.07-1.993h-1.835zM60.519 74.997c-.565.257-1.142.497-1.722.712l.641 1.72c.62-.23 1.24-.488 1.843-.765l-.762-1.667zm15.007-20.051a26.037 26.037 0 0 1-.328 1.836l1.792.388c.14-.648.257-1.309.352-1.964l-1.816-.26zm-2.092 7.135a28.49 28.49 0 0 1-.836 1.67l1.608.88c.318-.583.622-1.184.897-1.787l-1.669-.763zm1.303-3.494c-.175.596-.372 1.19-.587 1.77l1.719.641c.231-.62.442-1.258.627-1.893l-1.76-.518zM37.143 74.158l-.88 1.611c.583.318 1.184.62 1.786.895l.763-1.668a26.52 26.52 0 0 1-1.669-.838M26.732 63.746l-1.61.88c.318.581.66 1.159 1.02 1.715l1.541-.993c-.334-.52-.654-1.06-.951-1.602m2.018 3.133l-1.47 1.101c.396.529.818 1.051 1.253 1.551l1.386-1.2c-.406-.469-.8-.957-1.17-1.453m28.279 9.42c-.593.174-1.2.328-1.805.46l.388 1.793a26.56 26.56 0 0 0 1.932-.494l-.515-1.759zm-16.491-.587l-.64 1.719c.62.233 1.258.444 1.893.629l.516-1.76a25.843 25.843 0 0 1-1.769-.588m-9.347-6.014l-1.296 1.296c.468.469.959.926 1.459 1.362l1.204-1.386a27.326 27.326 0 0 1-1.366-1.272m2.818 2.443l-1.101 1.469c.53.398 1.081.78 1.64 1.139l.992-1.543a25.669 25.669 0 0 1-1.531-1.065m10.104 4.619l-.389 1.794c.649.139 1.31.258 1.965.352l.26-1.817a26.068 26.068 0 0 1-1.836-.329m9.272.328c-.61.087-1.235.153-1.854.197l.129 1.83a28.123 28.123 0 0 0 1.985-.21l-.26-1.817zm-3.72.299a26.496 26.496 0 0 1-1.862-.088l-.13 1.846c.66.046 1.33.096 1.992.096h.003l-.003-1.854z" fill="#5CA0DF"/><mask id="b" fill="#fff"><use xlink:href="#a"/></mask><path fill="#5CA0DF" mask="url(#b)" d="M50.69 25.79h2.935v-1.835H50.69z"/><path fill="#5CA0DF" mask="url(#b)" d="M59.694 21.141h-3.085l-2.432-2.433-1.299 1.299 1.136 1.134H51.29l-.755-2.245-1.74.586 1.178 3.494h8.977l1.007.979h-4l-3.17 4.382 1.484 1.076 2.624-3.624h7.587zm6.041 36.342v-4.508l-1.935-4.68h-4.174l-3.127-2.311.755-2.979 2.12-2.12-.852-3.403 4.05-.675c3.96 3.548 6.456 8.698 6.456 14.42 0 2.623-.524 5.125-1.474 7.408l-1.819-1.152zm-13.21 12.895v-1.181L49.19 65.85l-3.135-.787 1.573-4.645 4.041-3.979v-6.408l-2.29-4.326-6.045-2.965-4.617-4.493-2.947 3.984v4.106l-.7 5.302 1.689 1.26 2.802 2.59v2.17l-2.24 2.725-1.55 3.185v1.127a19.292 19.292 0 0 1-5.469-13.47c0-7.701 4.519-14.365 11.046-17.484l.875 1.752 4.529 2.235 3.939-1.289v-1.356h2.167l3.036-2.192a19.2 19.2 0 0 1 4.729 2.38l-4.363.725 1.081 4.324-1.742 1.744-1.178 4.663 4.598 3.402h3.553l1.328 3.21v5.15l2.864 1.814c-2.831 5.31-8.064 9.155-14.24 10.073zm-2.86.213a19.28 19.28 0 0 1-12.063-4.228v-2.37l1.274-2.61 2.52-3.068v-3.627l-3.428-3.17-.937-.704.571-4.355v-3.623l1.341-1.808 3.32 3.232 5.773 2.83 1.798 3.399v5.183l-3.803 3.746-2.352 6.944 4.571 1.144 2.44 2.449v.608a19.9 19.9 0 0 1-1.025.028zm0-38.727c1.356 0 2.68.141 3.957.407l-1.357.98h-3.41v1.86l-1.962.642-3.305-1.63-.547-1.092a19.274 19.274 0 0 1 6.625-1.167zm0-1.834c-11.688 0-21.198 9.51-21.198 21.197 0 11.689 9.51 21.198 21.198 21.198 11.69 0 21.198-9.51 21.198-21.198S61.355 30.03 49.665 30.03z"/><path d="M55.543 64.104h-2.529v-3.11h.001l.282-.565 1.088 1.144 2.115 1.481-.957 1.05zm.046-3.929l-2.771-2.908-1.638 3.297v5.376h5.175l2.907-3.194-3.673-2.57z" fill="#5CA0DF" mask="url(#b)"/></g></svg>